<svg width="16" height="16" viewBox="0 0 16 16" fill="none" xmlns="http://www.w3.org/2000/svg">
<path d="M4 6.66683V5.3335C4 3.12683 4.66667 1.3335 8 1.3335C11.3333 1.3335 12 3.12683 12 5.3335V6.66683" stroke="#73A9AD" stroke-linecap="round" stroke-linejoin="round"/>
<path d="M8.00016 12.3333C8.92064 12.3333 9.66683 11.5871 9.66683 10.6667C9.66683 9.74619 8.92064 9 8.00016 9C7.07969 9 6.3335 9.74619 6.3335 10.6667C6.3335 11.5871 7.07969 12.3333 8.00016 12.3333Z" stroke="#73A9AD" stroke-linecap="round" stroke-linejoin="round"/>
<path d="M11.3335 14.6665H4.66683C2.00016 14.6665 1.3335 13.9998 1.3335 11.3332V9.99984C1.3335 7.33317 2.00016 6.6665 4.66683 6.6665H11.3335C14.0002 6.6665 14.6668 7.33317 14.6668 9.99984V11.3332C14.6668 13.9998 14.0002 14.6665 11.3335 14.6665Z" stroke="#73A9AD" stroke-linecap="round" stroke-linejoin="round"/>
</svg>
