<svg width="312" height="305" viewBox="0 0 312 305" fill="none" xmlns="http://www.w3.org/2000/svg">
<g opacity="0.8">
<path d="M101.053 190.564C96.8937 194.27 91.8276 196.924 86.3334 198.306C85.0164 198.637 85.5749 200.592 86.8964 200.261C92.7411 198.79 98.1285 195.937 102.551 191.998C103.551 191.107 102.05 189.675 101.053 190.564Z" fill="#758D94"/>
<path d="M209.733 191.998C214.156 195.937 219.541 198.79 225.387 200.261C226.707 200.592 227.269 198.637 225.949 198.306C220.457 196.924 215.39 194.27 211.23 190.564C210.233 189.675 208.732 191.105 209.733 191.998Z" fill="#758D94"/>
<path d="M71.3108 175.859C65.0265 179.495 58.3304 182.297 51.369 184.161C47.8143 185.114 43.9133 185.989 40.2632 185.083C38.7701 184.711 37.071 183.86 36.6804 182.151C36.2833 180.417 37.6811 179.007 39.0053 178.255C40.1544 177.604 39.1302 175.772 37.98 176.425C35.5851 177.784 33.7816 180.595 34.9756 183.45C36.2231 186.435 39.4994 187.316 42.3356 187.51C45.8093 187.75 49.288 186.937 52.6238 186.012C55.8363 185.119 58.9984 184.029 62.0886 182.75C65.6057 181.294 69.027 179.604 72.3363 177.689C73.4798 177.027 72.4565 175.196 71.3108 175.859Z" fill="#758D94"/>
<path d="M95.5916 177.782C88.8811 183.147 81.4271 187.584 73.5218 190.914C72.307 191.425 72.8403 193.45 74.0738 192.93C82.3364 189.45 90.0456 184.868 97.06 179.261C98.1061 178.424 96.6281 176.954 95.5916 177.782Z" fill="#758D94"/>
<path d="M88.2726 144.103C79.6032 151.029 69.6513 156.44 58.9972 160.036C57.714 160.468 58.2664 162.434 59.563 161.997C70.5836 158.281 80.8118 152.705 89.7778 145.542C90.8303 144.701 89.3173 143.269 88.2726 144.103Z" fill="#758D94"/>
<path d="M63.0845 140.336C50.7761 146.883 37.3474 151.132 23.6346 152.761C19.7434 153.223 15.8332 153.474 11.918 153.528C10.5963 153.547 10.5925 155.705 11.918 155.686C25.9937 155.493 40.0252 152.669 53.1556 147.333C56.8899 145.815 60.5496 144.099 64.1219 142.2C65.3022 141.572 64.2631 139.709 63.0845 140.336Z" fill="#758D94"/>
<path d="M307.732 159.932C305.14 162.499 300.759 162.683 297.34 162.932C295.068 163.099 292.793 163.135 290.522 163.055L290.449 163.054C284.945 162.854 279.469 161.972 274.137 160.577C259.072 156.639 245.476 148.727 232.52 140.291C230.927 139.252 229.34 138.205 227.754 137.151C226.642 136.413 225.605 138.206 226.711 138.941C238.806 146.976 251.266 154.839 264.94 159.854L265.124 160.002C266.658 160.996 268.449 162.105 269.013 163.963C269.658 166.101 268.018 167.429 266.046 167.66C264.084 167.889 261.965 167.578 260.017 167.342C257.916 167.088 255.83 166.706 253.769 166.23C245.698 164.365 238.08 160.968 230.983 156.73C227.025 154.367 223.227 151.742 219.541 148.971C218.477 148.17 217.445 149.97 218.498 150.761C225.95 156.365 233.901 161.338 242.562 164.839C246.899 166.593 251.399 167.959 255.999 168.807L256.168 168.838C256.248 168.895 256.337 168.943 256.44 168.98C261.44 170.8 266.685 171.895 271.802 173.317C275.495 174.342 280.232 176.003 282.514 179.312C282.55 179.62 282.706 179.912 282.982 180.077C283.489 181.029 283.804 182.105 283.855 183.325C284.159 190.415 274.221 190.759 269.283 190.73C265 190.705 260.698 190.135 256.495 189.156C256.311 189.058 256.128 189.02 255.958 189.028C253.119 188.342 250.326 187.469 247.618 186.453C239.823 183.528 232.766 178.967 225.791 174.488C224.668 173.765 223.629 175.559 224.748 176.279C231.467 180.594 238.241 184.909 245.672 187.908C248.92 189.219 252.309 190.31 255.767 191.126C257.927 192.429 260.347 195.222 257.611 197.32C256.269 198.347 254.455 198.443 252.835 198.495C251.052 198.55 249.265 198.48 247.492 198.295C240.524 197.572 233.838 195.031 227.796 191.546C224.465 189.627 221.302 187.419 218.291 185.027C217.26 184.208 215.785 185.665 216.828 186.495C222.155 190.722 227.924 194.44 234.222 197C234.275 197.103 234.351 197.202 234.454 197.295C235.556 198.295 236.818 199.495 237.127 201.025C237.422 202.502 236.495 203.786 235.26 204.491C232.451 206.096 228.39 204.855 225.503 204.022C219.196 202.202 213.444 198.776 208.418 194.592C207.4 193.746 205.929 195.203 206.955 196.058C211.069 199.482 215.596 202.411 220.535 204.464L220.513 204.619C220.296 207.394 216.298 206.977 214.444 206.716C211.981 206.371 209.57 205.692 207.246 204.82C204.015 203.606 200.954 201.987 197.988 200.219C198.561 199.412 199.133 198.589 199.701 197.748L199.744 197.684C202.936 200.348 206.511 202.512 210.355 204.138C210.869 204.356 211.492 203.904 211.627 203.413C211.791 202.815 211.421 202.358 210.904 202.138C207.27 200.602 203.891 198.496 200.886 195.945C202.453 193.495 203.863 191.015 205.116 188.528C205.231 188.631 205.345 188.732 205.461 188.835C205.665 189.018 205.911 189.14 206.191 189.14C206.445 189.14 206.748 189.027 206.922 188.835C207.284 188.441 207.355 187.755 206.922 187.369C206.634 187.112 206.345 186.854 206.057 186.596C206.998 184.595 207.839 182.594 208.575 180.604C209.753 181.568 210.967 182.487 212.214 183.36C212.658 183.671 213.381 183.455 213.628 182.988C213.907 182.457 213.732 181.902 213.257 181.57C211.885 180.611 210.579 179.603 209.308 178.529C210.489 175.014 211.345 171.548 211.87 168.202L220.229 173.707C221.345 174.442 222.382 172.647 221.272 171.917C218.241 169.921 215.21 167.924 212.179 165.928C212.301 164.844 212.389 163.777 212.442 162.725C218.057 166.648 223.879 170.26 229.887 173.549C231.056 174.189 232.101 172.401 230.932 171.759C224.571 168.277 218.417 164.432 212.497 160.24C212.487 158.379 212.358 156.581 212.107 154.859C222.1 162.51 232.92 169.053 244.365 174.289C247.99 175.948 251.674 177.475 255.404 178.878C256.652 179.349 257.191 177.346 255.954 176.88C242.985 172.003 230.641 165.494 219.274 157.56C216.631 155.715 214.044 153.792 211.514 151.794C210.272 146.727 207.849 142.507 204.221 139.579C205.484 137.026 206.967 134.586 208.672 132.3C210.597 129.715 212.951 126.665 216.193 125.759C219.576 124.813 223.075 126.437 225.826 128.312C228.746 130.302 231.323 132.762 234.455 134.431C235.631 135.058 236.677 133.269 235.5 132.641C230.313 129.877 226.37 124.745 220.355 123.63C217.576 123.115 214.822 123.638 212.504 125.287C210.172 126.946 208.347 129.257 206.667 131.549C205.093 133.7 203.712 135.979 202.521 138.361C201.438 137.673 200.298 137.106 199.107 136.657C201.682 132.653 203.826 128.341 207.085 124.832C209.378 122.363 212.207 120.36 215.585 119.793C219.243 119.182 223.057 120.325 226.275 122.022C229.678 123.818 232.671 126.268 235.714 128.597C238.578 130.788 241.554 132.814 244.672 134.626C250.789 138.181 257.342 140.964 264.061 143.153C270.886 145.379 277.897 146.996 284.963 148.24C288.479 148.858 292.011 149.38 295.549 149.842C299.048 150.299 303.177 150.233 306.3 152.066C307.656 152.864 308.866 154.149 309.213 155.726C309.56 157.301 308.838 158.838 307.732 159.932ZM293.48 174.282C291.82 177.693 287.577 178.119 284.172 178.14C283.953 177.818 283.716 177.509 283.462 177.211C281.234 174.608 277.97 173.127 274.792 172.052C272.031 171.116 269.2 170.404 266.37 169.691C267.426 169.56 268.442 169.249 269.338 168.604C271.102 167.334 271.638 165.123 270.906 163.11C270.704 162.553 270.432 162.051 270.109 161.591C274.162 162.826 278.317 163.79 282.519 164.405C282.536 164.699 282.683 164.987 283.011 165.185C284.53 166.097 285.852 167.332 286.827 168.822C287.3 169.543 287.799 170.363 287.862 171.245C287.9 171.779 287.701 172.547 287.192 172.75C286.673 172.956 286.31 173.443 286.469 174.025C286.605 174.52 287.218 174.955 287.741 174.748C288.832 174.316 289.633 173.396 289.852 172.223C290.1 170.888 289.673 169.6 289.021 168.443C288.251 167.08 287.233 165.861 286.049 164.837C287.411 164.97 288.774 165.065 290.14 165.12C292.729 167.301 295.158 170.838 293.48 174.282ZM204.818 157.606C204.569 156.3 206.564 155.746 206.813 157.055C208.885 167.954 206.75 179.44 200.812 188.815C200.099 189.941 198.311 188.899 199.026 187.77C204.657 178.878 206.788 167.962 204.818 157.606ZM188.043 140.922C186.725 141.092 186.742 139.017 188.043 138.85C195.968 137.824 203.498 142.525 206.35 149.937C206.829 151.184 204.829 151.719 204.355 150.487C201.812 143.875 194.995 140.023 188.043 140.922ZM182.896 180.143C176.815 173.536 168.38 169.292 159.439 168.458C158.122 168.335 158.114 166.26 159.439 166.385C168.926 167.269 177.89 171.651 184.359 178.677C185.261 179.658 183.802 181.127 182.896 180.143ZM184.359 191.525C178.479 198.714 169.518 204.249 160.159 205.007C158.829 205.116 158.84 203.041 160.159 202.935C168.977 202.22 177.381 196.803 182.896 190.059C183.742 189.025 185.196 190.501 184.359 191.525ZM172.07 206.256C160.465 211.364 147.142 210.852 135.996 204.778C134.825 204.14 135.871 202.35 137.04 202.988C147.48 208.678 160.13 209.261 171.027 204.466C172.234 203.934 173.285 205.721 172.07 206.256ZM126.944 192.275C126.043 191.296 127.502 189.826 128.407 190.808C134.489 197.416 142.923 201.66 151.864 202.496C153.181 202.619 153.189 204.692 151.864 204.569C142.379 203.683 133.413 199.303 126.944 192.275ZM126.944 179.429C132.825 172.238 141.787 166.702 151.146 165.944C152.474 165.838 152.463 167.913 151.146 168.019C142.327 168.732 133.924 174.149 128.407 180.895C127.562 181.927 126.107 180.453 126.944 179.429ZM182.881 185.488C183.306 185.915 183.238 186.523 182.881 186.954C181.813 188.245 180.575 189.415 179.326 190.526C173.607 195.611 166.594 199.475 158.94 200.475C146.782 202.059 135.944 195.493 127.831 186.954L127.738 186.842C127.454 186.556 127.353 186.131 127.669 185.699C128.661 184.339 129.823 183.091 131.018 181.912C136.32 176.681 143.093 172.667 150.539 171.626C163.085 169.874 174.34 176.925 182.881 185.488ZM139.234 164.696C150.838 159.59 164.162 160.1 175.308 166.175C176.479 166.812 175.434 168.602 174.263 167.966C163.823 162.276 151.173 161.691 140.278 166.486C139.07 167.018 138.018 165.231 139.234 164.696ZM143.485 136.557L143.489 136.559C145.442 137.457 147.636 137.789 149.752 138.043C152.602 138.386 155.492 138.454 158.359 138.311C161.099 138.173 163.961 137.904 166.581 137.041C166.974 136.911 167.403 136.758 167.82 136.567V144.377C163.604 147.443 159.484 151.232 155.652 155.65C151.821 151.232 147.7 147.443 143.485 144.377V136.557ZM143.645 134.056C144.101 133.683 144.723 133.469 145.273 133.289C146.684 132.824 148.16 132.513 149.662 132.315C149.597 132.516 149.526 132.716 149.448 132.914C149.228 133.469 149.697 134.006 150.169 134.189C153.572 135.498 157.663 135.45 161.105 134.4C161.777 134.195 162.022 133.485 161.724 132.877C161.636 132.703 161.561 132.525 161.495 132.348C162.623 132.485 163.742 132.678 164.841 132.95C165.609 133.14 166.398 133.354 167.105 133.721C167.301 133.823 167.495 133.933 167.667 134.067L167.768 134.169L167.762 134.172C167.614 134.268 167.483 134.391 167.329 134.484C166.791 134.81 166.178 135.005 165.579 135.181C163.654 135.746 161.639 136.004 159.645 136.157C155.263 136.491 150.617 136.441 146.336 135.347C145.667 135.176 144.987 134.986 144.361 134.689C144.11 134.569 143.763 134.265 143.562 134.125L143.645 134.056ZM148.244 120.654C146.556 117.629 147.425 113.969 150.194 111.941C150.887 111.436 151.69 112.139 151.75 112.837C151.854 114.044 151.959 115.847 153.222 116.467C154.342 117.017 155.423 115.9 155.72 114.908C156.489 112.348 154.516 109.61 154.114 107.132C153.373 102.546 155.089 97.7153 158.648 94.7149C159.492 94.0034 160.971 94.936 160.271 95.9716C157.842 99.5704 160.354 103.851 161.878 107.255C163.372 110.594 164.453 114.67 162.202 117.95C161.45 119.042 159.659 118.005 160.416 116.903C162.878 113.317 160.381 109.027 158.854 105.624C158.041 103.816 157.348 101.794 157.237 99.7981C156.646 100.958 156.25 102.22 156.084 103.535C155.914 104.896 155.985 106.289 156.326 107.619C156.729 109.185 157.474 110.651 157.769 112.248C158.253 114.87 157.368 118.148 154.337 118.63C152.992 118.843 151.753 118.216 150.939 117.159C150.468 116.544 150.188 115.854 150.009 115.131C149.568 115.915 149.354 116.833 149.427 117.737C149.566 119.479 150.821 120.869 152.005 122.036C154.438 124.429 157.303 127.029 156.447 130.816C156.154 132.119 154.161 131.564 154.454 130.264C154.938 128.121 153.41 126.296 151.99 124.895C150.649 123.57 149.176 122.325 148.244 120.654ZM159.633 76.8656C164.5 78.0674 168.577 81.9039 169.98 86.7477C171.806 93.0526 169.11 99.3925 166.594 105.079C166.055 106.298 164.274 105.242 164.808 104.032C167.049 98.9686 169.546 93.2637 168.075 87.6254C166.947 83.3068 163.379 79.9258 159.082 78.8653C157.789 78.5461 158.341 76.5464 159.633 76.8656ZM104.058 204.82C101.802 205.667 99.4669 206.324 97.0827 206.685C95.2018 206.969 91.0148 207.473 90.7909 204.619L90.7692 204.467C92.5103 203.746 94.2072 202.915 95.8475 201.99C98.8658 200.293 101.688 198.272 104.349 196.058C105.374 195.205 103.904 193.746 102.887 194.592C97.8603 198.776 92.1067 202.202 85.8008 204.022C82.9223 204.853 78.8457 206.103 76.0437 204.491C74.8018 203.777 73.8921 202.511 74.178 201.025C74.4712 199.499 75.7551 198.289 76.8509 197.295C76.9545 197.2 77.031 197.1 77.0842 196.997C79.2024 196.139 81.2686 195.152 83.268 194.058C87.2315 191.891 90.9387 189.301 94.4748 186.495C95.5177 185.665 94.0455 184.208 93.0123 185.027C87.6678 189.271 81.8038 193.004 75.4106 195.443C72.1326 196.693 68.7193 197.627 65.2443 198.121C63.5078 198.367 61.7524 198.496 59.9985 198.511C58.236 198.526 56.2418 198.588 54.5967 197.855C53.1131 197.193 52.0661 195.774 52.6368 194.121C53.1298 192.693 54.3576 191.786 55.6133 191.078C58.1176 190.479 60.5867 189.743 63.0011 188.9C71.4592 185.943 79.0575 181.094 86.556 176.279C87.6733 175.561 86.6372 173.765 85.5121 174.488C79.3439 178.45 73.134 182.439 66.3908 185.361C62.8865 186.881 59.1876 188.126 55.4124 189.035C55.2198 189.01 55.0104 189.045 54.7965 189.163L54.7443 189.191C51.466 189.944 48.1357 190.439 44.8309 190.637C41.4297 190.842 37.6944 190.94 34.3654 190.112C31.7384 189.459 28.4831 188.255 27.6685 185.378C27.0945 183.352 27.4212 181.596 28.2924 180.094C28.5755 179.939 28.7398 179.651 28.7848 179.346C30.8745 176.518 34.8922 174.693 38.012 173.745C43.5952 172.05 49.3711 170.979 54.8637 168.98C54.9661 168.943 55.0562 168.895 55.1349 168.838C63.8194 167.263 72.1115 163.843 79.7533 159.463C84.2945 156.86 88.6235 153.906 92.8058 150.761C93.858 149.97 92.8282 148.17 91.762 148.971C80.8661 157.166 68.2144 164.54 54.5922 166.917L54.4252 166.947C51.9019 167.379 49.3456 167.64 46.7611 167.701C44.8623 167.748 41.9905 167.289 42.1381 164.772C42.2721 162.494 44.4658 161.112 46.1804 160.002L46.3673 159.851C58.108 155.54 69.0382 149.094 79.5087 142.287C81.2095 141.182 82.9027 140.065 84.5926 138.941C85.6973 138.208 84.6626 136.411 83.549 137.151C70.6801 145.7 57.414 154.097 42.6517 158.956C35.6346 161.265 28.3293 162.779 20.9395 163.052C20.8621 163.047 20.7838 163.049 20.7059 163.06C20.3492 163.074 19.9924 163.082 19.6352 163.089C15.8476 163.153 11.9019 163.014 8.19443 162.176C5.23948 161.508 1.16754 159.284 2.12782 155.584C3.06753 151.961 7.26218 150.921 10.4639 150.494C14.0097 150.02 17.5627 149.628 21.1011 149.092C28.2072 148.02 35.2744 146.627 42.197 144.682C49.0166 142.766 55.7022 140.306 62.0352 137.116C65.2029 135.518 68.278 133.736 71.2214 131.755C74.3626 129.639 77.2649 127.207 80.3355 124.995C86.1842 120.782 93.7978 117.386 100.55 121.693C106.026 125.184 108.736 131.361 112.162 136.67C110.984 137.117 109.855 137.679 108.783 138.361C107.785 136.364 106.654 134.438 105.384 132.599C103.738 130.217 101.912 127.779 99.6561 125.94C97.4848 124.172 94.8818 123.173 92.0585 123.47C89.1677 123.776 86.5042 125.074 84.1431 126.723C81.3442 128.678 78.832 131.027 75.8039 132.641C74.6282 133.268 75.6719 135.058 76.8477 134.431C79.9816 132.762 82.558 130.302 85.4775 128.312C88.2286 126.437 91.7278 124.813 95.1108 125.759C98.3518 126.665 100.707 129.715 102.633 132.3C104.336 134.586 105.819 137.026 107.083 139.579C103.455 142.507 101.032 146.727 99.7898 151.794C89.5114 159.904 78.2743 166.785 66.3926 172.269C62.7689 173.942 59.0848 175.476 55.3499 176.88C54.1151 177.344 54.6499 179.349 55.8997 178.878C69.209 173.873 81.8818 167.218 93.5223 159.036C95.4426 157.685 97.3333 156.293 99.1953 154.864C98.9457 156.584 98.8167 158.381 98.8066 160.24C92.8876 164.432 86.7337 168.277 80.373 171.759C79.2044 172.399 80.2471 174.191 81.4166 173.549C87.4244 170.26 93.2471 166.648 98.862 162.725C98.9137 163.777 99.0015 164.844 99.125 165.928C96.0936 167.924 93.0624 169.921 90.031 171.917C88.9231 172.647 89.958 174.442 91.075 173.707C93.8611 171.872 96.6474 170.037 99.4337 168.202C99.9599 171.548 100.816 175.014 101.996 178.529C100.726 179.603 99.4177 180.611 98.047 181.57C97.6042 181.879 97.3565 182.491 97.6759 182.988C97.9596 183.428 98.6162 183.691 99.0907 183.36C100.338 182.487 101.551 181.568 102.728 180.604C103.465 182.594 104.305 184.595 105.247 186.596C104.958 186.854 104.67 187.112 104.381 187.369C103.976 187.73 103.986 188.471 104.381 188.835C104.814 189.233 105.411 189.221 105.843 188.835C105.958 188.732 106.073 188.631 106.188 188.528C107.441 191.015 108.851 193.495 110.418 195.945C107.412 198.496 104.033 200.602 100.4 202.138C99.8854 202.356 99.5157 202.823 99.6775 203.413C99.8105 203.9 100.432 204.358 100.949 204.138C104.793 202.512 108.368 200.348 111.56 197.684L111.603 197.748C112.17 198.588 112.745 199.409 113.328 200.21C110.356 201.982 107.293 203.601 104.058 204.82ZM17.8232 174.282C16.1365 170.845 18.5817 167.296 21.1647 165.118C22.5314 165.063 23.8968 164.969 25.2589 164.834C24.0734 165.858 23.0553 167.078 22.283 168.443C21.644 169.573 21.209 170.85 21.4403 172.16C21.6526 173.36 22.4434 174.304 23.5629 174.748C24.0822 174.955 24.6982 174.523 24.8349 174.025C24.9964 173.435 24.6339 172.956 24.1126 172.75C23.6293 172.557 23.4226 171.83 23.437 171.328C23.463 170.419 23.9947 169.558 24.477 168.822C25.4512 167.332 26.7728 166.097 28.2929 165.185C28.6213 164.987 28.7685 164.698 28.7853 164.402C31.0414 164.071 33.2829 163.642 35.4989 163.125C37.41 162.68 39.2982 162.168 41.1661 161.599C40.9875 161.859 40.8261 162.131 40.6863 162.42C39.8647 164.118 39.7975 166.179 41.0153 167.706C42.0199 168.965 43.5206 169.522 45.066 169.706C42.6452 170.326 40.2199 170.931 37.8271 171.638C33.8888 172.798 29.5212 174.776 27.1466 178.14C23.7345 178.12 19.4985 177.697 17.8232 174.282ZM136.139 117.112C136.482 117.558 136.202 118.276 135.768 118.53C135.242 118.838 134.693 118.602 134.353 118.158C132.015 115.116 132.285 110.845 134.725 107.965C135.088 107.536 135.817 107.592 136.188 107.965C136.605 108.384 136.549 109.004 136.188 109.431C134.301 111.658 134.396 114.843 136.139 117.112ZM144.625 98.6029C145.568 99.5471 144.105 101.013 143.162 100.069C141.269 98.1724 140.141 95.551 140.155 92.8581C140.169 90.1653 141.316 87.5506 143.23 85.6739C144.182 84.7397 145.646 86.2058 144.692 87.14C141.49 90.2816 141.452 95.4263 144.625 98.6029ZM311.367 156.337C311.213 152.919 308.381 150.462 305.369 149.378C303.568 148.73 301.643 148.512 299.753 148.288C297.859 148.062 295.965 147.831 294.075 147.571C286.545 146.539 279.048 145.184 271.696 143.24C264.395 141.308 257.229 138.791 250.469 135.404C247.141 133.735 243.915 131.861 240.836 129.769C237.598 127.564 234.611 125.023 231.408 122.774C225.305 118.49 217.405 115.5 210.383 119.498C203.995 123.133 200.982 130.148 197.099 136.022C189.158 133.971 179.364 136.614 169.887 142.935V134.308V134.165C169.899 133.976 169.867 133.813 169.804 133.678C169.473 132.536 168.266 131.93 167.199 131.511C165.292 130.764 163.2 130.45 161.162 130.239C161.233 128.236 162.328 126.29 163.641 124.725C165.654 122.33 168.262 120.325 171.086 118.982C173.97 117.609 177.255 116.818 179.558 114.459C181.977 111.984 182.548 108.445 182.049 105.131C181.543 102.283 180.246 99.6884 178.777 97.2266C178.154 96.1843 176.663 96.8958 176.887 98.0245C177.32 100.217 176.681 102.589 175.149 104.225C174.625 104.785 173.602 105.663 172.743 105.402C171.41 104.998 172.474 103.158 172.899 102.454C175.02 98.952 176.068 95.059 175.673 90.9465C175.295 86.9937 173.751 83.1639 171.06 80.2217C168.344 77.2495 164.538 75.4144 160.581 74.8509C156.114 74.2142 151.458 75.1368 147.715 77.71C147.143 78.1023 146.948 79.1578 147.715 79.5002C149.446 80.2732 151.29 81.1874 152.431 82.7699C153.458 84.1945 153.874 86.1842 152.672 87.6337C151.705 88.8006 149.964 89.3641 148.573 88.656C147.108 87.9113 146.344 86.1376 146.757 84.5635C146.972 83.7407 146.244 83.1589 145.484 83.2869C140.269 84.1679 137.099 89.6749 137.725 94.6983C138.068 97.456 139.325 99.9809 141.082 102.107C142.004 103.221 143.12 104.085 144.155 105.081C145.15 106.038 145.898 107.24 144.786 108.44C143.727 109.584 141.781 110.094 140.297 109.664C138.868 109.248 137.91 107.807 138.432 106.352C138.714 105.566 137.872 104.913 137.16 105.076C134.692 105.644 132.742 107.496 131.81 109.828C130.779 112.406 131.227 115.365 132.534 117.76C133.888 120.241 136.212 122.102 138.746 123.271C141.477 124.531 144.531 124.857 147.244 126.133C148.515 126.73 149.446 127.5 149.821 128.901C149.939 129.346 149.994 129.799 149.995 130.251C148.211 130.439 146.419 130.731 144.723 131.29C143.525 131.684 141.835 132.317 141.477 133.7C141.426 133.894 141.408 134.081 141.416 134.258V142.935C131.939 136.614 122.146 133.971 114.205 136.022C111.172 131.482 108.837 126.427 104.895 122.558C102.427 120.134 99.3765 118.249 95.9157 117.741C92.1442 117.185 88.3639 118.129 84.9596 119.744C81.3792 121.442 78.2597 123.947 75.1366 126.353C72.1264 128.67 69.0201 130.832 65.7388 132.749C59.1692 136.584 52.11 139.498 44.8525 141.739C37.6498 143.963 30.2604 145.542 22.8236 146.74C19.0777 147.344 15.3177 147.841 11.5505 148.288C8.00075 148.708 4.08601 149.287 1.65191 152.209C-0.555355 154.857 -0.558671 158.316 1.69038 160.946C4.11271 163.778 8.01965 164.377 11.5105 164.777C13.7143 165.03 15.9286 165.156 18.1439 165.17C15.7309 167.891 14.3017 171.561 15.9317 175.105C17.7294 179.013 22.0777 180.005 26.0374 180.183C25.66 181.137 25.429 182.183 25.3799 183.325C25.0564 190.863 33.749 192.511 39.5543 192.758C43.5494 192.928 47.5607 192.614 51.5129 191.926C50.4989 193.295 50.0069 194.944 50.6999 196.709C52.1428 200.385 56.6487 200.614 59.9985 200.584C64.4585 200.544 68.8606 199.765 73.0985 198.43C72.2264 199.783 71.7502 201.326 72.2515 202.976C73.063 205.646 75.7517 207.034 78.3665 207.243C81.3921 207.486 84.6543 206.587 87.5103 205.666C87.9428 205.528 88.3729 205.38 88.8009 205.227C89.8436 210.99 98.8008 208.709 102.555 207.527C106.796 206.193 110.756 204.153 114.568 201.877C124.885 215.395 137.331 223.36 150.103 228.929C154.368 230.787 159.2 230.819 163.48 228.996C175.94 223.683 186.798 215.372 196.769 201.897C200.569 204.168 204.521 206.201 208.75 207.527C212.504 208.706 221.461 210.992 222.503 205.227L222.645 205.277C227.201 206.899 235.752 209.521 238.684 203.88C239.687 201.947 239.218 200.064 238.176 198.428C241.874 199.594 245.715 200.33 249.587 200.533C253.022 200.711 257.672 200.94 259.975 197.84C261.488 195.807 261.013 193.673 259.742 191.937C262.721 192.449 265.729 192.747 268.718 192.797C272.324 192.858 276.133 192.757 279.544 191.467C282.391 190.39 285.039 188.709 285.729 185.532C286.124 183.722 285.917 181.869 285.253 180.183C289.217 180.009 293.573 179.018 295.372 175.105C297.002 171.561 295.572 167.891 293.16 165.17C293.357 165.168 293.553 165.166 293.748 165.163C297.591 165.107 301.892 164.979 305.533 163.629C308.576 162.502 311.525 159.866 311.367 156.337Z" fill="#758D94"/>
<path d="M239.049 177.689C245.029 181.068 251.381 183.761 257.962 185.655C261.352 186.631 264.86 187.528 268.403 187.552C271.375 187.574 274.911 187.055 276.776 184.417C278.873 181.453 277.062 177.99 274.236 176.425C273.06 175.772 272.007 177.604 273.187 178.255C274.541 179.007 275.974 180.415 275.567 182.152C275.167 183.859 273.428 184.713 271.897 185.084C268.156 185.985 264.167 185.114 260.524 184.162C253.395 182.298 246.536 179.495 240.1 175.859C238.927 175.196 237.877 177.027 239.049 177.689Z" fill="#758D94"/>
<path d="M214.313 179.261C221.327 184.869 229.036 189.45 237.3 192.931C238.53 193.449 239.068 191.427 237.851 190.914C229.945 187.584 222.491 183.147 215.781 177.782C214.746 176.954 213.267 178.424 214.313 179.261Z" fill="#758D94"/>
<path d="M222.495 145.542C231.206 152.705 241.141 158.281 251.847 161.997C253.103 162.434 253.646 160.468 252.397 160.036C242.046 156.44 232.38 151.029 223.957 144.103C222.944 143.269 221.474 144.701 222.495 145.542Z" fill="#758D94"/>
<path d="M300.348 153.528C286.336 153.337 272.409 150.573 259.322 145.392C255.57 143.905 251.899 142.211 248.315 140.336C247.118 139.709 246.059 141.572 247.26 142.2C260.017 148.873 273.854 153.168 288.057 154.876C292.138 155.366 296.241 155.631 300.348 155.686C301.694 155.705 301.696 153.547 300.348 153.528Z" fill="#758D94"/>
<path d="M155.707 194.26C148.217 194.26 142.145 188.395 142.145 181.161C142.145 179.218 142.584 177.375 143.37 175.716C141.797 176.39 140.266 177.195 138.794 178.124C136.338 179.673 134.081 181.504 132.043 183.538C131.409 184.173 130.794 184.827 130.211 185.506L130.194 185.527C135.035 190.306 140.741 194.477 147.435 196.438C155.902 198.916 164.677 197.15 172.112 192.765C175.387 190.833 178.598 188.45 181.179 185.654C177.546 182.229 173.501 179.079 168.995 176.798C169.456 178.016 169.268 179.495 169.268 181.161C169.268 188.395 163.196 194.26 155.707 194.26Z" fill="#758D94"/>
<path d="M151.347 183.073H152.877L151.795 183.989C151.364 184.354 151.332 185.022 151.795 185.381C152.26 185.743 152.982 185.771 153.441 185.381L154.523 184.466V188.422C154.523 189.688 156.849 189.692 156.849 188.422V184.466C157.211 184.772 157.571 185.077 157.931 185.381C158.362 185.746 159.152 185.773 159.577 185.381C160.004 184.988 160.038 184.379 159.577 183.989L158.495 183.073H160.025C161.523 183.073 161.525 181.105 160.025 181.105H158.495L159.577 180.189C160.008 179.824 160.04 179.156 159.577 178.796C159.112 178.436 158.392 178.408 157.931 178.796L156.849 179.712V175.757C156.849 174.49 154.523 174.488 154.523 175.757V179.712L153.441 178.796C153.01 178.432 152.22 178.405 151.795 178.796C151.37 179.19 151.336 179.801 151.795 180.189L152.877 181.105H151.347C149.851 181.105 149.847 183.073 151.347 183.073Z" fill="#758D94"/>
<path d="M110.742 98.9452L109.254 95.5969L107.694 99.0248L104.702 100.604L107.832 102.124L109.254 105.612L110.877 102.117L113.806 100.604L110.742 98.9452Z" fill="#758D94"/>
<path d="M218.175 101.371L216.687 98.3284L215.127 101.444L212.134 102.88L215.264 104.261L216.687 107.433L218.31 104.255L221.239 102.88L218.175 101.371Z" fill="#758D94"/>
<path d="M118.629 220.64L116.992 217.597L115.277 220.712L111.985 222.15L115.428 223.53L116.992 226.701L118.778 223.523L122 222.15L118.629 220.64Z" fill="#758D94"/>
<path d="M202.697 218.82L201.21 215.776L199.65 218.891L196.657 220.328L199.786 221.71L201.21 224.881L202.833 221.702L205.761 220.328L202.697 218.82Z" fill="#758D94"/>
<path d="M189.663 78.3034L188.918 76.4775L188.138 78.3465L186.642 79.2097L188.207 80.038L188.918 81.9402L189.729 80.033L191.194 79.2097L189.663 78.3034Z" fill="#758D94"/>
<path d="M163.864 236.721L162.971 234.895L162.035 236.765L160.239 237.626L162.118 238.454L162.971 240.358L163.944 238.451L165.701 237.626L163.864 236.721Z" fill="#758D94"/>
<path d="M134.422 77.393L133.38 75.5671L132.289 77.4361L130.194 78.2976L132.385 79.1259L133.38 81.0298L134.517 79.1226L136.567 78.2976L134.422 77.393Z" fill="#758D94"/>
<path d="M151.823 260.609H154.087L155.687 262.209L157.286 260.609H159.55V258.347L161.149 256.746L159.55 255.148V252.884H157.286L155.687 251.284L154.087 252.884H151.823V255.148L150.224 256.746L151.823 258.347V260.609Z" fill="#758D94"/>
<path d="M153.866 250.493L153.763 250.194C153.612 249.756 153.315 249.476 152.984 249.463H152.951C152.462 249.463 152.063 250.046 152.045 250.825V251.284H153.339L153.866 250.493Z" fill="#758D94"/>
<path d="M135.867 247.665C135.783 247.642 135.703 247.642 135.65 247.642C135.226 247.642 134.854 247.945 134.76 248.395C134.752 248.449 134.746 248.501 134.746 248.546C134.746 248.984 135.054 249.359 135.44 249.43C135.506 249.452 135.581 249.463 135.657 249.463C136.083 249.463 136.458 249.158 136.554 248.702C136.562 248.651 136.567 248.605 136.567 248.552C136.567 248.118 136.271 247.75 135.867 247.665Z" fill="#758D94"/>
<path d="M131.031 246.789C130.911 246.749 130.783 246.731 130.64 246.731C130.024 246.731 129.485 247.13 129.323 247.716C129.297 247.825 129.284 247.937 129.284 248.049C129.284 248.63 129.686 249.135 130.283 249.305L130.867 249.463V249.333C131.388 249.253 131.818 248.89 131.977 248.36C132.003 248.248 132.015 248.138 132.015 248.031C132.015 247.436 131.596 246.922 131.031 246.789Z" fill="#758D94"/>
<path d="M141.575 55.5372C141.501 55.5372 141.427 55.5409 141.374 55.5518C140.71 55.6467 140.209 56.2232 140.209 56.8947C140.209 56.9622 140.211 57.0315 140.224 57.1136C140.333 57.7832 140.902 58.2686 141.575 58.2686C141.613 58.2686 141.651 58.2649 141.712 58.2594L142.167 58.2503V58.1262C142.626 57.9055 142.94 57.4347 142.94 56.9038C142.94 56.829 142.938 56.7542 142.927 56.7031C142.832 56.028 142.263 55.5372 141.575 55.5372Z" fill="#758D94"/>
<path d="M148.074 249.464L147.948 249.463C147.237 249.463 146.651 249.818 146.582 250.318V250.385C146.595 250.856 147.132 251.24 147.829 251.276L147.948 251.284C148.643 251.284 149.244 250.919 149.312 250.451L149.313 250.367C149.313 249.906 148.769 249.509 148.074 249.464Z" fill="#758D94"/>
<path d="M147.492 55.5372L147.421 55.5391C146.951 55.594 146.591 56.1706 146.582 56.8901C146.582 56.9267 146.582 56.9853 146.591 57.0548C146.639 57.7395 147.031 58.2686 147.492 58.2686H147.562L147.576 58.2667C148.048 58.1971 148.403 57.6132 148.403 56.9084L148.402 56.7729C148.357 56.0681 147.966 55.5372 147.492 55.5372Z" fill="#758D94"/>
<path d="M141.789 248.568C141.02 248.47 140.327 248.838 140.227 249.316C140.212 249.366 140.209 249.415 140.209 249.465C140.209 249.911 140.709 250.295 141.361 250.357C141.433 250.366 141.502 250.373 141.574 250.373C142.238 250.373 142.819 250.039 142.925 249.597L142.94 249.47L142.94 249.453C142.926 249.001 142.432 248.628 141.789 248.568Z" fill="#758D94"/>
<path d="M130.201 58.2687C130.106 58.2687 130.022 58.2887 129.956 58.3216C129.564 58.4821 129.294 59.0021 129.284 59.6261C129.284 59.7575 129.296 59.8834 129.319 60.0002C129.426 60.5877 129.786 61 130.194 61C130.29 61 130.375 60.9799 130.438 60.9471C130.831 60.7865 131.105 60.2501 131.105 59.6425C131.105 59.5258 131.096 59.409 131.076 59.2813C130.971 58.6847 130.611 58.2687 130.201 58.2687Z" fill="#758D94"/>
<path d="M135.651 57.3583C135.601 57.3583 135.543 57.3692 135.464 57.3874C135.048 57.5243 134.746 58.0808 134.746 58.7321C134.746 58.8051 134.753 58.8909 134.765 59.0095C134.853 59.6353 135.228 60.0896 135.657 60.0896C135.711 60.0896 135.764 60.0786 135.847 60.0604C136.264 59.9272 136.567 59.3652 136.567 58.723C136.567 58.6318 136.559 58.5406 136.548 58.4493C136.459 57.8071 136.09 57.3583 135.651 57.3583Z" fill="#758D94"/>
<path d="M109.702 237.741C109.298 237.499 108.692 237.654 108.452 238.096C108.381 238.231 108.343 238.379 108.343 238.526C108.343 238.867 108.519 239.17 108.82 239.339C108.956 239.411 109.101 239.448 109.254 239.448C109.584 239.448 109.888 239.264 110.042 238.982C110.123 238.847 110.164 238.697 110.164 238.539C110.164 238.203 109.983 237.895 109.702 237.741Z" fill="#758D94"/>
<path d="M114.252 64.6417C114.045 64.6417 113.84 64.6891 113.662 64.7785C113.196 65.0048 112.896 65.4865 112.896 66.0065C112.896 66.198 112.936 66.3951 113.025 66.6031C113.265 67.0775 113.738 67.373 114.261 67.373C114.469 67.373 114.675 67.3256 114.848 67.238C115.321 67.0154 115.627 66.5319 115.627 66.0065C115.627 65.8258 115.582 65.6288 115.493 65.4226C115.266 64.9409 114.79 64.6417 114.252 64.6417Z" fill="#758D94"/>
<path d="M124.698 244.974C124.598 244.945 124.447 244.911 124.285 244.911C123.69 244.911 123.166 245.283 122.971 245.867C122.93 246.021 122.911 246.154 122.911 246.276C122.911 246.866 123.284 247.388 123.865 247.582C124.015 247.622 124.15 247.642 124.276 247.642C124.866 247.642 125.387 247.269 125.566 246.733C125.618 246.599 125.642 246.455 125.642 246.276C125.642 245.69 125.28 245.183 124.698 244.974Z" fill="#758D94"/>
<path d="M108.801 67.4877C108.515 67.6582 108.343 67.9505 108.343 68.2891C108.343 68.4389 108.38 68.5827 108.454 68.7203C108.614 69.0126 108.92 69.1941 109.254 69.1941C109.413 69.1941 109.569 69.1527 109.691 69.0784C109.983 68.9188 110.164 68.6119 110.164 68.2769C110.164 68.1174 110.122 67.9627 110.049 67.8397C109.821 67.4207 109.272 67.2355 108.801 67.4877Z" fill="#758D94"/>
<path d="M114.857 240.489C114.214 240.166 113.348 240.465 113.033 241.131C112.941 241.319 112.896 241.513 112.896 241.724C112.896 242.248 113.201 242.73 113.666 242.951C113.855 243.044 114.049 243.09 114.261 243.09C114.785 243.09 115.268 242.783 115.487 242.319C115.58 242.135 115.627 241.931 115.627 241.715C115.627 241.192 115.321 240.708 114.857 240.489Z" fill="#758D94"/>
<path d="M124.267 60.0895C124.102 60.0895 123.951 60.1241 123.832 60.1624C123.273 60.3613 122.911 60.8686 122.911 61.4542C122.911 61.5692 122.919 61.7407 122.979 61.8903C123.164 62.4468 123.686 62.8208 124.276 62.8208C124.4 62.8208 124.533 62.8007 124.715 62.7497C125.27 62.5617 125.642 62.0399 125.642 61.4542C125.642 61.3046 125.615 61.1623 125.564 61.02C125.379 60.4635 124.858 60.0895 124.267 60.0895Z" fill="#758D94"/>
<path d="M119.218 62.9212C118.696 63.1297 118.358 63.6325 118.358 64.2029C118.358 64.3656 118.394 64.5302 118.462 64.6929C118.658 65.2067 119.165 65.5522 119.724 65.5522C119.912 65.5522 120.087 65.5193 120.247 65.4535C120.759 65.2359 121.09 64.7423 121.09 64.1755C121.09 64 121.057 63.8299 120.992 63.6745C120.712 62.9871 119.905 62.6342 119.218 62.9212Z" fill="#758D94"/>
<path d="M120.246 242.275L120.234 242.269C119.552 242.006 118.74 242.333 118.446 243.05C118.409 243.159 118.358 243.331 118.358 243.534C118.358 244.097 118.696 244.596 119.211 244.803C119.38 244.874 119.558 244.91 119.724 244.91C120.281 244.91 120.779 244.574 120.99 244.057C121.056 243.9 121.09 243.73 121.09 243.534C121.09 242.984 120.759 242.491 120.246 242.275Z" fill="#758D94"/>
<path d="M170.709 250.373C170.751 250.373 170.787 250.371 170.908 250.363C171.585 250.292 172.075 249.913 172.075 249.463C172.075 249.438 172.073 249.412 172.062 249.329C171.967 248.879 171.397 248.552 170.709 248.552C170.634 248.552 170.559 248.555 170.508 248.562C169.844 248.625 169.343 249.01 169.343 249.457C169.343 249.507 169.345 249.557 169.356 249.59C169.451 250.036 170.032 250.373 170.709 250.373Z" fill="#758D94"/>
<path d="M187.097 247.642C187.243 247.642 187.395 247.614 187.535 247.563C188.081 247.377 188.463 246.848 188.463 246.276C188.463 246.119 188.434 245.962 188.384 245.84C188.2 245.285 187.681 244.911 187.097 244.911C186.933 244.911 186.789 244.932 186.655 244.982C186.102 245.168 185.731 245.688 185.731 246.276C185.731 246.439 185.753 246.585 185.801 246.716C185.991 247.269 186.511 247.642 187.097 247.642Z" fill="#758D94"/>
<path d="M198.023 242.179C198.244 242.179 198.454 242.146 198.607 242.089C199.089 241.938 199.388 241.623 199.388 241.267C199.388 241.137 199.348 241.005 199.262 240.875C198.95 240.431 198.085 240.23 197.432 240.445C196.961 240.595 196.657 240.917 196.657 241.267C196.657 241.405 196.706 241.542 196.792 241.658C197.016 241.975 197.5 242.179 198.023 242.179Z" fill="#758D94"/>
<path d="M164.209 58.2667L164.335 58.2686C165.043 58.2686 165.638 57.7194 165.689 57.0297L165.702 56.9129C165.702 56.1977 165.163 55.6084 164.452 55.5391L164.335 55.5372C163.625 55.5372 163.04 56.0718 162.972 56.7779L162.971 56.8855C162.956 57.5916 163.5 58.1974 164.209 58.2667Z" fill="#758D94"/>
<path d="M192.043 64.5412C192.199 64.6089 192.374 64.6418 192.563 64.6418C193.114 64.6418 193.607 64.3087 193.818 63.7943C193.891 63.6185 193.912 63.4409 193.925 63.2817C193.925 62.7233 193.591 62.2236 193.072 62.0094C192.916 61.9453 192.741 61.9105 192.554 61.9105C191.998 61.9105 191.492 62.2565 191.299 62.7599C191.228 62.9338 191.194 63.0986 191.194 63.2634C191.194 63.8272 191.528 64.3306 192.043 64.5412Z" fill="#758D94"/>
<path d="M192.56 244.91C192.768 244.91 192.948 244.87 193.073 244.806C193.591 244.602 193.925 244.109 193.925 243.536C193.925 243.357 193.892 243.18 193.827 243.025C193.556 242.366 192.813 242.032 192.145 242.241L192.039 242.276C191.524 242.488 191.194 242.988 191.194 243.554C191.194 243.722 191.23 243.899 191.298 244.058C191.499 244.567 192.006 244.91 192.56 244.91Z" fill="#758D94"/>
<path d="M207.303 72.6145C207.527 72.7609 207.773 72.8359 208.033 72.8359C208.502 72.8359 208.934 72.5962 209.185 72.1992C209.329 71.9777 209.403 71.7216 209.403 71.4434C209.389 70.975 209.152 70.5505 208.752 70.2961C208.1 69.9119 207.265 70.1314 206.887 70.7261C206.746 70.9475 206.672 71.2037 206.672 71.48C206.685 71.9466 206.923 72.373 207.303 72.6145Z" fill="#758D94"/>
<path d="M202.579 239.448C202.805 239.448 203.037 239.389 203.252 239.274C203.682 239.018 203.94 238.578 203.94 238.07C203.94 237.849 203.885 237.626 203.779 237.429C203.44 236.793 202.601 236.508 201.898 236.886C201.467 237.142 201.209 237.581 201.209 238.088C201.209 238.306 201.262 238.521 201.374 238.744C201.61 239.177 202.072 239.448 202.579 239.448Z" fill="#758D94"/>
<path d="M201.904 69.0723C202.103 69.1527 202.335 69.1941 202.574 69.1941C203.077 69.1941 203.537 69.0126 203.778 68.7179C203.884 68.5851 203.94 68.4341 203.94 68.283C203.94 67.9469 203.67 67.6412 203.234 67.484C202.619 67.2429 201.734 67.411 201.386 67.836C201.269 67.9761 201.209 68.1235 201.209 68.2769C201.209 68.6119 201.481 68.9188 201.904 69.0723Z" fill="#758D94"/>
<path d="M197.427 67.2341C197.609 67.3255 197.815 67.373 198.021 67.373C198.547 67.373 199.03 67.0659 199.249 66.5996C199.341 66.4149 199.388 66.212 199.388 65.9962C199.388 65.572 199.195 65.1844 198.868 64.9321V64.8754L198.593 64.7565C197.892 64.4548 197.087 64.7711 196.775 65.4312C196.697 65.6122 196.657 65.8115 196.657 66.0054C196.657 66.5393 196.956 67.011 197.427 67.2341Z" fill="#758D94"/>
<path d="M170.107 58.2503C170.168 58.2686 170.221 58.2686 170.26 58.2686C170.707 58.2686 171.092 57.7686 171.152 57.1282C171.162 57.0534 171.164 56.9786 171.164 56.9038C171.164 56.2342 170.844 55.6704 170.403 55.5555C170.349 55.5372 170.299 55.5372 170.265 55.5372C169.798 55.5372 169.414 56.0335 169.348 56.7961L169.343 56.9129C169.343 57.5953 169.673 58.1591 170.107 58.2503Z" fill="#758D94"/>
<path d="M175.545 59.1634C175.602 59.1719 175.661 59.1792 175.717 59.1792C176.144 59.1792 176.519 58.8739 176.612 58.4323C176.621 58.3752 176.627 58.318 176.627 58.2681C176.627 57.8448 176.326 57.4726 175.91 57.379C175.831 57.3583 175.762 57.3583 175.711 57.3583C175.286 57.3583 174.913 57.6612 174.82 58.1112C174.811 58.1648 174.806 58.2171 174.806 58.2621C174.806 58.6939 175.109 59.0709 175.545 59.1634Z" fill="#758D94"/>
<path d="M104.98 235.033C104.398 234.769 103.491 234.896 103.099 235.311C102.954 235.461 102.88 235.628 102.88 235.806C102.88 236.119 103.12 236.407 103.522 236.578C103.734 236.667 103.992 236.716 104.246 236.716C104.709 236.716 105.14 236.56 105.412 236.286C105.542 236.137 105.612 235.969 105.612 235.8C105.612 235.49 105.375 235.203 104.98 235.033Z" fill="#758D94"/>
<path d="M164.332 251.284L164.449 251.278C165.151 251.241 165.702 250.847 165.702 250.367L165.7 250.289C165.632 249.818 165.048 249.463 164.341 249.463L164.215 249.464C163.507 249.509 162.97 249.895 162.97 250.361L162.972 250.452C163.029 250.919 163.626 251.284 164.332 251.284Z" fill="#758D94"/>
<path d="M186.649 62.7387C186.797 62.7916 186.952 62.8208 187.098 62.8208C187.686 62.8208 188.207 62.4431 188.383 61.9104C188.454 61.7352 188.463 61.5619 188.463 61.4469C188.463 60.8631 188.091 60.3467 187.538 60.1606C187.403 60.1132 187.259 60.0895 187.098 60.0895C186.512 60.0895 185.994 60.4635 185.819 60.9944C185.762 61.1368 185.731 61.2955 185.731 61.4542C185.731 62.0217 186.1 62.538 186.649 62.7387Z" fill="#758D94"/>
<path d="M181.633 249.463C181.746 249.463 181.854 249.452 182 249.417C182.584 249.246 182.985 248.722 183 248.107C183 247.965 182.98 247.837 182.947 247.744C182.79 247.149 182.25 246.731 181.633 246.731C181.522 246.731 181.416 246.744 181.279 246.775C180.685 246.934 180.269 247.474 180.269 248.089C180.269 248.227 180.289 248.353 180.32 248.452C180.478 249.047 181.02 249.463 181.633 249.463Z" fill="#758D94"/>
<path d="M208.037 236.716C208.301 236.716 208.555 236.665 208.772 236.571C209.168 236.404 209.403 236.116 209.403 235.802C209.403 235.635 209.334 235.468 209.195 235.31C208.808 234.904 207.929 234.769 207.312 235.027C206.911 235.197 206.672 235.485 206.672 235.796C206.672 235.973 206.745 236.139 206.889 236.288C207.143 236.556 207.571 236.716 208.037 236.716Z" fill="#758D94"/>
<path d="M181.288 60.9489C181.392 60.9763 181.506 61 181.635 61C182.245 61 182.786 60.5858 182.94 60.0166C182.98 59.8961 183 59.7739 183 59.6444C183 59.0185 182.584 58.4712 181.987 58.3124L181.969 58.307C181.205 58.1355 180.524 58.5533 180.307 59.2922C180.281 59.4053 180.269 59.5258 180.269 59.6444C180.269 60.2501 180.685 60.7847 181.288 60.9489Z" fill="#758D94"/>
<path d="M175.717 249.463C175.77 249.463 175.825 249.455 175.908 249.443C176.324 249.354 176.627 248.98 176.627 248.552C176.627 248.492 176.619 248.433 176.608 248.366C176.5 247.871 176.032 247.561 175.535 247.66H175.533C175.106 247.749 174.806 248.119 174.806 248.558C174.806 248.607 174.812 248.664 174.824 248.743C174.914 249.166 175.282 249.463 175.717 249.463Z" fill="#758D94"/>
<path d="M103.521 70.3072C103.134 70.552 102.895 70.9778 102.88 71.4583C102.88 71.7232 102.954 71.9717 103.097 72.1946C103.351 72.5948 103.78 72.8359 104.246 72.8359C104.512 72.8359 104.761 72.761 104.983 72.6185C105.377 72.3682 105.612 71.937 105.612 71.4218C105.612 71.1879 105.541 70.9504 105.405 70.7311C105.018 70.1227 104.195 69.9089 103.521 70.3072Z" fill="#758D94"/>
<path d="M70.2674 107.576L70.2639 107.574C69.5945 107.237 68.7641 107.532 68.4443 108.158C68.3392 108.339 68.2841 108.56 68.2841 108.782C68.2708 109.306 68.5642 109.791 69.0158 110.01C69.2095 110.115 69.4166 110.164 69.6496 110.164C70.1581 110.164 70.6228 109.882 70.872 109.408C70.9669 109.205 71.015 109.002 71.015 108.804C71.015 108.284 70.7286 107.814 70.2674 107.576Z" fill="#758D94"/>
<path d="M67.47 113.009C67.3029 112.932 67.1226 112.896 66.918 112.896C66.3704 112.896 65.8804 113.219 65.6767 113.704C65.5951 113.88 65.5522 114.075 65.5522 114.27C65.5522 114.807 65.8742 115.293 66.3649 115.505C66.5465 115.589 66.7268 115.627 66.918 115.627C67.4578 115.627 67.9493 115.307 68.1681 114.818C68.2454 114.652 68.2836 114.466 68.2836 114.252C68.2836 113.719 67.9644 113.232 67.47 113.009Z" fill="#758D94"/>
<path d="M152.926 56.3311C152.552 56.1947 152.19 56.0281 151.82 55.8236L151.302 55.5373L151.155 56.0523C151.134 56.1265 151.134 56.1841 151.134 56.2614C151.161 56.8764 151.744 57.3582 152.462 57.3582H152.49H152.497C152.818 57.3476 153.111 57.2415 153.345 57.0521L153.866 56.631L153.194 56.422C153.107 56.3947 153.021 56.3674 152.926 56.3311Z" fill="#758D94"/>
<path d="M65.2318 119.307H65.2309C64.6695 119.181 64.0067 119.378 63.8168 119.704C63.761 119.781 63.7314 119.867 63.7314 119.956C63.7314 120.034 63.7545 120.108 63.7932 120.179C64.3714 119.939 64.9585 119.687 65.5523 119.425C65.4572 119.376 65.3513 119.334 65.2318 119.307Z" fill="#758D94"/>
<path d="M89.5787 224.406L89.5763 224.409C89.3495 224.664 89.2241 224.989 89.2241 225.327C89.2241 225.712 89.3885 226.083 89.6659 226.336C89.9114 226.571 90.2395 226.701 90.5897 226.701C90.9649 226.701 91.3313 226.542 91.6033 226.255C91.8301 225.999 91.9555 225.67 91.9555 225.327C91.9555 224.949 91.7982 224.582 91.5126 224.308C90.9757 223.824 90.0705 223.863 89.5787 224.406Z" fill="#758D94"/>
<path d="M89.6572 81.2655C89.3816 81.4412 89.2241 81.6865 89.2241 81.9367C89.2241 82.1613 89.3495 82.3773 89.5798 82.5494C89.8386 82.741 90.2067 82.8508 90.5899 82.8508C90.918 82.8508 91.2425 82.7678 91.5244 82.6067C91.8025 82.4298 91.9555 82.1894 91.9555 81.9306C91.9555 81.7012 91.8239 81.4827 91.5848 81.3131C91.0753 80.9579 90.2165 80.9311 89.6572 81.2655Z" fill="#758D94"/>
<path d="M85.0916 220.709C84.8345 220.957 84.6861 221.294 84.6719 221.677C84.6719 222.048 84.8131 222.394 85.0613 222.644C85.3128 222.908 85.6686 223.06 86.0375 223.06C86.4002 223.06 86.7506 222.917 86.987 222.678C87.2512 222.427 87.4032 222.072 87.4032 221.668C87.4032 221.32 87.2609 220.979 87.0147 220.733C86.4847 220.2 85.6097 220.196 85.0916 220.709Z" fill="#758D94"/>
<path d="M94.2923 77.6787C93.9736 77.935 93.7908 78.3049 93.7764 78.7388C93.7764 79.0464 93.8849 79.354 94.0912 79.6159C94.3561 79.9363 94.7394 80.1194 95.1421 80.1194C95.4524 80.1194 95.7513 80.0114 96.0071 79.81C96.3256 79.5554 96.5077 79.1691 96.5077 78.7114C96.5077 78.4184 96.4048 78.1328 96.2019 77.8709C95.7493 77.3253 94.8806 77.2154 94.2923 77.6787Z" fill="#758D94"/>
<path d="M85.0507 85.0845C84.806 85.345 84.6719 85.6733 84.6719 86.0494C84.6719 86.4144 84.8221 86.7684 85.087 87.0234C85.3458 87.2673 85.6829 87.4031 86.0375 87.4031C86.4074 87.4031 86.763 87.2508 87.0048 86.9959C87.2618 86.7372 87.4032 86.3905 87.4032 86.0035C87.3881 85.6348 87.2368 85.2954 86.9881 85.057C86.4758 84.5415 85.5973 84.536 85.0507 85.0845Z" fill="#758D94"/>
<path d="M99.5873 231.502C98.9864 231.07 98.0875 231.22 97.674 231.812L97.6705 231.816C97.505 232.059 97.418 232.341 97.418 232.647C97.434 233.087 97.6439 233.481 97.9899 233.725C98.2245 233.895 98.4992 233.985 98.7835 233.985C99.2245 233.985 99.6398 233.769 99.8931 233.408C100.06 233.17 100.149 232.902 100.149 232.594C100.149 232.164 99.9455 231.766 99.5873 231.502Z" fill="#758D94"/>
<path d="M94.076 228.109C93.8793 228.359 93.7764 228.658 93.7764 228.979C93.7764 229.385 93.9674 229.78 94.2662 230.016C94.5045 230.231 94.8076 230.343 95.1419 230.343C95.5516 230.343 95.9475 230.152 96.1911 229.842C96.3982 229.596 96.5077 229.291 96.5077 228.961C96.5077 228.555 96.3254 228.17 96.0079 227.905C95.4629 227.448 94.5311 227.532 94.076 228.109Z" fill="#758D94"/>
<path d="M97.9934 73.983C97.6421 74.2332 97.4322 74.6324 97.418 75.0923C97.418 75.3903 97.5079 75.6736 97.6742 75.9054C97.9229 76.2641 98.3383 76.4775 98.7837 76.4775C99.0609 76.4775 99.3411 76.3929 99.5991 76.2182C99.9351 75.9551 100.136 75.5614 100.149 75.1199C100.149 74.82 100.06 74.5367 99.8933 74.3049C99.4708 73.6996 98.5204 73.5764 97.9934 73.983Z" fill="#758D94"/>
<path d="M75.8843 98.555C75.3038 98.1424 74.3757 98.3093 73.9746 98.9272C73.8253 99.1583 73.7461 99.4223 73.7461 99.6882C73.7461 100.137 73.9702 100.561 74.3381 100.812C74.5642 100.972 74.839 101.06 75.1119 101.06C75.5705 101.06 75.9955 100.831 76.2471 100.444C76.4001 100.213 76.4774 99.9578 76.4774 99.6882C76.4774 99.2243 76.2508 98.797 75.8843 98.555Z" fill="#758D94"/>
<path d="M72.3884 103.067L72.3837 103.063C71.9308 102.679 71.3939 102.93 71.146 103.538C71.0589 103.748 71.0151 103.989 71.0151 104.267C71.0257 104.755 71.1929 105.186 71.4678 105.425C71.612 105.548 71.7703 105.612 71.9255 105.612C72.2491 105.612 72.5496 105.354 72.7091 104.941C72.7921 104.731 72.836 104.486 72.836 104.236C72.836 103.756 72.6646 103.308 72.3884 103.067Z" fill="#758D94"/>
<path d="M79.5898 93.951C79.0359 93.6607 78.0871 93.7415 77.6747 94.12C77.4869 94.2829 77.3882 94.4739 77.3882 94.6735C77.3882 94.9638 77.5822 95.2295 77.9289 95.4083C78.1769 95.532 78.4623 95.5969 78.7539 95.5969C79.1762 95.5969 79.5835 95.461 79.8502 95.2258C80.0237 95.0654 80.1195 94.8744 80.1195 94.6674C80.1195 94.3882 79.9195 94.1187 79.5898 93.951Z" fill="#758D94"/>
<path d="M81.3567 89.6876C81.1433 89.943 81.0305 90.2444 81.0305 90.5458C81.017 90.9648 81.1931 91.3599 81.5113 91.6264C81.7611 91.8377 82.0749 91.9553 82.3958 91.9553C82.7967 91.9553 83.1738 91.7844 83.4287 91.4885C83.6431 91.246 83.7611 90.9317 83.7611 90.5789C83.7611 90.1727 83.5852 89.7923 83.282 89.5424C82.7282 89.0701 81.8402 89.1271 81.3567 89.6876Z" fill="#758D94"/>
<path d="M211.786 75.3304L211.913 75.4104H211.926C212.123 75.5138 212.349 75.5671 212.59 75.5671C213.03 75.5671 213.444 75.372 213.696 75.0452C213.862 74.8334 213.955 74.57 213.955 74.2898C213.94 73.8863 213.731 73.5245 213.38 73.2977L212.661 72.8358V73.0742C212.194 73.0476 211.749 73.241 211.483 73.5862C211.311 73.8029 211.224 74.0447 211.224 74.3365C211.224 74.7251 211.433 75.0969 211.786 75.3304Z" fill="#758D94"/>
<path d="M159.77 251.284L160.239 251.265L160.222 250.791C160.193 250.031 159.574 249.447 158.821 249.463C158.287 249.476 157.815 249.808 157.618 250.308L157.507 250.589L158.193 251.284H159.77Z" fill="#758D94"/>
<path d="M158.748 56.317C158.599 56.3742 158.45 56.4253 158.293 56.4763L157.507 56.7316L158.201 57.1632C158.387 57.2792 158.611 57.3473 158.867 57.3582H158.884C159.501 57.3582 160.03 56.9234 160.118 56.3479L160.239 55.5373L159.493 55.9643C159.263 56.0958 159.021 56.2102 158.748 56.317Z" fill="#758D94"/>
<path d="M243.206 114.799C243.418 115.303 243.909 115.627 244.454 115.627C244.651 115.627 244.841 115.585 245.009 115.506C245.501 115.294 245.821 114.805 245.821 114.218C245.821 114.039 245.782 113.865 245.708 113.704C245.405 113.024 244.542 112.713 243.909 113.006C243.425 113.216 243.104 113.698 243.089 114.246C243.089 114.44 243.131 114.634 243.206 114.799Z" fill="#758D94"/>
<path d="M248.452 119.142C248.147 118.537 247.364 118.197 246.453 118.435C246.195 118.509 245.989 118.64 245.821 118.794C246.486 119.18 247.148 119.554 247.803 119.904C247.978 119.997 248.161 120.087 248.338 120.179C248.467 119.999 248.552 119.797 248.552 119.58C248.552 119.439 248.523 119.308 248.452 119.142Z" fill="#758D94"/>
<path d="M221.694 82.8508C222.068 82.8508 222.435 82.7444 222.707 82.5536C222.93 82.386 223.059 82.1598 223.059 81.9347C223.059 81.6791 222.897 81.432 222.607 81.2559C222.059 80.9293 221.17 80.9611 220.679 81.3231C220.452 81.4932 220.328 81.7109 220.328 81.9347C220.328 82.1916 220.491 82.4386 220.77 82.6087C221.016 82.7652 221.343 82.8508 221.694 82.8508Z" fill="#758D94"/>
<path d="M233.078 95.5969C233.272 95.5969 233.462 95.5321 233.636 95.4024C233.855 95.2251 233.985 94.9535 233.985 94.6612C233.976 94.4581 233.91 94.2709 233.796 94.1229C233.5 93.7364 232.902 93.6606 232.524 93.9578C232.299 94.1327 232.164 94.4055 232.164 94.7015C232.174 94.9046 232.239 95.0917 232.357 95.2446C232.533 95.4648 232.801 95.5969 233.078 95.5969Z" fill="#758D94"/>
<path d="M228.977 91.9553C229.301 91.9553 229.615 91.8375 229.859 91.6294C230.168 91.3735 230.343 90.9943 230.343 90.5395C230.329 90.2247 230.214 89.9209 230.013 89.6797C229.549 89.1421 228.651 89.0629 228.096 89.5343C227.787 89.7902 227.61 90.1713 227.612 90.6242C227.625 90.939 227.74 91.2428 227.942 91.4858C228.2 91.7841 228.576 91.9553 228.977 91.9553Z" fill="#758D94"/>
<path d="M217.142 80.1194C217.549 80.1194 217.936 79.9359 218.212 79.6057C218.405 79.358 218.508 79.0571 218.508 78.736C218.508 78.3306 218.327 77.9471 218.009 77.6811C217.463 77.2242 216.534 77.3086 216.076 77.8847C215.879 78.1342 215.776 78.4351 215.776 78.7544C215.776 79.1598 215.959 79.5451 216.277 79.8112C216.514 80.0093 216.821 80.1194 217.142 80.1194Z" fill="#758D94"/>
<path d="M241.725 110.164C241.924 110.164 242.136 110.115 242.356 110.011C242.809 109.77 243.09 109.308 243.09 108.799C243.09 108.595 243.044 108.396 242.936 108.169C242.601 107.533 241.865 107.226 241.097 107.585C240.641 107.82 240.358 108.285 240.358 108.799C240.358 109.005 240.406 109.206 240.512 109.43C240.753 109.883 241.216 110.164 241.725 110.164Z" fill="#758D94"/>
<path d="M217.141 230.343C217.471 230.343 217.782 230.228 217.997 230.035C218.316 229.78 218.508 229.385 218.508 228.98C218.508 228.66 218.404 228.359 218.207 228.108C217.754 227.535 216.825 227.447 216.276 227.904C215.959 228.17 215.776 228.556 215.776 228.961C215.776 229.282 215.88 229.583 216.083 229.84C216.347 230.162 216.734 230.343 217.141 230.343Z" fill="#758D94"/>
<path d="M239.448 105.612C239.608 105.612 239.768 105.548 239.923 105.418C240.19 105.169 240.358 104.722 240.358 104.206C240.358 103.992 240.319 103.776 240.236 103.544C239.988 102.916 239.427 102.686 238.986 103.063C238.715 103.301 238.547 103.732 238.537 104.234C238.537 104.486 238.585 104.733 238.67 104.938C238.83 105.354 239.128 105.612 239.448 105.612Z" fill="#758D94"/>
<path d="M212.588 233.985C212.864 233.985 213.145 233.894 213.378 233.729C213.729 233.48 213.939 233.084 213.955 232.625C213.955 232.33 213.862 232.039 213.692 231.804C213.267 231.226 212.421 231.076 211.807 231.486L211.8 231.491C211.448 231.74 211.238 232.138 211.224 232.595C211.224 232.896 211.313 233.178 211.479 233.407C211.733 233.769 212.147 233.985 212.588 233.985Z" fill="#758D94"/>
<path d="M221.693 226.701C222.041 226.701 222.361 226.578 222.625 226.338C222.901 226.075 223.059 225.708 223.059 225.328C223.059 224.992 222.934 224.665 222.704 224.407C222.224 223.876 221.332 223.812 220.781 224.309L220.779 224.311C220.489 224.576 220.328 224.941 220.328 225.337C220.328 225.675 220.454 226 220.689 226.268C220.952 226.544 221.317 226.701 221.693 226.701Z" fill="#758D94"/>
<path d="M236.717 100.149C236.907 100.149 237.085 100.066 237.227 99.9135C237.474 99.6612 237.627 99.2229 237.627 98.7698C237.627 98.4991 237.57 98.2339 237.469 98.0129C237.203 97.3997 236.581 97.2376 236.21 97.6336C235.958 97.884 235.806 98.3131 235.806 98.779C235.806 99.059 235.858 99.3168 235.962 99.5507C236.128 99.9245 236.411 100.149 236.717 100.149Z" fill="#758D94"/>
<path d="M225.79 87.4031C226.027 87.4031 226.252 87.2656 226.424 87.0199C226.6 86.7687 226.701 86.4148 226.701 86.0115C226.701 85.6649 226.606 85.3221 226.442 85.0764C226.096 84.5502 225.521 84.53 225.15 85.058C224.989 85.3037 224.89 85.6466 224.88 86.0206C224.88 86.4038 224.975 86.7522 225.144 86.9942C225.319 87.2564 225.549 87.4031 225.79 87.4031Z" fill="#758D94"/>
<path d="M225.785 223.06C226.034 223.06 226.267 222.915 226.448 222.643C226.611 222.382 226.701 222.039 226.701 221.659C226.693 221.29 226.592 220.949 226.425 220.712C226.083 220.196 225.491 220.2 225.14 220.73C224.974 220.978 224.88 221.319 224.88 221.703C224.88 222.07 224.98 222.426 225.151 222.669C225.319 222.92 225.544 223.06 225.785 223.06Z" fill="#758D94"/>
<path d="M162.969 256.076L162.06 256.144L163.087 257.156L162.601 257.657L163.697 257.569C188.208 255.607 211.404 245.1 229.011 227.984C232.09 224.99 234.963 221.821 237.627 218.507C236.778 218.705 235.904 218.855 235.003 218.952C217.441 239.867 191.696 253.938 162.969 256.076Z" fill="#758D94"/>
<path d="M147.696 257.577L148.769 257.657L148.298 257.165L149.313 256.154L148.414 256.086C119.819 253.928 94.3972 239.879 77.1163 218.949C76.2776 218.85 75.4567 218.703 74.6567 218.507C76.9931 221.45 79.495 224.28 82.1608 226.976C99.6841 244.703 122.958 255.571 147.696 257.577Z" fill="#758D94"/>
<path d="M228.351 79.3449C210.583 62.164 187.243 51.7918 162.63 50.136L162.06 50.0747L162.193 50.6228L162.595 50.6543L162.195 50.6559C162.195 50.8513 162.186 51.0467 162.171 51.2421L162.136 51.6594L162.556 51.6875C205.348 54.5736 241.53 84.185 253.885 123.723C254.527 124.067 255.179 124.402 255.836 124.731C250.819 107.643 241.39 91.9558 228.351 79.3449Z" fill="#758D94"/>
<path d="M148.823 51.6657L149.239 51.6375L149.206 51.2216C149.191 51.026 149.183 50.8321 149.185 50.6067L149.313 50.0747L148.752 50.1129C104.898 53.0893 68.379 83.7505 56.4478 124.731C57.0939 124.405 57.7333 124.074 58.3585 123.735C70.5297 84.1035 106.159 54.5759 148.823 51.6657Z" fill="#758D94"/>
<path d="M19.1196 222.511L19.8621 223.97L48.254 209.474C47.653 209.167 47.0897 208.841 46.5644 208.493L19.1196 222.511Z" fill="#758D94"/>
<path d="M42.4244 130.534C53.2758 77.6938 100.051 37.8372 155.941 37.8372C211.843 37.8372 258.628 77.7103 269.465 130.567C270.053 130.751 270.655 130.927 271.256 131.104C271.074 130.188 270.88 129.257 270.665 128.299L270.294 126.702C269.695 124.133 268.989 121.557 268.132 118.819L267.635 117.27C267.326 116.31 266.982 115.305 266.581 114.194C266.217 113.199 265.845 112.204 265.463 111.211C265.416 111.095 265.37 110.971 265.314 110.823C264.958 109.936 264.602 109.057 264.23 108.18C264.023 107.681 263.808 107.182 263.591 106.691C263.161 105.711 262.713 104.731 262.258 103.767C261.854 102.922 261.444 102.083 261.027 101.249L293.164 84.8423L292.41 83.3615L260.271 99.7678C259.827 98.9121 259.375 98.0615 258.909 97.2141L258.1 95.7748C257.358 94.4648 256.551 93.1084 255.709 91.7586C255.658 91.6674 255.606 91.5862 255.565 91.5315C254.986 90.6029 254.382 89.671 253.776 88.7706C253.477 88.3112 253.169 87.8519 252.856 87.4075C251.72 85.736 250.505 84.0563 249.243 82.413L248.897 81.9686C247.58 80.2607 246.215 78.5958 244.851 77.0272C244.5 76.601 244.135 76.1914 243.767 75.7819C243.403 75.3756 243.039 74.9693 242.669 74.5647C241.486 73.2547 240.256 71.963 239.014 70.7276C238.372 70.0843 237.715 69.4508 237.058 68.8157L236.899 68.6682C236.522 68.3083 236.14 67.9485 235.751 67.5903C234.996 66.8839 234.225 66.1958 233.459 65.5176C233.001 65.0997 232.541 64.6984 232.079 64.3187C231.252 63.6139 230.415 62.9175 229.571 62.2277L229.45 62.1348C228.74 61.5578 228.03 60.9973 227.312 60.4418L249.031 31.5509L247.704 30.5494L225.985 59.4386C221.758 56.2897 217.289 53.3994 212.694 50.8441C212.222 50.5854 211.751 50.3284 211.271 50.0731C210.811 49.826 210.353 49.5889 209.894 49.3501L209.706 49.7182L209.773 49.2871C209.378 49.0814 208.981 48.8758 208.589 48.6785C208.016 48.3883 207.437 48.0982 206.855 47.8146C205.404 47.1165 203.921 46.4399 202.447 45.8048C201.446 45.3737 200.436 44.9509 199.426 44.543C197.852 43.9095 196.295 43.3258 194.801 42.8085C194.28 42.6244 193.757 42.442 193.236 42.2679C192.192 41.9197 191.149 41.5798 190.089 41.2564C186.483 40.1537 182.816 39.2268 179.183 38.4955L186.061 3.04476L184.433 2.73135L177.548 38.1755C175.017 37.7045 172.424 37.3115 169.834 37.0048C168.416 36.8323 167.031 36.693 165.711 36.5902L164.331 36.4808C163.851 36.4476 163.362 36.4161 162.882 36.3912L160.158 36.2569C157.617 36.1674 155.059 36.1591 152.544 36.232C151.45 36.2669 150.365 36.3067 149.282 36.373C147.166 36.4858 144.955 36.6731 142.714 36.9301L142.605 36.9417C142.099 36.9965 141.588 37.0512 141.086 37.1208C140.076 37.2535 139.067 37.3944 138.076 37.5437C137.935 37.5603 137.786 37.5868 137.637 37.615C137.172 37.6879 136.706 37.7609 136.241 37.8438C135.182 38.0262 134.113 38.2169 133.064 38.4242C132.499 38.532 131.925 38.6497 131.36 38.7741L130.306 39.0079L122.2 3.82246L120.577 4.18558L128.684 39.381C128.214 39.4921 127.75 39.6048 127.287 39.7275C125.724 40.1172 124.16 40.545 122.639 40.9977C120.5 41.6345 118.382 42.3309 116.348 43.0638C115.823 43.2479 115.308 43.4386 114.787 43.6376C114.273 43.8283 113.759 44.0289 113.205 44.2461C112.706 44.4401 112.209 44.6325 111.673 44.8547L111.552 44.9011C111.097 45.0918 110.651 45.2825 110.207 45.4715C109.177 45.901 108.136 46.3603 107.116 46.8346C106.642 47.0501 106.177 47.2674 105.718 47.4896C105.22 47.7217 104.729 47.9638 104.248 48.2009C103.978 48.327 103.71 48.463 103.453 48.594C103.147 48.7482 102.847 48.9007 102.478 49.0914C101.614 49.5292 100.742 49.9901 99.8894 50.4644L99.5822 50.6335C99.2066 50.8408 98.8341 51.0448 98.4583 51.2603C92.9179 54.3844 87.6013 57.9794 82.6498 61.9508L59.9336 33.8409L58.6358 34.8789L81.3561 63.0021C80.5098 63.6969 79.7567 64.3369 79.0666 64.9488C78.3533 65.564 77.6479 66.1875 76.9538 66.8259C76.6039 67.1409 76.2549 67.4577 75.917 67.7794C75.5696 68.1044 75.2304 68.4277 74.89 68.7511L72.8732 70.7243C72.5306 71.0576 72.196 71.3926 71.8742 71.7325C71.2414 72.3825 70.6167 73.0491 69.9919 73.7157L69.9315 73.7787C69.3156 74.4271 68.6932 75.1136 68.0322 75.8731C67.4026 76.5794 66.7899 77.2941 66.1878 78.0038C65.7887 78.4632 65.4058 78.9291 65.0254 79.4017C64.5108 80.0252 63.9967 80.6653 63.5008 81.302C63.2106 81.6685 62.9196 82.0432 62.6408 82.413C62.4357 82.6767 62.2359 82.9436 62.0377 83.2089L61.7474 83.5953C61.5686 83.8291 61.3895 84.0646 61.2186 84.305L60.9236 84.7129C60.7623 84.9335 60.6005 85.1573 60.4456 85.3762C60.1214 85.819 59.8054 86.2683 59.5041 86.7094C59.3684 86.8968 59.2331 87.0908 59.0992 87.2914L58.9607 87.4971C58.6027 88.0244 58.244 88.5533 57.8996 89.0707C57.8111 89.1951 57.7314 89.3211 57.6612 89.4388C57.1557 90.2016 56.6655 90.9677 56.1858 91.7387C55.2322 93.2643 54.2899 94.8595 53.387 96.4779C52.8888 97.3584 52.4075 98.2389 51.9415 99.126C51.8964 99.2056 51.852 99.2952 51.8116 99.3764C51.5868 99.8042 51.37 100.232 51.1523 100.66L51.0604 100.842C50.846 101.25 50.6437 101.665 50.4429 102.074L50.322 102.321C50.135 102.696 49.952 103.071 49.7746 103.447L17.0927 88.1736L16.3882 89.6842L49.0718 104.958L48.6138 105.955C48.3978 106.444 48.1824 106.935 47.9769 107.42C47.8068 107.807 47.6423 108.201 47.4795 108.593L47.3717 108.85C47.1723 109.332 46.9732 109.813 46.7848 110.289C46.5847 110.773 46.3936 111.266 46.2114 111.747C45.0441 114.788 44.0154 117.824 43.1537 120.776L43.0119 121.265C42.924 121.568 42.836 121.87 42.7579 122.165C42.5178 123.012 42.2855 123.875 42.0598 124.737L41.7511 125.999C41.6358 126.47 41.5213 126.939 41.415 127.413C41.1488 128.561 40.8905 129.771 40.6306 131.08C41.0548 130.955 41.4829 130.831 41.901 130.703C42.0777 130.648 42.2488 130.589 42.4244 130.534Z" fill="#758D94"/>
<path d="M156.156 269.799C113.342 269.799 75.8769 246.355 55.8052 211.573C55.0816 211.477 54.3784 211.365 53.7163 211.224C54.6848 212.951 55.7049 214.687 56.7867 216.4C56.9868 216.717 57.1859 217.035 57.3923 217.349C59.7451 221.007 62.3463 224.589 65.1208 227.994C65.4367 228.388 65.7666 228.784 66.0906 229.171L66.1649 229.261C67.3906 230.739 68.7233 232.252 70.1272 233.757C70.4116 234.066 70.6971 234.367 70.9818 234.668L73.0677 236.819C74.7302 238.499 76.492 240.161 78.2991 241.759C78.6167 242.054 78.9432 242.34 79.2657 242.614C80.8291 243.982 82.3128 245.211 83.7969 246.368C84.098 246.606 84.402 246.839 84.7042 247.072L84.7729 247.125L63.0397 276.094L64.3677 277.1L86.0951 248.136C87.5626 249.238 89.0365 250.287 90.487 251.262C90.874 251.528 91.261 251.79 91.6504 252.045C91.9247 252.228 92.1987 252.411 92.4794 252.595C92.8873 252.861 93.2961 253.121 93.6984 253.368C95.1296 254.281 96.5745 255.152 98.1163 256.034C98.5386 256.275 98.9532 256.507 99.3757 256.742C99.8561 257.008 100.329 257.266 100.806 257.522C101.279 257.781 101.753 258.03 102.218 258.268C102.711 258.538 103.204 258.789 103.699 259.03C104.634 259.504 105.579 259.961 106.512 260.405C106.549 260.423 106.592 260.443 106.641 260.461C107.636 260.927 108.63 261.377 109.632 261.81C110.131 262.028 110.637 262.244 111.143 262.452L112.655 263.075C114.037 263.637 115.501 264.189 117.086 264.746C117.174 264.789 117.264 264.818 117.281 264.816C117.803 264.999 118.325 265.182 118.847 265.356C119.37 265.531 119.891 265.707 120.415 265.873L121.997 266.372C123.057 266.688 124.116 266.996 125.186 267.297C126.254 267.588 127.331 267.862 128.407 268.128C129.977 268.514 131.454 268.846 132.91 269.139L126.023 304.687L127.66 305L134.538 269.462C137.077 269.934 139.669 270.328 142.26 270.634C143.71 270.812 145.055 270.948 146.377 271.051L147.759 271.157C148.095 271.186 148.436 271.207 148.779 271.227L151.939 271.384C154.468 271.475 157.035 271.482 159.555 271.409C160.649 271.375 161.735 271.334 162.817 271.267C164.922 271.156 167.132 270.968 169.378 270.71C169.92 270.652 170.453 270.585 171.003 270.517C174.604 270.067 178.231 269.432 181.79 268.628L189.897 303.909L191.519 303.532L183.411 268.253C183.83 268.156 184.245 268.053 184.666 267.945C186.226 267.558 187.838 267.115 189.459 266.63L191.08 266.138C191.59 265.975 192.103 265.81 192.623 265.639C193.154 265.464 193.677 265.29 194.193 265.109C194.718 264.932 195.243 264.748 195.752 264.558C197.177 264.056 198.691 263.474 200.379 262.784C201.389 262.367 202.398 261.934 203.405 261.492L204.902 260.819C205.897 260.362 206.882 259.888 207.855 259.406C208.169 259.254 208.48 259.098 208.792 258.942L209.094 258.789C210.145 258.257 211.181 257.706 212.219 257.139C213.17 256.616 214.115 256.075 215.06 255.525C215.997 254.974 216.932 254.417 217.851 253.844C221.03 251.88 224.182 249.7 227.221 247.369C227.974 246.801 228.72 246.215 229.463 245.62L252.187 273.811L253.468 272.754L230.746 244.566C231.062 244.303 231.378 244.042 231.688 243.781C232.889 242.774 234.132 241.678 235.385 240.524C235.782 240.158 236.181 239.784 236.576 239.41C236.977 239.034 237.374 238.658 237.761 238.279C238.16 237.895 238.551 237.511 238.93 237.129C239.701 236.364 240.454 235.589 241.197 234.811C241.589 234.409 241.973 233.998 242.342 233.584C242.706 233.195 243.06 232.797 243.446 232.367C243.812 231.959 244.176 231.55 244.527 231.148C245.01 230.613 245.476 230.069 245.933 229.519C246.512 228.82 247.092 228.122 247.663 227.415C248.639 226.208 249.634 224.915 250.703 223.461C251.635 222.208 252.563 220.891 253.433 219.586C253.488 219.524 253.531 219.458 253.612 219.333C255.088 217.151 256.535 214.832 257.912 212.439C258.133 212.055 258.349 211.668 258.567 211.28C257.887 211.43 257.187 211.555 256.464 211.648C236.383 246.388 198.941 269.799 156.156 269.799Z" fill="#758D94"/>
<path d="M267.672 206.999L295.187 219.418L295.896 217.948L268.879 205.761C268.498 206.199 268.091 206.607 267.672 206.999Z" fill="#758D94"/>
<path d="M156.597 26.403H154.776V32.7761H156.597V26.403Z" fill="#758D94"/>
<path d="M154.776 296.806H156.597V273.134H154.776V296.806Z" fill="#758D94"/>
<path d="M156.597 -7.20499e-05H154.776V15.4775H156.597V-7.20499e-05Z" fill="#758D94"/>
<path d="M96.5073 28.4382L89.0807 15.4776L87.4028 16.1721L94.8296 29.1343L96.5073 28.4382Z" fill="#758D94"/>
<path d="M207.582 262.004L217.904 282.239L219.418 281.533L209.096 261.298L207.582 262.004Z" fill="#758D94"/>
<path d="M103.791 44.8574L100.739 39.1493L99.2388 39.8159L102.291 45.5225L103.791 44.8574Z" fill="#758D94"/>
<path d="M60.9998 79.5362L56.3984 74.6567L55.5371 76.1521L60.1385 81.0298L60.9998 79.5362Z" fill="#758D94"/>
<path d="M249.463 227.998L267.571 242.179L268.582 240.883L250.476 226.702L249.463 227.998Z" fill="#758D94"/>
<path d="M46.4328 67.0465L34.6967 58.2688L33.6865 59.506L45.4224 68.2837L46.4328 67.0465Z" fill="#758D94"/>
<path d="M20.0301 123.779L5.7973 120.179L5.46289 122.042L19.6955 125.642L20.0301 123.779Z" fill="#758D94"/>
<path d="M32.1757 126.552L31.8657 127.998L37.9289 129.284L38.2389 127.836L32.1757 126.552Z" fill="#758D94"/>
<path d="M13.7852 188.463L6.37305 190.348L6.80171 192.104L15.4775 189.9C15.4083 189.692 15.3359 189.485 15.2732 189.273C14.7519 189.017 14.2609 188.744 13.7852 188.463Z" fill="#758D94"/>
<path d="M271.711 125.642L294.075 119.982L293.677 118.358L271.313 124.02L271.711 125.642Z" fill="#758D94"/>
<path d="M63.5753 230.343L58.2686 235.301L59.3348 236.716L64.6417 231.758L63.5753 230.343Z" fill="#758D94"/>
<path d="M247.813 77.3882L265.851 62.287L264.769 61.0001L246.731 76.1013L247.813 77.3882Z" fill="#758D94"/>
<path d="M37.3281 251.837L38.4061 253.104L50.0744 243.448L48.9964 242.179L37.3281 251.837Z" fill="#758D94"/>
<path d="M92.8657 294.305L94.3101 294.985L100.149 281.098L98.7049 280.418L92.8657 294.305Z" fill="#758D94"/>
<path d="M103.791 269.702L105.383 270.403L108.343 263.821L106.751 263.119L103.791 269.702Z" fill="#758D94"/>
<path d="M213.955 23.4348L212.57 22.7611L203.94 43.9381L205.326 44.6118L213.955 23.4348Z" fill="#758D94"/>
<path d="M76.4274 77.3886C76.1842 77.398 75.9651 77.5004 75.8297 77.654C75.6444 77.8399 75.5504 78.094 75.5699 78.3102C75.5699 78.5643 75.6758 78.8051 75.8399 78.9473C76.0101 79.1199 76.2294 79.209 76.4744 79.209C76.7223 79.209 76.9543 79.1142 77.147 78.9189C77.3035 78.7425 77.3901 78.5169 77.3882 78.2438C77.3692 78.003 77.2601 77.7773 77.101 77.6351C76.9222 77.4663 76.6716 77.381 76.4274 77.3886Z" fill="#758D94"/>
<path d="M73.1661 81.3041C72.2121 82.3463 71.3824 83.2828 70.6628 84.1303L70.5166 84.2579V84.2914C69.4976 85.488 68.4958 86.7132 67.5376 87.9366C67.2623 88.2874 67.3401 88.7942 67.7139 89.0644C67.8611 89.1702 68.0314 89.2239 68.2212 89.2239C68.4735 89.2239 68.7216 89.1098 68.8946 88.9067L68.9492 88.8379C69.9331 87.5792 70.9306 86.3607 71.9154 85.2195C72.7846 84.2058 73.6118 83.2727 74.4509 82.3614C74.6 82.1936 74.6718 81.9838 74.6539 81.7673C74.635 81.5542 74.5298 81.3595 74.3646 81.2252C74.0234 80.9366 73.4766 80.9718 73.1661 81.3041Z" fill="#758D94"/>
<path d="M65.7015 90.5327C65.6037 90.686 65.5522 90.8581 65.5522 91.0302C65.5522 91.3386 65.6941 91.6129 65.929 91.7756C66.0858 91.8929 66.2719 91.9553 66.4673 91.9553C66.7511 91.9553 67.0266 91.8134 67.2239 91.5467C67.3215 91.3935 67.3731 91.2213 67.3731 91.0492C67.3731 90.7408 67.2303 90.4665 66.9833 90.2943C66.5816 90.0144 66.0157 90.1071 65.7015 90.5327Z" fill="#758D94"/>
<path d="M98.855 59.2977C97.7239 59.9631 96.5936 60.6507 95.4945 61.3434C94.0895 62.2352 92.7122 63.1508 91.4071 64.0579C91.2207 64.1839 91.0937 64.3779 91.0576 64.5889C91.0175 64.8204 91.0758 65.0502 91.1866 65.1795C91.3315 65.4093 91.6026 65.5522 91.8953 65.5522C92.0748 65.5522 92.2522 65.4944 92.3887 65.3957C93.6967 64.4868 95.0542 63.5848 96.4238 62.7151C97.4741 62.0531 98.5906 61.3723 99.738 60.6967C99.9345 60.5843 100.072 60.4039 100.126 60.1878C100.179 59.9716 100.141 59.7487 100.019 59.5615C99.7757 59.1871 99.242 59.0645 98.855 59.2977Z" fill="#758D94"/>
<path d="M114.209 51.9474C114.012 51.8763 113.8 51.8792 113.617 51.9504C112.321 52.4409 111.208 52.878 110.219 53.2855C108.754 53.8856 107.35 54.4947 106.056 55.0933C105.868 55.1734 105.726 55.3156 105.658 55.4949C105.586 55.6757 105.598 55.8713 105.694 56.0506C105.83 56.2951 106.102 56.4478 106.405 56.4478C106.525 56.4478 106.655 56.4196 106.762 56.3692C108.179 55.7202 109.563 55.1171 110.879 54.5806C111.948 54.142 113.076 53.7019 114.239 53.2648C114.421 53.1907 114.566 53.0588 114.652 52.8869C114.738 52.7061 114.738 52.5149 114.651 52.3297C114.568 52.1563 114.406 52.0171 114.209 51.9474Z" fill="#758D94"/>
<path d="M103.549 56.7157L103.653 56.591H103.41C103.345 56.5457 103.275 56.5098 103.201 56.4852C102.991 56.4172 102.772 56.4418 102.581 56.557L101.06 57.5337H102.177C102.192 57.6187 102.216 57.6999 102.249 57.7736L102.252 57.783C102.393 58.0777 102.674 58.2686 102.971 58.2686C103.113 58.2686 103.253 58.2289 103.365 58.1571C103.628 58.0003 103.791 57.6943 103.791 57.3542C103.791 57.1974 103.754 57.0463 103.689 56.9235C103.651 56.8479 103.604 56.778 103.549 56.7157Z" fill="#758D94"/>
<path d="M118.722 50.1939C118.704 50.1826 118.684 50.1731 118.665 50.1617C118.461 50.0575 118.227 50.0461 118.022 50.1314L115.627 51.1395H117.499C117.506 51.1887 117.519 51.2399 117.535 51.2911C117.643 51.6473 117.963 51.8955 118.313 51.8955C118.364 51.8955 118.432 51.8955 118.51 51.8766L118.617 51.8444C118.94 51.706 119.148 51.3706 119.148 50.9898C119.148 50.878 119.13 50.7718 119.099 50.6828C119.072 50.5975 119.032 50.5179 118.984 50.4459L119.269 50.1939H118.722Z" fill="#758D94"/>
<path d="M89.3287 66.4696C89.0862 66.4393 88.8399 66.5131 88.6974 66.6379C88.4559 66.8006 88.3116 67.0768 88.3135 67.423C88.3329 67.614 88.3963 67.7862 88.5111 67.9394C88.6855 68.1551 88.9519 68.2837 89.2238 68.2837C89.4288 68.2837 89.6226 68.2175 89.7936 68.0832C90.0086 67.9091 90.1361 67.6405 90.1344 67.3265C90.1168 67.1298 90.0554 66.9633 89.9477 66.8214C89.8019 66.6266 89.5766 66.4979 89.3287 66.4696Z" fill="#758D94"/>
<path d="M85.1081 68.4911C84.2277 69.2913 83.2577 70.2044 82.1431 71.2813C80.9775 72.4147 79.772 73.6384 78.5552 74.9243C78.4042 75.0881 78.3159 75.2971 78.2983 75.5663C78.2983 75.8016 78.388 76.037 78.5468 76.2083C78.7046 76.3796 78.921 76.4775 79.1408 76.4775C79.3476 76.4775 79.5571 76.389 79.732 76.2196C80.8798 74.9977 82.0676 73.789 83.2614 72.6293C84.2641 71.6597 85.2515 70.7334 86.1983 69.8768C86.3646 69.7243 86.4706 69.4984 86.4894 69.2593C86.5081 69.0164 86.4375 68.7792 86.2857 68.5853C85.9888 68.2238 85.4483 68.1805 85.1081 68.4911Z" fill="#758D94"/>
<path d="M50.8479 125.183C50.7155 124.973 50.4973 124.819 50.2618 124.765C50.0078 124.7 49.7406 124.729 49.5105 124.852C49.2783 124.975 49.1118 125.175 49.0392 125.42C48.7788 126.342 48.5159 127.341 48.2539 128.373C49.0155 128.092 49.7641 127.803 50.5085 127.511C50.6587 126.95 50.807 126.407 50.9547 125.89C51.0183 125.664 50.9827 125.412 50.8479 125.183Z" fill="#758D94"/>
<path d="M51.5805 120.224C51.4646 120.147 51.3381 120.171 51.2305 120.284C51.1218 120.4 51.0407 120.6 51.0229 120.757C50.9982 120.859 50.9849 120.974 50.9849 121.086C50.9849 121.48 51.116 121.841 51.3404 121.977C51.3743 121.992 51.4041 122 51.4403 122C51.6433 122 51.8184 121.741 51.8779 121.341C51.8894 121.254 51.8953 121.167 51.8953 121.086C51.8953 120.696 51.7642 120.341 51.5805 120.224Z" fill="#758D94"/>
<path d="M58.0117 104.788C57.8021 104.586 57.5339 104.752 57.4179 105.159L57.4008 105.229C57.3723 105.341 57.3584 105.465 57.3584 105.609C57.3584 105.956 57.4551 106.269 57.6105 106.424C57.6741 106.488 57.7431 106.522 57.8114 106.522C57.9854 106.522 58.1421 106.328 58.227 105.988C58.2476 105.89 58.2688 105.767 58.2688 105.609C58.2688 105.267 58.1693 104.946 58.0117 104.788Z" fill="#758D94"/>
<path d="M55.981 108.412C55.5913 108.227 55.119 108.428 54.9497 108.853C54.3894 110.268 53.9501 111.421 53.5722 112.463L53.5274 112.578C52.9859 114.051 52.4529 115.613 51.9452 117.208C51.8727 117.418 51.8798 117.647 51.9649 117.854C52.0507 118.06 52.2112 118.224 52.3971 118.3C52.4719 118.333 52.5372 118.342 52.5766 118.348L52.6623 117.917L52.6685 118.358C52.9975 118.358 53.2953 118.129 53.4093 117.788L53.411 117.781C53.8706 116.341 54.3909 114.815 54.9576 113.245L55.0025 113.141C55.4024 112.022 55.8669 110.81 56.3856 109.531C56.4667 109.317 56.4667 109.09 56.3959 108.906C56.3297 108.691 56.181 108.511 55.981 108.412Z" fill="#758D94"/>
<path d="M256.746 112.896C256.884 112.896 257.01 112.867 257.094 112.824C257.416 112.69 257.638 112.375 257.657 111.992C257.657 111.848 257.629 111.72 257.587 111.641C257.501 111.422 257.324 111.241 257.102 111.147C256.878 111.052 256.62 111.05 256.398 111.143C256.079 111.275 255.857 111.594 255.836 111.982C255.836 112.113 255.872 112.218 255.909 112.333C256.049 112.669 256.385 112.896 256.746 112.896Z" fill="#758D94"/>
<path d="M257.715 115.745C258.291 117.125 258.843 118.524 259.355 119.9C259.746 120.976 260.138 122.107 260.516 123.254C260.61 123.582 260.957 123.821 261.344 123.821C261.447 123.821 261.527 123.802 261.581 123.791C261.801 123.737 261.986 123.609 262.099 123.432C262.212 123.254 262.239 123.047 262.176 122.844C261.791 121.667 261.396 120.52 261.002 119.429L260.968 119.339L260.957 119.328C260.461 117.986 259.912 116.604 259.332 115.219C259.249 115.027 259.081 114.869 258.868 114.786C258.656 114.702 258.423 114.694 258.235 114.762C258.016 114.825 257.834 114.972 257.732 115.171C257.637 115.37 257.633 115.576 257.715 115.745Z" fill="#758D94"/>
<path d="M252.8 104.532C253.357 105.669 253.88 106.793 254.364 107.887C254.499 108.168 254.766 108.343 255.059 108.343C255.174 108.343 255.292 108.313 255.38 108.266C255.766 108.093 255.943 107.618 255.768 107.201C255.261 106.073 254.73 104.936 254.19 103.805C253.514 102.427 252.797 101.029 252.057 99.6511C251.961 99.4673 251.79 99.3287 251.591 99.2703C251.39 99.2118 251.176 99.2352 251.007 99.3371C250.831 99.4373 250.708 99.601 250.646 99.7847L250.373 99.8098L250.704 100.429C251.515 101.946 252.202 103.287 252.8 104.532Z" fill="#758D94"/>
<path d="M239.901 83.7612C240.015 83.7612 240.12 83.7233 240.192 83.6597C240.298 83.5734 240.358 83.4444 240.358 83.3069C240.358 83.1987 240.319 83.0906 240.251 83.0128C240.092 82.8222 239.796 82.7965 239.611 82.9531C239.499 83.0451 239.439 83.1807 239.449 83.3069C239.449 83.416 239.489 83.525 239.553 83.5971C239.635 83.6996 239.765 83.7612 239.901 83.7612Z" fill="#758D94"/>
<path d="M234.921 76.6284C233.806 75.3637 232.708 74.1654 231.656 73.0678C231.507 72.9115 231.31 72.8306 231.102 72.836C230.897 72.8432 230.7 72.9402 230.57 73.0929C230.41 73.269 230.329 73.5061 230.345 73.7073C230.345 73.9498 230.433 74.1672 230.593 74.3289C231.69 75.484 232.769 76.6643 233.801 77.8374C234.67 78.8309 235.502 79.81 236.283 80.7639C236.437 80.9328 236.642 81.0298 236.851 81.0298C237.042 81.0298 237.226 80.9507 237.37 80.8088C237.689 80.4908 237.715 79.9429 237.424 79.58C236.655 78.644 235.814 77.6506 234.921 76.6284Z" fill="#758D94"/>
<path d="M244.146 90.4581L244.149 90.4614C244.834 91.4085 245.541 92.4463 246.205 93.4307C246.358 93.6513 246.596 93.7761 246.856 93.7761C247.03 93.7761 247.182 93.7275 247.292 93.6448C247.465 93.5296 247.584 93.3545 247.626 93.1502C247.667 92.9458 247.628 92.7382 247.512 92.5663C246.864 91.5949 246.202 90.6365 245.425 89.5435C244.553 88.3305 243.625 87.0996 242.674 85.8882C242.551 85.7244 242.36 85.6141 242.152 85.5882C241.943 85.5622 241.73 85.6206 241.589 85.7341C241.421 85.8525 241.309 86.0374 241.271 86.2839C241.255 86.4898 241.315 86.6893 241.437 86.8401C242.422 88.097 243.334 89.3148 244.146 90.4581Z" fill="#758D94"/>
<path d="M130.08 46.4593C128.952 46.7696 127.701 47.1402 126.358 47.5631L126.263 47.5922C124.793 48.05 123.244 48.5815 121.681 49.1635C121.472 49.2275 121.291 49.3924 121.172 49.6407C121.078 49.8696 121.063 50.1199 121.133 50.3585C121.256 50.7387 121.567 50.9851 121.923 50.9851C121.975 50.9851 122.083 50.9851 122.177 50.9424C123.564 50.4264 125.106 49.9007 126.763 49.3788C127.949 48.9967 129.197 48.6281 130.476 48.2808C130.688 48.2188 130.863 48.0771 130.997 47.8385C131.102 47.6193 131.13 47.3827 131.08 47.1557C130.971 46.6513 130.526 46.337 130.08 46.4593Z" fill="#758D94"/>
<path d="M249.467 97.418C249.617 97.418 249.764 97.382 249.948 97.2872C250.214 97.1167 250.373 96.8267 250.373 96.5102C250.373 96.353 250.339 96.207 250.246 96.0251C249.986 95.6044 249.424 95.4698 248.983 95.7295C248.722 95.8924 248.552 96.1976 248.552 96.5102C248.552 96.6941 248.607 96.8703 248.681 96.9707C248.838 97.2512 249.133 97.418 249.467 97.418Z" fill="#758D94"/>
<path d="M146.534 43.7052C145.226 43.8067 143.88 43.9358 142.419 44.101C140.546 44.3179 138.875 44.5398 137.312 44.7825C136.832 44.8531 136.502 45.2816 136.578 45.7462C136.654 46.1386 137.027 46.4329 137.447 46.4329L137.592 46.4191C139.457 46.1368 141.107 45.9183 142.641 45.7514C143.842 45.6085 145.164 45.4812 146.679 45.359C146.924 45.3418 147.142 45.2316 147.277 45.0699C147.434 44.9029 147.511 44.6844 147.489 44.4417C147.434 44.0012 147.015 43.6622 146.534 43.7052Z" fill="#758D94"/>
<path d="M134.581 45.5402C134.149 45.6177 133.836 45.9923 133.836 46.4294L133.853 46.5978C133.932 47.0292 134.309 47.3433 134.751 47.3433L134.924 47.3262C135.349 47.2449 135.657 46.8721 135.657 46.437C135.657 46.3991 135.657 46.3235 135.638 46.2497C135.538 45.7615 135.06 45.4418 134.581 45.5402Z" fill="#758D94"/>
<path d="M123.491 259.173C124.735 259.526 125.988 259.872 127.215 260.187C128.752 260.572 130.331 260.94 131.902 261.279C131.986 261.299 132.051 261.299 132.098 261.299C132.487 261.299 132.819 261.051 132.909 260.688C132.998 260.28 132.716 259.867 132.283 259.77L132.277 259.769C130.836 259.462 129.32 259.11 127.645 258.691C126.468 258.387 125.233 258.051 123.989 257.694C123.784 257.63 123.555 257.649 123.359 257.746C123.16 257.844 123.01 258.014 122.955 258.189C122.881 258.387 122.9 258.609 123.009 258.795C123.113 258.977 123.277 259.105 123.491 259.173Z" fill="#758D94"/>
<path d="M118.946 257.592C119.05 257.634 119.157 257.657 119.263 257.657C119.664 257.657 120.013 257.405 120.116 257.07C120.157 256.97 120.179 256.853 120.179 256.741C120.179 256.361 119.93 256.013 119.571 255.89C119.107 255.72 118.583 255.962 118.409 256.427C118.358 256.556 118.358 256.677 118.358 256.751C118.358 257.144 118.608 257.488 118.946 257.592Z" fill="#758D94"/>
<path d="M152.045 44.1353C152.026 43.8923 151.623 43.7014 151.127 43.7014L151.012 43.7042C150.562 43.7326 150.224 43.9264 150.224 44.1731C150.243 44.4189 150.645 44.6118 151.165 44.6118H151.167C151.659 44.6014 152.045 44.401 152.045 44.1353Z" fill="#758D94"/>
<path d="M139.992 262.459C141.206 262.586 142.462 262.701 143.747 262.81C145.247 262.928 146.827 263.031 148.502 263.119C148.919 263.119 149.274 262.882 149.311 262.578C149.327 262.429 149.262 262.281 149.113 262.148C148.974 262.036 148.777 261.964 148.569 261.951H148.563C147.033 261.876 145.471 261.775 143.922 261.652C142.776 261.559 141.565 261.446 140.21 261.302C139.782 261.268 139.374 261.485 139.301 261.818C139.285 261.961 139.337 262.102 139.466 262.235C139.599 262.355 139.782 262.434 139.992 262.459Z" fill="#758D94"/>
<path d="M135.492 262.19L135.652 262.209C136.094 262.209 136.471 261.896 136.535 261.527C136.567 261.429 136.567 261.344 136.567 261.288C136.567 260.852 136.254 260.481 135.822 260.402L135.812 260.4C135.338 260.321 134.857 260.643 134.756 261.114L134.746 261.306C134.746 261.74 135.059 262.113 135.492 262.19Z" fill="#758D94"/>
<path d="M64.2463 93.9098C64.0555 93.7902 63.8164 93.7475 63.5856 93.7954C63.3546 93.8415 63.1522 93.9747 63.0327 94.1541C62.2588 95.297 61.5371 96.4058 60.8869 97.4496C60.0252 98.8317 59.1777 100.25 58.3728 101.661C58.2648 101.844 58.2367 102.062 58.3075 102.322C58.3843 102.517 58.5312 102.679 58.7205 102.776C58.8522 102.846 58.9929 102.881 59.1397 102.881C59.4618 102.881 59.7572 102.713 59.9112 102.443C60.7081 101.037 61.5361 99.65 62.3737 98.3175L62.4367 98.2167V98.2099C63.1193 97.1353 63.8131 96.0692 64.4923 95.0544C64.6205 94.8819 64.6719 94.6581 64.6241 94.407C64.5684 94.1968 64.4349 94.0226 64.2463 93.9098Z" fill="#758D94"/>
<path d="M163.119 43.1869C161.944 43.0728 160.697 42.9854 159.302 42.9174L155.687 42.7911L158.139 44.0585C158.509 44.2503 158.877 44.5125 159.318 44.9107C159.402 44.9908 159.485 45.0636 159.566 45.1534L159.681 45.2724L159.816 45.2797C161.132 45.3525 162.116 45.4253 163.065 45.5225C163.496 45.5225 163.847 45.0539 163.881 44.3838C163.881 44.0827 163.808 43.7987 163.688 43.6045C163.55 43.3568 163.354 43.2112 163.119 43.1869Z" fill="#758D94"/>
<path d="M82.903 236.164C84.0534 237.29 85.164 238.333 86.1921 239.25C86.3243 239.377 86.4923 239.448 86.6663 239.448C86.8851 239.448 87.0934 239.336 87.2338 239.145C87.3586 238.982 87.4176 238.772 87.4002 238.555C87.3831 238.339 87.2891 238.137 87.1382 237.996C85.9913 236.958 84.8965 235.93 83.8841 234.94C83.0776 234.151 82.2293 233.292 81.3773 232.406C81.2431 232.249 81.0302 232.173 80.8449 232.164C80.6404 232.168 80.4476 232.262 80.3327 232.406C80.1832 232.571 80.1071 232.796 80.1213 232.992C80.1213 233.218 80.2073 233.433 80.3477 233.57C81.3407 234.606 82.1524 235.431 82.903 236.164Z" fill="#758D94"/>
<path d="M77.2787 230.343C77.556 230.343 77.8117 230.25 77.9979 230.082C78.1952 229.906 78.2987 229.682 78.2987 229.436C78.2987 229.212 78.2003 228.983 78.009 228.791C77.8199 228.621 77.5551 228.522 77.2808 228.522C77.2808 228.522 77.2808 228.522 77.2798 228.522C77.0126 228.522 76.754 228.617 76.572 228.78C76.4396 228.899 76.3449 229.047 76.3009 229.191H75.5674L76.5494 230.072C76.7436 230.249 77.0023 230.343 77.2787 230.343Z" fill="#758D94"/>
<path d="M167.606 43.7051C167.126 43.6616 166.677 44.0266 166.613 44.5977C166.594 45.0761 166.954 45.4809 167.432 45.5206L167.519 45.5225C167.989 45.5225 168.372 45.182 168.429 44.7111L168.433 44.6166C168.433 44.1551 168.083 43.7637 167.606 43.7051Z" fill="#758D94"/>
<path d="M179.69 45.9449C178.561 45.7111 177.424 45.4905 176.292 45.2859C174.95 45.0477 173.51 44.8242 172.013 44.6211C171.614 44.5582 171.235 44.8256 171.169 45.2231C171.123 45.6074 171.398 45.9537 171.799 46.0121H171.803C173.303 46.2167 174.72 46.4388 176.016 46.674C177.184 46.8771 178.313 47.0978 179.43 47.3345L179.532 47.3433C179.879 47.3433 180.189 47.0992 180.249 46.7938C180.293 46.6141 180.263 46.4256 180.16 46.2664C180.055 46.1042 179.891 45.9902 179.69 45.9449Z" fill="#758D94"/>
<path d="M173.726 263.119H173.812L173.843 263.114C175.212 262.839 176.302 262.603 177.196 262.383L177.242 262.386L177.299 262.366C178.665 262.048 180.082 261.676 181.518 261.259C181.918 261.143 182.164 260.651 182.069 260.162C181.972 259.683 181.573 259.386 181.17 259.503H181.168C179.814 259.9 178.406 260.272 176.985 260.608C175.914 260.861 174.782 261.102 173.613 261.334C173.416 261.371 173.244 261.498 173.127 261.693C173.01 261.887 172.962 262.125 172.995 262.368C173.056 262.803 173.366 263.119 173.726 263.119Z" fill="#758D94"/>
<path d="M184.938 259.719C185.046 260.12 185.375 260.388 185.759 260.388C185.846 260.388 185.916 260.369 185.985 260.352C186.369 260.235 186.624 259.862 186.606 259.466C186.606 259.415 186.606 259.336 186.58 259.221C186.546 259.099 186.488 258.989 186.413 258.895L186.642 258.676H186.159C185.968 258.569 185.74 258.535 185.524 258.601L182.089 259.617H184.914C184.919 259.653 184.928 259.689 184.938 259.719Z" fill="#758D94"/>
<path d="M185.053 47.3692C184.58 47.2521 184.087 47.5374 183.933 48.0702L183.911 48.2496C183.911 48.6464 184.179 49.0054 184.558 49.1206C184.673 49.1641 184.773 49.1641 184.826 49.1641C185.244 49.1641 185.607 48.8863 185.71 48.4839C185.732 48.3913 185.732 48.312 185.73 48.2818C185.751 47.8642 185.479 47.4902 185.053 47.3692Z" fill="#758D94"/>
<path d="M168.427 263.119H168.504L168.533 263.117C168.994 263.089 169.343 262.894 169.343 262.662L169.334 262.544L169.294 262.523C169.241 262.442 169.141 262.368 169.003 262.312C168.812 262.233 168.567 262.198 168.323 262.212C167.845 262.242 167.503 262.442 167.523 262.667L167.527 262.72C167.586 262.947 167.971 263.119 168.427 263.119Z" fill="#758D94"/>
<path d="M156.597 263.119L157.625 263.115C158.477 263.111 159.345 263.099 160.213 263.084C161.708 263.058 163.304 263.014 164.952 262.953C165.164 262.945 165.361 262.901 165.517 262.819C165.651 262.742 165.717 262.647 165.699 262.553C165.663 262.341 165.3 262.194 164.834 262.21L164.827 262.211C163.817 262.249 162.789 262.28 161.779 262.303L161.38 262.312V262.445H158.069L156.597 263.119Z" fill="#758D94"/>
<path d="M196.169 51.1919C195.127 50.7424 193.997 50.2791 192.804 49.8175C191.389 49.2743 189.954 48.7588 188.535 48.2868C188.134 48.1583 187.702 48.4169 187.591 48.8334C187.525 49.0504 187.544 49.2812 187.644 49.4825C187.739 49.6717 187.897 49.814 188.087 49.8834L188.096 49.8869C189.49 50.3537 190.904 50.8622 192.298 51.3967C193.666 51.9312 194.687 52.3478 195.61 52.7504C195.696 52.7868 195.792 52.8059 195.889 52.8059C196.193 52.8059 196.472 52.6029 196.606 52.2679C196.679 52.0579 196.673 51.8306 196.589 51.6258C196.505 51.4227 196.355 51.2683 196.169 51.1919Z" fill="#758D94"/>
<path d="M65.9433 215.932L65.9212 215.949C65.6761 216.132 65.5354 216.429 65.5539 216.692C65.5539 216.867 65.6017 217.028 65.7241 217.221C65.901 217.457 66.1752 217.597 66.4588 217.597C66.6549 217.597 66.8409 217.536 66.9826 217.429C67.2312 217.257 67.3731 216.981 67.3731 216.673C67.3731 216.482 67.3104 216.299 67.2036 216.159C66.9247 215.758 66.3594 215.654 65.9433 215.932Z" fill="#758D94"/>
<path d="M226.934 70.4096C226.783 70.5806 226.702 70.7933 226.702 71.025C226.702 71.2795 226.811 71.5188 227.015 71.705C227.177 71.8474 227.39 71.9253 227.617 71.9253C227.879 71.9253 228.126 71.817 228.317 71.6005C228.466 71.4068 228.536 71.1883 228.521 71.006C228.521 70.7439 228.415 70.5046 228.211 70.3222C227.828 69.9993 227.239 70.0411 226.934 70.4096Z" fill="#758D94"/>
<path d="M74.8397 227.612C75.0157 227.612 75.1877 227.547 75.3416 227.411C75.488 227.267 75.5657 227.089 75.5641 226.931C75.5827 226.727 75.5095 226.528 75.3778 226.399C74.3896 225.308 73.4612 224.239 72.6186 223.222L72.617 223.221C71.9554 222.434 71.2651 221.578 70.503 220.605C70.3818 220.452 70.2012 220.354 70.0061 220.332C69.8154 220.314 69.6218 220.365 69.4806 220.476C69.3269 220.591 69.2242 220.767 69.1998 220.96C69.1747 221.153 69.2301 221.35 69.3468 221.497C70.0172 222.36 70.7388 223.254 71.489 224.152C72.3103 225.139 73.2269 226.189 74.2928 227.366C74.4332 227.523 74.6328 227.612 74.8397 227.612Z" fill="#758D94"/>
<path d="M64.3123 213.955C64.4948 213.955 64.6765 213.904 64.7978 213.826C64.9851 213.724 65.1153 213.565 65.1769 213.388L65.5524 213.361L65.0714 212.72C64.7032 212.23 64.3379 211.727 63.9739 211.224C63.285 211.274 62.5971 211.315 61.9106 211.343C62.4386 212.085 62.985 212.838 63.5603 213.606C63.7374 213.828 64.011 213.955 64.3123 213.955Z" fill="#758D94"/>
<path d="M211.688 58.6154C210.472 57.993 209.255 57.3853 208.044 56.8038C206.499 56.0716 204.937 55.3656 203.398 54.7022C203.187 54.6138 202.938 54.6023 202.713 54.6727C202.489 54.7432 202.308 54.8873 202.206 55.074C201.998 55.459 202.177 55.9193 202.61 56.1207L202.625 56.1256C204.128 56.771 205.669 57.4688 207.207 58.2026C208.361 58.7464 209.57 59.3459 210.798 59.9848C210.931 60.0536 211.084 60.0896 211.239 60.0896C211.548 60.0896 211.832 59.9487 212.02 59.6899C212.14 59.4934 212.164 59.2772 212.1 59.1068C212.037 58.8873 211.888 58.712 211.688 58.6154Z" fill="#758D94"/>
<path d="M200.761 52.9372L200.661 52.8804C200.438 52.7819 200.177 52.7819 199.945 52.8766C199.722 52.9695 199.546 53.1494 199.499 53.2915C199.408 53.4373 199.389 53.6002 199.389 53.6855C199.37 54.0605 199.588 54.4034 199.934 54.5493C200.045 54.6004 200.164 54.627 200.294 54.627C200.646 54.627 200.962 54.428 201.122 54.1079C201.181 53.9886 201.209 53.8617 201.209 53.7196C201.209 53.3748 201.02 53.0642 200.761 52.9372Z" fill="#758D94"/>
<path d="M222.292 65.6539L222.223 65.598C220.704 64.5927 219.341 63.728 218.069 62.9657C217.888 62.8458 217.648 62.7978 217.413 62.8314C217.175 62.8666 216.963 62.9864 216.836 63.1543C216.708 63.3173 216.661 63.5139 216.699 63.7296C216.736 63.907 216.841 64.0653 217.061 64.2171V64.2187C218.534 65.1169 219.915 65.9976 221.171 66.835C222.161 67.4839 223.207 68.1984 224.354 69.0087C224.51 69.1286 224.71 69.1941 224.914 69.1941C225.173 69.1941 225.42 69.0886 225.578 68.916C225.744 68.753 225.818 68.5292 225.782 68.3454C225.762 68.1408 225.648 67.9554 225.464 67.8244C224.499 67.1355 223.445 66.4131 222.292 65.6539Z" fill="#758D94"/>
<path d="M189.315 258.567C189.374 258.567 189.476 258.567 189.571 258.53C190.874 258.13 192.137 257.714 193.323 257.295C194.934 256.734 196.492 256.156 197.936 255.584C198.146 255.511 198.318 255.349 198.402 255.153C198.501 254.947 198.501 254.71 198.416 254.535C198.337 254.335 198.181 254.176 197.976 254.089C197.764 253.997 197.522 253.991 197.313 254.07L197.32 254.065L197.281 254.089C195.68 254.715 194.157 255.28 192.757 255.768C191.527 256.188 190.278 256.601 189.06 256.982C188.848 257.042 188.666 257.187 188.56 257.379C188.455 257.575 188.434 257.804 188.502 258.003C188.613 258.341 188.939 258.567 189.315 258.567Z" fill="#758D94"/>
<path d="M214.62 61.0739L214.54 61.0322H214.516C214.274 60.9517 213.989 61.0256 213.845 61.2141C213.81 61.2615 213.785 61.3117 213.77 61.3628H213.045L214.004 61.8346C214.09 61.8839 214.197 61.9104 214.313 61.9104C214.407 61.9104 214.497 61.8915 214.577 61.8545L214.712 61.8602L214.659 61.81C214.704 61.7797 214.745 61.7427 214.781 61.7001C214.846 61.6129 214.875 61.5182 214.863 61.4528C214.863 61.3003 214.775 61.162 214.62 61.0739Z" fill="#758D94"/>
<path d="M214.86 246.731C215.04 246.731 215.211 246.684 215.408 246.553C215.642 246.377 215.776 246.112 215.776 245.826C215.776 245.66 215.725 245.489 215.629 245.33C215.37 244.916 214.796 244.783 214.377 245.046L214.358 245.06C214.103 245.236 213.958 245.512 213.96 245.766C213.939 245.949 213.986 246.137 214.107 246.33C214.283 246.586 214.558 246.731 214.86 246.731Z" fill="#758D94"/>
<path d="M263.107 128.216L263.1 128.146C263.03 127.667 262.746 127.373 262.464 127.487C262.363 127.528 262.277 127.626 262.209 127.751C262.51 127.961 262.812 128.169 263.119 128.373V128.371C263.119 128.322 263.115 128.27 263.107 128.216Z" fill="#758D94"/>
<path d="M96.0664 246.722L96.2001 246.849H96.2374C97.4438 247.707 98.6821 248.547 99.9243 249.354C100.037 249.425 100.167 249.463 100.298 249.463C100.568 249.463 100.819 249.304 100.941 249.065C101.061 248.859 101.09 248.612 101.028 248.408C100.982 248.223 100.887 248.071 100.753 247.966L100.684 247.909C99.4175 247.091 98.1639 246.241 96.9568 245.384C95.9707 244.682 94.9952 243.96 94.0498 243.232C93.7004 242.976 93.2289 243.075 93.0049 243.445C92.7634 243.818 92.8436 244.338 93.1883 244.61C94.2478 245.413 95.2055 246.118 96.0664 246.722Z" fill="#758D94"/>
<path d="M103.392 250.329C103.522 250.358 103.661 250.373 103.795 250.373C104.127 250.373 104.431 250.281 104.582 250.14C104.659 250.073 104.701 249.994 104.701 249.919C104.701 249.75 104.52 249.596 104.228 249.518C103.797 249.399 103.246 249.478 102.996 249.695C102.921 249.763 102.88 249.841 102.88 249.919C102.88 250.08 103.05 250.229 103.392 250.329Z" fill="#758D94"/>
<path d="M232.142 233.075C232.361 233.075 232.582 232.991 232.766 232.835C233.733 231.929 234.718 230.971 235.7 229.989C236.937 228.74 238.123 227.499 239.219 226.302C239.385 226.123 239.464 225.899 239.445 225.668C239.425 225.427 239.311 225.217 239.145 225.09C238.788 224.784 238.217 224.818 237.9 225.162C236.613 226.553 235.475 227.744 234.42 228.799C233.436 229.786 232.462 230.731 231.532 231.603C231.173 231.931 231.162 232.462 231.495 232.801C231.656 232.975 231.891 233.075 232.142 233.075Z" fill="#758D94"/>
<path d="M219.298 244C219.47 244 219.64 243.939 219.768 243.836C220.756 243.07 221.763 242.26 222.763 241.427C223.982 240.409 225.21 239.341 226.406 238.256C226.578 238.105 226.682 237.89 226.699 237.654C226.715 237.433 226.651 237.213 226.51 237.022C226.235 236.665 225.734 236.613 225.395 236.907L225.387 236.914C224.194 238.002 222.988 239.056 221.8 240.047C220.888 240.807 219.893 241.609 218.862 242.416C218.674 242.546 218.555 242.746 218.518 242.993C218.484 243.229 218.532 243.454 218.649 243.629C218.791 243.861 219.034 244 219.298 244Z" fill="#758D94"/>
<path d="M107.873 252.669C108.884 253.128 109.926 253.581 110.975 254.019L111.217 254.125C112.685 254.733 114.114 255.292 115.462 255.786C115.549 255.819 115.649 255.836 115.752 255.836C116.065 255.836 116.357 255.654 116.477 255.384C116.558 255.201 116.558 255.005 116.47 254.808C116.384 254.636 116.234 254.501 116.045 254.428L116.039 254.427C114.535 253.872 113.128 253.319 111.854 252.784C110.799 252.35 109.691 251.87 108.573 251.365C108.384 251.274 108.172 251.259 107.971 251.321C107.772 251.383 107.605 251.52 107.519 251.685C107.423 251.859 107.406 252.058 107.473 252.244C107.54 252.431 107.687 252.585 107.873 252.669Z" fill="#758D94"/>
<path d="M90.1384 241.269C90.4137 241.269 90.6743 241.167 90.866 240.976C90.9801 240.852 91.0434 240.694 91.0429 240.56C91.0638 240.32 90.9304 240.085 90.6855 239.938L89.8559 239.448V239.829C89.6847 239.874 89.528 239.96 89.4148 240.081C89.2914 240.212 89.2241 240.37 89.2241 240.527C89.2241 240.761 89.3623 240.985 89.5926 241.123C89.7463 241.216 89.9407 241.269 90.1384 241.269Z" fill="#758D94"/>
<path d="M228.527 236.716C228.712 236.716 228.901 236.654 229.055 236.54L229.134 236.483C229.325 236.311 229.433 236.071 229.433 235.81C229.433 235.579 229.351 235.365 229.2 235.192C229.041 235.016 228.811 234.908 228.565 234.897C228.306 234.882 228.094 234.969 227.924 235.122C227.729 235.287 227.612 235.541 227.612 235.8C227.612 236.042 227.701 236.264 227.846 236.408C228.024 236.607 228.266 236.716 228.527 236.716Z" fill="#758D94"/>
<path d="M204.836 252.194C204.951 252.194 205.121 252.184 205.24 252.112C206.607 251.518 207.795 250.979 208.875 250.469L208.991 250.419C210.425 249.741 211.95 248.985 213.546 248.156C213.746 248.037 213.878 247.871 213.928 247.682C213.986 247.482 213.951 247.278 213.831 247.11C213.712 246.935 213.518 246.809 213.286 246.756C213.047 246.705 212.796 246.734 212.591 246.84L212.585 246.842C211.271 247.532 209.803 248.263 208.097 249.074C207.017 249.584 205.817 250.125 204.419 250.734C204.21 250.833 204.061 250.985 203.987 251.177C203.91 251.378 203.931 251.6 204.033 251.763C204.173 252.02 204.495 252.194 204.836 252.194Z" fill="#758D94"/>
<path d="M242.975 220.328C243.218 220.328 243.453 220.207 243.617 219.991C244.4 218.87 245.14 217.773 245.818 216.731C246.687 215.396 247.566 213.985 248.42 212.55C248.537 212.361 248.579 212.131 248.536 211.906C248.491 211.679 248.367 211.487 248.187 211.36C248.012 211.237 247.792 211.194 247.587 211.244C247.376 211.294 247.192 211.433 247.09 211.617C246.231 213.047 245.37 214.422 244.534 215.704L244.519 215.735C244.52 215.731 244.522 215.729 244.524 215.729L244.481 215.813C244.486 215.797 244.497 215.77 244.509 215.752L244.468 215.81C243.807 216.826 243.091 217.88 242.331 218.962C242.209 219.153 242.156 219.385 242.189 219.603C242.224 219.82 242.329 220.016 242.496 220.159C242.632 220.268 242.802 220.328 242.975 220.328Z" fill="#758D94"/>
<path d="M200.756 254.015C200.818 254.015 200.876 253.983 200.95 253.928C201.109 253.77 201.208 253.458 201.204 253.189C201.222 252.976 201.182 252.786 201.169 252.739C201.07 252.281 200.801 252.071 200.572 252.268L200.566 252.276C200.41 252.421 200.308 252.724 200.298 253.094C200.298 253.243 200.313 253.379 200.339 253.48C200.415 253.804 200.579 254.015 200.756 254.015Z" fill="#758D94"/>
<path d="M156.142 54.8301C153.77 54.8301 151.84 52.8999 151.84 50.5299C151.84 50.0408 151.919 49.5692 152.077 49.1188C152.996 50.4419 154.504 51.2442 156.142 51.2442C157.776 51.2442 159.286 50.4419 160.204 49.1188C160.363 49.5692 160.442 50.0408 160.442 50.5299C160.442 52.8999 158.512 54.8301 156.142 54.8301ZM160.602 48.2531C160.189 47.4438 159.562 46.7611 158.792 46.279C157.998 45.7828 157.081 45.5224 156.142 45.5224C155.2 45.5224 154.284 45.7828 153.49 46.279C152.72 46.7611 152.093 47.4438 151.68 48.2531C151.504 48.598 151.367 48.964 151.275 49.3405C151.182 49.7276 151.134 50.127 151.134 50.5299C151.134 51.2055 151.266 51.8618 151.527 52.4776C151.78 53.0758 152.141 53.6107 152.6 54.0699C153.059 54.5292 153.596 54.8916 154.192 55.1432C154.81 55.4054 155.464 55.5374 156.142 55.5374C156.816 55.5374 157.472 55.4054 158.089 55.1432C158.686 54.8899 159.223 54.5292 159.682 54.0699C160.141 53.6107 160.502 53.0758 160.755 52.4776C161.015 51.86 161.149 51.2055 161.149 50.5299C161.149 50.127 161.1 49.7276 161.007 49.3405C160.915 48.964 160.778 48.598 160.602 48.2531Z" fill="#758D94"/>
</g>
</svg>
