<svg width="110" height="110" viewBox="0 0 110 110" fill="none" xmlns="http://www.w3.org/2000/svg">
<path d="M47.3693 0.117049C47.0679 0.181545 38.0677 1.75096 27.345 3.64285C16.6223 5.51324 7.42837 7.16865 6.89008 7.29764C2.86369 8.35108 0 12.0059 0 16.1121C0 17.4236 13.0911 92.0028 13.694 94.1312C14.1677 95.7866 14.8352 96.8615 16.2347 98.1729C17.6558 99.5059 19.163 100.258 21.0793 100.559C22.7373 100.817 22.931 100.796 32.5987 99.0759C36.6251 98.3664 39.9194 97.8075 39.9409 97.8505C39.9625 97.872 40.1778 98.2374 40.4361 98.6674C41.362 100.194 43.0845 101.527 45.0439 102.215C45.9913 102.537 84.425 109.761 86.3413 109.954C90.1308 110.363 94.0065 107.998 95.5352 104.343C95.8367 103.677 98.5927 89.4014 103.007 65.8388C110.607 25.3351 110.478 26.1306 109.574 23.7227C108.626 21.2073 106.646 19.122 104.342 18.262C103.136 17.8105 64.8959 10.5869 62.549 10.372C61.7523 10.286 60.7404 10.372 59.9222 10.5655L58.5872 10.8664L58.3504 9.34002C57.8121 6.07221 56.9939 4.22331 55.3144 2.56791C53.312 0.63302 50.1253 -0.355924 47.3693 0.117049ZM51.3741 4.22331C52.3646 4.73928 53.4196 5.79272 53.9149 6.80317C54.2378 7.42663 67.8242 83.4248 67.8242 84.5857C67.8242 86.3271 66.4031 88.5845 64.7883 89.4014C63.8409 89.8959 24.2229 96.9475 22.3928 96.969C21.7468 96.969 20.7994 96.797 20.2827 96.6035C19.163 96.1521 17.5266 94.3892 17.2252 93.3142C16.7515 91.5298 3.66035 16.8431 3.66035 15.8756C3.66035 13.8118 5.49053 11.4899 7.55756 10.9309C8.03125 10.8019 17.3544 9.10353 28.2709 7.16865C49.3071 3.42786 49.7162 3.36336 51.3741 4.22331ZM82.0135 17.617C92.8653 19.6164 102.188 21.4223 102.727 21.5943C104.88 22.2823 106.43 24.4752 106.409 26.7325C106.387 28.5169 92.4778 102.322 91.9826 103.29C91.1428 104.924 89.571 106.063 87.8054 106.299C87.1164 106.385 81.5828 105.44 67.0706 102.731C56.1757 100.71 46.8525 98.9254 46.3573 98.7534C45.1515 98.3664 43.7951 97.3345 44.1826 97.1195C44.4841 96.969 48.7904 96.1951 49.3071 96.2166C49.4794 96.2381 50.6421 96.4315 51.8694 96.6895C54.0441 97.1195 54.1517 97.1195 54.8838 96.754C55.4221 96.496 55.702 96.1736 55.8527 95.6791C55.9819 95.2491 56.2187 94.9481 56.4986 94.8836C56.757 94.8191 58.6303 94.4967 60.6758 94.1312C62.7212 93.7657 64.7667 93.3572 65.2189 93.1852C67.2644 92.4973 69.4175 90.6914 70.3003 88.9715L70.7525 88.09L71.0324 88.864C71.3554 89.7884 72.109 90.1969 73.7238 90.3904C74.8435 90.5194 74.9511 90.4979 75.554 89.8744C77.1258 88.3265 75.6617 86.6281 72.7334 86.6066C72.109 86.6066 71.8291 86.7571 71.3554 87.2946C70.9893 87.746 70.8171 87.8535 70.9247 87.574C71.5061 86.0046 71.5922 83.8978 71.1401 81.7264L71.0109 81.0599L72.2597 80.9309C77.7933 80.3505 82.2288 78.2866 85.7169 74.6318C88.3007 71.9014 89.9586 69.0421 90.906 65.5808C91.5304 63.3019 91.595 57.7553 90.9921 55.6484C90.3031 53.176 89.3557 50.9831 88.2576 49.2847C83.2192 41.5882 73.8746 38.1484 65.5849 40.9647C64.7667 41.2227 64.0777 41.4377 64.0562 41.3947C64.0347 41.3732 63.4533 38.1699 62.7643 34.3001C61.537 27.3345 61.537 27.227 61.86 26.1306C62.0538 25.5071 62.3337 24.3892 62.4629 23.6152C62.7428 22.1748 63.3672 21.2503 64.0993 21.2503C64.3146 21.2503 65.2404 21.4008 66.1663 21.5728C68.4486 22.0028 68.6209 21.9813 69.3529 21.2718C70.1496 20.4549 70.1711 19.6809 69.3745 18.907C68.9008 18.4125 68.4056 18.2405 66.6615 17.918C63.7332 17.4021 62.1614 17.6815 60.7834 18.95C60.5035 19.1865 60.2451 19.3369 60.2021 19.294C60.0083 19.1005 59.3839 14.9942 59.5131 14.6932C59.6422 14.3492 60.6973 13.9838 61.6662 13.9623C62.0107 13.9408 71.1831 15.5962 82.0135 17.617ZM74.542 43.9315C77.7718 44.598 80.334 46.0169 82.7886 48.4463C92.1548 57.7553 87.827 73.4924 74.9942 76.7172C73.853 77.0182 72.7334 77.1471 71.7645 77.1041L70.3003 77.0397L70.042 75.6422C69.6544 73.5569 69.6329 73.6213 71.1616 72.7399C73.8961 71.149 76.6091 67.9242 77.8364 64.7854C79.0421 61.711 79.3005 57.8627 78.4823 54.6809C77.944 52.5096 76.3722 49.6717 74.7574 47.9088C73.4224 46.4469 70.7956 44.469 69.719 44.125C69.3745 44.0175 69.3314 43.953 69.5683 43.8026C70.042 43.5231 72.9272 43.5876 74.542 43.9315ZM67.2644 47.1349C69.1592 47.8013 70.6018 48.7688 72.0013 50.2952C74.0038 52.4451 75.3602 55.8634 75.3602 58.7657C75.3602 61.754 73.9822 65.1078 71.8721 67.3652C70.7094 68.6121 69.2022 69.7946 69.03 69.6011C68.9439 69.4936 65.0251 47.2639 65.0251 46.8769C65.0251 46.4899 65.6926 46.5544 67.2644 47.1349Z" fill="#252523"/>
<path d="M43.8164 7.70656C42.0508 8.05054 41.5771 8.22253 41.1896 8.674C40.9097 8.97498 40.6943 9.42646 40.6943 9.66294C40.6943 10.4154 41.3187 11.3398 41.9216 11.4903C42.4169 11.6193 45.0652 11.3398 46.4217 11.0174C46.7016 10.9314 47.0892 11.0819 47.4768 11.4043C47.972 11.8343 48.1227 12.2428 48.4457 14.0057C48.8763 16.4566 49.35 17.166 50.5342 17.166C51.4601 17.166 52.3213 16.3491 52.3213 15.5106C52.3213 14.3497 51.6539 11.0819 51.2448 10.3079C50.4266 8.674 48.8548 7.59906 47.0246 7.40557C46.4217 7.34108 45.0652 7.47007 43.8164 7.70656Z" fill="#252523"/>
<path d="M12.6817 13.2089C10.873 13.5529 9.99022 13.9183 9.06436 14.7138C8.11698 15.5093 7.32031 17.2077 7.32031 18.4546C7.34184 19.9595 8.07391 23.3563 8.48301 23.8078C9.27968 24.6892 10.6362 24.5387 11.3252 23.5068C11.6697 22.9908 11.6697 22.8188 11.3036 20.626C10.7869 17.3366 10.8299 17.2507 14.3611 16.6487C15.9329 16.3692 16.342 16.2187 16.7726 15.7242C17.1602 15.2728 17.2463 14.9933 17.1387 14.3913C16.9018 12.8649 15.7822 12.5854 12.6817 13.2089Z" fill="#252523"/>
<path d="M21.8537 17.2776C21.2508 17.8577 21.1647 19.0179 21.5953 20.5003C22.0905 22.1116 24.0284 22.4554 24.9112 21.1018C25.4495 20.3069 25.0188 17.9007 24.2222 17.2132C23.4686 16.5901 22.5212 16.5901 21.8537 17.2776Z" fill="#252523"/>
<path d="M27.5824 21.0377C26.2905 21.317 25.623 21.9615 25.623 22.9713C25.623 24.5182 27.0872 25.1198 29.2619 24.4967C30.36 24.1744 30.7906 23.6803 30.7906 22.7565C30.7906 21.2096 29.671 20.608 27.5824 21.0377Z" fill="#252523"/>
<path d="M19.4856 22.4788C17.6339 22.887 16.8157 23.7034 17.0956 24.8206C17.4186 26.0667 18.3875 26.4104 20.4976 26.0667C22.3278 25.7659 22.9737 24.1545 21.768 22.9514C21.1436 22.3499 20.6053 22.2209 19.4856 22.4788Z" fill="#252523"/>
<path d="M23.7501 25.339C23.018 25.6397 22.7597 26.3487 22.8888 27.7667C23.018 29.2061 23.5133 30.0655 24.396 30.3663C25.1066 30.6241 25.9033 30.2804 26.3985 29.5284C26.7214 29.0557 26.7214 28.7765 26.5277 27.5304C26.1832 25.4893 25.2358 24.7374 23.7501 25.339Z" fill="#252523"/>
<path d="M30.8344 27.8062C29.9731 28.5371 29.93 29.3971 30.7052 30.515C31.3296 31.4179 31.4157 32.6004 31.0066 34.1483C30.8774 34.6643 30.7913 35.7822 30.8128 36.6636L30.899 38.2546L29.7793 38.8565L28.6597 39.48L28.2075 38.9855C27.9491 38.7275 27.5616 37.8891 27.3247 37.1366C26.485 34.3418 24.9563 32.5144 23.04 31.9984C22.1141 31.7619 21.6404 31.8694 20.9514 32.4929C20.4131 32.9659 20.3055 33.8903 20.6715 34.5998C20.8007 34.8363 21.3174 35.2017 21.8342 35.4382C22.8677 35.9327 23.4491 36.7926 23.9873 38.706C24.1811 39.3725 24.6764 40.3829 25.107 40.9419L25.9036 41.9738L25.3869 42.9198C25.107 43.4358 24.7625 43.9517 24.6333 44.0592C24.2457 44.3817 23.4275 43.9517 21.9849 42.6833C20.4992 41.3504 19.2719 40.7054 17.8509 40.4904C16.6666 40.3184 15.2886 40.6624 14.7503 41.2429C14.169 41.8879 14.2336 43.0488 14.8795 43.7367C15.3317 44.2312 15.5039 44.2742 16.4513 44.1667C17.6571 44.0377 18.6691 44.4462 19.7026 45.5211C20.4777 46.3596 22.0926 47.3915 22.8892 47.585C23.4491 47.7355 23.4706 47.8 23.4706 49.0899C23.4706 50.8528 23.0615 51.0463 20.5208 50.3799C17.9585 49.7134 15.6977 50.1434 14.1905 51.5623C13.1139 52.5942 13.0493 53.4542 13.9967 54.4001C14.5565 54.9376 14.7719 55.0236 15.3317 54.9161C15.7192 54.8516 16.2145 54.5936 16.4729 54.3571C17.1619 53.7122 18.0662 53.6262 20.0471 54.0347C21.2528 54.2926 22.2433 54.3571 23.083 54.2711L24.3318 54.1207L24.9132 55.3246L25.5161 56.5285L24.9778 56.937C24.6764 57.152 23.8582 57.496 23.1476 57.6894C20.8222 58.3344 19.0351 59.6673 18.2815 61.3442C17.7647 62.4622 17.7647 63.1931 18.303 63.8811C19.2289 65.042 20.8222 64.7625 21.4251 63.3221C21.8557 62.2902 22.5447 61.7957 24.4395 61.1507C25.3869 60.8068 26.5927 60.2263 27.1094 59.8393L28.0783 59.1514L29.1549 59.7748C29.7578 60.1403 30.2745 60.4413 30.3176 60.4843C30.5114 60.6563 29.7578 61.9032 28.7673 62.9566C26.8941 64.999 26.0759 67.4284 26.7003 69.2773C27.497 71.6851 30.6406 70.8897 30.2315 68.3743C30.0592 67.3424 30.3607 66.7189 31.8894 64.999C32.5138 64.2896 33.2244 63.2361 33.4827 62.6342L33.978 61.5592L35.2698 61.6237C36.4971 61.7097 36.5833 61.7312 36.7125 62.3117C36.7771 62.6342 36.6909 63.5156 36.4971 64.2681C35.9589 66.2675 36.1311 68.6108 36.8847 69.9007C37.6168 71.1262 38.1981 71.5562 39.1886 71.5562C40.7819 71.5562 41.4709 69.7933 40.3728 68.5033C39.7269 67.7509 39.7053 67.0199 40.1575 64.612C40.3513 63.6231 40.4374 62.4622 40.3513 61.8172L40.2221 60.6993L41.3848 60.0973L42.526 59.4953L42.9997 60.0758C43.258 60.3983 43.581 61.1078 43.7102 61.6452C44.5069 64.784 46.6385 67.0414 48.8347 67.0414C50.1481 67.0414 50.9878 65.902 50.5787 64.698C50.428 64.2681 50.062 63.9241 49.3945 63.6231C48.2964 63.1071 47.7797 62.3547 47.1552 60.3983C46.6815 59.0009 46.294 58.2269 45.605 57.453C45.1959 57.0015 45.1959 56.98 45.8633 55.8835C46.2509 55.2816 46.6385 54.7871 46.7677 54.7871C47.1552 54.7871 47.9088 55.2816 49.0285 56.292C50.9448 58.0334 53.1195 58.8074 55.0142 58.3989C56.6506 58.0549 57.3612 56.55 56.4353 55.4106C56.1123 55.0021 55.7678 54.8946 54.4114 54.7871C52.7965 54.6366 52.7534 54.6366 51.3754 53.4112C50.6218 52.7447 49.4591 51.9493 48.7916 51.6483L47.6074 51.1108L47.6935 49.7779C47.7797 48.445 47.7797 48.445 48.4902 48.3805C48.8778 48.3375 49.9543 48.4665 50.9017 48.66C53.5501 49.2404 55.9401 48.6815 57.1674 47.2195C58.6746 45.4351 56.6506 43.0488 54.8205 44.4892C53.8731 45.2417 53.0549 45.3492 51.2678 44.9837C50.2773 44.7687 49.0715 44.6827 48.2103 44.7257L46.8107 44.8332L46.1863 43.6507L45.5619 42.4898L46.1002 42.0813C46.3801 41.8449 47.1552 41.5224 47.8012 41.3289C51.0094 40.3829 53.1841 38.2976 53.1841 36.1907C53.1841 35.2232 52.3443 34.3633 51.4185 34.3633C50.751 34.3633 49.5237 35.3737 49.5237 35.9112C49.5237 36.4917 48.5117 37.1796 46.9184 37.7171C45.2605 38.2761 43.7533 39.0715 43.3011 39.5875C43.0858 39.867 42.8705 39.8025 41.88 39.1575C40.825 38.4695 40.7389 38.3621 40.9326 37.8676C41.0403 37.5666 41.6647 36.7496 42.3107 36.0187C44.0116 34.1483 44.4638 33.1164 44.4638 31.0955C44.4638 29.6765 44.3992 29.3756 43.9686 28.9241C43.3442 28.2576 42.6552 28.1071 41.8154 28.4726C41.0834 28.7736 40.7173 29.6121 40.868 30.73C40.9757 31.6974 40.6312 32.3854 39.2101 33.9978C38.6288 34.6643 37.9182 35.7177 37.6383 36.2982L37.1431 37.3731H35.8081H34.4517V36.3412C34.4517 35.7822 34.5593 34.9437 34.6885 34.4923C35.3129 32.2564 34.8608 29.7195 33.6119 28.3436C32.5784 27.1827 31.7387 27.0322 30.8344 27.8062ZM39.3178 41.9738C46.6815 45.6286 45.0021 56.3995 36.8416 57.8184C33.2459 58.4634 29.4563 56.378 27.82 52.9167C27.3032 51.8203 27.2386 51.4118 27.2386 49.5199C27.2386 47.542 27.3032 47.241 27.9276 45.9296C29.0042 43.6507 31.1573 41.8449 33.5258 41.2429C33.978 41.1354 35.0976 41.0709 36.045 41.1354C37.4661 41.1999 38.0044 41.3289 39.3178 41.9738Z" fill="#252523"/>
<path d="M47.1747 70.3984C46.4211 71.0215 46.3134 71.8809 46.7441 73.6211C47.024 74.6953 47.5838 75.2109 48.5096 75.2109C50.2322 75.2109 50.7489 73.7715 49.9307 71.1719C49.7154 70.5059 48.8326 69.8398 48.1436 69.8398C47.9714 69.8398 47.5407 70.0977 47.1747 70.3984Z" fill="#252523"/>
<path d="M53.0732 74.2485C52.9656 74.2915 52.5995 74.3774 52.255 74.4419C50.7694 74.7856 50.2526 76.6763 51.4153 77.5786C51.9105 77.9868 52.1689 78.0298 53.2455 77.9224C54.6235 77.7935 55.6355 77.3423 55.8508 76.8267C56.3676 75.4517 55.5063 74.1196 54.1068 74.1626C53.6546 74.1626 53.2024 74.2056 53.0732 74.2485Z" fill="#252523"/>
<path d="M43.9234 75.8821C42.0717 76.3977 41.6411 78.4817 43.2129 79.3196C43.622 79.5344 44.0311 79.5559 45.1507 79.3626C46.7441 79.0833 47.2824 78.6751 47.4977 77.6438C47.6053 77.0637 47.5192 76.8489 46.9809 76.2903C46.2704 75.6028 45.4306 75.4739 43.9234 75.8821Z" fill="#252523"/>
<path d="M60.6757 76.6297C59.8359 77.0811 59.7283 77.8121 60.1374 80.2415C60.6541 83.2728 60.4819 83.5093 57.1876 84.0252C55.099 84.3692 54.2593 84.9712 54.2593 86.0891C54.2593 87.0351 55.0559 87.895 55.9172 87.895C56.6493 87.895 59.7067 87.3361 60.6972 87.0136C61.623 86.7126 63.0011 85.4657 63.5178 84.4767C64.1638 83.1868 64.2068 82.1548 63.7547 79.618C63.3886 77.6401 63.2379 77.1671 62.7642 76.7587C62.1183 76.2212 61.4939 76.1782 60.6757 76.6297Z" fill="#252523"/>
<path d="M48.5116 78.9995C47.9948 79.5151 47.9733 79.6655 48.081 80.9545C48.1886 82.5014 48.6623 83.3393 49.5666 83.6401C50.2772 83.8764 51.1169 83.5542 51.5906 82.8452C52.1289 82.0288 51.7198 79.6225 50.9231 78.9135C50.1695 78.269 49.2221 78.2905 48.5116 78.9995Z" fill="#252523"/>
<path d="M20.0049 83.705C19.079 84.1995 18.9713 84.9304 19.402 87.3598C19.8757 90.0686 20.0694 90.6061 21.0599 91.6381C22.6317 93.272 24.2896 93.5944 27.7993 92.928C30.2969 92.455 31.0936 91.6381 30.4907 90.1761C30.0601 89.1657 29.328 88.9507 27.3256 89.3162C24.8925 89.7462 24.225 89.7032 23.7298 89.1012C23.5145 88.8217 23.213 87.8758 23.0623 86.9943C22.6532 84.6295 22.4379 84.049 21.7489 83.705C20.9953 83.318 20.7154 83.318 20.0049 83.705Z" fill="#252523"/>
<path d="M94.0512 23.5285C93.0392 24.0659 92.9316 25.7428 93.8789 26.4523C94.1804 26.6673 95.2354 26.9898 96.2474 27.1833C97.2594 27.3768 98.2498 27.6132 98.4651 27.7422C99.1542 28.1077 99.2833 28.8602 98.9388 30.6661C98.4867 33.0094 98.5297 33.6329 99.1542 34.2564C99.8216 34.9443 100.769 34.9443 101.523 34.2994C101.996 33.8909 102.147 33.4394 102.535 31.354C102.965 28.9892 102.965 28.8387 102.621 27.6562C102.212 26.2158 101.286 25.0764 100.08 24.4529C99.4125 24.1089 95.3 23.1415 94.7402 23.1845C94.6756 23.206 94.3742 23.335 94.0512 23.5285Z" fill="#252523"/>
<path d="M87.8912 27.8105C87.396 28.2402 87.2022 28.6269 86.9869 29.7226C86.707 31.2265 86.8362 31.7207 87.6759 32.3007C88.9678 33.2031 90.2166 32.3652 90.6257 30.3242C90.8411 29.1855 90.8411 28.9062 90.5396 28.3476C90.2166 27.7246 89.4846 27.2734 88.8171 27.2734C88.6664 27.2734 88.2357 27.5097 87.8912 27.8105Z" fill="#252523"/>
<path d="M81.8188 31.9588C81.3882 32.3885 81.1729 32.8182 81.1729 33.2479C81.1729 34.2791 81.7757 34.8162 83.3475 35.1385C84.5748 35.3963 84.8117 35.3748 85.4576 35.0526C86.3835 34.6014 86.7064 33.7635 86.3404 32.8612C86.039 32.1307 85.1346 31.6795 83.6059 31.4647C82.5293 31.3358 82.4217 31.3573 81.8188 31.9588Z" fill="#252523"/>
<path d="M90.1108 33.6136C88.905 34.7952 89.7017 36.2991 91.7687 36.7073C93.7712 37.137 94.8477 36.5569 94.8047 35.096C94.7616 33.7639 93.642 33.0764 91.5534 33.0764C90.8644 33.0764 90.4984 33.2053 90.1108 33.6136Z" fill="#252523"/>
<path d="M86.6213 35.8727C85.9754 36.1305 85.5232 37.0973 85.351 38.5368C85.2218 39.6539 85.2433 39.7614 85.8677 40.3629C86.6429 41.1578 87.3965 41.2223 88.1716 40.5348C89.0975 39.7399 89.4635 37.1618 88.7745 36.3239C88.3223 35.8082 87.3103 35.5719 86.6213 35.8727Z" fill="#252523"/>
<path d="M77.576 82.8462C77.0807 83.1899 76.7793 83.9849 76.5424 85.4458C76.4348 86.1978 76.4994 86.4341 76.9731 86.9927C77.4252 87.5298 77.7267 87.6802 78.2865 87.6802C79.2985 87.6802 79.9875 86.9497 80.2889 85.5532C80.6119 84.0278 80.6119 83.9419 79.966 83.1899C79.3415 82.438 78.3511 82.3091 77.576 82.8462Z" fill="#252523"/>
<path d="M79.9043 88.481C79.6459 88.6958 79.3875 89.2114 79.3229 89.6411C79.0861 91.0376 80.421 91.9614 82.7034 91.9829C84.1675 91.9829 84.9642 90.3931 84.1245 89.1255C83.5216 88.2017 80.744 87.7935 79.9043 88.481Z" fill="#252523"/>
<path d="M75.8342 91.4043C75.2959 91.9844 74.8653 93.7676 75.0375 94.7129C75.2528 95.916 76.8031 96.4961 77.8797 95.7441C78.3749 95.4004 78.8055 93.9609 78.8055 92.6719C78.8055 91.082 76.9108 90.2656 75.8342 91.4043Z" fill="#252523"/>
<path d="M87.6099 93.4446C87.2439 93.7671 87.0286 94.3476 86.6841 96.0675C86.2965 97.9594 86.1458 98.3463 85.6506 98.7118C85.0692 99.1418 85.0477 99.1418 82.873 98.7548C80.9352 98.3893 80.6337 98.3893 80.1385 98.6688C78.8251 99.3998 78.7174 100.84 79.8801 101.679C80.6122 102.216 84.4233 102.84 85.7151 102.646C87.0501 102.453 88.5788 101.399 89.2678 100.26C89.8492 99.2278 90.732 95.186 90.5382 94.3906C90.2368 93.1436 88.6434 92.6277 87.6099 93.4446Z" fill="#252523"/>
</svg>
