<svg width="31" height="50" viewBox="0 0 31 50" fill="none" xmlns="http://www.w3.org/2000/svg">
<path d="M15.5 1L30 17L15.5 49L1 17L15.5 1Z" fill="#C4A2D9"/>
<path d="M1 17L9.5 19M1 17L15.5 1M1 17L15.5 49M9.5 19L15.5 1M9.5 19L21.5 18.8889M9.5 19L15.5 49M30 17L15.5 1M30 17L21.5 18.8889M30 17L15.5 49M15.5 1L21.5 18.8889M21.5 18.8889L15.5 49" stroke="#D6E5FF" stroke-width="0.5"/>
<path d="M21.5541 32.3872C21.749 32.2286 21.9978 32.1333 22.2689 32.1333C21.9978 32.1333 21.749 32.0383 21.5541 31.8797C21.5959 31.7328 21.674 31.5942 21.7897 31.4785C21.674 31.5942 21.5352 31.6725 21.3882 31.714C21.2298 31.5192 21.1345 31.2709 21.1345 31.0001C21.1345 31.2709 21.0391 31.5192 20.8803 31.714C20.7337 31.6725 20.5949 31.5942 20.4792 31.4785C20.5949 31.5942 20.673 31.7328 20.7148 31.8797C20.5199 32.0383 20.2711 32.1333 20 32.1333C20.2711 32.1333 20.5199 32.2286 20.7148 32.3872C20.673 32.5341 20.5949 32.6727 20.4792 32.7884C20.5949 32.6727 20.7337 32.5944 20.8803 32.5526C21.0391 32.7477 21.1345 32.996 21.1345 33.2668C21.1345 32.996 21.2298 32.7477 21.3882 32.5526C21.5352 32.5944 21.674 32.6727 21.7897 32.7884C21.674 32.6727 21.5959 32.5341 21.5541 32.3872Z" fill="#D6E5FF"/>
<path d="M8.05493 21.8359C8.31293 21.6259 8.64171 21.5 9 21.5C8.64171 21.5 8.31293 21.3738 8.05493 21.1641C8.10999 20.9699 8.21382 20.7866 8.36642 20.6336C8.21382 20.7866 8.03015 20.89 7.83586 20.9451C7.62624 20.6871 7.5 20.3583 7.5 20C7.5 20.3583 7.37415 20.6871 7.16414 20.9451C6.96985 20.89 6.78658 20.7866 6.63359 20.6336C6.78658 20.7866 6.89001 20.9699 6.94507 21.1641C6.68707 21.3738 6.35868 21.5 6 21.5C6.35868 21.5 6.68707 21.6259 6.94507 21.8359C6.89001 22.0302 6.78658 22.2134 6.63359 22.3664C6.78658 22.2134 6.96985 22.11 7.16414 22.0549C7.37415 22.3129 7.5 22.6417 7.5 23C7.5 22.6417 7.62624 22.3129 7.83586 22.0549C8.03015 22.11 8.21382 22.2134 8.36642 22.3664C8.21382 22.2134 8.10999 22.0302 8.05493 21.8359Z" fill="#D6E5FF"/>
<path d="M15.5541 8.38719C15.749 8.22859 15.9978 8.13327 16.2689 8.13327C15.9978 8.13327 15.749 8.03834 15.5541 7.87974C15.5959 7.73281 15.674 7.59418 15.7897 7.47852C15.674 7.59418 15.5352 7.67254 15.3882 7.71398C15.2298 7.51921 15.1345 7.27095 15.1345 7.00008C15.1345 7.27095 15.0391 7.51921 14.8803 7.71398C14.7337 7.67254 14.5949 7.59418 14.4792 7.47852C14.5949 7.59418 14.673 7.73281 14.7148 7.87974C14.5199 8.03834 14.2711 8.13327 14 8.13327C14.2711 8.13327 14.5199 8.22859 14.7148 8.38719C14.673 8.53411 14.5949 8.67275 14.4792 8.7884C14.5949 8.67275 14.7337 8.59439 14.8803 8.55257C15.0391 8.74772 15.1345 8.99598 15.1345 9.26685C15.1345 8.99598 15.2298 8.74772 15.3882 8.55257C15.5352 8.59439 15.674 8.67275 15.7897 8.7884C15.674 8.67275 15.5959 8.53411 15.5541 8.38719Z" fill="#D6E5FF"/>
</svg>
