<svg width="86" height="86" viewBox="0 0 86 86" fill="none" xmlns="http://www.w3.org/2000/svg">
<g opacity="0.8">
<path d="M59.7499 63.166C60.7263 63.166 61.6963 62.7892 62.4365 62.0482C63.9298 60.5663 63.9298 58.1518 62.4365 56.6635L51.5367 45.7539C50.0561 44.2657 47.6441 44.2657 46.1572 45.7539C44.6703 47.2422 44.6703 49.6502 46.1572 51.1385L57.057 62.0482C57.8037 62.7892 58.7735 63.166 59.7499 63.166Z" fill="#3F4A4E"/>
<path d="M36.8226 40.2012C37.7926 40.2012 38.7626 39.8307 39.5093 39.0834C40.9962 37.5951 40.9962 35.1871 39.5093 33.7052L28.6094 22.7955C27.1225 21.3072 24.7168 21.3072 23.2299 22.7955C21.743 24.2774 21.743 26.6919 23.2299 28.1738L34.1298 39.0834C34.8764 39.8307 35.8463 40.2012 36.8226 40.2012Z" fill="#3F4A4E"/>
<path d="M49.0391 40.3867C50.0091 40.3867 50.9791 40.0226 51.7258 39.2817L62.4337 28.5508C63.927 27.0689 63.927 24.6609 62.4337 23.1663C60.9531 21.6844 58.5411 21.6844 57.0542 23.1663L46.3457 33.8908C44.8587 35.379 44.8587 37.7871 46.3457 39.2817C47.0859 40.0226 48.0564 40.3867 49.0391 40.3867Z" fill="#3F4A4E"/>
<path d="M25.9228 63.5371C26.8928 63.5371 27.8628 63.1603 28.6094 62.4193L39.7006 51.3181C41.1811 49.8298 41.1811 47.4216 39.7006 45.9398C38.2073 44.4451 35.8016 44.4451 34.3211 45.9398L23.2299 57.0348C21.743 58.523 21.743 60.931 23.2299 62.4193C23.9702 63.1603 24.94 63.5371 25.9228 63.5371Z" fill="#3F4A4E"/>
<path d="M3.87922 46.4219H30.9948C33.0944 46.4219 34.7982 44.7101 34.7982 42.6086C34.7982 40.5072 33.0944 38.8017 30.9948 38.8017H3.87922C1.77966 38.8017 0.0820312 40.5072 0.0820312 42.6086C0.0820312 44.7101 1.77966 46.4219 3.87922 46.4219Z" fill="#3F4A4E"/>
<path d="M54.6667 46.4219H81.4059C83.5054 46.4219 85.2093 44.7101 85.2093 42.6086C85.2093 40.5072 83.5054 38.8017 81.4059 38.8017H54.6667C52.5671 38.8017 50.8633 40.5072 50.8633 42.6086C50.8633 44.7101 52.5671 46.4219 54.6667 46.4219Z" fill="#3F4A4E"/>
<path d="M42.6477 85.2305C44.7472 85.2305 46.4448 83.5251 46.4448 81.4236V54.2707C46.4448 52.1692 44.7472 50.4702 42.6477 50.4702C40.5481 50.4702 38.8442 52.1692 38.8442 54.2707V81.4236C38.8442 83.5251 40.5481 85.2305 42.6477 85.2305Z" fill="#3F4A4E"/>
<path d="M42.6477 34.377C44.7472 34.377 46.4448 32.6779 46.4448 30.5701V3.81312C46.4448 1.71166 44.7472 -0.000144958 42.6477 -0.000144958C40.5481 -0.000144958 38.8442 1.71166 38.8442 3.81312V30.5701C38.8442 32.6779 40.5481 34.377 42.6477 34.377Z" fill="#3F4A4E"/>
<path d="M28.1089 39.7249L40.1386 27.6847C41.5681 26.2603 44.0949 26.2603 45.5244 27.6847L57.5541 39.7249C59.041 41.2132 59.041 43.6213 57.5541 45.1096L45.5244 57.1562C44.7841 57.8971 43.8015 58.2676 42.8315 58.2676C41.8615 58.2676 40.8853 57.8971 40.1386 57.1562L28.1089 45.1096C26.6284 43.6213 26.6284 41.2132 28.1089 39.7249Z" fill="#3F4A4E"/>
</g>
</svg>
