<svg width="726" height="292" viewBox="0 0 726 292" fill="none" xmlns="http://www.w3.org/2000/svg">
<path d="M504.213 145.356C506.069 149.634 508.333 153.937 510.889 158.196C523.764 179.709 522.348 206.837 508.175 227.516C503.974 233.7 500.325 239.765 497.967 245.159C503.392 242.832 509.458 239.183 515.641 234.982C536.32 220.809 563.448 219.393 584.961 232.268C589.22 234.824 593.523 237.089 597.802 238.944C597.802 238.944 595.463 235.211 591.928 229.762C577.73 207.838 578.052 179.448 592.981 158.014C597.545 151.406 601.522 144.888 604.019 139.107C598.279 141.626 591.77 145.594 585.174 150.145C563.795 165.018 535.484 165.387 513.581 151.291C508.039 147.726 504.213 145.356 504.213 145.356Z" stroke="white" stroke-width="10" stroke-miterlimit="10" stroke-linecap="round" stroke-linejoin="round"/>
<path d="M140.348 238.944C144.626 237.088 148.929 234.824 153.189 232.268C174.701 219.393 201.829 220.809 222.508 234.982C228.692 239.182 234.757 242.832 240.151 245.189C237.824 239.765 234.175 233.699 229.974 227.516C215.801 206.837 214.385 179.708 227.26 158.196C229.816 153.936 232.081 149.633 233.936 145.355C233.936 145.355 230.203 147.694 224.754 151.229C202.83 165.427 174.441 165.104 153.006 150.175C146.398 145.612 139.88 141.634 134.099 139.137C136.618 144.878 140.586 151.387 145.137 157.982C160.01 179.361 160.379 207.673 146.283 229.576C142.718 235.118 140.348 238.944 140.348 238.944Z" stroke="white" stroke-width="10" stroke-miterlimit="10" stroke-linecap="round" stroke-linejoin="round"/>
<path d="M462.404 124.721C420.414 115.614 387.848 82.1589 380.254 39.8612C377.924 26.8662 374.933 14.6355 371.141 5.00004C367.33 14.6543 364.358 26.9133 362.019 39.9367C354.406 82.357 321.68 115.85 279.548 124.862C269.086 127.099 261.982 128.722 261.982 128.722C269.152 131.553 276.859 133.922 284.784 135.913C324.887 145.983 354.859 179.277 362.463 219.941C364.727 232.051 367.575 243.384 371.141 252.426C374.707 243.384 377.547 232.051 379.82 219.941C387.424 179.277 417.395 145.983 457.498 135.913C465.432 133.922 473.13 131.553 480.3 128.722C480.3 128.722 473.064 127.023 462.404 124.721Z" stroke="white" stroke-width="10" stroke-miterlimit="10" stroke-linecap="round" stroke-linejoin="round"/>
<path d="M641.515 166.219C642.59 168.675 643.897 171.147 645.331 173.555C652.692 185.835 651.865 201.285 643.792 213.075C641.391 216.591 639.303 220.042 637.992 223.15C641.069 221.808 644.52 219.72 648.036 217.319C659.827 209.246 675.307 208.45 687.557 215.78C689.995 217.245 692.436 218.521 694.893 219.596C694.893 219.596 693.551 217.468 691.528 214.348C683.446 201.861 683.638 185.683 692.141 173.462C694.737 169.688 697.018 165.983 698.446 162.696C695.165 164.118 691.432 166.364 687.699 168.982C675.505 177.458 659.368 177.672 646.89 169.642C643.693 167.573 641.515 166.219 641.515 166.219Z" stroke="white" stroke-width="10" stroke-miterlimit="10" stroke-linecap="round" stroke-linejoin="round"/>
<path d="M30.2266 166.219C31.3016 168.675 32.609 171.147 34.0433 173.555C41.404 185.835 40.5771 201.285 32.5039 213.075C30.103 216.591 28.0147 220.042 26.7043 223.15C29.7806 221.808 33.2317 219.72 36.7478 217.319C48.5386 209.246 64.0193 208.45 76.2685 215.78C78.7066 217.245 81.1478 218.521 83.6044 219.596C83.6044 219.596 82.2629 217.468 80.2399 214.348C72.1574 201.861 72.3495 185.683 80.8533 173.462C83.4494 169.688 85.7295 165.983 87.1576 162.696C83.8769 164.118 80.1438 166.364 76.4108 168.982C64.2173 177.458 48.0801 177.672 35.6016 169.642C32.4045 167.573 30.2266 166.219 30.2266 166.219Z" stroke="white" stroke-width="10" stroke-miterlimit="10" stroke-linecap="round" stroke-linejoin="round"/>
</svg>
