<svg width="137" height="136" viewBox="0 0 137 136" fill="none" xmlns="http://www.w3.org/2000/svg">
<path d="M117.326 67.9368C117.326 94.9399 95.4354 116.83 68.4323 116.83C41.4292 116.83 19.5391 94.9399 19.5391 67.9368C19.5391 40.9338 41.4292 19.0436 68.4323 19.0436C95.4354 19.0436 117.326 40.9338 117.326 67.9368Z" stroke="#F2F2F2" stroke-width="2.66667" stroke-miterlimit="10" stroke-linecap="round" stroke-linejoin="round"/>
<path d="M55.5301 36.3555L47.6646 18.5447" stroke="#F2F2F2" stroke-width="2.66667" stroke-miterlimit="10" stroke-linecap="round" stroke-linejoin="round"/>
<path d="M41.4681 47.0391L25.751 35.5463" stroke="#F2F2F2" stroke-width="2.66667" stroke-miterlimit="10" stroke-linecap="round" stroke-linejoin="round"/>
<path d="M34.6309 63.3203L15.2739 61.2261" stroke="#F2F2F2" stroke-width="2.66667" stroke-miterlimit="10" stroke-linecap="round" stroke-linejoin="round"/>
<path d="M36.8514 80.8376L19.04 88.7031" stroke="#F2F2F2" stroke-width="2.66667" stroke-miterlimit="10" stroke-linecap="round" stroke-linejoin="round"/>
<path d="M47.5336 94.902L36.0415 110.619" stroke="#F2F2F2" stroke-width="2.66667" stroke-miterlimit="10" stroke-linecap="round" stroke-linejoin="round"/>
<path d="M63.8159 101.738L61.7217 121.096" stroke="#F2F2F2" stroke-width="2.66667" stroke-miterlimit="10" stroke-linecap="round" stroke-linejoin="round"/>
<path d="M81.3345 99.5167L89.2 117.328" stroke="#F2F2F2" stroke-width="2.66667" stroke-miterlimit="10" stroke-linecap="round" stroke-linejoin="round"/>
<path d="M95.396 88.836L111.113 100.328" stroke="#F2F2F2" stroke-width="2.66667" stroke-miterlimit="10" stroke-linecap="round" stroke-linejoin="round"/>
<path d="M102.233 72.5529L121.591 74.6465" stroke="#F2F2F2" stroke-width="2.66667" stroke-miterlimit="10" stroke-linecap="round" stroke-linejoin="round"/>
<path d="M100.013 55.0332L117.825 47.1683" stroke="#F2F2F2" stroke-width="2.66667" stroke-miterlimit="10" stroke-linecap="round" stroke-linejoin="round"/>
<path d="M89.3311 40.9727L100.823 25.2561" stroke="#F2F2F2" stroke-width="2.66667" stroke-miterlimit="10" stroke-linecap="round" stroke-linejoin="round"/>
<path d="M73.0488 34.1367L75.1431 14.7791" stroke="#F2F2F2" stroke-width="2.66667" stroke-miterlimit="10" stroke-linecap="round" stroke-linejoin="round"/>
<path d="M77.0251 67.9347C77.0251 72.6807 73.1777 76.5273 68.4325 76.5273C63.6872 76.5273 59.8398 72.6807 59.8398 67.9347C59.8398 63.1894 63.6872 59.3421 68.4325 59.3421C73.1777 59.3421 77.0251 63.1894 77.0251 67.9347Z" fill="#F2F2F2"/>
<path d="M62.6727 23.5684L61.5225 16.9218" stroke="#F2F2F2" stroke-width="2.66667" stroke-miterlimit="10" stroke-linecap="round" stroke-linejoin="round"/>
<path d="M41.2596 32.3945L36.9399 27.2135" stroke="#F2F2F2" stroke-width="2.66667" stroke-miterlimit="10" stroke-linecap="round" stroke-linejoin="round"/>
<path d="M27.1278 50.7422L20.7959 48.4146" stroke="#F2F2F2" stroke-width="2.66667" stroke-miterlimit="10" stroke-linecap="round" stroke-linejoin="round"/>
<path d="M24.0631 73.6955L17.4165 74.8457" stroke="#F2F2F2" stroke-width="2.66667" stroke-miterlimit="10" stroke-linecap="round" stroke-linejoin="round"/>
<path d="M32.8877 95.1107L27.7061 99.4297" stroke="#F2F2F2" stroke-width="2.66667" stroke-miterlimit="10" stroke-linecap="round" stroke-linejoin="round"/>
<path d="M51.2356 109.239L48.9087 115.57" stroke="#F2F2F2" stroke-width="2.66667" stroke-miterlimit="10" stroke-linecap="round" stroke-linejoin="round"/>
<path d="M74.1919 112.308L75.3421 118.955" stroke="#F2F2F2" stroke-width="2.66667" stroke-miterlimit="10" stroke-linecap="round" stroke-linejoin="round"/>
<path d="M95.6045 103.481L99.9235 108.662" stroke="#F2F2F2" stroke-width="2.66667" stroke-miterlimit="10" stroke-linecap="round" stroke-linejoin="round"/>
<path d="M109.737 85.136L116.068 87.4629" stroke="#F2F2F2" stroke-width="2.66667" stroke-miterlimit="10" stroke-linecap="round" stroke-linejoin="round"/>
<path d="M112.801 62.1777L119.448 61.0275" stroke="#F2F2F2" stroke-width="2.66667" stroke-miterlimit="10" stroke-linecap="round" stroke-linejoin="round"/>
<path d="M103.977 40.7637L109.158 36.444" stroke="#F2F2F2" stroke-width="2.66667" stroke-miterlimit="10" stroke-linecap="round" stroke-linejoin="round"/>
<path d="M85.6289 26.6328L87.9558 20.3016" stroke="#F2F2F2" stroke-width="2.66667" stroke-miterlimit="10" stroke-linecap="round" stroke-linejoin="round"/>
<path d="M91.9962 67.9382C91.9962 80.9519 81.4462 91.502 68.4324 91.502C55.4187 91.502 44.8687 80.9519 44.8687 67.9382C44.8687 54.9244 55.4187 44.375 68.4324 44.375C81.4462 44.375 91.9962 54.9244 91.9962 67.9382Z" stroke="#F2F2F2" stroke-width="2.66667" stroke-miterlimit="10" stroke-linecap="round" stroke-linejoin="round"/>
<path d="M58.3084 20.7986C58.3084 21.8372 57.4666 22.6797 56.428 22.6797C55.3887 22.6797 54.5469 21.8372 54.5469 20.7986C54.5469 19.7594 55.3887 18.9175 56.428 18.9175C57.4666 18.9175 58.3084 19.7594 58.3084 20.7986Z" fill="#F2F2F2"/>
<path d="M36.0954 32.1772C36.6151 33.0764 36.3067 34.2266 35.4068 34.7456C34.5076 35.2652 33.3574 34.9569 32.8384 34.0576C32.3188 33.1577 32.6271 32.0081 33.5264 31.4885C34.4262 30.9695 35.5758 31.2773 36.0954 32.1772Z" fill="#F2F2F2"/>
<path d="M22.547 53.1353C23.4468 53.6543 23.7546 54.8045 23.2356 55.7038C22.716 56.6036 21.5664 56.9114 20.6665 56.3924C19.7673 55.8728 19.4589 54.7232 19.9785 53.8233C20.4975 52.9241 21.6477 52.6157 22.547 53.1353Z" fill="#F2F2F2"/>
<path d="M21.2945 78.062C22.3338 78.062 23.1756 78.9045 23.1756 79.9431C23.1756 80.9824 22.3338 81.8242 21.2945 81.8242C20.2559 81.8242 19.4141 80.9824 19.4141 79.9431C19.4141 78.9045 20.2559 78.062 21.2945 78.062Z" fill="#F2F2F2"/>
<path d="M32.6724 100.276C33.5722 99.756 34.7225 100.064 35.2414 100.964C35.7611 101.864 35.4527 103.014 34.5535 103.533C33.6536 104.052 32.5034 103.744 31.9844 102.845C31.4648 101.945 31.7731 100.795 32.6724 100.276Z" fill="#F2F2F2"/>
<path d="M53.631 113.822C54.1507 112.922 55.3009 112.614 56.2001 113.133C57.0994 113.652 57.4077 114.803 56.8881 115.702C56.3691 116.601 55.2189 116.91 54.3197 116.39C53.4198 115.871 53.1121 114.721 53.631 113.822Z" fill="#F2F2F2"/>
<path d="M78.5566 115.073C78.5566 114.035 79.3985 113.193 80.4371 113.193C81.4763 113.193 82.3182 114.035 82.3182 115.073C82.3182 116.113 81.4763 116.955 80.4371 116.955C79.3985 116.955 78.5566 116.113 78.5566 115.073Z" fill="#F2F2F2"/>
<path d="M100.768 103.696C100.249 102.796 100.557 101.646 101.457 101.127C102.357 100.608 103.506 100.916 104.026 101.815C104.546 102.715 104.237 103.865 103.338 104.384C102.438 104.904 101.289 104.596 100.768 103.696Z" fill="#F2F2F2"/>
<path d="M114.317 82.7398C113.417 82.2202 113.109 81.0699 113.628 80.1707C114.147 79.2714 115.297 78.9631 116.197 79.4821C117.096 80.0017 117.405 81.1519 116.885 82.0511C116.366 82.951 115.215 83.2594 114.317 82.7398Z" fill="#F2F2F2"/>
<path d="M115.569 57.8145C114.531 57.8145 113.688 56.972 113.688 55.9334C113.688 54.8948 114.531 54.0523 115.569 54.0523C116.608 54.0523 117.45 54.8948 117.45 55.9334C117.45 56.972 116.608 57.8145 115.569 57.8145Z" fill="#F2F2F2"/>
<path d="M104.192 35.6011C103.293 36.1207 102.143 35.8123 101.624 34.9131C101.104 34.0132 101.412 32.8636 102.312 32.344C103.211 31.825 104.362 32.1327 104.881 33.0326C105.4 33.9319 105.092 35.0821 104.192 35.6011Z" fill="#F2F2F2"/>
<path d="M83.233 22.0518C82.7133 22.951 81.5631 23.2594 80.6632 22.7397C79.7646 22.2208 79.4556 21.0705 79.9759 20.1713C80.4949 19.2714 81.6451 18.9637 82.5443 19.4827C83.4442 20.0023 83.7519 21.1519 83.233 22.0518Z" fill="#F2F2F2"/>
<path d="M75.4453 45.4389C75.9405 45.5924 76.469 45.2978 76.578 44.7909L83.4405 12.9037C83.4487 12.8646 83.392 12.8507 83.3812 12.8892L74.8441 44.3716C74.7201 44.8288 74.9928 45.2987 75.4453 45.4389V45.4389Z" fill="#F2F2F2"/>
<path d="M52.457 50.6209C52.8393 50.2698 52.8506 49.6631 52.4658 49.3148L28.2761 27.424C28.2471 27.3975 28.2061 27.4398 28.2338 27.4675L51.2319 50.6044C51.566 50.9405 52.108 50.9415 52.457 50.6209V50.6209Z" fill="#F2F2F2"/>
<path d="M63.2514 44.9485C63.7584 44.8366 64.0736 44.3166 63.9144 43.8224L53.9129 12.772C53.9009 12.7341 53.8441 12.7505 53.8542 12.789L62.2017 44.3203C62.3229 44.778 62.7891 45.0505 63.2514 44.9485V44.9485Z" fill="#F2F2F2"/>
<path d="M92.048 61.7067C91.5903 61.8279 91.3177 62.294 91.4197 62.7564V62.7564C91.5315 63.2636 92.0518 63.5792 92.5462 63.42L123.597 53.4179C123.634 53.4059 123.618 53.3492 123.579 53.3599L92.048 61.7067Z" fill="#F2F2F2"/>
<path d="M91.9969 74.3481C91.5397 74.2241 91.0698 74.4968 90.9299 74.9493V74.9493C90.7767 75.4446 91.0713 75.973 91.5781 76.082L123.465 82.9445C123.504 82.9527 123.518 82.8953 123.479 82.8852L91.9969 74.3481Z" fill="#F2F2F2"/>
<path d="M85.7496 51.9645C86.1002 52.3468 86.706 52.3578 87.0541 51.9732L108.946 27.7834C108.973 27.7538 108.93 27.7134 108.903 27.7412L85.7661 50.7383C85.4298 51.0725 85.4292 51.615 85.7496 51.9645V51.9645Z" fill="#F2F2F2"/>
<path d="M44.8164 74.1689C45.2741 74.0477 45.5467 73.5819 45.4447 73.1195V73.1195C45.3328 72.6123 44.8124 72.2964 44.3181 72.4557L13.2675 82.4577C13.2303 82.4697 13.2467 82.5265 13.2852 82.5164L44.8164 74.1689Z" fill="#F2F2F2"/>
<path d="M84.4069 85.2562C84.0245 85.6069 84.0135 86.2132 84.3982 86.5613L108.588 108.453C108.617 108.479 108.658 108.437 108.63 108.409L85.6326 85.2728C85.2984 84.9367 84.7562 84.9357 84.4069 85.2562V85.2562Z" fill="#F2F2F2"/>
<path d="M73.6116 90.9252C73.105 91.0368 72.7898 91.5562 72.9489 92.05L82.9506 123.102C82.9626 123.139 83.0193 123.123 83.0086 123.084L74.6618 91.553C74.5407 91.0953 74.0739 90.8233 73.6116 90.9252V90.9252Z" fill="#F2F2F2"/>
<path d="M44.8666 61.5272C45.3243 61.6513 45.7948 61.3783 45.935 60.9253V60.9253C46.0884 60.43 45.7936 59.9021 45.2868 59.793L13.399 52.9304C13.3605 52.9222 13.3467 52.9796 13.3851 52.9897L44.8666 61.5272Z" fill="#F2F2F2"/>
<path d="M51.1149 83.9102C50.764 83.5278 50.1581 83.5173 49.8099 83.9021L27.918 108.092C27.8915 108.121 27.9344 108.161 27.9621 108.133L51.0985 85.1369C51.4349 84.8026 51.4355 84.2596 51.1149 83.9102V83.9102Z" fill="#F2F2F2"/>
<path d="M61.4189 90.435C60.9235 90.2818 60.3953 90.5767 60.2861 91.0837L53.4237 122.971C53.4155 123.01 53.4722 123.023 53.4829 122.985L62.0201 91.5025C62.1441 91.0452 61.8715 90.575 61.4189 90.435V90.435Z" fill="#F2F2F2"/>
<path d="M68.4319 44.3737V44.3737C68.881 44.3737 69.2504 44.0179 69.242 43.5689L68.4319 7.96942e-06L67.6218 43.5689C67.6134 44.0179 67.9828 44.3737 68.4319 44.3737V44.3737Z" fill="#F2F2F2"/>
<path d="M56.8144 47.5778C57.1271 47.3968 57.2393 46.9946 57.0525 46.6854L38.9512 16.705L55.9247 47.3394C56.0995 47.6549 56.5022 47.7586 56.8144 47.5778V47.5778Z" fill="#F2F2F2"/>
<path d="M48.0822 56.3575C48.2556 56.0602 48.1566 55.6757 47.8551 55.5097L18.6147 39.407L47.2369 56.5831C47.5299 56.759 47.9101 56.6529 48.0822 56.3575V56.3575Z" fill="#F2F2F2"/>
<path d="M80.1873 47.58C80.4935 47.759 80.8901 47.6571 81.0606 47.3461L97.5977 17.178L79.9557 46.7121C79.7758 47.0132 79.8846 47.4029 80.1873 47.58V47.58Z" fill="#F2F2F2"/>
<path d="M136.37 67.9363L92.8007 67.1262C92.352 67.1178 91.9959 67.4875 91.9959 67.9363V67.9363V67.9363C91.9959 68.3851 92.352 68.7547 92.8007 68.7464L136.37 67.9363Z" fill="#F2F2F2"/>
<path d="M88.9301 56.3497C89.1012 56.6478 89.4844 56.7549 89.7779 56.5759L117.934 39.407L89.1547 55.5116C88.8586 55.6773 88.7612 56.0554 88.9301 56.3497V56.3497Z" fill="#F2F2F2"/>
<path d="M44.8683 67.9363V67.9363C44.8683 67.4875 44.5122 67.1178 44.0635 67.1262L0.494629 67.9363L44.0635 68.7464C44.5122 68.7547 44.8683 68.3851 44.8683 67.9363V67.9363Z" fill="#F2F2F2"/>
<path d="M80.1948 88.452C79.8893 88.6281 79.7797 89.0209 79.9626 89.3224L97.5977 118.391L81.0589 88.6836C80.8886 88.3778 80.4981 88.2772 80.1948 88.452V88.452Z" fill="#F2F2F2"/>
<path d="M88.93 79.6942C88.7611 79.9886 88.8586 80.3669 89.1547 80.5326L117.934 96.6367L89.7782 79.468C89.4846 79.2889 89.1012 79.3959 88.93 79.6942V79.6942Z" fill="#F2F2F2"/>
<path d="M68.4319 91.5007V91.5007C67.9831 91.5007 67.6135 91.8568 67.6218 92.3055L68.4319 135.875L69.242 92.3055C69.2504 91.8568 68.8807 91.5007 68.4319 91.5007V91.5007Z" fill="#F2F2F2"/>
<path d="M56.8603 88.439C56.5719 88.2718 56.1997 88.3676 56.0383 88.6593L40.3706 116.973L57.0801 89.2627C57.2522 88.9772 57.1487 88.6062 56.8603 88.439V88.439Z" fill="#F2F2F2"/>
<path d="M48.0684 79.7185C47.8873 79.4059 47.4851 79.2938 47.1758 79.4805L17.1958 97.582L47.8298 80.6088C48.1455 80.4338 48.2493 80.0309 48.0684 79.7185V79.7185Z" fill="#F2F2F2"/>
</svg>
