<svg width="565" height="565" viewBox="0 0 565 565" fill="none" xmlns="http://www.w3.org/2000/svg">
<path d="M281.393 6.71582C279.552 6.71582 278.06 5.22382 278.06 3.38249V3.34115C278.06 1.49981 279.552 0.00781215 281.393 0.00781215C283.234 0.00781215 284.726 1.49981 284.726 3.34115V3.38249C284.726 5.22382 283.234 6.71582 281.393 6.71582Z" fill="#F6F3EB"/>
<path d="M281.396 564.659C280.368 564.659 279.355 564.185 278.701 563.292C277.616 561.805 277.94 559.72 279.427 558.635L279.46 558.609C280.053 558.176 280.743 557.967 281.424 557.967C282.452 557.967 283.465 558.441 284.119 559.333C285.204 560.82 284.88 562.905 283.393 563.992L283.36 564.017C282.767 564.45 282.079 564.659 281.396 564.659Z" fill="#292D32"/>
<path d="M282.101 550.081C282.078 550.081 282.056 550.08 282.033 550.08C280.193 550.044 278.73 548.522 278.766 546.681L278.769 546.585C278.804 544.767 280.289 543.317 282.1 543.317C282.122 543.317 282.145 543.317 282.166 543.317C284.008 543.353 285.47 544.876 285.434 546.716L285.432 546.813C285.396 548.632 283.912 550.081 282.101 550.081ZM282.317 535.392C282.304 535.392 282.292 535.392 282.278 535.392C280.438 535.371 278.962 533.861 278.984 532.021V531.924C279.005 530.096 280.493 528.628 282.317 528.628C282.329 528.628 282.342 528.628 282.354 528.628C284.196 528.649 285.672 530.159 285.65 531.998L285.649 532.096C285.629 533.924 284.141 535.392 282.317 535.392ZM282.452 520.704C282.444 520.704 282.434 520.704 282.426 520.704C280.585 520.689 279.105 519.185 279.118 517.345V517.248C279.128 516.025 279.794 514.962 280.78 514.389C281.296 514.393 281.817 514.395 282.333 514.395C282.928 514.395 283.529 514.392 284.122 514.388C285.124 514.969 285.794 516.057 285.785 517.298V517.395C285.77 519.228 284.281 520.704 282.452 520.704ZM282.333 50.2732C281.832 50.2732 281.337 50.2746 280.837 50.2772C279.376 49.9292 278.286 48.6186 278.278 47.0506V46.9532C278.269 45.1132 279.754 43.6132 281.596 43.6052C281.601 43.6052 281.606 43.6052 281.612 43.6052C283.445 43.6052 284.936 45.0866 284.945 46.9213V47.0186C284.953 48.5919 283.869 49.9145 282.405 50.2732C282.382 50.2732 282.357 50.2732 282.333 50.2732ZM281.54 35.6546C279.706 35.6546 278.216 34.1732 278.208 32.3386L278.206 32.2412C278.197 30.3999 279.682 28.8999 281.524 28.8906C281.529 28.8906 281.534 28.8906 281.54 28.8906C283.373 28.8906 284.864 30.3732 284.873 32.2079V32.3052C284.882 34.1452 283.397 35.6453 281.557 35.6546C281.55 35.6546 281.545 35.6546 281.54 35.6546ZM281.466 20.9386C279.633 20.9386 278.142 19.4572 278.133 17.6226V17.5266C278.124 15.6853 279.609 14.1852 281.449 14.1759C281.456 14.1759 281.461 14.1759 281.466 14.1759C283.3 14.1759 284.79 15.6572 284.8 17.4919V17.5892C284.809 19.4306 283.325 20.9292 281.484 20.9386C281.478 20.9386 281.472 20.9386 281.466 20.9386Z" fill="#292D32"/>
<path d="M353.591 555.449C352.848 555.449 352.099 555.201 351.48 554.693C350.056 553.526 349.848 551.425 351.016 550.002L351.043 549.969C351.701 549.166 352.657 548.749 353.621 548.749C354.365 548.749 355.113 548.997 355.733 549.505C357.157 550.673 357.364 552.773 356.197 554.197L356.171 554.229C355.512 555.033 354.555 555.449 353.591 555.449Z" fill="#292D32"/>
<path d="M350.5 541.186C349.002 541.186 347.641 540.169 347.266 538.651L347.242 538.557C346.801 536.769 347.893 534.963 349.68 534.521C349.948 534.455 350.217 534.424 350.481 534.424C351.978 534.424 353.34 535.44 353.716 536.959L353.738 537.052V537.053C354.18 538.84 353.089 540.646 351.301 541.088C351.033 541.153 350.764 541.186 350.5 541.186ZM346.892 526.877C345.405 526.877 344.05 525.876 343.665 524.369L343.641 524.276C343.184 522.492 344.26 520.676 346.044 520.22C346.321 520.15 346.598 520.115 346.872 520.115C348.358 520.115 349.713 521.116 350.098 522.622L350.122 522.716C350.58 524.5 349.504 526.316 347.72 526.772C347.442 526.843 347.165 526.877 346.892 526.877ZM343.208 512.604C341.726 512.604 340.373 511.609 339.984 510.108L339.958 510.015C339.673 508.917 339.97 507.804 340.657 507.004C341.872 506.689 343.082 506.365 344.29 506.031C345.301 506.388 346.121 507.222 346.412 508.338L346.436 508.431C346.898 510.214 345.83 512.032 344.048 512.496C343.766 512.569 343.485 512.604 343.208 512.604ZM220.544 58.0748C219.078 58.0748 217.734 57.1001 217.329 55.6188L217.304 55.5254C216.82 53.7494 217.865 51.9161 219.641 51.4308C219.936 51.3508 220.232 51.3121 220.522 51.3121C221.988 51.3121 223.33 52.2868 223.736 53.7694L223.761 53.8614C224.246 55.6388 223.2 57.4708 221.424 57.9561C221.129 58.0361 220.834 58.0748 220.544 58.0748ZM216.658 43.8534C215.193 43.8534 213.85 42.8801 213.445 41.3988L213.42 41.3054C212.934 39.5281 213.981 37.6961 215.757 37.2108C216.05 37.1308 216.346 37.0921 216.637 37.0921C218.102 37.0921 219.446 38.0667 219.85 39.5481L219.876 39.6414C220.361 41.4161 219.314 43.2494 217.54 43.7361C217.245 43.8161 216.949 43.8534 216.658 43.8534ZM212.768 29.6174C211.302 29.6174 209.96 28.6441 209.554 27.1628L209.529 27.0694C209.044 25.2934 210.089 23.4601 211.865 22.9748C212.16 22.8948 212.454 22.8561 212.746 22.8561C214.212 22.8561 215.554 23.8294 215.96 25.3108L215.985 25.4041C216.47 27.1801 215.425 29.0135 213.649 29.4988C213.354 29.5788 213.058 29.6174 212.768 29.6174Z" fill="#292D32"/>
<path d="M209.185 16.5186C207.714 16.5186 206.369 15.5399 205.968 14.0532L205.957 14.0118C205.477 12.2345 206.529 10.4052 208.308 9.9252C208.598 9.84786 208.89 9.80918 209.177 9.80918C210.646 9.80918 211.993 10.7892 212.394 12.2758L212.405 12.3159C212.885 14.0932 211.832 15.9239 210.054 16.4025C209.764 16.4812 209.472 16.5186 209.185 16.5186Z" fill="#F6F3EB"/>
<path d="M420.947 527.867C420.476 527.867 419.997 527.767 419.541 527.555C417.873 526.777 417.149 524.795 417.927 523.125L417.944 523.088C418.509 521.875 419.712 521.16 420.968 521.16C421.439 521.16 421.917 521.262 422.373 521.474C424.041 522.25 424.765 524.232 423.988 525.901L423.971 525.939C423.405 527.153 422.203 527.867 420.947 527.867Z" fill="#292D32"/>
<path d="M414.275 514.889C413.099 514.888 411.96 514.265 411.352 513.164L411.305 513.079C410.417 511.467 411.003 509.44 412.615 508.551C413.125 508.269 413.677 508.136 414.221 508.136C415.397 508.136 416.536 508.759 417.144 509.86L417.191 509.945C418.08 511.557 417.493 513.586 415.881 514.474C415.371 514.755 414.819 514.889 414.275 514.889ZM407.085 502.002C405.92 502.002 404.789 501.389 404.177 500.302L404.129 500.217C403.227 498.612 403.796 496.58 405.401 495.677C405.917 495.386 406.479 495.25 407.032 495.25C408.197 495.25 409.328 495.862 409.94 496.95L409.988 497.033C410.891 498.638 410.321 500.671 408.716 501.572C408.2 501.863 407.639 502.002 407.085 502.002ZM399.833 489.168C398.672 489.168 397.545 488.562 396.931 487.48L396.883 487.395C396.309 486.386 396.321 485.203 396.811 484.239C397.864 483.64 398.909 483.036 399.952 482.421C401.051 482.479 402.099 483.077 402.681 484.105L402.729 484.189L402.728 484.188C403.637 485.79 403.076 487.824 401.476 488.733C400.956 489.028 400.391 489.168 399.833 489.168ZM163.708 81.8747C162.562 81.8747 161.445 81.2827 160.825 80.2214L160.777 80.1374L160.776 80.1361C159.849 78.5467 160.385 76.5054 161.976 75.5774C162.504 75.2694 163.082 75.1227 163.652 75.1227C164.799 75.1227 165.915 75.7148 166.535 76.7774L166.584 76.8601H166.583C167.511 78.4494 166.975 80.4907 165.386 81.4187C164.856 81.7281 164.279 81.8747 163.708 81.8747ZM156.275 69.1441C155.128 69.1441 154.013 68.5521 153.393 67.4908L153.344 67.4067C152.416 65.8174 152.952 63.7761 154.542 62.8481C155.071 62.5387 155.648 62.3921 156.22 62.3921C157.366 62.3921 158.482 62.9841 159.102 64.0454L159.149 64.1281H159.151C160.079 65.7187 159.543 67.7601 157.952 68.6881C157.424 68.9974 156.846 69.1441 156.275 69.1441ZM148.832 56.4001C147.685 56.4001 146.571 55.8081 145.951 54.7481L145.902 54.6641V54.6628C144.974 53.0734 145.51 51.032 147.099 50.104C147.627 49.7947 148.205 49.6481 148.776 49.6481C149.923 49.6481 151.039 50.24 151.659 51.3014L151.707 51.3854V51.3841C152.635 52.9734 152.1 55.0161 150.509 55.9441C149.981 56.2534 149.403 56.4001 148.832 56.4001Z" fill="#292D32"/>
<path d="M141.981 44.6748C140.849 44.6748 139.744 44.0975 139.12 43.0548L139.097 43.0201C138.151 41.4415 138.663 39.3935 140.241 38.4468C140.779 38.1241 141.369 37.9708 141.953 37.9708C143.085 37.9708 144.189 38.5481 144.815 39.5895L144.836 39.6255C145.784 41.2041 145.272 43.2522 143.693 44.1988C143.156 44.5215 142.565 44.6748 141.981 44.6748Z" fill="#292D32"/>
<path d="M478.875 483.791C478.704 483.791 478.531 483.777 478.356 483.75C476.537 483.467 475.293 481.761 475.577 479.943L475.584 479.901C475.84 478.256 477.259 477.081 478.873 477.081C479.044 477.081 479.217 477.095 479.392 477.121C481.211 477.407 482.455 479.111 482.171 480.929L482.164 480.972C481.907 482.616 480.488 483.791 478.875 483.791Z" fill="#292D32"/>
<path d="M469.062 472.982C468.186 472.982 467.313 472.64 466.658 471.96L466.592 471.89C465.316 470.562 465.357 468.453 466.684 467.177C467.33 466.556 468.162 466.246 468.994 466.246C469.869 466.246 470.742 466.589 471.397 467.269L471.464 467.34C472.74 468.666 472.698 470.776 471.372 472.052C470.725 472.674 469.893 472.982 469.062 472.982ZM458.782 462.396C457.917 462.396 457.052 462.06 456.4 461.393L456.33 461.324C455.044 460.006 455.068 457.896 456.384 456.609C457.033 455.976 457.873 455.66 458.714 455.66C459.58 455.66 460.445 455.994 461.098 456.662L461.165 456.732V456.73C462.452 458.046 462.429 460.157 461.113 461.445C460.465 462.08 459.622 462.396 458.782 462.396ZM448.454 451.877C447.594 451.877 446.733 451.545 446.081 450.882L446.012 450.813C445.174 449.962 444.886 448.776 445.146 447.693C445.972 446.88 446.793 446.058 447.608 445.233C447.864 445.172 448.125 445.141 448.386 445.141C449.248 445.141 450.109 445.473 450.762 446.136L450.829 446.204C452.121 447.516 452.105 449.625 450.794 450.918C450.145 451.557 449.3 451.877 448.454 451.877ZM114.96 119.574C114.112 119.574 113.264 119.253 112.614 118.609L112.545 118.541C111.237 117.245 111.228 115.134 112.522 113.826C113.174 113.169 114.033 112.84 114.892 112.84C115.738 112.84 116.586 113.161 117.237 113.805L117.305 113.873C118.613 115.168 118.624 117.278 117.328 118.586C116.676 119.245 115.818 119.574 114.96 119.574ZM104.485 109.201C103.637 109.201 102.789 108.88 102.14 108.236L102.07 108.168C100.762 106.872 100.753 104.762 102.048 103.454C102.7 102.796 103.558 102.466 104.417 102.466C105.264 102.466 106.112 102.788 106.762 103.432L106.83 103.5C108.138 104.794 108.149 106.905 106.854 108.213C106.202 108.872 105.344 109.201 104.485 109.201ZM93.9971 98.8184C93.1504 98.8184 92.3024 98.4971 91.6518 97.8531L91.5838 97.7851C90.2757 96.4904 90.2651 94.3798 91.5597 93.0718C92.2117 92.4131 93.0704 92.0824 93.9291 92.0824C94.7757 92.0824 95.6238 92.4038 96.2731 93.0478L96.3424 93.1158C97.6504 94.4104 97.6611 96.5211 96.3664 97.8291C95.7144 98.4878 94.8557 98.8184 93.9971 98.8184Z" fill="#292D32"/>
<path d="M84.3452 89.2651C83.5052 89.2651 82.6626 88.9492 82.0144 88.3145L81.9848 88.2851C80.6687 86.9985 80.6458 84.8878 81.9327 83.5718C82.5866 82.9038 83.4506 82.5691 84.3159 82.5691C85.1572 82.5691 85.9986 82.8851 86.6466 83.5198L86.6772 83.5492C87.9932 84.8372 88.0159 86.9465 86.7279 88.2625C86.0759 88.9305 85.2106 89.2651 84.3452 89.2651Z" fill="#292D32"/>
<path d="M523.407 426.225C521.707 426.225 520.253 424.93 520.092 423.202L520.088 423.161C519.916 421.328 521.263 419.702 523.096 419.532C523.201 419.521 523.307 419.517 523.411 419.517C525.112 419.517 526.564 420.812 526.725 422.538L526.729 422.581C526.901 424.413 525.555 426.038 523.721 426.21C523.616 426.22 523.511 426.225 523.407 426.225Z" fill="#292D32"/>
<path d="M511.136 418.324C510.549 418.324 509.954 418.169 509.416 417.844L509.333 417.794C507.757 416.842 507.25 414.793 508.202 413.217C508.829 412.18 509.93 411.606 511.06 411.606C511.646 411.606 512.241 411.761 512.78 412.088L512.862 412.137C514.438 413.089 514.944 415.137 513.993 416.713C513.366 417.75 512.265 418.324 511.136 418.324ZM498.466 410.758C497.889 410.758 497.304 410.608 496.772 410.293L496.688 410.244C495.104 409.305 494.58 407.26 495.518 405.676C496.141 404.625 497.25 404.041 498.389 404.041C498.966 404.041 499.552 404.192 500.085 404.506L500.168 404.557V404.556C501.752 405.494 502.276 407.538 501.338 409.122C500.716 410.174 499.605 410.758 498.466 410.758ZM485.769 403.27C485.196 403.27 484.614 403.122 484.084 402.812L484 402.762C482.996 402.173 482.414 401.138 482.358 400.056C482.974 399.013 483.578 397.969 484.178 396.916C484.646 396.678 485.165 396.554 485.692 396.554C486.265 396.554 486.846 396.702 487.377 397.013L487.46 397.062C489.048 397.994 489.578 400.037 488.646 401.625C488.025 402.682 486.912 403.27 485.769 403.27ZM77.6308 168.606C77.0704 168.606 76.5026 168.465 75.9813 168.168L75.8974 168.12H75.898C74.299 167.208 73.7422 165.172 74.6548 163.573C75.2698 162.494 76.3949 161.89 77.5532 161.89C78.1132 161.89 78.6808 162.032 79.2022 162.329L79.286 162.377L79.2865 162.378C80.8856 163.29 81.4417 165.326 80.5288 166.925C79.9136 168.002 78.7886 168.606 77.6308 168.606ZM64.8288 161.298C64.2684 161.298 63.7006 161.157 63.1793 160.86L63.0954 160.812C61.4965 159.898 60.9397 157.862 61.8526 156.264C62.4673 155.186 63.5928 154.582 64.7506 154.582C65.3105 154.582 65.8782 154.724 66.3996 155.021L66.484 155.069C68.0829 155.982 68.6392 158.017 67.7266 159.617C67.1116 160.694 65.986 161.298 64.8288 161.298ZM52.011 153.982C51.4506 153.982 50.8829 153.841 50.3616 153.544L50.2777 153.496C48.6788 152.584 48.122 150.548 49.0345 148.949C49.6496 147.872 50.7746 147.268 51.9324 147.268C52.4928 147.268 53.0605 147.409 53.5818 147.706L53.6657 147.754C55.2646 148.666 55.8214 150.702 54.9089 152.301C54.2938 153.378 53.1689 153.982 52.011 153.982Z" fill="#292D32"/>
<path d="M40.2157 147.254C39.6553 147.254 39.0865 147.113 38.5652 146.814L38.5288 146.793C36.9304 145.88 36.3752 143.844 37.2881 142.245C37.9032 141.169 39.0283 140.565 40.1856 140.565C40.7465 140.565 41.3147 140.708 41.8361 141.005L41.8725 141.026C43.4709 141.94 44.0261 143.976 43.1132 145.574C42.4975 146.65 41.3731 147.254 40.2157 147.254Z" fill="#292D32"/>
<path d="M551.536 359.095C550.195 359.095 548.931 358.28 548.423 356.953L548.408 356.915C547.75 355.196 548.608 353.268 550.327 352.609C550.72 352.459 551.123 352.387 551.52 352.387C552.86 352.387 554.124 353.201 554.632 354.528L554.648 354.567C555.307 356.287 554.447 358.213 552.728 358.873C552.336 359.024 551.932 359.095 551.536 359.095Z" fill="#292D32"/>
<path d="M537.639 354.639C537.332 354.639 537.02 354.596 536.711 354.507L536.617 354.48C534.849 353.968 533.831 352.12 534.341 350.352C534.764 348.892 536.096 347.944 537.543 347.944C537.849 347.944 538.16 347.987 538.469 348.076L538.563 348.103C540.332 348.615 541.351 350.463 540.839 352.231C540.416 353.691 539.084 354.639 537.639 354.639ZM523.443 350.609C523.145 350.609 522.843 350.569 522.543 350.485L522.448 350.459C520.676 349.963 519.641 348.123 520.137 346.351C520.549 344.879 521.888 343.915 523.345 343.915C523.643 343.915 523.945 343.955 524.247 344.04L524.34 344.065H524.339C526.112 344.561 527.147 346.401 526.651 348.173C526.239 349.647 524.9 350.609 523.443 350.609ZM509.24 346.664C508.945 346.664 508.647 346.625 508.351 346.543L508.257 346.517C507.164 346.216 506.348 345.403 505.999 344.407C506.331 343.207 506.659 341.983 506.972 340.775C507.569 340.264 508.337 339.969 509.143 339.969C509.436 339.969 509.735 340.009 510.031 340.091L510.124 340.116L510.125 340.117C511.9 340.607 512.941 342.443 512.451 344.217C512.043 345.695 510.701 346.664 509.24 346.664ZM54.2741 225.629C53.9933 225.629 53.7085 225.593 53.4247 225.519L53.3308 225.495C51.5507 225.027 50.4861 223.204 50.9543 221.424C51.3475 219.927 52.698 218.936 54.1761 218.936C54.4564 218.936 54.7413 218.972 55.0252 219.047L55.1189 219.072C56.8996 219.54 57.9637 221.363 57.4955 223.143C57.1023 224.639 55.7523 225.629 54.2741 225.629ZM40.0163 221.884C39.7361 221.884 39.4507 221.848 39.1673 221.773L39.0736 221.748L39.0741 221.749C37.2933 221.281 36.2288 219.459 36.696 217.679C37.0892 216.181 38.4397 215.191 39.9184 215.191C40.198 215.191 40.4829 215.227 40.7663 215.3L40.86 215.325H40.8605C42.6413 215.793 43.7059 217.616 43.2381 219.396C42.8449 220.893 41.4944 221.884 40.0163 221.884ZM25.7419 218.135C25.4616 218.135 25.1767 218.1 24.8933 218.025L24.7996 218C23.0189 217.533 21.9543 215.711 22.4215 213.929C22.8147 212.433 24.1652 211.443 25.6433 211.443C25.9236 211.443 26.2085 211.477 26.4923 211.552L26.5861 211.577C28.3663 212.044 29.4308 213.867 28.9637 215.647C28.5709 217.144 27.2199 218.135 25.7419 218.135Z" fill="#292D32"/>
<path d="M12.606 214.688C12.3185 214.688 12.0262 214.651 11.7357 214.572L11.6945 214.561C9.9169 214.081 8.86477 212.252 9.3445 210.475C9.74557 208.988 11.0914 208.009 12.5612 208.009C12.8481 208.009 13.1404 208.047 13.4314 208.125L13.4726 208.136C15.2497 208.616 16.3018 210.445 15.8221 212.223C15.421 213.709 14.0757 214.688 12.606 214.688Z" fill="#292D32"/>
<path d="M561.328 286.971C560.29 286.971 559.268 286.488 558.616 285.58L558.592 285.545C557.518 284.049 557.862 281.967 559.358 280.893C559.946 280.472 560.625 280.269 561.297 280.269C562.336 280.269 563.358 280.753 564.009 281.66L564.034 281.695C565.106 283.191 564.764 285.273 563.268 286.347C562.68 286.768 562.001 286.971 561.328 286.971Z" fill="#292D32"/>
<path d="M17.5086 286.897C15.6758 286.897 14.1853 285.416 14.1758 283.581C14.1665 281.74 15.6509 280.24 17.492 280.231H17.5889C17.5946 280.231 17.6004 280.231 17.6061 280.231C19.4394 280.231 20.9296 281.712 20.9389 283.547C20.9482 285.388 19.4638 286.888 17.6228 286.897H17.5258C17.5201 286.897 17.5144 286.897 17.5086 286.897ZM32.2238 286.824C30.391 286.824 28.9004 285.341 28.891 283.507C28.8821 281.665 30.367 280.165 32.2082 280.157L32.3045 280.156C32.3102 280.156 32.316 280.156 32.3212 280.156C34.1545 280.156 35.6457 281.639 35.6545 283.473C35.6638 285.315 34.1785 286.815 32.3378 286.823L32.241 286.824C32.2353 286.824 32.2296 286.824 32.2238 286.824ZM46.9373 286.752C45.104 286.752 43.6134 285.271 43.6045 283.435C43.5957 281.593 45.0805 280.095 46.9217 280.085H47.0186C47.0244 280.085 47.0296 280.085 47.0353 280.085C48.6009 280.085 49.917 281.167 50.2728 282.625C50.2738 283.149 50.2758 283.659 50.2801 284.181C49.9358 285.648 48.6233 286.744 47.0509 286.752H46.9534C46.9482 286.752 46.9425 286.752 46.9373 286.752ZM546.749 286.264C546.726 286.264 546.704 286.264 546.681 286.263L546.585 286.261C544.744 286.225 543.281 284.704 543.317 282.863C543.353 281.044 544.838 279.595 546.649 279.595C546.67 279.595 546.693 279.595 546.716 279.596L546.813 279.597C548.653 279.633 550.116 281.156 550.08 282.996C550.044 284.815 548.558 286.264 546.749 286.264ZM532.058 286.047C532.046 286.047 532.033 286.047 532.021 286.047L531.924 286.045C530.084 286.024 528.608 284.516 528.628 282.675C528.649 280.847 530.137 279.379 531.961 279.379C531.973 279.379 531.987 279.379 531.999 279.379L532.096 279.38C533.937 279.401 535.412 280.909 535.392 282.751C535.37 284.579 533.882 286.047 532.058 286.047ZM517.37 285.912C517.362 285.912 517.353 285.912 517.345 285.911H517.248C516.024 285.901 514.958 285.233 514.386 284.244C514.39 283.604 514.393 282.975 514.393 282.333C514.393 281.856 514.392 281.381 514.389 280.904C514.966 279.911 516.042 279.244 517.273 279.244C517.281 279.244 517.289 279.244 517.299 279.244L517.394 279.245C519.236 279.259 520.717 280.763 520.704 282.603C520.689 284.436 519.2 285.912 517.37 285.912Z" fill="#292D32"/>
<path d="M3.33996 286.971C1.52276 286.971 0.036225 285.512 0.00822497 283.688C-0.0204417 281.848 1.44876 280.333 3.28996 280.304H3.33209C3.34929 280.304 3.36703 280.304 3.38423 280.304C5.20143 280.304 6.68836 281.763 6.71596 283.585C6.74463 285.427 5.27529 286.941 3.43476 286.969L3.39196 286.971C3.37489 286.971 3.35716 286.971 3.33996 286.971Z" fill="#292D32"/>
<path d="M552.113 214.771C551.381 214.771 550.643 214.531 550.028 214.036L549.995 214.009C548.559 212.855 548.331 210.757 549.485 209.322C550.143 208.502 551.109 208.077 552.084 208.077C552.817 208.077 553.556 208.317 554.171 208.813L554.204 208.84C555.639 209.993 555.867 212.09 554.713 213.525C554.055 214.345 553.089 214.771 552.113 214.771Z" fill="#292D32"/>
<path d="M26.1884 355.621C24.7234 355.621 23.3802 354.648 22.9755 353.165C22.4895 351.39 23.5354 349.557 25.3114 349.072L25.4046 349.045C25.6988 348.965 25.9952 348.926 26.2859 348.926C27.751 348.926 29.0942 349.9 29.4994 351.382C29.9848 353.157 28.939 354.99 27.163 355.476L27.0698 355.502C26.7755 355.582 26.4796 355.621 26.1884 355.621ZM40.425 351.729C38.9592 351.729 37.6155 350.756 37.2108 349.273C36.7259 347.497 37.7723 345.665 39.5483 345.18L39.6422 345.154H39.6416C39.9354 345.074 40.2311 345.036 40.5218 345.036C41.9874 345.036 43.3307 346.009 43.7359 347.492C44.2207 349.266 43.1744 351.1 41.3988 351.585L41.3051 351.61H41.3046C41.0108 351.692 40.7155 351.729 40.425 351.729ZM54.6452 347.845C53.1796 347.845 51.8364 346.87 51.4316 345.388C50.9468 343.612 51.9936 341.78 53.7692 341.294L53.863 341.269C54.1567 341.189 54.452 341.15 54.7426 341.15C56.2083 341.15 57.5515 342.125 57.9567 343.606C58.4411 345.382 57.3947 347.216 55.6187 347.701L55.5255 347.726H55.525C55.2311 347.806 54.9359 347.845 54.6452 347.845ZM509.174 225.18C508.42 225.18 507.699 224.921 507.122 224.47C506.79 223.174 506.444 221.874 506.09 220.586C506.474 219.648 507.28 218.894 508.338 218.618L508.431 218.594H508.432C508.712 218.521 508.995 218.486 509.272 218.486C510.754 218.486 512.106 219.481 512.496 220.982C512.959 222.764 511.89 224.584 510.108 225.046L510.015 225.072C509.734 225.144 509.452 225.18 509.174 225.18ZM523.447 221.494C521.96 221.494 520.606 220.493 520.22 218.986C519.763 217.204 520.839 215.388 522.623 214.932L522.716 214.906C522.994 214.836 523.272 214.802 523.546 214.802C525.031 214.802 526.387 215.804 526.772 217.31C527.228 219.093 526.154 220.909 524.37 221.365L524.276 221.389C523.999 221.461 523.72 221.494 523.447 221.494ZM537.755 217.885C536.258 217.885 534.896 216.869 534.522 215.35C534.08 213.562 535.172 211.756 536.959 211.314L537.052 211.292H537.054C537.322 211.225 537.59 211.193 537.855 211.193C539.352 211.193 540.714 212.21 541.088 213.729C541.528 215.517 540.438 217.324 538.65 217.764L538.556 217.788C538.288 217.853 538.02 217.885 537.755 217.885Z" fill="#292D32"/>
<path d="M13.1411 359.188C11.6525 359.188 10.2963 358.184 9.91294 356.675C9.45974 354.891 10.5389 353.076 12.3233 352.624L12.3644 352.613C12.6395 352.543 12.9155 352.509 13.1873 352.509C14.6759 352.509 16.0321 353.515 16.4155 355.023C16.8687 356.808 15.7895 358.621 14.0051 359.075L13.9644 359.085C13.6889 359.155 13.4129 359.188 13.1411 359.188Z" fill="#292D32"/>
<path d="M524.53 147.416C524.082 147.416 523.626 147.324 523.189 147.132L523.15 147.115C521.465 146.372 520.702 144.405 521.444 142.72C521.994 141.473 523.216 140.731 524.496 140.731C524.945 140.731 525.401 140.821 525.838 141.015L525.877 141.031C527.562 141.773 528.325 143.741 527.584 145.425C527.033 146.673 525.812 147.416 524.53 147.416Z" fill="#292D32"/>
<path d="M52.9854 419.584C51.839 419.584 50.7234 418.992 50.1035 417.931C49.1755 416.341 49.7119 414.3 51.3021 413.372L51.3854 413.323L51.3843 413.324C51.913 413.015 52.4916 412.868 53.063 412.868C54.2088 412.868 55.3245 413.46 55.9442 414.52C56.8729 416.109 56.3368 418.151 54.7474 419.08L54.664 419.129H54.6625C54.1343 419.437 53.5562 419.584 52.9854 419.584ZM65.7296 412.141C64.5832 412.141 63.4676 411.549 62.8478 410.488C61.9192 408.899 62.4557 406.857 64.0453 405.929L64.1291 405.88C64.6578 405.572 65.2359 405.425 65.8067 405.425C66.9531 405.425 68.0692 406.017 68.6884 407.079C69.6166 408.668 69.0802 410.709 67.4906 411.637L67.4073 411.687C66.8786 411.995 66.2999 412.141 65.7296 412.141ZM78.4603 404.708C77.3135 404.708 76.1978 404.116 75.578 403.055C74.6499 401.465 75.1865 399.424 76.7765 398.496L76.8603 398.447C77.3884 398.139 77.9666 397.992 78.5374 397.992C79.6843 397.992 80.7999 398.584 81.4193 399.645C82.3471 401.236 81.8108 403.276 80.2207 404.205L80.1374 404.253C79.6088 404.561 79.0307 404.708 78.4603 404.708ZM485.754 168.583C485.328 168.583 484.908 168.5 484.515 168.344C483.836 167.143 483.151 165.955 482.452 164.767C482.596 163.785 483.175 162.876 484.106 162.349L484.19 162.301C484.708 162.007 485.274 161.867 485.831 161.867C486.992 161.867 488.119 162.473 488.734 163.555C489.642 165.156 489.082 167.191 487.48 168.099L487.395 168.148C486.876 168.443 486.311 168.583 485.754 168.583ZM498.587 161.329C497.422 161.329 496.29 160.717 495.678 159.629C494.775 158.024 495.344 155.992 496.95 155.089L497.034 155.043C497.55 154.752 498.111 154.613 498.664 154.613C499.83 154.613 500.96 155.225 501.572 156.313C502.475 157.917 501.907 159.949 500.303 160.852L500.218 160.9C499.7 161.191 499.14 161.329 498.587 161.329ZM511.474 154.139C510.298 154.139 509.159 153.516 508.551 152.415C507.662 150.803 508.248 148.775 509.862 147.885L509.946 147.839H509.947C510.458 147.557 511.008 147.424 511.552 147.424C512.728 147.424 513.868 148.048 514.475 149.151C515.363 150.764 514.775 152.791 513.163 153.679L513.078 153.725L513.079 153.724C512.57 154.005 512.018 154.139 511.474 154.139Z" fill="#292D32"/>
<path d="M41.3076 426.408C40.1909 426.408 39.0992 425.846 38.4691 424.826C37.5013 423.261 37.9857 421.206 39.5518 420.238L39.5872 420.217C40.1336 419.878 40.7388 419.718 41.3372 419.718C42.4539 419.718 43.545 420.28 44.1752 421.298C45.1434 422.865 44.6585 424.918 43.0929 425.886L43.057 425.909C42.5112 426.246 41.9055 426.408 41.3076 426.408Z" fill="#292D32"/>
<path d="M480.461 89.4946C480.273 89.4933 480.083 89.4786 479.892 89.4453L479.851 89.4386C478.036 89.1266 476.819 87.4026 477.131 85.588C477.409 83.9653 478.819 82.8186 480.411 82.8186C480.599 82.8186 480.789 82.8346 480.98 82.868L481.021 82.8746C482.836 83.1866 484.055 84.9106 483.743 86.7253C483.463 88.348 482.055 89.4946 480.461 89.4946Z" fill="#292D32"/>
<path d="M95.416 474.435C94.5694 474.435 93.7214 474.113 93.0721 473.469C91.7627 472.175 91.752 470.064 93.048 468.756L93.116 468.687C93.768 468.028 94.6267 467.699 95.4854 467.699C96.3321 467.699 97.18 468.02 97.8294 468.663C99.1387 469.959 99.1494 472.069 97.8534 473.377L97.7854 473.445C97.1334 474.104 96.2747 474.435 95.416 474.435ZM105.8 463.947C104.953 463.947 104.105 463.625 103.456 462.984C102.147 461.689 102.136 459.579 103.429 458.269L103.497 458.2L103.5 458.199C104.152 457.54 105.009 457.211 105.868 457.211C106.716 457.211 107.564 457.532 108.213 458.176C109.521 459.471 109.532 461.581 108.236 462.889L108.168 462.959L108.171 462.957C107.519 463.616 106.659 463.947 105.8 463.947ZM116.173 453.472C115.325 453.472 114.476 453.151 113.827 452.505C112.519 451.209 112.509 449.1 113.805 447.792L113.873 447.723V447.724C114.525 447.065 115.383 446.736 116.241 446.736C117.089 446.736 117.937 447.057 118.587 447.701C119.895 448.997 119.905 451.108 118.609 452.416L118.541 452.484L118.54 452.485C117.889 453.143 117.031 453.472 116.173 453.472ZM448.475 119.976C448.357 119.976 448.24 119.969 448.123 119.957C447.144 118.957 446.156 117.968 445.159 116.985C445.059 116.013 445.385 115.007 446.135 114.268L446.204 114.2L446.205 114.199C446.855 113.56 447.7 113.241 448.544 113.241C449.405 113.241 450.267 113.573 450.92 114.236C452.211 115.549 452.193 117.659 450.881 118.951L450.812 119.019L450.815 119.017C450.165 119.657 449.32 119.976 448.475 119.976ZM458.993 109.648C458.128 109.648 457.263 109.313 456.609 108.645C455.323 107.329 455.347 105.219 456.663 103.932L456.732 103.864L456.731 103.865C457.38 103.231 458.221 102.915 459.061 102.915C459.927 102.915 460.792 103.249 461.445 103.916C462.732 105.232 462.709 107.343 461.393 108.631L461.324 108.697L461.323 108.699C460.675 109.333 459.833 109.648 458.993 109.648ZM469.58 99.3679C468.705 99.3679 467.831 99.0253 467.177 98.3453C465.901 97.0173 465.943 94.9079 467.269 93.6319L467.34 93.5653L467.341 93.5626C467.988 92.9426 468.819 92.6346 469.649 92.6346C470.525 92.6346 471.4 92.9773 472.055 93.6599C473.329 94.9879 473.287 97.0986 471.957 98.3733L471.888 98.4399L471.889 98.4386C471.244 99.0599 470.412 99.3679 469.58 99.3679Z" fill="#292D32"/>
<path d="M85.9023 484.048C85.061 484.048 84.2196 483.732 83.5716 483.097C82.2559 481.811 82.2324 479.7 83.5196 478.384L83.549 478.353C84.2023 477.687 85.0663 477.352 85.9316 477.352C86.773 477.352 87.6143 477.668 88.2623 478.303C89.5783 479.589 89.6023 481.7 88.3143 483.016L88.285 483.045C87.633 483.714 86.7676 484.048 85.9023 484.048Z" fill="#292D32"/>
<path d="M422.846 44.9575C421.168 44.9575 419.722 43.6935 419.536 41.9855C419.336 40.1562 420.657 38.5108 422.488 38.3095L422.529 38.3055C422.652 38.2922 422.774 38.2855 422.896 38.2855C424.574 38.2855 426.018 39.5495 426.205 41.2575C426.405 43.0869 425.084 44.7322 423.254 44.9335L423.212 44.9375C423.089 44.9508 422.968 44.9575 422.846 44.9575Z" fill="#292D32"/>
<path d="M150.599 516.433C150.039 516.433 149.471 516.292 148.951 515.996C147.351 515.083 146.795 513.048 147.707 511.448L147.755 511.364C148.37 510.286 149.495 509.681 150.654 509.681C151.214 509.681 151.78 509.822 152.302 510.121C153.902 511.033 154.458 513.069 153.546 514.668L153.498 514.752C152.883 515.829 151.758 516.433 150.599 516.433ZM157.914 503.616C157.354 503.616 156.786 503.474 156.264 503.176C154.666 502.264 154.11 500.226 155.023 498.629L155.071 498.545H155.07C155.686 497.468 156.811 496.864 157.968 496.864C158.528 496.864 159.096 497.005 159.618 497.302C161.216 498.216 161.772 500.252 160.86 501.85L160.811 501.934C160.196 503.012 159.071 503.616 157.914 503.616ZM165.223 490.813C164.663 490.813 164.095 490.672 163.574 490.374C161.975 489.462 161.418 487.426 162.331 485.828L162.379 485.742C162.994 484.665 164.119 484.061 165.276 484.061C165.838 484.061 166.406 484.202 166.927 484.5C168.526 485.413 169.082 487.449 168.168 489.048L168.12 489.132C167.506 490.209 166.38 490.813 165.223 490.813ZM400.562 82.6051C399.288 81.8504 398.01 81.1078 396.72 80.3758C396.434 79.4998 396.511 78.5104 397.015 77.6531L397.063 77.5691H397.064C397.684 76.5118 398.798 75.9237 399.94 75.9237C400.515 75.9237 401.096 76.0717 401.626 76.3837C403.214 77.3157 403.744 79.3584 402.811 80.9464L402.763 81.0291C402.266 81.8757 401.452 82.4224 400.562 82.6051ZM407.372 69.9771C406.795 69.9771 406.21 69.8264 405.676 69.5117C404.092 68.5731 403.57 66.5278 404.508 64.9438L404.558 64.8611V64.8598C405.18 63.8091 406.29 63.2264 407.428 63.2264C408.006 63.2264 408.591 63.3757 409.124 63.6917C410.708 64.6304 411.231 66.6758 410.292 68.2598L410.243 68.3424C409.62 69.3931 408.511 69.9771 407.372 69.9771ZM414.938 57.3064C414.351 57.3064 413.756 57.1518 413.218 56.8264C411.642 55.8744 411.136 53.8251 412.088 52.2491L412.138 52.1664L412.139 52.1651C412.766 51.1291 413.866 50.5571 414.994 50.5571C415.582 50.5571 416.176 50.7118 416.716 51.0384C418.291 51.9904 418.796 54.0398 417.843 55.6158L417.794 55.6984V55.6971C417.168 56.7331 416.067 57.3064 414.938 57.3064Z" fill="#292D32"/>
<path d="M143.896 528.181C143.336 528.181 142.768 528.04 142.245 527.741C140.648 526.828 140.092 524.792 141.005 523.193L141.026 523.157C141.641 522.081 142.766 521.477 143.924 521.477C144.484 521.477 145.052 521.619 145.574 521.917C147.173 522.831 147.728 524.867 146.814 526.465L146.793 526.502C146.178 527.579 145.053 528.181 143.896 528.181Z" fill="#292D32"/>
<path d="M355.722 16.8452C354.374 16.8439 353.106 16.0212 352.602 14.6866C351.952 12.9639 352.823 11.0412 354.546 10.3919L354.584 10.3759C354.972 10.2305 355.37 10.1612 355.76 10.1612C357.107 10.1612 358.376 10.9839 358.88 12.3186C359.53 14.0426 358.659 15.9652 356.936 16.6146L356.898 16.6293C356.51 16.7759 356.112 16.8452 355.722 16.8452Z" fill="#F6F3EB"/>
<path d="M214.778 542.719C214.498 542.719 214.213 542.684 213.929 542.609C212.149 542.141 211.084 540.32 211.552 538.538L211.576 538.445C211.969 536.948 213.32 535.957 214.798 535.957C215.078 535.957 215.364 535.993 215.646 536.068C217.428 536.534 218.492 538.357 218.025 540.137L218 540.232C217.606 541.728 216.256 542.72 214.778 542.719ZM218.526 528.445C218.246 528.445 217.961 528.409 217.678 528.335C215.897 527.867 214.833 526.045 215.3 524.264L215.325 524.171C215.718 522.673 217.068 521.683 218.546 521.683C218.826 521.683 219.112 521.719 219.396 521.793C221.176 522.26 222.24 524.083 221.773 525.864L221.748 525.957C221.356 527.455 220.005 528.445 218.526 528.445ZM222.273 514.186C221.992 514.186 221.706 514.15 221.422 514.076C219.642 513.608 218.578 511.785 219.046 510.005L219.07 509.912C219.464 508.414 220.814 507.425 222.293 507.425C222.573 507.425 222.858 507.461 223.142 507.536C224.922 508.004 225.986 509.826 225.518 511.607L225.494 511.7C225.101 513.196 223.75 514.186 222.273 514.186ZM344.908 58.808C343.429 58.3946 341.942 57.9946 340.45 57.6106C339.994 56.8546 339.837 55.9186 340.09 55L340.116 54.9053C340.524 53.428 341.865 52.4586 343.328 52.4586C343.621 52.4586 343.92 52.4973 344.216 52.58C345.99 53.0693 347.032 54.9053 346.542 56.68L346.517 56.7733C346.268 57.6759 345.669 58.3893 344.908 58.808ZM347.25 45.0173C346.953 45.0173 346.65 44.9773 346.35 44.8933C344.577 44.396 343.542 42.5573 344.04 40.7839L344.065 40.6907C344.477 39.2187 345.816 38.256 347.273 38.256C347.57 38.256 347.873 38.296 348.174 38.38C349.946 38.876 350.981 40.716 350.485 42.488L350.458 42.5813C350.046 44.0546 348.708 45.0173 347.25 45.0173ZM351.28 30.8213C350.973 30.8213 350.661 30.7786 350.352 30.6893C348.582 30.1773 347.564 28.3293 348.076 26.56L348.102 26.4679V26.4666C348.525 25.008 349.857 24.06 351.302 24.06C351.609 24.06 351.922 24.1026 352.232 24.192C354 24.704 355.018 26.552 354.506 28.3213L354.48 28.4146V28.4133C354.057 29.872 352.725 30.8213 351.28 30.8213Z" fill="#292D32"/>
<path d="M211.345 555.802C211.061 555.802 210.774 555.765 210.486 555.689C208.708 555.216 207.649 553.391 208.121 551.612L208.132 551.569C208.529 550.077 209.877 549.092 211.352 549.092C211.634 549.092 211.922 549.128 212.209 549.204C213.989 549.677 215.048 551.503 214.576 553.281L214.565 553.323C214.168 554.816 212.82 555.802 211.345 555.802Z" fill="#292D32"/>
<path d="M315.777 544.705C315.118 544.705 314.545 544.217 314.456 543.547C314.428 543.329 314.453 543.117 314.522 542.924L314.525 542.783C314.528 541.776 314.296 538.945 313.852 534.71C313.408 530.461 312.756 524.749 311.922 517.779C311.725 516.124 311.517 514.397 311.298 512.604C312.184 512.493 313.061 512.38 313.944 512.26C315.02 521.129 315.857 528.335 316.412 533.56C316.916 538.336 317.188 541.409 317.192 542.783C317.192 542.929 317.189 543.06 317.18 543.189C317.17 543.32 317.161 543.438 317.117 543.624C317.074 543.752 317.06 543.913 316.812 544.225C316.673 544.396 316.37 544.641 315.953 544.695C315.894 544.703 315.834 544.705 315.777 544.705ZM249.969 52.5119C248.422 41.1905 247.248 32.6079 246.538 27.4293C246.036 23.7519 245.768 21.7972 245.766 21.7919C245.666 21.0626 246.177 20.3906 246.906 20.2906C246.968 20.2813 247.029 20.2772 247.089 20.2772C247.745 20.2772 248.317 20.7612 248.409 21.4306C248.409 21.4306 249.966 32.7919 252.613 52.1586C251.728 52.2719 250.85 52.3879 249.969 52.5119Z" fill="#292D32"/>
<path d="M382.159 527.207C381.636 527.207 381.14 526.897 380.927 526.385C380.841 526.181 380.811 525.968 380.828 525.761C380.815 525.704 380.795 525.628 380.77 525.538C380.695 525.271 380.574 524.885 380.411 524.401C380.083 523.43 379.588 522.064 378.94 520.338C377.644 516.886 375.733 511.996 373.293 505.867C372.248 503.24 371.104 500.385 369.87 497.317C370.695 496.981 371.512 496.642 372.334 496.296C377.43 508.959 380.979 518.008 382.552 522.438C383.025 523.778 383.316 524.662 383.45 525.259C383.482 525.421 383.512 525.55 383.516 525.793C383.515 525.871 383.512 525.962 383.487 526.095C383.457 526.226 383.416 526.413 383.238 526.66C383.122 526.819 382.922 527.001 382.67 527.102L382.671 527.104C382.503 527.173 382.329 527.207 382.159 527.207ZM191.524 68.7144C187.151 58.3024 183.826 50.3878 181.799 45.5651C180.323 42.0558 179.539 40.1904 179.536 40.1838C179.251 39.5051 179.57 38.7238 180.25 38.4384C180.418 38.3678 180.594 38.3331 180.766 38.3331C181.286 38.3331 181.78 38.6411 181.995 39.1504C181.995 39.1518 186.428 49.6931 193.983 67.6838C193.159 68.0224 192.343 68.3651 191.524 68.7144Z" fill="#292D32"/>
<path d="M441.747 493.121C441.347 493.121 440.951 492.941 440.688 492.6C440.555 492.426 440.471 492.231 440.435 492.03L440.392 491.95C440.282 491.756 440.091 491.448 439.834 491.054C439.316 490.266 438.53 489.131 437.5 487.686C435.439 484.796 432.4 480.657 428.52 475.448C426.68 472.978 424.652 470.269 422.448 467.336C423.154 466.8 423.864 466.256 424.563 465.712C429.672 472.51 433.843 478.116 436.904 482.309C439.83 486.319 441.728 489.01 442.538 490.338C442.748 490.698 442.882 490.904 443.012 491.273C443.042 491.38 443.086 491.497 443.091 491.754C443.09 491.868 443.08 492.019 443.012 492.217C442.947 492.41 442.796 492.664 442.558 492.845C442.316 493.03 442.03 493.121 441.747 493.121ZM139.308 99.5758C132.395 90.6558 127.134 83.8718 123.922 79.7305C121.575 76.7051 120.327 75.0971 120.324 75.0931C119.872 74.5105 119.978 73.6731 120.56 73.2211C120.803 73.0331 121.091 72.9411 121.376 72.9411C121.774 72.9411 122.168 73.1185 122.431 73.4571C122.431 73.4571 129.452 82.5078 141.416 97.9425C140.707 98.4851 140.011 99.0251 139.308 99.5758Z" fill="#292D32"/>
<path d="M490.48 444.776C490.199 444.776 489.915 444.688 489.674 444.504C489.498 444.369 489.364 444.2 489.275 444.012L489.259 443.993C489.123 443.852 488.875 443.616 488.542 443.316C487.871 442.715 486.846 441.843 485.504 440.733C482.82 438.515 478.86 435.339 473.802 431.34C471.3 429.363 468.531 427.184 465.514 424.819C466.058 424.12 466.603 423.411 467.14 422.707C477.948 431.175 485.58 437.264 489.147 440.307C490.219 441.225 490.902 441.836 491.31 442.284C491.418 442.409 491.508 442.504 491.638 442.731C491.695 442.857 491.804 443.003 491.82 443.425C491.824 443.635 491.76 443.968 491.543 444.251C491.28 444.595 490.883 444.776 490.48 444.776ZM96.8378 142.872C87.8644 136.056 81.0259 130.864 76.852 127.695C73.7936 125.373 72.1676 124.14 72.1629 124.136C71.5764 123.691 71.4619 122.855 71.9072 122.268C72.1692 121.923 72.5676 121.741 72.9702 121.741C73.251 121.741 73.5343 121.829 73.775 122.012C73.7759 122.012 82.9044 128.94 98.4538 140.751C97.9084 141.459 97.3751 142.159 96.8378 142.872Z" fill="#292D32"/>
<path d="M525.042 385.465C524.874 385.465 524.704 385.433 524.539 385.365C524.333 385.281 524.158 385.152 524.025 384.993C523.873 384.9 523.589 384.743 523.209 384.549C522.432 384.151 521.239 383.584 519.677 382.868C516.551 381.436 511.94 379.407 506.05 376.865C503.074 375.583 499.772 374.168 496.169 372.632C496.516 371.812 496.856 370.995 497.193 370.169C504.376 373.231 510.364 375.812 514.964 377.837C519.72 379.932 522.976 381.423 524.605 382.268C525.025 382.488 525.332 382.657 525.591 382.829C525.727 382.929 525.838 382.988 526.048 383.225C526.136 383.359 526.348 383.543 526.377 384.123C526.379 384.275 526.351 384.459 526.277 384.636C526.067 385.152 525.568 385.465 525.042 385.465ZM66.9941 195.675C56.5801 191.421 48.6457 188.181 43.7962 186.203C40.2353 184.749 38.3415 183.976 38.3358 183.975C37.6539 183.696 37.3269 182.917 37.605 182.236C37.8159 181.719 38.3138 181.405 38.8399 181.405C39.0077 181.405 39.1785 181.437 39.343 181.505C39.343 181.505 49.9399 185.828 68.0045 193.207C67.6623 194.029 67.3274 194.848 66.9941 195.675Z" fill="#292D32"/>
<path d="M543.079 319.229C543.024 319.229 542.97 319.225 542.915 319.219C542.692 319.192 542.488 319.111 542.316 318.991C542.155 318.943 541.862 318.871 541.478 318.788C540.646 318.607 539.366 318.369 537.69 318.085C534.336 317.515 529.387 316.752 523.067 315.825C519.806 315.347 516.179 314.824 512.215 314.261C512.336 313.38 512.452 312.503 512.564 311.617C526.091 313.537 535.704 314.99 540.319 315.842C541.714 316.102 542.619 316.29 543.2 316.474C543.356 316.527 543.484 316.565 543.7 316.688C543.81 316.761 543.963 316.828 544.184 317.142C544.29 317.299 544.411 317.561 544.411 317.893L544.4 318.057C544.318 318.733 543.743 319.229 543.079 319.229ZM51.9347 254.421C40.7424 253.004 32.2186 251.926 27.0091 251.268C23.1878 250.784 21.1555 250.528 21.1498 250.527C20.4191 250.435 19.9019 249.768 19.994 249.038C20.079 248.364 20.653 247.871 21.3148 247.871C21.3706 247.871 21.4268 247.875 21.4836 247.882C21.4842 247.882 32.868 249.319 52.2675 251.776C52.1519 252.652 52.0399 253.543 51.9347 254.421Z" fill="#292D32"/>
<path d="M21.5906 319.273C20.9344 319.273 20.363 318.789 20.2713 318.121C20.1713 317.392 20.6817 316.719 21.4114 316.619C21.4114 316.619 32.7964 315.059 52.2036 312.407C52.3182 313.291 52.4369 314.168 52.5614 315.049C41.2078 316.6 32.5989 317.779 27.4109 318.489C23.7328 318.992 21.7792 319.26 21.7734 319.261C21.712 319.269 21.651 319.273 21.5906 319.273ZM512.647 253.721C512.539 252.836 512.425 251.959 512.307 251.076C521.145 250.004 528.329 249.168 533.543 248.616C538.319 248.112 541.392 247.84 542.764 247.836C542.911 247.836 543.041 247.839 543.171 247.848C543.301 247.857 543.42 247.867 543.607 247.911C543.733 247.953 543.895 247.968 544.207 248.216C544.377 248.355 544.621 248.657 544.676 249.075C544.772 249.805 544.259 250.475 543.528 250.571C543.468 250.579 543.409 250.583 543.352 250.583C543.196 250.583 543.045 250.556 542.905 250.505L542.764 250.503C542.757 250.503 542.751 250.503 542.744 250.503C541.72 250.503 538.899 250.735 534.692 251.176C530.444 251.62 524.732 252.272 517.76 253.105C516.125 253.3 514.419 253.507 512.647 253.721Z" fill="#292D32"/>
<path d="M39.6507 385.596C39.1299 385.596 38.6351 385.289 38.421 384.78C38.1356 384.101 38.4543 383.318 39.133 383.033C39.134 383.033 49.7387 378.574 67.8086 370.985C68.1466 371.802 68.4955 372.632 68.8423 373.444C58.3595 377.845 50.3934 381.193 45.5475 383.23C42.0376 384.705 40.172 385.489 40.1668 385.492C39.998 385.562 39.8226 385.596 39.6507 385.596ZM497.44 195.101C497.105 194.274 496.768 193.457 496.423 192.636C509.009 187.572 518.005 184.042 522.419 182.476C523.76 182.002 524.644 181.71 525.239 181.578C525.401 181.546 525.532 181.516 525.775 181.512C525.852 181.513 525.944 181.516 526.077 181.541C526.209 181.57 526.396 181.613 526.641 181.79C526.801 181.908 526.981 182.108 527.084 182.358C527.367 183.038 527.045 183.818 526.365 184.101C526.197 184.17 526.024 184.204 525.853 184.204C525.816 184.204 525.779 184.202 525.741 184.2C525.684 184.213 525.608 184.233 525.519 184.257C525.252 184.333 524.865 184.453 524.381 184.617C523.412 184.944 522.044 185.44 520.32 186.088C516.868 187.384 511.977 189.294 505.848 191.734C503.261 192.764 500.455 193.888 497.44 195.101Z" fill="#292D32"/>
<path d="M74.2572 444.984C73.8592 444.984 73.4655 444.807 73.2025 444.468C72.7515 443.887 72.8572 443.049 73.4389 442.597C73.4389 442.597 82.5625 435.519 98.1092 423.468C98.6479 424.171 99.1972 424.879 99.7439 425.575C90.7332 432.56 83.8825 437.872 79.7119 441.107C76.6863 443.453 75.078 444.701 75.0733 444.704C74.8305 444.893 74.5425 444.984 74.2572 444.984ZM467.504 142.44C466.964 141.728 466.429 141.029 465.883 140.324C472.597 135.279 478.136 131.157 482.291 128.125C486.3 125.199 488.992 123.3 490.32 122.492C490.681 122.28 490.887 122.147 491.256 122.017C491.361 121.987 491.479 121.943 491.737 121.939C491.852 121.939 492.004 121.949 492.203 122.017C492.397 122.084 492.648 122.235 492.827 122.472C493.276 123.056 493.165 123.893 492.581 124.341C492.408 124.475 492.212 124.557 492.011 124.595L491.933 124.636C491.737 124.747 491.429 124.937 491.037 125.195C490.249 125.712 489.113 126.499 487.669 127.528C484.777 129.589 480.639 132.628 475.429 136.508C473.012 138.309 470.365 140.291 467.504 142.44Z" fill="#292D32"/>
<path d="M123.054 493.393C122.774 493.393 122.49 493.305 122.249 493.121C121.664 492.677 121.549 491.84 121.993 491.253C121.994 491.253 128.989 482.035 140.912 466.337C141.614 466.879 142.326 467.42 143.034 467.952C136.126 477.047 130.874 483.965 127.677 488.177C125.356 491.235 124.121 492.861 124.118 492.865C123.856 493.212 123.457 493.393 123.054 493.393ZM424.984 99.2812C424.28 98.7319 423.582 98.1945 422.872 97.6532C431.244 86.9692 437.266 79.4212 440.288 75.8826C441.206 74.8092 441.817 74.1265 442.265 73.7185C442.392 73.6105 442.486 73.5199 442.713 73.3906C442.838 73.3346 442.985 73.2239 443.406 73.2092C443.413 73.2092 443.42 73.2092 443.426 73.2092C443.641 73.2092 443.965 73.2785 444.234 73.4879C444.818 73.9359 444.93 74.7719 444.484 75.3572C444.349 75.5332 444.18 75.6652 443.993 75.7532L443.976 75.7706C443.833 75.9052 443.597 76.1532 443.298 76.4865C442.696 77.1572 441.824 78.1826 440.716 79.5239C438.496 82.2092 435.32 86.1692 431.321 91.2266C429.394 93.6626 427.277 96.3546 424.984 99.2812Z" fill="#292D32"/>
<path d="M182.72 527.522C182.552 527.522 182.381 527.491 182.217 527.424C181.534 527.145 181.208 526.367 181.486 525.686C181.486 525.686 185.858 514.967 193.317 496.708C194.14 497.05 194.958 497.384 195.785 497.717C191.468 508.286 188.182 516.333 186.184 521.232C184.729 524.793 183.954 526.692 183.954 526.692C183.744 527.209 183.245 527.522 182.72 527.522ZM372.746 68.5454C371.926 68.1987 371.109 67.8574 370.285 67.52C373.286 60.4774 375.822 54.5974 377.818 50.064C379.913 45.308 381.404 42.0507 382.249 40.4227C382.468 40.0027 382.638 39.696 382.81 39.4373C382.909 39.3 382.968 39.1881 383.206 38.9801C383.34 38.8921 383.524 38.6787 384.102 38.6494C384.105 38.6494 384.108 38.6494 384.109 38.6494C384.269 38.6494 384.452 38.6814 384.622 38.7534C385.302 39.0347 385.626 39.8147 385.344 40.4947C385.26 40.6987 385.13 40.8707 384.973 41.0027C384.88 41.1547 384.724 41.4387 384.53 41.8174C384.132 42.596 383.564 43.788 382.849 45.3507C381.417 48.476 379.388 53.0881 376.846 58.9774C375.6 61.8667 374.23 65.064 372.746 68.5454Z" fill="#292D32"/>
<path d="M249.188 545.045C249.132 545.045 249.076 545.043 249.019 545.034C248.288 544.943 247.771 544.276 247.864 543.545C247.864 543.544 249.318 532.024 251.803 512.404C252.687 512.52 253.562 512.631 254.448 512.736C253.008 524.107 251.915 532.755 251.25 538.02C250.767 541.841 250.51 543.879 250.51 543.879C250.424 544.553 249.85 545.045 249.188 545.045ZM314.294 52.4561C313.412 52.3348 312.535 52.2187 311.65 52.1067C313.544 38.7694 314.978 29.2827 315.823 24.7094C316.082 23.3147 316.271 22.4081 316.455 21.8281C316.508 21.6721 316.546 21.5441 316.668 21.3281C316.743 21.2188 316.81 21.0654 317.123 20.8441C317.28 20.7388 317.542 20.6174 317.874 20.6174L318.05 20.6281C318.779 20.7241 319.295 21.3934 319.199 22.1228C319.171 22.3428 319.091 22.5427 318.972 22.7121C318.924 22.8734 318.851 23.1654 318.768 23.5494C318.588 24.3828 318.351 25.6628 318.067 27.3388C317.496 30.6921 316.734 35.6401 315.807 41.9614C315.343 45.1241 314.838 48.6308 314.294 52.4561Z" fill="#292D32"/>
<path d="M500.751 282.333C500.751 402.961 402.962 500.75 282.334 500.75C161.706 500.75 63.917 402.961 63.917 282.333C63.917 161.705 161.706 63.916 282.334 63.916C402.962 63.916 500.751 161.705 500.751 282.333Z" fill="#367D83"/>
<path d="M281.599 501.827C282.058 501.827 282.399 501.592 282.55 501.438C282.854 501.111 282.859 500.964 282.916 500.84C282.99 500.611 283.01 500.462 283.04 500.264C283.14 499.538 283.214 498.286 283.288 496.401C283.794 483.315 283.971 440.9 283.971 387.373C283.971 258.087 282.932 64.1668 282.932 64.1668C282.928 63.4295 282.328 62.8361 281.591 62.8401C280.855 62.8441 280.262 63.4442 280.266 64.1802C280.266 64.1895 280.282 67.2095 280.31 72.7655C280.508 111.649 281.304 274.259 281.304 387.373C281.304 419.692 281.239 447.969 281.078 468.163C280.996 478.259 280.891 486.335 280.756 491.876C280.69 494.645 280.616 496.784 280.536 498.209C280.496 498.92 280.454 499.456 280.415 499.774C280.398 499.928 280.376 500.029 280.376 500.031L281.19 500.232L280.446 499.856C280.38 499.991 280.38 500.023 280.376 500.031L281.19 500.232L280.446 499.856L281.547 500.414L280.684 499.532C280.532 499.684 280.483 499.787 280.446 499.856L281.547 500.414L280.684 499.532L281.599 500.467V499.16C281.151 499.16 280.823 499.389 280.684 499.532L281.599 500.467V499.16C280.862 499.16 280.266 499.757 280.266 500.493C280.266 501.229 280.862 501.827 281.599 501.827Z" fill="#F6F3EB"/>
<path d="M338.402 494.579C338.814 494.471 339.08 494.184 339.194 493.997C339.37 493.704 339.378 493.549 339.403 493.429L339.422 493.156C339.418 492.855 339.38 492.607 339.322 492.243C339.092 490.856 338.463 488.092 337.471 484.008C330.038 453.467 302.28 350.364 276.372 254.859C250.466 159.36 226.414 71.4878 226.414 71.4865C226.219 70.7758 225.486 70.3585 224.776 70.5532C224.066 70.7478 223.647 71.4812 223.842 72.1905C223.843 72.1958 224.283 73.8025 225.111 76.8278C231.315 99.5145 259.238 201.667 285.61 299.155C298.795 347.899 311.592 395.476 321.092 431.368C325.843 449.315 329.768 464.34 332.506 475.124C333.874 480.516 334.946 484.849 335.672 487.949C336.035 489.498 336.312 490.741 336.496 491.645C336.588 492.096 336.656 492.462 336.7 492.732C336.722 492.865 336.736 492.974 336.746 493.052L336.754 493.14L336.755 493.159L336.832 493.156H336.755V493.159L336.832 493.156H336.755H337.675L336.784 492.941C336.75 493.098 336.758 493.138 336.755 493.156H337.675L336.784 492.941L337.998 493.233L336.947 492.562C336.834 492.744 336.806 492.861 336.784 492.941L337.998 493.233L336.947 492.562L338.048 493.267L337.71 492.004C337.31 492.11 337.051 492.389 336.947 492.562L338.048 493.267L337.71 492.004C336.998 492.196 336.576 492.926 336.768 493.638C336.959 494.349 337.691 494.771 338.402 494.579Z" fill="#F6F3EB"/>
<path d="M391.394 472.875C391.741 472.676 391.926 472.354 391.994 472.147C392.066 471.932 392.069 471.791 392.072 471.683C392.06 471.339 392.005 471.24 391.965 471.092C391.877 470.831 391.761 470.566 391.597 470.21C390.956 468.835 389.576 466.227 387.512 462.46C372.06 434.27 318.624 341.974 269.033 256.695C219.445 171.42 173.716 93.1869 173.716 93.1855C173.344 92.5495 172.526 92.3362 171.892 92.7082C171.256 93.0789 171.041 93.8962 171.413 94.5322C171.416 94.5362 172.265 95.9895 173.862 98.7242C185.848 119.236 239.778 211.571 290.712 299.314C316.178 343.184 340.896 385.907 359.245 417.927C368.42 433.936 376.002 447.271 381.288 456.731C383.93 461.46 386 465.223 387.401 467.858C388.102 469.175 388.637 470.211 388.988 470.934C389.162 471.292 389.292 471.576 389.368 471.758L389.433 471.93V471.931L390.326 471.683H389.405C389.409 471.883 389.433 471.915 389.433 471.931L390.326 471.683H389.405H390.661L389.476 471.271C389.408 471.472 389.406 471.596 389.405 471.683H390.661L389.476 471.271L390.712 471.7L390.054 470.571C389.717 470.764 389.538 471.078 389.476 471.271L390.712 471.7L390.054 470.571C389.417 470.94 389.201 471.756 389.572 472.394C389.942 473.03 390.758 473.246 391.394 472.875Z" fill="#F6F3EB"/>
<path d="M436.964 438.196C437.124 438.036 437.234 437.839 437.288 437.668C437.344 437.496 437.356 437.352 437.358 437.239C437.347 436.903 437.276 436.775 437.235 436.661C437.144 436.456 437.074 436.36 436.992 436.239C436.686 435.803 436.178 435.216 435.384 434.333C432.336 430.956 425.288 423.672 415.243 413.459C344.962 342.007 128.434 127.788 128.43 127.785C127.907 127.267 127.062 127.272 126.544 127.795C126.027 128.319 126.031 129.163 126.555 129.681C126.558 129.684 127.76 130.873 130.019 133.109C146.967 149.883 223.234 225.385 295.262 297.077C331.275 332.923 366.23 367.816 392.178 393.936C405.151 406.996 415.875 417.863 423.35 425.556C427.086 429.401 430.012 432.455 431.994 434.584C432.984 435.648 433.74 436.483 434.234 437.057C434.479 437.343 434.66 437.567 434.756 437.697L434.811 437.773L434.826 437.795L435.347 437.473L434.788 437.72L434.826 437.795L435.347 437.473L434.788 437.72L435.882 437.237H434.69C434.702 437.564 434.767 437.652 434.788 437.72L435.882 437.237H434.69L435.988 437.239L434.756 436.831C434.702 436.996 434.691 437.133 434.691 437.239H435.988L434.756 436.831L436.002 437.243L435.07 436.319C434.915 436.475 434.81 436.667 434.756 436.831L436.002 437.243L435.07 436.319C434.552 436.843 434.555 437.687 435.079 438.205C435.602 438.723 436.446 438.72 436.964 438.196Z" fill="#F6F3EB"/>
<path d="M472.004 392.907C472.139 392.671 472.183 392.417 472.182 392.233C472.159 391.732 472.004 391.572 471.935 391.444C471.772 391.216 471.679 391.148 471.57 391.048C471.363 390.868 471.12 390.691 470.792 390.461C469.518 389.573 466.986 387.987 463.288 385.742C435.611 368.942 343.221 315.751 257.721 266.743C172.227 217.736 93.6428 172.926 93.6428 172.926C93.0028 172.562 92.1882 172.784 91.8242 173.424C91.4588 174.063 91.6815 174.878 92.3215 175.243C92.3255 175.246 93.7975 176.084 96.5642 177.663C117.321 189.503 210.726 242.807 298.94 293.464C343.048 318.792 385.858 343.459 417.638 361.949C433.527 371.193 446.659 378.895 455.814 384.359C460.39 387.091 463.974 389.264 466.4 390.787C467.612 391.547 468.538 392.147 469.139 392.56C469.438 392.765 469.658 392.927 469.768 393.017L469.827 393.065L469.834 393.072L470.274 392.601L469.764 392.992L469.834 393.072L470.274 392.601L469.764 392.992L470.679 392.291L469.644 392.797L469.764 392.992L470.679 392.291L469.644 392.797L470.795 392.233H469.515C469.519 392.531 469.596 392.692 469.644 392.797L470.795 392.233H469.515H470.827L469.688 391.583C469.556 391.813 469.514 392.059 469.515 392.233H470.827L469.688 391.583C469.323 392.223 469.546 393.037 470.184 393.403C470.824 393.768 471.639 393.545 472.004 392.907Z" fill="#F6F3EB"/>
<path d="M494.13 340.073L494.17 339.745C494.169 339.432 494.069 339.204 493.986 339.061C493.81 338.776 493.685 338.701 493.593 338.624C493.412 338.492 493.302 338.444 493.172 338.38C492.688 338.156 491.954 337.901 490.825 337.533C486.496 336.132 476.749 333.348 462.944 329.525C366.349 302.787 71.7263 225.533 71.7227 225.532C71.0102 225.345 70.2815 225.772 70.0946 226.484C69.9082 227.196 70.3342 227.925 71.0462 228.112C71.0514 228.113 72.6924 228.544 75.7795 229.353C98.9291 235.428 203.109 262.783 301.498 288.901C350.693 301.96 398.441 314.711 433.886 324.336C451.609 329.148 466.257 333.18 476.466 336.077C481.57 337.527 485.566 338.692 488.273 339.525C489.625 339.943 490.657 340.277 491.325 340.516C491.656 340.633 491.901 340.73 492.017 340.784L492.07 340.809L492.072 340.811L492.468 340.101L491.942 340.716L492.072 340.811L492.468 340.101L491.942 340.716L492.729 339.795L491.732 340.483C491.825 340.615 491.894 340.673 491.942 340.716L492.729 339.795L491.732 340.483L492.802 339.745H491.504C491.509 340.121 491.646 340.353 491.732 340.483L492.802 339.745H491.504H492.817L491.544 339.427L491.504 339.745H492.817L491.544 339.427C491.365 340.141 491.8 340.865 492.513 341.044C493.228 341.223 493.952 340.788 494.13 340.073Z" fill="#F6F3EB"/>
<path d="M501.826 283.353C501.826 282.893 501.592 282.552 501.437 282.401C501.11 282.097 500.964 282.092 500.84 282.036C500.61 281.961 500.461 281.941 500.264 281.911C499.537 281.811 498.285 281.737 496.401 281.663C483.314 281.157 440.9 280.98 387.373 280.98C258.086 280.98 64.1669 282.02 64.1659 282.02C63.4295 282.024 62.8357 282.624 62.8399 283.36C62.8435 284.096 63.4435 284.691 64.18 284.687C64.1888 284.687 67.2096 284.669 72.7648 284.641C111.649 284.443 274.258 283.647 387.373 283.647C419.692 283.647 447.969 283.712 468.162 283.875C478.258 283.955 486.334 284.061 491.876 284.195C494.645 284.261 496.784 284.335 498.209 284.416C498.92 284.455 499.456 284.497 499.773 284.536C499.928 284.555 500.029 284.575 500.03 284.575L500.232 283.761L499.856 284.507C499.99 284.572 500.022 284.571 500.03 284.575L500.232 283.761L499.856 284.507L500.413 283.404L499.532 284.268C499.684 284.419 499.786 284.469 499.856 284.507L500.413 283.404L499.532 284.268L500.465 283.353H499.16C499.16 283.8 499.389 284.129 499.532 284.268L500.465 283.353H499.16C499.16 284.089 499.757 284.687 500.493 284.687C501.229 284.687 501.826 284.089 501.826 283.353Z" fill="#F6F3EB"/>
<path d="M494.578 226.549C494.47 226.138 494.184 225.872 493.998 225.758C493.705 225.582 493.549 225.573 493.429 225.549L493.156 225.529C492.854 225.533 492.606 225.572 492.242 225.629C490.856 225.86 488.092 226.488 484.008 227.481C453.466 234.913 350.364 262.672 254.858 288.58C159.36 314.486 71.487 338.538 71.4865 338.538C70.7761 338.732 70.358 339.465 70.5526 340.176C70.7469 340.886 71.4802 341.304 72.1908 341.11C72.1954 341.109 73.8026 340.669 76.8277 339.841C99.5142 333.637 201.666 305.713 299.154 279.342C347.898 266.157 395.476 253.358 431.368 243.858C449.314 239.108 464.34 235.182 475.124 232.445C480.516 231.077 484.849 230.005 487.949 229.278C489.5 228.916 490.741 228.638 491.645 228.454C492.096 228.362 492.462 228.294 492.732 228.252C492.865 228.229 492.974 228.214 493.052 228.205L493.14 228.197L493.158 228.196L493.156 228.118V228.196H493.158L493.156 228.118V228.196V227.276L492.941 228.168C493.098 228.202 493.138 228.194 493.156 228.196V227.276L492.941 228.168L493.233 226.954L492.561 228.004C492.744 228.117 492.86 228.145 492.941 228.168L493.233 226.954L492.561 228.004L493.266 226.902L492.004 227.241C492.109 227.641 492.388 227.9 492.561 228.004L493.266 226.902L492.004 227.241C492.194 227.953 492.926 228.374 493.637 228.184C494.349 227.992 494.77 227.261 494.578 226.549Z" fill="#F6F3EB"/>
<path d="M472.877 173.558C472.68 173.214 472.359 173.026 472.152 172.958C471.935 172.885 471.792 172.881 471.684 172.878C471.339 172.89 471.241 172.945 471.093 172.985C470.831 173.073 470.567 173.189 470.209 173.353C468.835 173.994 466.228 175.374 462.46 177.438C434.269 192.89 341.975 246.326 256.695 295.917C171.421 345.505 93.1866 391.234 93.1866 391.236C92.5506 391.606 92.336 392.424 92.708 393.06C93.08 393.694 93.896 393.909 94.532 393.537C94.536 393.534 95.9906 392.685 98.7253 391.088C119.236 379.104 211.572 325.173 299.315 274.238C343.185 248.772 385.908 224.054 417.928 205.705C433.937 196.53 447.272 188.948 456.732 183.662C461.461 181.02 465.223 178.95 467.859 177.549C469.175 176.848 470.212 176.313 470.933 175.962C471.293 175.788 471.576 175.658 471.757 175.584L471.929 175.517H471.931L471.684 174.624V175.545C471.884 175.541 471.915 175.517 471.931 175.517L471.684 174.624V175.545V174.289L471.267 175.473C471.471 175.542 471.596 175.544 471.684 175.545V174.289L471.267 175.473L471.701 174.238L470.569 174.894C470.761 175.229 471.073 175.41 471.267 175.473L471.701 174.238L470.569 174.894C470.939 175.532 471.753 175.749 472.392 175.38C473.028 175.012 473.247 174.196 472.877 173.558Z" fill="#F6F3EB"/>
<path d="M438.197 127.988C438.04 127.829 437.844 127.721 437.673 127.665C437.501 127.608 437.355 127.595 437.239 127.595C436.903 127.604 436.775 127.675 436.661 127.716C436.456 127.807 436.36 127.877 436.239 127.959C435.803 128.265 435.216 128.773 434.333 129.568C430.956 132.616 423.672 139.663 413.459 149.708C342.007 219.991 127.788 436.517 127.785 436.52C127.267 437.044 127.272 437.888 127.795 438.407C128.319 438.924 129.163 438.92 129.681 438.396C129.684 438.392 130.873 437.191 133.109 434.931C149.883 417.984 225.387 341.717 297.077 269.689C332.923 233.676 367.816 198.721 393.936 172.773C406.996 159.799 417.863 149.076 425.556 141.601C429.401 137.865 432.455 134.94 434.584 132.957C435.648 131.967 436.483 131.211 437.057 130.717C437.343 130.472 437.567 130.292 437.697 130.195L437.773 130.14L437.795 130.125L437.473 129.604L437.72 130.163L437.795 130.125L437.473 129.604L437.72 130.163L437.237 129.069V130.261C437.564 130.249 437.652 130.184 437.72 130.163L437.237 129.069V130.261L437.239 128.964L436.825 130.193C436.992 130.248 437.131 130.261 437.239 130.261V128.964L436.825 130.193L437.243 128.949L436.319 129.88C436.472 130.035 436.663 130.14 436.825 130.193L437.243 128.949L436.319 129.88C436.84 130.399 437.685 130.396 438.204 129.873C438.723 129.351 438.72 128.507 438.197 127.988Z" fill="#F6F3EB"/>
<path d="M392.911 92.9505C392.685 92.8185 392.433 92.7678 392.233 92.7692C391.732 92.7918 391.572 92.9465 391.444 93.0158C391.216 93.1785 391.148 93.2718 391.047 93.3812C390.868 93.5892 390.691 93.8305 390.46 94.1598C389.572 95.4331 387.987 97.9651 385.741 101.662C368.941 129.34 315.751 221.729 266.743 307.229C217.737 392.724 172.927 471.307 172.927 471.308C172.561 471.948 172.784 472.763 173.424 473.127C174.064 473.492 174.879 473.269 175.243 472.629C175.245 472.625 176.084 471.153 177.663 468.385C189.504 447.629 242.807 354.224 293.464 266.011C318.792 221.903 343.459 179.093 361.948 147.313C371.193 131.424 378.895 118.292 384.359 109.137C387.091 104.561 389.264 100.977 390.787 98.5505C391.547 97.3385 392.145 96.4118 392.559 95.8118C392.764 95.5132 392.927 95.2918 393.016 95.1812L393.064 95.1238L393.071 95.1171L392.601 94.6772L392.991 95.1865L393.071 95.1171L392.601 94.6772L392.991 95.1865L392.291 94.2718L392.796 95.3065L392.991 95.1865L392.291 94.2718L392.796 95.3065L392.233 94.1558V95.4358C392.531 95.4305 392.692 95.3532 392.796 95.3065L392.233 94.1558V95.4358V94.1238L391.577 95.2598C391.796 95.3878 392.041 95.4372 392.233 95.4358V94.1238L391.577 95.2598C392.215 95.6278 393.031 95.4105 393.399 94.7732C393.767 94.1345 393.549 93.3198 392.911 92.9505Z" fill="#F6F3EB"/>
<path d="M340.096 70.8254L339.745 70.7788C339.432 70.7815 339.204 70.8814 339.061 70.9641C338.776 71.1401 338.701 71.2654 338.624 71.3574C338.492 71.5388 338.444 71.6481 338.38 71.7788C338.156 72.2628 337.901 72.9961 337.533 74.1254C336.132 78.4548 333.348 88.2001 329.527 102.007C302.788 198.601 225.533 493.224 225.532 493.228C225.345 493.94 225.772 494.669 226.484 494.856C227.196 495.043 227.925 494.617 228.112 493.904C228.112 493.904 228.544 492.259 229.353 489.172C235.428 466.021 262.783 361.841 288.901 263.452C301.96 214.257 314.711 166.509 324.336 131.063C329.149 113.341 333.181 98.6934 336.077 88.4841C337.527 83.3788 338.692 79.3828 339.525 76.6761C339.943 75.3241 340.277 74.2921 340.516 73.6241C340.633 73.2934 340.731 73.0481 340.784 72.9334L340.809 72.8788L340.811 72.8775L340.101 72.4828L340.716 73.0081L340.811 72.8775L340.101 72.4828L340.716 73.0081L339.796 72.2214L340.483 73.2174C340.615 73.1241 340.673 73.0561 340.716 73.0081L339.796 72.2214L340.483 73.2174L339.745 72.1481V73.4455C340.123 73.4401 340.355 73.3028 340.483 73.2174L339.745 72.1481V73.4455V72.1321L339.404 73.4014L339.745 73.4455V72.1321L339.404 73.4014C340.115 73.5921 340.847 73.1708 341.037 72.4601C341.229 71.7481 340.807 71.0161 340.096 70.8254Z" fill="#F6F3EB"/>
<path d="M313.319 505.824L313.351 505.783C314.462 504.362 314.21 502.309 312.788 501.198C311.367 500.088 309.314 500.34 308.204 501.762L308.171 501.803C307.06 503.224 307.312 505.277 308.734 506.388C310.156 507.498 312.208 507.247 313.319 505.824Z" fill="#292D32"/>
<path d="M255.633 60.1772L255.626 60.1239C255.384 58.3373 253.737 57.0839 251.95 57.3266C250.162 57.5693 248.91 59.2159 249.153 61.0026L249.16 61.0559C249.402 62.8439 251.049 64.0959 252.837 63.8532C254.624 63.6106 255.876 61.9639 255.633 60.1772Z" fill="#292D32"/>
<path d="M370.145 490.214L370.166 490.164C370.866 488.502 370.086 486.586 368.424 485.886C366.761 485.186 364.845 485.966 364.145 487.629L364.125 487.678C363.425 489.341 364.205 491.257 365.868 491.957C367.53 492.657 369.445 491.877 370.145 490.214Z" fill="#292D32"/>
<path d="M199.072 74.6719L199.052 74.6226C198.344 72.9639 196.426 72.1919 194.766 72.8999C193.107 73.6079 192.335 75.5266 193.043 77.1852L193.064 77.2346C193.772 78.8946 195.691 79.6652 197.351 78.9572C199.01 78.2492 199.78 76.3306 199.072 74.6719Z" fill="#292D32"/>
<path d="M420.993 460.427L421.001 460.373C421.241 458.585 419.985 456.941 418.197 456.701C416.41 456.461 414.766 457.716 414.526 459.504L414.518 459.557C414.28 461.345 415.534 462.989 417.322 463.229C419.11 463.469 420.753 462.215 420.993 460.427Z" fill="#292D32"/>
<path d="M148.216 103.355L148.184 103.312C147.084 101.883 145.034 101.615 143.604 102.715C142.174 103.815 141.907 105.866 143.007 107.295L143.039 107.338C144.139 108.767 146.19 109.035 147.619 107.935C149.05 106.835 149.316 104.784 148.216 103.355Z" fill="#292D32"/>
<path d="M462.402 418.527L462.395 418.473C462.176 416.683 460.548 415.408 458.758 415.627C456.967 415.844 455.692 417.473 455.911 419.264L455.916 419.317C456.135 421.108 457.764 422.383 459.555 422.164C461.346 421.945 462.62 420.317 462.402 418.527Z" fill="#292D32"/>
<path d="M106.48 144.184L106.437 144.152C104.997 143.065 102.949 143.353 101.863 144.793C100.777 146.235 101.065 148.283 102.505 149.368L102.548 149.4C103.988 150.485 106.036 150.199 107.121 148.757C108.208 147.317 107.92 145.269 106.48 144.184Z" fill="#292D32"/>
<path d="M491.545 367.301L491.525 367.252C490.844 365.581 488.937 364.78 487.267 365.461C485.597 366.143 484.795 368.049 485.476 369.719L485.496 369.769C486.177 371.439 488.084 372.241 489.755 371.56C491.425 370.879 492.227 368.972 491.545 367.301Z" fill="#292D32"/>
<path d="M76.761 194.443L76.7115 194.423C75.0413 193.741 73.135 194.543 72.4537 196.213C71.7725 197.883 72.5741 199.789 74.2443 200.471L74.2938 200.491C75.9641 201.172 77.8703 200.371 78.5517 198.7C79.2329 197.031 78.4313 195.124 76.761 194.443Z" fill="#292D32"/>
<path d="M506.415 310.255L506.383 310.213C505.272 308.792 503.219 308.54 501.797 309.651C500.376 310.76 500.124 312.813 501.235 314.235L501.267 314.276C502.377 315.697 504.431 315.951 505.852 314.84C507.273 313.729 507.525 311.676 506.415 310.255Z" fill="#292D32"/>
<path d="M61.0439 250.676L60.9909 250.669C59.2007 250.448 57.5699 251.72 57.3491 253.511C57.1283 255.301 58.4002 256.932 60.1909 257.152L60.2434 257.159C62.0335 257.38 63.6642 256.108 63.8851 254.317C64.1065 252.527 62.8341 250.897 61.0439 250.676Z" fill="#292D32"/>
<path d="M506.041 251.34L506 251.308C504.559 250.223 502.511 250.509 501.425 251.951C500.339 253.391 500.627 255.439 502.067 256.525L502.109 256.557C503.549 257.643 505.597 257.355 506.684 255.915C507.769 254.475 507.483 252.427 506.041 251.34Z" fill="#292D32"/>
<path d="M60.4787 309.055L60.4261 309.061C58.6355 309.283 57.3637 310.913 57.5845 312.704C57.8058 314.493 59.4361 315.767 61.2266 315.545L61.2793 315.539C63.0694 315.317 64.3418 313.687 64.1203 311.896C63.8995 310.107 62.2694 308.835 60.4787 309.055Z" fill="#292D32"/>
<path d="M490.476 194.548L490.427 194.528C488.764 193.828 486.849 194.608 486.149 196.271C485.449 197.934 486.229 199.848 487.892 200.548L487.941 200.57C489.604 201.27 491.519 200.488 492.219 198.827C492.919 197.164 492.139 195.248 490.476 194.548Z" fill="#292D32"/>
<path d="M74.9323 365.621L74.8839 365.641C73.2246 366.349 72.4531 368.268 73.1615 369.928C73.8693 371.586 75.7881 372.357 77.4474 371.65L77.4965 371.629C79.1553 370.921 79.9266 369.002 79.2189 367.342C78.511 365.684 76.5917 364.913 74.9323 365.621Z" fill="#292D32"/>
<path d="M460.693 143.7L460.64 143.694C458.852 143.451 457.206 144.703 456.964 146.491C456.721 148.278 457.973 149.924 459.761 150.167L459.813 150.174C461.601 150.416 463.246 149.164 463.489 147.376C463.732 145.59 462.48 143.943 460.693 143.7Z" fill="#292D32"/>
<path d="M103.596 416.492L103.555 416.525C102.134 417.636 101.882 419.688 102.992 421.109C104.103 422.53 106.155 422.784 107.576 421.673L107.619 421.64C109.04 420.529 109.292 418.477 108.182 417.056C107.071 415.633 105.019 415.381 103.596 416.492Z" fill="#292D32"/>
<path d="M418.783 102.293L418.729 102.3C416.94 102.521 415.668 104.152 415.888 105.941C416.109 107.732 417.74 109.004 419.531 108.783L419.583 108.777C421.373 108.556 422.645 106.925 422.424 105.135C422.204 103.344 420.573 102.072 418.783 102.293Z" fill="#292D32"/>
<path d="M144.46 458.196L144.428 458.237C143.332 459.669 143.604 461.72 145.036 462.816C146.468 463.913 148.519 463.64 149.615 462.208L149.647 462.167C150.744 460.735 150.471 458.684 149.039 457.588C147.607 456.491 145.556 456.763 144.46 458.196Z" fill="#292D32"/>
<path d="M367.563 73.1491L367.514 73.1691C365.844 73.8491 365.042 75.7571 365.723 77.4265C366.404 79.0971 368.311 79.8984 369.982 79.2171L370.031 79.1971C371.702 78.5158 372.503 76.6091 371.822 74.9398C371.14 73.2691 369.234 72.4665 367.563 73.1491Z" fill="#292D32"/>
<path d="M194.704 487.933L194.684 487.983C194.003 489.653 194.804 491.559 196.475 492.24C198.146 492.921 200.052 492.12 200.734 490.449L200.754 490.4C201.435 488.729 200.632 486.824 198.963 486.143C197.292 485.462 195.386 486.263 194.704 487.933Z" fill="#292D32"/>
<path d="M310.536 58.2642L310.494 58.2962C309.064 59.3962 308.796 61.4469 309.896 62.8776C310.996 64.3069 313.047 64.5749 314.476 63.4749L314.519 63.4415C315.948 62.3415 316.216 60.2909 315.116 58.8615C314.016 57.4322 311.966 57.1642 310.536 58.2642Z" fill="#292D32"/>
<path d="M250.937 503.655L250.931 503.708C250.712 505.498 251.987 507.126 253.777 507.345C255.568 507.564 257.196 506.289 257.415 504.498L257.421 504.445C257.64 502.655 256.365 501.025 254.575 500.807C252.784 500.589 251.155 501.864 250.937 503.655Z" fill="#292D32"/>
<path d="M282.333 500.751C161.706 500.751 63.9168 402.961 63.9168 282.333C63.9168 161.705 161.706 63.9161 282.333 63.9161C402.961 63.9161 500.751 161.705 500.751 282.333C500.751 402.961 402.961 500.751 282.333 500.751ZM282.333 51.6067C154.907 51.6067 51.6064 154.907 51.6064 282.333C51.6064 409.76 154.907 513.062 282.333 513.062C409.76 513.062 513.06 409.76 513.06 282.333C513.06 154.907 409.76 51.6067 282.333 51.6067Z" fill="#292D32"/>
<path d="M282.333 500.75V499.417C222.382 499.416 168.121 475.121 128.832 435.834C89.5449 396.545 65.2501 342.282 65.2495 282.333C65.2501 222.382 89.5449 168.121 128.832 128.832C168.121 89.5451 222.382 65.2504 282.333 65.2491C342.284 65.2504 396.545 89.5451 435.834 128.832C475.121 168.121 499.416 222.382 499.417 282.333C499.416 342.282 475.121 396.545 435.834 435.834C396.545 475.12 342.284 499.416 282.333 499.417V500.75V502.083C403.698 502.083 502.082 403.697 502.082 282.333C502.082 160.968 403.698 62.5837 282.333 62.5824C160.968 62.5837 62.5834 160.968 62.5829 282.333C62.5839 403.697 160.968 502.083 282.333 502.083V500.75ZM282.333 51.6064V50.273C154.169 50.273 50.273 154.169 50.2725 282.333C50.2735 410.497 154.169 514.393 282.333 514.395C410.497 514.393 514.393 410.497 514.393 282.333C514.393 154.169 410.497 50.273 282.333 50.273V51.6064V52.9397C345.682 52.9397 403.022 78.613 444.538 120.128C486.053 161.644 511.726 218.984 511.726 282.333C511.726 345.682 486.053 403.022 444.538 444.54C403.022 486.053 345.682 511.726 282.333 511.728C218.984 511.726 161.644 486.053 120.128 444.54C78.6126 403.022 52.9397 345.682 52.9391 282.333C52.9397 218.984 78.6126 161.644 120.128 120.128C161.644 78.613 218.984 52.9397 282.333 52.9397V51.6064Z" fill="#367D83"/>
<path d="M282.333 443.469C193.341 443.469 121.197 371.325 121.197 282.333C121.197 193.341 193.341 121.197 282.333 121.197C371.326 121.197 443.469 193.341 443.469 282.333C443.469 371.325 371.326 443.469 282.333 443.469ZM282.333 108.176C186.149 108.176 108.176 186.149 108.176 282.333C108.176 378.517 186.149 456.489 282.333 456.489C378.517 456.489 456.49 378.517 456.49 282.333C456.49 186.149 378.517 108.176 282.333 108.176Z" fill="#292D32"/>
<path d="M282.333 443.469V442.136C238.201 442.135 198.259 424.251 169.336 395.331C140.416 366.408 122.532 326.465 122.531 282.333C122.532 238.201 140.416 198.259 169.336 169.336C198.259 140.416 238.201 122.532 282.333 122.531C326.465 122.532 366.408 140.416 395.331 169.336C424.251 198.259 442.135 238.201 442.136 282.333C442.135 326.465 424.251 366.408 395.331 395.331C366.408 424.251 326.465 442.135 282.333 442.136V443.469V444.801C372.063 444.801 444.801 372.063 444.801 282.333C444.801 192.604 372.063 119.865 282.333 119.864C192.604 119.865 119.865 192.604 119.864 282.333C119.865 372.063 192.604 444.801 282.333 444.801V443.469ZM282.333 108.176V106.843C185.412 106.844 106.844 185.412 106.843 282.333C106.844 379.253 185.412 457.821 282.333 457.823C379.255 457.821 457.823 379.253 457.824 282.333C457.823 185.412 379.255 106.844 282.333 106.843V108.176V109.509C330.061 109.511 373.259 128.852 404.539 160.128C435.815 191.408 455.156 234.605 455.157 282.333C455.156 330.061 435.815 373.259 404.539 404.537C373.259 435.815 330.061 455.156 282.333 455.156C234.605 455.156 191.408 435.815 160.128 404.537C128.852 373.259 109.511 330.061 109.509 282.333C109.511 234.605 128.852 191.408 160.128 160.128C191.408 128.852 234.605 109.511 282.333 109.509V108.176Z" fill="#367D83"/>
<path d="M444.152 282.333C444.152 371.702 371.703 444.15 282.333 444.15C192.964 444.15 120.515 371.702 120.515 282.333C120.515 192.964 192.964 120.514 282.333 120.514C371.703 120.514 444.152 192.964 444.152 282.333Z" fill="#F6F3EB"/>
<path d="M444.151 282.334H442.518C442.517 326.572 424.591 366.608 395.601 395.602C366.607 424.591 326.572 442.518 282.333 442.518C238.094 442.518 198.058 424.591 169.065 395.602C140.074 366.608 122.149 326.572 122.148 282.334C122.149 238.095 140.074 198.059 169.065 169.066C198.058 140.075 238.094 122.15 282.333 122.148C326.572 122.15 366.607 140.075 395.601 169.066C424.591 198.059 442.517 238.095 442.518 282.334H444.151H445.785C445.783 192.062 372.605 118.883 282.333 118.882C192.061 118.883 118.882 192.062 118.881 282.334C118.882 372.606 192.061 445.783 282.333 445.784C372.605 445.783 445.783 372.606 445.785 282.334H444.151Z" fill="#367D83"/>
<path d="M141.589 363.924L282.333 120.515L423.078 363.924H141.589Z" fill="#292D32"/>
<path d="M141.59 363.924L142.744 364.592L282.334 123.179L420.767 362.591H141.59V363.924V365.257H423.079C423.555 365.257 423.995 365.004 424.234 364.591C424.471 364.179 424.471 363.669 424.232 363.257L283.488 119.848C283.25 119.435 282.81 119.181 282.334 119.181C281.858 119.181 281.418 119.435 281.179 119.848L140.435 363.257C140.196 363.669 140.196 364.179 140.435 364.591C140.672 365.004 141.114 365.257 141.59 365.257V363.924Z" fill="#367D83"/>
<path d="M282.333 142.353L160.526 353.013H404.14L282.333 142.353Z" fill="#292D32"/>
<path d="M282.334 142.353L281.179 141.685L159.372 352.345C159.134 352.757 159.134 353.267 159.372 353.679C159.61 354.092 160.051 354.347 160.527 354.347H404.14C404.616 354.347 405.058 354.092 405.295 353.679C405.534 353.267 405.534 352.757 405.295 352.345L283.488 141.685C283.25 141.273 282.81 141.02 282.334 141.02C281.858 141.02 281.418 141.273 281.179 141.685L282.334 142.353L281.179 143.02L401.83 351.68H162.838L283.488 143.02L282.334 142.353Z" fill="#F6F3EB"/>
<path d="M282.333 244.119C246.319 244.119 217.124 282.475 217.124 282.475C217.124 282.475 246.319 320.832 282.333 320.832C318.348 320.832 347.544 282.475 347.544 282.475C347.544 282.475 318.348 244.119 282.333 244.119Z" fill="#F6F3EB"/>
<path d="M314.208 282.475C314.208 300.08 299.938 314.351 282.334 314.351C264.73 314.351 250.459 300.08 250.459 282.475C250.459 264.872 264.73 250.6 282.334 250.6C299.938 250.6 314.208 264.872 314.208 282.475Z" fill="#292D32"/>
<path d="M314.208 282.475H312.874C312.874 290.913 309.458 298.54 303.929 304.072C298.398 309.6 290.772 313.016 282.333 313.017C273.894 313.016 266.268 309.6 260.737 304.072C255.208 298.54 251.792 290.913 251.792 282.475C251.792 274.037 255.208 266.411 260.737 260.879C266.268 255.351 273.894 251.935 282.333 251.933C290.772 251.935 298.398 255.351 303.929 260.879C309.458 266.411 312.874 274.037 312.874 282.475H314.208H315.541C315.541 264.135 300.674 249.268 282.333 249.267C263.992 249.268 249.125 264.135 249.125 282.475C249.125 300.816 263.992 315.683 282.333 315.684C300.674 315.683 315.541 300.816 315.541 282.475H314.208Z" fill="#367D83"/>
<path d="M281 250.6V314.351C281 315.087 281.597 315.684 282.333 315.684C283.069 315.684 283.667 315.087 283.667 314.351V250.6C283.667 249.864 283.069 249.267 282.333 249.267C281.597 249.267 281 249.864 281 250.6Z" fill="#367D83"/>
<path d="M314.208 281.141H250.458C249.721 281.141 249.125 281.739 249.125 282.475C249.125 283.212 249.721 283.808 250.458 283.808H314.208C314.945 283.808 315.541 283.212 315.541 282.475C315.541 281.739 314.945 281.141 314.208 281.141Z" fill="#367D83"/>
<path d="M303.929 258.993L258.852 304.072C258.331 304.592 258.331 305.436 258.852 305.957C259.372 306.477 260.216 306.477 260.737 305.957L305.815 260.879C306.336 260.359 306.336 259.515 305.815 258.993C305.295 258.473 304.451 258.473 303.929 258.993Z" fill="#367D83"/>
<path d="M305.815 304.072L260.737 258.993C260.216 258.473 259.372 258.473 258.852 258.993C258.331 259.515 258.331 260.359 258.852 260.879L303.929 305.957C304.451 306.477 305.295 306.477 305.815 305.957C306.336 305.436 306.336 304.592 305.815 304.072Z" fill="#367D83"/>
<path d="M293.539 252.605L268.672 311.305C268.385 311.984 268.701 312.765 269.38 313.053C270.057 313.34 270.84 313.024 271.128 312.345L295.995 253.645C296.281 252.968 295.965 252.185 295.287 251.897C294.609 251.611 293.827 251.928 293.539 252.605Z" fill="#367D83"/>
<path d="M312.204 293.681L253.504 268.815C252.825 268.528 252.043 268.844 251.756 269.523C251.469 270.2 251.785 270.983 252.464 271.271L311.164 296.136C311.841 296.424 312.624 296.107 312.911 295.429C313.199 294.751 312.881 293.968 312.204 293.681Z" fill="#367D83"/>
<path d="M311.378 269.277L252.288 293.201C251.605 293.477 251.276 294.255 251.552 294.937C251.829 295.62 252.606 295.949 253.289 295.673L312.378 271.749C313.061 271.473 313.39 270.696 313.114 270.013C312.838 269.331 312.061 269.001 311.378 269.277Z" fill="#367D83"/>
<path d="M295.532 311.52L271.608 252.429C271.33 251.748 270.553 251.419 269.872 251.695C269.189 251.971 268.86 252.748 269.136 253.431L293.06 312.521C293.336 313.204 294.113 313.533 294.796 313.257C295.478 312.98 295.808 312.203 295.532 311.52Z" fill="#367D83"/>
<path d="M293.712 282.475C293.712 288.759 288.618 293.854 282.334 293.854C276.05 293.854 270.955 288.759 270.955 282.475C270.955 276.192 276.05 271.097 282.334 271.097C288.618 271.097 293.712 276.192 293.712 282.475Z" fill="#367D83"/>
<path d="M282.333 309.337C249.783 309.337 223.395 282.475 223.395 282.475C223.395 282.475 249.783 255.615 282.333 255.615C314.884 255.615 341.272 282.475 341.272 282.475C341.272 282.475 314.884 309.337 282.333 309.337ZM282.333 244.119C246.319 244.119 217.124 282.475 217.124 282.475C217.124 282.475 246.319 320.832 282.333 320.832C318.348 320.832 347.544 282.475 347.544 282.475C347.544 282.475 318.348 244.119 282.333 244.119Z" fill="#292D32"/>
<path d="M282.333 309.338V308.004C266.432 308.011 251.907 301.419 241.368 294.778C236.1 291.462 231.831 288.14 228.887 285.654C227.415 284.411 226.273 283.376 225.504 282.656C225.119 282.296 224.827 282.014 224.632 281.824L224.413 281.608L224.347 281.542L223.395 282.475L224.347 283.41L224.413 283.342C225.153 282.603 231.92 275.971 242.368 269.552C252.817 263.127 266.928 256.943 282.333 256.948C298.235 256.942 312.76 263.534 323.299 270.174C328.567 273.491 332.836 276.811 335.78 279.298C337.252 280.54 338.393 281.575 339.164 282.295C339.549 282.655 339.841 282.938 340.036 283.127L340.253 283.342L340.321 283.41L341.272 282.475L340.321 281.542L340.253 281.608C339.515 282.348 332.748 288.982 322.3 295.4C311.851 301.826 297.739 308.01 282.333 308.004V309.338V310.671C298.983 310.664 313.927 303.826 324.72 297.035C335.513 290.238 342.175 283.459 342.223 283.41C342.733 282.891 342.733 282.06 342.223 281.542C342.175 281.492 335.513 274.714 324.72 267.916C313.927 261.127 298.983 254.288 282.333 254.282C265.684 254.288 250.74 261.127 239.947 267.916C229.153 274.714 222.493 281.492 222.444 281.542C221.933 282.06 221.933 282.891 222.444 283.41C222.493 283.459 229.153 290.238 239.947 297.035C250.74 303.826 265.684 310.664 282.333 310.671V309.338ZM282.333 244.119V242.786C273.091 242.787 264.325 245.246 256.392 248.902C244.492 254.39 234.44 262.57 227.337 269.378C220.237 276.186 216.093 281.628 216.063 281.668C215.699 282.146 215.7 282.806 216.063 283.283C216.104 283.336 223.455 292.995 235.383 302.688C241.347 307.535 248.459 312.392 256.392 316.05C264.325 319.706 273.091 322.166 282.333 322.166C291.576 322.166 300.341 319.706 308.275 316.05C320.175 310.562 330.228 302.382 337.329 295.574C344.429 288.766 348.575 283.323 348.604 283.283C348.968 282.806 348.968 282.146 348.604 281.668C348.563 281.615 341.212 271.956 329.285 262.263C323.32 257.416 316.208 252.559 308.275 248.902C300.341 245.246 291.576 242.787 282.333 242.786V244.119V245.452C291.097 245.452 299.487 247.788 307.157 251.323C318.663 256.623 328.523 264.624 335.484 271.302C338.965 274.64 341.723 277.644 343.605 279.811C344.547 280.894 345.271 281.767 345.756 282.367C345.999 282.667 346.183 282.898 346.304 283.054L346.44 283.228L346.483 283.283L347.544 282.475L346.483 281.668L346.405 281.768C345.575 282.84 338.069 292.331 326.496 301.508C320.711 306.096 313.909 310.606 306.437 313.956C298.963 317.308 290.824 319.499 282.333 319.499C273.569 319.499 265.18 317.164 257.509 313.628C246.004 308.328 236.144 300.327 229.183 293.65C225.703 290.311 222.945 287.306 221.061 285.14C220.12 284.058 219.397 283.184 218.911 282.584C218.668 282.284 218.485 282.054 218.363 281.898L218.227 281.723L218.184 281.668L217.124 282.475L218.184 283.283L218.261 283.183C219.092 282.111 226.597 272.62 238.171 263.443C243.956 258.855 250.757 254.346 258.229 250.995C265.704 247.644 273.843 245.452 282.333 245.452V244.119Z" fill="#367D83"/>
<path d="M280.562 218.516V237.496C280.562 238.232 281.16 238.829 281.896 238.829C282.633 238.829 283.229 238.232 283.229 237.496V218.516C283.229 217.78 282.633 217.182 281.896 217.182C281.16 217.182 280.562 217.78 280.562 218.516Z" fill="#F6F3EB"/>
<path d="M300.391 227.514L295.54 238.963C295.252 239.64 295.569 240.423 296.248 240.711C296.925 240.998 297.708 240.68 297.995 240.003L302.845 228.553C303.133 227.875 302.816 227.094 302.137 226.806C301.46 226.519 300.677 226.835 300.391 227.514Z" fill="#F6F3EB"/>
<path d="M268.92 238.983L264.285 227.533C264.008 226.851 263.231 226.521 262.548 226.797C261.865 227.073 261.536 227.851 261.813 228.533L266.448 239.983C266.725 240.665 267.502 240.995 268.184 240.719C268.866 240.441 269.196 239.664 268.92 238.983Z" fill="#F6F3EB"/>
<path d="M283.229 346.48V327.5C283.229 326.764 282.633 326.167 281.896 326.167C281.16 326.167 280.562 326.764 280.562 327.5V346.48C280.562 347.217 281.16 347.813 281.896 347.813C282.633 347.813 283.229 347.217 283.229 346.48Z" fill="#F6F3EB"/>
<path d="M302.845 336.442L297.995 324.993C297.708 324.314 296.925 323.998 296.248 324.285C295.569 324.572 295.252 325.354 295.54 326.033L300.391 337.482C300.677 338.16 301.46 338.477 302.137 338.189C302.816 337.902 303.133 337.12 302.845 336.442Z" fill="#F6F3EB"/>
<path d="M266.448 325.012L261.813 336.461C261.536 337.144 261.865 337.921 262.548 338.199C263.231 338.475 264.008 338.145 264.285 337.463L268.92 326.013C269.196 325.331 268.866 324.553 268.184 324.277C267.502 324.001 266.725 324.331 266.448 325.012Z" fill="#F6F3EB"/>
</svg>
