<svg width="111" height="111" viewBox="0 0 111 111" fill="none" xmlns="http://www.w3.org/2000/svg">
<path d="M55.5 0C24.8085 0 0 24.975 0 55.5C0 70.2195 5.8473 84.3362 16.2556 94.7444C21.4092 99.8981 27.5275 103.986 34.2611 106.775C40.9946 109.564 48.2116 111 55.5 111C70.2195 111 84.3362 105.153 94.7444 94.7444C105.153 84.3362 111 70.2195 111 55.5C111 48.2116 109.564 40.9946 106.775 34.2611C103.986 27.5275 99.8981 21.4092 94.7444 16.2556C89.5908 11.1019 83.4725 7.01382 76.7389 4.22469C70.0054 1.43555 62.7884 0 55.5 0ZM43.0125 32.301C47.841 32.301 52.4475 34.5765 55.5 38.1285C58.5525 34.5765 63.159 32.301 67.9875 32.301C76.5345 32.301 83.25 39.0165 83.25 47.5635C83.25 58.053 73.815 66.6 59.496 79.587L55.5 83.25L51.504 79.587C37.185 66.6 27.75 58.053 27.75 47.5635C27.75 39.0165 34.4655 32.301 43.0125 32.301Z" fill="#F2F2F2"/>
</svg>
