<svg width="390" height="645" viewBox="0 0 390 645" fill="none" xmlns="http://www.w3.org/2000/svg">
<path d="M383.602 195.212C383.602 90.9785 299.096 6.48121 194.869 6.48121C90.6291 6.48121 6.13574 90.9785 6.13574 195.212C6.13574 299.445 90.6291 383.942 194.869 383.942C299.096 383.942 383.602 299.445 383.602 195.212Z" stroke="#73A9AD" stroke-width="1.33333" stroke-miterlimit="10" stroke-linecap="round" stroke-linejoin="round"/>
<path d="M372.429 195.212C372.429 97.1462 292.936 17.6475 194.869 17.6475C96.8025 17.6475 17.2959 97.1462 17.2959 195.212C17.2959 293.278 96.8025 372.775 194.869 372.775C292.936 372.775 372.429 293.278 372.429 195.212Z" stroke="#73A9AD" stroke-width="1.33333" stroke-miterlimit="10" stroke-linecap="round" stroke-linejoin="round"/>
<path d="M388.829 195.212C388.829 88.0862 301.989 1.24358 194.869 1.24358C87.736 1.24358 0.895996 88.0862 0.895996 195.212C0.895996 302.337 87.736 389.18 194.869 389.18C301.989 389.18 388.829 302.337 388.829 195.212Z" stroke="#73A9AD" stroke-width="1.33333" stroke-miterlimit="10" stroke-linecap="round" stroke-linejoin="round" stroke-dasharray="16 16"/>
<path d="M383.706 449.968C383.706 345.735 299.2 261.237 194.973 261.237C90.7331 261.237 6.23975 345.735 6.23975 449.968C6.23975 554.201 90.7331 638.699 194.973 638.699C299.2 638.699 383.706 554.201 383.706 449.968Z" stroke="#73A9AD" stroke-width="1.33333" stroke-miterlimit="10" stroke-linecap="round" stroke-linejoin="round"/>
<path d="M372.533 449.968C372.533 351.901 293.04 272.404 194.973 272.404C96.9065 272.404 17.3999 351.901 17.3999 449.968C17.3999 548.033 96.9065 627.532 194.973 627.532C293.04 627.532 372.533 548.033 372.533 449.968Z" stroke="#73A9AD" stroke-width="1.33333" stroke-miterlimit="10" stroke-linecap="round" stroke-linejoin="round"/>
<path d="M388.933 449.968C388.933 342.843 302.093 256 194.973 256C87.84 256 1 342.843 1 449.968C1 557.093 87.84 643.935 194.973 643.935C302.093 643.935 388.933 557.093 388.933 449.968Z" stroke="#73A9AD" stroke-width="1.33333" stroke-miterlimit="10" stroke-linecap="round" stroke-linejoin="round" stroke-dasharray="16 16"/>
<path d="M354.92 449.968C354.92 361.628 283.307 290.015 194.973 290.015C106.627 290.015 35.0132 361.628 35.0132 449.968C35.0132 538.308 106.627 609.921 194.973 609.921C283.307 609.921 354.92 538.308 354.92 449.968Z" stroke="#73A9AD" stroke-width="1.33333" stroke-miterlimit="10" stroke-linecap="round" stroke-linejoin="round"/>
<path d="M345.453 449.968C345.453 366.855 278.08 299.478 194.973 299.478C111.853 299.478 44.48 366.855 44.48 449.968C44.48 533.081 111.853 600.457 194.973 600.457C278.08 600.457 345.453 533.081 345.453 449.968Z" stroke="#73A9AD" stroke-width="1.33333" stroke-miterlimit="10" stroke-linecap="round" stroke-linejoin="round"/>
<path d="M359.36 449.968C359.36 359.177 285.76 285.576 194.973 285.576C104.173 285.576 30.5732 359.177 30.5732 449.968C30.5732 540.758 104.173 614.358 194.973 614.358C285.76 614.358 359.36 540.758 359.36 449.968Z" stroke="#73A9AD" stroke-width="1.33333" stroke-miterlimit="10" stroke-linecap="round" stroke-linejoin="round"/>
</svg>
