<svg width="210" height="171" viewBox="0 0 210 171" fill="none" xmlns="http://www.w3.org/2000/svg">
<path d="M150.857 5.17847H20.9288C12.4867 5.17847 5.64307 12.0221 5.64307 20.4642V112.178C5.64307 120.621 12.4867 127.464 20.9288 127.464H150.857C159.299 127.464 166.143 120.621 166.143 112.178V20.4642C166.143 12.0221 159.299 5.17847 150.857 5.17847Z" stroke="#3F4A4E" stroke-width="10" stroke-linecap="round" stroke-linejoin="round"/>
<path d="M85.8929 89.25C98.556 89.25 108.821 78.9845 108.821 66.3214C108.821 53.6583 98.556 43.3928 85.8929 43.3928C73.2298 43.3928 62.9644 53.6583 62.9644 66.3214C62.9644 78.9845 73.2298 89.25 85.8929 89.25Z" stroke="#3F4A4E" stroke-width="10" stroke-linecap="round" stroke-linejoin="round"/>
<path d="M51.5 165.678H189.071C193.125 165.678 197.013 164.068 199.88 161.201C202.747 158.335 204.357 154.447 204.357 150.393V73.9641" stroke="#3F4A4E" stroke-width="10" stroke-linecap="round" stroke-linejoin="round"/>
</svg>
