<svg width="248" height="263" viewBox="0 0 248 263" fill="none" xmlns="http://www.w3.org/2000/svg">
<path d="M2.09863 55.8737C2.09863 55.8737 153.664 1.00042 155.572 2.01375C157.479 3.02842 212.771 183.255 212.771 183.255L67.442 251.435L2.09863 55.8737Z" fill="#252523"/>
<path d="M2.09863 55.8737C2.09863 55.8737 153.664 1.00042 155.572 2.01375C157.479 3.02842 212.771 183.255 212.771 183.255L67.442 251.435L2.09863 55.8737Z" stroke="#252523" stroke-width="2.48879" stroke-miterlimit="10" stroke-linecap="round" stroke-linejoin="round"/>
<path d="M6.94336 56.5698C6.94336 56.5698 21.6627 55.9991 37.3772 67.7658L39.521 74.1338L188.276 17.6404C188.276 17.6404 159.815 12.7351 156.514 4.1711L6.94336 56.5698Z" fill="#B8C6D8"/>
<path d="M6.94336 56.5698C6.94336 56.5698 21.6627 55.9991 37.3772 67.7658L39.521 74.1338L188.276 17.6404C188.276 17.6404 159.815 12.7351 156.514 4.1711L6.94336 56.5698Z" stroke="#252523" stroke-width="2.48879" stroke-miterlimit="10" stroke-linecap="round" stroke-linejoin="round"/>
<path d="M154.785 10.1591C110.071 24.9871 65.1097 39.2671 20.7801 55.2031C20.4561 55.3178 20.6551 55.7791 20.9744 55.6898C66.2515 42.6378 110.27 25.4685 154.978 10.6445C155.301 10.5391 155.106 10.0538 154.785 10.1591Z" fill="#252523"/>
<path d="M93.8126 36.5056C115.787 28.255 137.547 19.2029 159.718 11.5016C159.875 11.4456 159.779 11.2083 159.622 11.259C137.871 18.039 116.627 26.5576 95.2246 34.3323C82.2254 39.0563 69.2186 43.7616 56.1774 48.3683C48.4296 51.1096 40.2926 54.8576 32.1484 56.2336C31.9812 56.2603 32.0097 56.507 32.1801 56.491C39.4301 55.851 46.7525 53.1616 53.5998 50.903C67.1301 46.4416 80.4812 41.5096 93.8126 36.5056Z" fill="#252523"/>
<path d="M106.869 37.5726C125.805 30.4472 144.599 22.8992 163.645 16.0685C164.281 15.8405 163.895 14.8912 163.259 15.1006C144.726 21.1819 126.445 27.9859 108.233 34.9606C97.4781 39.0806 86.6888 43.0379 75.7713 46.7232C61.9521 51.3872 48.3771 57.3539 34.4161 61.4632C34.2027 61.5259 34.2943 61.8872 34.5115 61.8406C47.7047 59.0472 60.2547 53.5619 73.0765 49.4352C84.4505 45.7739 95.6875 41.7792 106.869 37.5726Z" fill="#252523"/>
<path d="M172.015 16.7004C154.242 21.9951 136.88 29.4644 119.351 35.5684C107.646 39.6457 95.8965 43.5458 84.0799 47.3031C68.595 52.2258 52.6783 56.3244 38.257 63.9724C38.1841 64.0111 38.2278 64.1284 38.3054 64.0938C52.2502 58.1591 67.2461 55.0111 81.5543 50.0618C94.3218 45.6418 107.058 41.2058 119.714 36.4751C136.87 30.0644 155.851 25.4098 172.159 17.0644C172.382 16.9471 172.255 16.6271 172.015 16.7004Z" fill="#252523"/>
<path d="M2.09891 55.8739C-0.880689 52.5299 64.4245 246.865 67.4422 251.435C70.4625 256.006 91.5448 263.706 101.999 259.922L37.3776 67.7659C37.3776 67.7659 12.1104 67.1113 2.09891 55.8739Z" fill="#252523"/>
<path d="M2.09891 55.8739C-0.880689 52.5299 64.4245 246.865 67.4422 251.435C70.4625 256.006 91.5448 263.706 101.999 259.922L37.3776 67.7659C37.3776 67.7659 12.1104 67.1113 2.09891 55.8739Z" stroke="#252523" stroke-width="2.48879" stroke-miterlimit="10" stroke-linecap="round" stroke-linejoin="round"/>
<path d="M49.8161 103.128L46.0401 91.9044C40.0995 92.0804 34.1609 91.4151 27.9765 90.0884C23.2432 89.0617 17.2584 88.1204 11.8281 86.4018C13.1448 90.4738 14.5631 94.8377 16.0735 99.4484C26.7188 103.078 38.4568 103.755 49.8161 103.128Z" fill="#B8C6D8"/>
<path d="M64.3192 146.263L60.5061 134.916C52.5436 135.772 44.7509 135.03 36.5566 133.086C33.5326 132.362 29.99 131.662 26.4165 130.774C27.8848 135.187 29.3801 139.666 30.8842 144.174C41.6842 146.879 53.3113 147.05 64.3192 146.263Z" fill="#B8C6D8"/>
<path d="M79.3379 190.916L75.6322 179.898C68.8056 180.964 61.9379 180.862 54.6707 179.888C51.0307 179.394 46.6728 179.006 42.3594 178.288C43.8046 182.56 45.2307 186.764 46.627 190.867C57.2504 193.012 68.5526 192.496 79.3379 190.916Z" fill="#B8C6D8"/>
<path d="M94.4152 235.755L90.6992 224.708C83.6794 225.774 76.6372 225.582 69.192 224.476C65.7518 223.96 61.6685 223.534 57.5898 222.828C59.2253 227.547 60.7174 231.815 62.0372 235.544C72.5612 237.643 83.7482 237.215 94.4152 235.755Z" fill="#B8C6D8"/>
<path d="M37.3774 67.7659C37.3774 67.7659 185.207 15.8406 189.051 17.6553C192.899 19.4686 246.622 212.871 246.259 215.287C245.898 217.703 101.999 259.922 101.999 259.922L37.3774 67.7659Z" fill="#252523"/>
<path d="M37.3774 67.7655L45.5952 92.2002L65.9498 57.8002C49.0645 63.6602 37.3774 67.7655 37.3774 67.7655Z" fill="#B8C6D8"/>
<path d="M101.999 259.922C101.999 259.922 112.235 256.918 127.251 252.469L93.6846 235.198L101.999 259.922Z" fill="#B8C6D8"/>
<path d="M189.051 17.6551C188.09 17.2018 178.069 20.1258 163.598 24.7604L197.803 42.8511C193.197 27.8417 189.905 18.0578 189.051 17.6551Z" fill="#B8C6D8"/>
<path d="M246.259 215.287C246.334 214.8 244.203 206.532 240.726 193.638L219.699 224.503C235.35 219.578 246.163 215.946 246.259 215.287Z" fill="#B8C6D8"/>
<path d="M37.3774 67.7659C37.3774 67.7659 185.207 15.8406 189.051 17.6553C192.899 19.4686 246.622 212.871 246.259 215.287C245.898 217.703 101.999 259.922 101.999 259.922L37.3774 67.7659Z" stroke="#252523" stroke-width="2.48879" stroke-miterlimit="10" stroke-linecap="round" stroke-linejoin="round"/>
<path d="M228.047 200.579C225.733 201.166 223.559 199.611 221.914 198.222C219.642 196.302 218.054 193.496 216.555 190.918C220.49 190.112 226.227 192.37 229.034 194.393C230.863 195.713 232.817 199.37 228.047 200.579ZM208.587 201.239C205.405 200.219 210.815 194.762 213.781 192.355C213.478 196.031 212.946 202.635 208.587 201.239ZM135.605 221.126C137.114 222.911 133.338 224.09 132.138 223.684C130.946 223.284 129.918 222.402 128.954 221.623C127.822 220.706 126.819 219.651 125.801 218.61C128.953 218.233 133.686 218.849 135.605 221.126ZM120.915 233.594C118.326 235.982 114.999 234.121 115.271 230.706C115.554 227.13 119.221 221.594 122.937 219.509C123.314 222.137 123.613 224.743 123.473 227.415C123.354 229.672 122.627 232.017 120.915 233.594ZM112.206 211.658C113.393 210.027 117.349 213.025 118.278 213.723C119.362 214.539 120.565 215.553 121.459 216.721C117.855 216.603 108.939 216.138 112.206 211.658ZM102.071 156.952C94.1154 135.888 86.1712 114.819 78.1015 93.8005C80.2718 94.3965 82.3359 95.3685 84.5687 95.7072C91.4021 115.943 97.9314 136.288 105.343 156.319C112.271 175.022 119.387 193.657 126.542 212.27C125.894 213.667 125.201 215.042 124.363 216.335C124.311 216.417 124.297 216.495 124.269 216.575C122.333 210.03 119.594 203.634 117.211 197.246C112.202 183.803 107.139 170.376 102.071 156.952ZM72.0228 103.833C71.1436 104.526 70.2374 103.659 69.6687 103.009C68.4994 101.669 69.813 99.8192 70.6583 98.7232C71.9707 97.0245 73.6963 95.7232 75.3442 94.3672C75.5067 97.6632 74.1786 102.139 72.0228 103.833ZM62.3718 87.6552C60.5484 86.2992 58.7182 82.6218 63.4807 81.4925C65.8026 80.9432 67.952 82.5445 69.5744 83.9565C71.8094 85.9072 73.3521 88.7378 74.8073 91.3352C70.8603 92.0845 65.1422 89.7192 62.3718 87.6552ZM82.9442 81.1445C86.0922 82.2059 80.614 87.5658 77.6051 89.9285C77.9739 86.2578 78.6146 79.6819 82.9442 81.1445ZM154.003 54.8845C152.193 53.5392 154.535 51.4925 156.097 51.5991C157.518 51.6978 158.862 52.9098 159.917 53.7578C161.146 54.7472 162.215 55.9098 163.299 57.0538C160.238 57.3792 156.331 56.6205 154.003 54.8845ZM168.429 42.1392C171.111 39.7378 174.322 41.8432 174.014 45.1405C173.673 48.7312 169.923 54.1698 166.171 56.1952C165.841 53.5552 165.585 50.9432 165.765 48.2725C165.919 46.0045 166.683 43.6992 168.429 42.1392ZM176.773 64.2272C175.57 65.8272 171.647 62.7619 170.73 62.0459C169.663 61.2192 168.482 60.1899 167.607 59.0099C171.207 59.1872 180.123 59.7832 176.773 64.2272ZM173.955 80.6152C179.321 94.4965 184.45 108.47 189.575 122.441C194.801 136.679 199.977 150.933 205.205 165.166C207.917 172.55 210.406 180.158 213.57 187.386C212.331 186.55 211.114 185.687 209.923 184.782C209.913 184.742 209.915 184.702 209.901 184.663C194.698 145.073 178.79 105.76 163.721 66.1178C164.045 64.1085 164.745 62.2138 165.675 60.4152C166.698 62.0152 167.402 64.3552 168.073 65.9258C170.143 70.7765 172.053 75.6978 173.955 80.6152ZM219.13 178.384C220.002 177.676 220.914 178.503 221.501 179.154C222.621 180.398 221.553 182.123 220.779 183.211C219.478 185.047 217.681 186.445 215.977 187.891C215.757 184.603 217.003 180.108 219.13 178.384ZM128.09 213.319C143.271 208.043 158.798 203.909 173.985 198.671C185.599 194.667 197.141 190.45 208.641 186.141C209.913 187.11 211.217 188.028 212.545 188.919C184.643 199.977 154.666 204.611 126.854 215.722C127.291 214.934 127.706 214.134 128.09 213.319ZM132.105 210.005C130.789 210.441 129.479 210.883 128.17 211.335C127.83 210.447 127.493 209.554 127.151 208.666C128.969 208.482 130.703 208.839 132.105 210.005ZM204.225 185.793C204.07 183.929 205.013 182.011 206.41 180.786C206.778 181.739 207.151 182.689 207.518 183.639C207.623 183.913 207.727 184.189 207.838 184.463C206.633 184.911 205.429 185.347 204.225 185.793ZM90.6407 94.0125C104.918 88.6152 142.862 73.7752 156.834 68.7725C157.066 71.9192 161.411 73.5685 164.377 73.0352C168.729 84.4498 173.105 95.8538 177.569 107.227C186.95 131.138 196.451 154.998 205.705 178.959C205.701 178.961 205.699 178.961 205.698 178.963C203.475 180.602 201.907 183.669 202.43 186.457C193.094 189.918 183.731 193.319 174.329 196.587C161.025 201.215 147.451 204.977 134.067 209.355C132.047 207.221 129.358 206.443 126.469 206.883C120.037 190.12 113.645 173.337 107.395 156.503C100.742 138.587 94.7967 120.421 88.7314 102.298C91.534 100.763 92.622 96.5392 90.6407 94.0125ZM88.7834 94.7125C90.5394 96.1285 89.9234 99.3112 88.1327 100.511C87.5794 98.8632 87.0314 97.2112 86.4767 95.5618C87.0674 95.3498 87.8607 95.0565 88.7834 94.7125ZM161.917 65.6658C149.661 68.4912 137.981 73.9192 126.225 78.2898C112.559 83.3672 99.2234 89.2832 85.414 93.9712C85.3922 93.9672 85.378 93.9538 85.354 93.9538C83.1791 93.7258 81.1744 92.8192 79.0988 92.1725C108.057 83.9619 134.655 69.0938 163.543 60.5018C162.774 62.1445 162.218 63.8738 161.917 65.6658ZM162.049 67.1112C162.077 67.1379 162.111 67.1605 162.142 67.1818C162.659 68.5472 163.185 69.9099 163.707 71.2725C161.633 71.4832 158.367 70.3299 158.714 68.1085C160.682 67.4245 161.861 67.0659 162.049 67.1112ZM217.365 189.138C219.797 187.081 222.457 184.982 223.569 181.935C224.439 179.555 222.567 176.048 219.763 176.252C216.633 176.48 214.894 180.546 214.342 184.47C211.621 177.914 209.365 171.105 206.93 164.478C201.585 149.934 196.297 135.368 190.963 120.824C185.774 106.691 180.573 92.5605 175.134 78.5205C173.297 73.7778 171.437 69.0432 169.425 64.3698C169.27 64.0032 169.11 63.6072 168.95 63.2032C171.939 65.8618 175.817 67.7125 178.219 65.3938C180.447 63.2472 178.745 59.8912 176.586 58.6578C174.127 57.2485 170.994 57.2685 168.154 57.1765C173.023 53.7552 178.757 45.0525 174.666 40.8432C171.847 37.9432 168.011 39.4099 165.798 42.2885C163.139 45.7565 163.615 51.0125 164.177 55.3178C161.93 52.9738 159.614 50.5592 156.374 49.7645C154.183 49.2245 151.199 51.5165 151.461 53.8618C151.914 57.8912 157.958 59.0792 162.39 58.9165C134.681 67.2298 109.065 81.2778 81.4203 89.5885C84.6348 86.6645 87.3194 82.5472 84.8125 80.2272C78.9261 74.7765 76.6171 84.6765 75.8463 89.4525C73.6072 85.5978 71.0707 81.8245 66.8296 80.0165C64.2755 78.9258 59.4333 79.8045 58.8827 83.1205C57.7098 90.2298 67.7094 93.2338 73.9791 93.0978C71.5901 95.0658 69.0687 97.0285 67.7635 99.8965C66.6322 102.394 68.3078 105.694 71.1365 105.942C73.8302 106.179 75.2922 102.702 75.9963 100.682C76.4531 99.3658 76.8707 97.8378 77.0651 96.2978C84.8994 116.717 92.6181 137.183 100.345 157.641C105.325 170.827 110.295 184.018 115.222 197.225C117.282 202.742 119.579 208.268 121.459 213.884C118.343 210.63 113.51 207.751 110.761 210.493C108.573 212.669 110.291 216.002 112.477 217.21C114.973 218.586 118.121 218.513 120.973 218.559C115.971 222.023 111.394 229.911 114.511 234.816C116.345 237.704 121.095 236.682 122.866 234.301C125.901 230.221 125.593 225.179 124.939 220.373C127.021 222.545 129.389 225.125 132.301 225.681C134.854 226.167 137.427 224.625 137.683 221.879C137.995 218.494 133.319 217.09 129.167 216.786C156.066 206.317 184.899 201.643 211.863 191.184C208.029 194.048 203.674 199.446 206.713 202.171C212.682 207.529 214.846 197.613 215.543 192.822C217.838 196.634 220.437 200.367 224.693 202.103C227.251 203.149 232.102 202.226 232.598 198.897C233.663 191.763 223.63 188.899 217.365 189.138Z" fill="#B8C6D8"/>
<path d="M125.589 96.063C128.262 98.8604 130.73 101.843 133.362 104.676C130.134 108.227 127.673 112.447 125.943 117.022C122.326 115.622 118.789 114.026 115.151 112.676C113.575 112.091 112.921 114.612 114.478 115.191C118.055 116.519 121.538 118.084 125.093 119.467C123.635 124.108 122.882 129.016 122.807 133.892C118.857 133.99 114.905 133.859 110.953 134.002C109.279 134.062 109.293 136.663 110.971 136.603C114.922 136.462 118.874 136.592 122.823 136.495C122.957 140.406 123.518 144.251 124.499 147.86C124.569 148.119 124.67 148.375 124.747 148.631C121.023 149.883 117.23 150.923 113.522 152.219C111.947 152.772 112.642 155.282 114.233 154.727C117.978 153.414 121.807 152.367 125.569 151.102C127.005 154.875 129.097 158.519 131.685 161.871C128.687 164.231 125.817 166.747 122.781 169.056C121.461 170.058 122.771 172.311 124.11 171.294C127.253 168.903 130.217 166.29 133.329 163.862C136.513 167.564 140.285 170.839 144.397 173.46C142.506 176.815 140.795 180.268 138.855 183.595C138.007 185.047 140.266 186.339 141.111 184.892C143.042 181.582 144.745 178.15 146.623 174.81C150.946 177.247 155.563 178.915 160.195 179.628C159.955 183.539 159.931 187.458 159.643 191.366C159.519 193.04 162.122 193.007 162.245 191.347C162.542 187.328 162.555 183.302 162.817 179.283C162.983 178.932 162.985 178.498 162.819 178.106C162.694 177.47 162.121 177.179 161.531 177.236C156.585 176.676 151.726 174.896 147.255 172.247C147.039 171.952 146.715 171.74 146.357 171.674C136.982 165.798 129.453 156.155 126.729 146.135C124.501 137.943 124.861 128.222 127.75 119.631C127.893 119.431 127.966 119.183 127.991 118.926C129.779 113.895 132.449 109.286 135.997 105.64C136.023 105.615 136.046 105.586 136.073 105.558C136.098 105.53 136.122 105.499 136.149 105.471C136.89 104.722 136.437 103.726 135.705 103.38C132.874 100.383 130.265 97.1884 127.415 94.2097C126.253 92.995 124.43 94.851 125.589 96.063Z" fill="#B8C6D8"/>
<path d="M172.724 132.41C163.879 107.696 142.026 106.596 142.026 106.596C142.026 106.596 122.812 124.098 131.119 147.303C139.424 170.507 165.379 171.84 165.379 171.84C165.379 171.84 181.571 157.119 172.724 132.41Z" fill="#B8C6D8"/>
<path d="M144.83 120.045C155.901 116.081 168.051 121.739 171.967 132.68C175.885 143.62 170.085 155.701 159.013 159.667C147.942 163.628 135.793 157.971 131.877 147.031C127.959 136.088 133.758 124.008 144.83 120.045Z" fill="#252523"/>
<path d="M148.265 129.638C154.166 127.527 160.587 130.387 162.607 136.031C164.629 141.672 161.479 147.96 155.579 150.072C149.677 152.184 143.255 149.322 141.237 143.68C139.215 138.04 142.363 131.751 148.265 129.638Z" fill="#B8C6D8"/>
<path d="M156.634 105.648C156.745 105.962 156.583 106.308 156.267 106.419C155.953 106.531 155.609 106.37 155.495 106.055C155.383 105.742 155.547 105.394 155.861 105.28C156.174 105.168 156.522 105.335 156.634 105.648Z" fill="#B8C6D8"/>
<path d="M162.639 109.298C162.831 109.831 162.553 110.422 162.017 110.612C161.483 110.803 160.893 110.526 160.701 109.99C160.51 109.454 160.789 108.866 161.323 108.675C161.859 108.483 162.449 108.759 162.639 109.298Z" fill="#B8C6D8"/>
<path d="M168.006 113.67C168.255 114.366 167.894 115.13 167.198 115.38C166.502 115.63 165.737 115.267 165.487 114.571C165.238 113.876 165.602 113.111 166.297 112.862C166.991 112.614 167.758 112.974 168.006 113.67Z" fill="#B8C6D8"/>
<path d="M172.626 118.722C172.91 119.525 172.494 120.407 171.689 120.695C170.887 120.982 170.005 120.565 169.718 119.763C169.43 118.959 169.849 118.078 170.649 117.789C171.453 117.502 172.337 117.919 172.626 118.722Z" fill="#B8C6D8"/>
<path d="M176.381 124.389C176.69 125.253 176.241 126.209 175.373 126.517C174.507 126.826 173.554 126.377 173.245 125.51C172.934 124.643 173.385 123.69 174.251 123.379C175.118 123.069 176.071 123.521 176.381 124.389Z" fill="#B8C6D8"/>
<path d="M179.185 130.552C179.505 131.447 179.038 132.43 178.144 132.75C177.25 133.071 176.268 132.606 175.948 131.713C175.628 130.818 176.09 129.835 176.986 129.514C177.88 129.194 178.864 129.659 179.185 130.552Z" fill="#B8C6D8"/>
<path d="M180.935 137.1C181.246 137.967 180.795 138.923 179.928 139.234C179.062 139.542 178.107 139.091 177.798 138.226C177.487 137.358 177.939 136.403 178.804 136.092C179.671 135.783 180.626 136.234 180.935 137.1Z" fill="#B8C6D8"/>
<path d="M181.634 143.863C181.922 144.667 181.502 145.553 180.698 145.842C179.894 146.129 179.007 145.71 178.719 144.907C178.43 144.102 178.85 143.215 179.654 142.926C180.459 142.64 181.346 143.059 181.634 143.863Z" fill="#B8C6D8"/>
<path d="M181.274 150.7C181.524 151.398 181.16 152.167 180.462 152.416C179.763 152.666 178.996 152.304 178.747 151.604C178.494 150.907 178.858 150.139 179.558 149.888C180.255 149.639 181.023 150.002 181.274 150.7Z" fill="#B8C6D8"/>
<path d="M179.904 157.487C180.096 158.028 179.816 158.619 179.278 158.811C178.741 159.004 178.149 158.724 177.956 158.186C177.764 157.648 178.044 157.055 178.581 156.863C179.12 156.671 179.712 156.952 179.904 157.487Z" fill="#B8C6D8"/>
<path d="M177.575 164.127C177.69 164.442 177.524 164.79 177.21 164.903C176.894 165.017 176.544 164.851 176.432 164.534C176.318 164.219 176.483 163.873 176.799 163.758C177.115 163.647 177.463 163.81 177.575 164.127Z" fill="#B8C6D8"/>
<path d="M38.837 69.3829C60.228 132.234 80.4489 195.484 102.063 258.26C102.277 258.875 103.245 258.623 103.047 257.988C83.4583 194.575 61.3666 131.828 39.0838 69.3149C39.0286 69.1616 38.7843 69.2269 38.837 69.3829Z" fill="#B8C6D8"/>
</svg>
