<svg width="283" height="283" viewBox="0 0 283 283" fill="none" xmlns="http://www.w3.org/2000/svg">
<path d="M216.07 41.0682C219.526 37.6138 224.119 35.7118 229.005 35.7118C233.892 35.7118 238.485 37.6138 241.94 41.0682C249.072 48.1991 249.072 59.8009 241.94 66.9318C238.485 70.3855 233.892 72.2882 229.005 72.2882C224.119 72.2882 219.526 70.3855 216.07 66.9318C212.615 63.4773 210.713 58.885 210.713 54C210.713 49.115 212.615 44.5227 216.07 41.0682ZM229.005 76C234.883 76 240.409 73.7117 244.565 69.5561C253.145 60.9784 253.145 47.0216 244.565 38.4439C240.409 34.2883 234.883 32 229.005 32C223.127 32 217.601 34.2883 213.445 38.4439C209.289 42.5988 207 48.1232 207 54C207 59.8761 209.289 65.4012 213.445 69.5561C217.601 73.7117 223.127 76 229.005 76Z" fill="#367D83"/>
<path d="M155.442 17.2677C157.629 9.28589 165.051 3.71095 173.491 3.71095C175.12 3.71095 176.753 3.92215 178.343 4.33889C188.302 6.94847 194.234 16.9942 191.565 26.7322C189.378 34.7141 181.956 40.289 173.516 40.289C171.887 40.289 170.254 40.0779 168.664 39.6611C163.839 38.3974 159.807 35.3718 157.31 31.142C154.813 26.913 154.149 21.9851 155.442 17.2677ZM167.681 43.2459C169.593 43.7463 171.555 44 173.516 44C183.671 44 192.6 37.2946 195.231 27.6926C198.441 15.9785 191.306 3.89381 179.325 0.754799C177.414 0.254429 175.451 0 173.491 0C163.336 0 154.407 6.70609 151.776 16.3074C150.221 21.9823 151.019 27.9095 154.023 32.9975C157.027 38.0856 161.878 41.7249 167.681 43.2459Z" fill="#73A9AD"/>
<path d="M93.1689 12.858C95.61 8.62891 99.552 5.60328 104.268 4.33889C105.824 3.92215 107.42 3.71095 109.012 3.71095C117.263 3.71095 124.519 9.28589 126.657 17.2677C127.921 21.9851 127.272 26.913 124.831 31.142C122.389 35.3718 118.448 38.3974 113.731 39.6611C112.176 40.0779 110.58 40.289 108.987 40.289C100.737 40.289 93.4807 34.7141 91.3421 26.7322C90.0787 22.0149 90.7271 17.0877 93.1689 12.858ZM108.987 44C110.904 44 112.823 43.7463 114.691 43.2459C120.365 41.7249 125.107 38.0856 128.044 32.9975C130.981 27.9095 131.761 21.9823 130.241 16.3074C127.669 6.70609 118.939 0 109.012 0C107.096 0 105.176 0.254429 103.308 0.754799C97.6345 2.27576 92.8925 5.91442 89.9554 11.0025C87.0182 16.0905 86.2388 22.0184 87.7587 27.6926C90.331 37.2946 99.0602 44 108.987 44Z" fill="#3F4A4E"/>
<path d="M41.0682 41.0682C44.5227 37.6138 49.115 35.7118 54 35.7118C58.885 35.7118 63.4773 37.6138 66.9318 41.0682C70.3862 44.5227 72.2882 49.115 72.2882 54C72.2882 58.885 70.3855 63.4773 66.9318 66.9318C63.4773 70.3855 58.885 72.2882 54 72.2882C49.115 72.2882 44.5227 70.3855 41.0682 66.9318C37.6138 63.4773 35.7118 58.885 35.7118 54C35.7118 49.115 37.6145 44.5227 41.0682 41.0682ZM54 76C59.8761 76 65.4012 73.7117 69.5561 69.5561C73.7117 65.4012 76 59.8761 76 54C76 48.1232 73.7117 42.5988 69.5561 38.4439C65.4012 34.2883 59.8761 32 54 32C48.1239 32 42.5988 34.2883 38.4439 38.4439C34.2883 42.5988 32 48.1232 32 54C32 59.8761 34.2883 65.4012 38.4439 69.5561C42.5988 73.7117 48.1239 76 54 76Z" fill="#367D83"/>
<path d="M4.34266 105.268C6.4805 97.2859 13.7365 91.711 21.9874 91.711C23.5804 91.711 25.1761 91.9221 26.7315 92.3389C31.4479 93.6033 35.3899 96.6282 37.831 100.858C40.2728 105.088 40.9212 110.015 39.6578 114.732C37.5192 122.715 30.2632 128.289 22.013 128.289C20.42 128.289 18.8235 128.078 17.2682 127.661C12.5517 126.397 8.60984 123.372 6.16872 119.142C3.72689 114.913 3.07852 109.985 4.34266 105.268ZM16.308 131.245C18.1766 131.746 20.0955 132 22.013 132C31.9397 132 40.6689 125.295 43.2411 115.693C44.7618 110.018 43.9809 104.091 41.0445 99.0025C38.1073 93.9144 33.3647 90.275 27.6917 88.7548C25.8231 88.2537 23.9042 88 21.9874 88C12.0607 88 3.33078 94.7061 0.758569 104.307C-0.761373 109.982 0.0187932 115.909 2.95522 120.997C5.89236 126.086 10.6343 129.725 16.308 131.245Z" fill="#73A9AD"/>
<path d="M26.7315 191.661C25.1761 192.078 23.5804 192.289 21.9874 192.289C13.7365 192.289 6.4805 186.714 4.34266 178.732C3.07852 174.015 3.72689 169.088 6.16872 164.859C8.60984 160.629 12.5517 157.603 17.2682 156.34C18.8235 155.923 20.4193 155.711 22.013 155.711C30.2632 155.711 37.5192 161.286 39.6578 169.268C40.9212 173.986 40.2728 178.913 37.8317 183.142C35.3899 187.372 31.4479 190.397 26.7315 191.661ZM41.0445 184.998C43.9809 179.91 44.7618 173.982 43.2411 168.307C40.6689 158.706 31.9397 152 22.013 152C20.0955 152 18.1766 152.254 16.308 152.755C10.6343 154.276 5.89236 157.915 2.95522 163.003C0.0187932 168.091 -0.761373 174.018 0.758569 179.693C3.33078 189.294 12.0607 196 21.9874 196C23.9042 196 25.8238 195.746 27.6917 195.246C33.3654 193.725 38.1073 190.086 41.0445 184.998Z" fill="#3F4A4E"/>
<path d="M66.9296 241.932C63.475 245.386 58.8809 247.289 53.9947 247.289C49.1085 247.289 44.5151 245.386 41.0598 241.932C33.928 234.801 33.928 223.199 41.0598 216.068C44.5151 212.614 49.1085 210.711 53.9947 210.711C58.8809 210.711 63.475 212.614 66.9296 216.068C70.3849 219.522 72.2873 224.115 72.2873 229C72.2873 233.885 70.3849 238.478 66.9296 241.932ZM53.9947 207C48.1172 207 42.5907 209.288 38.4348 213.443C29.8551 222.022 29.8551 235.979 38.4348 244.557C42.5914 248.712 48.1172 251 53.9947 251C59.8729 251 65.3987 248.712 69.5545 244.557C73.7111 240.402 76 234.877 76 229C76 223.123 73.7111 217.599 69.5553 213.443C65.3987 209.288 59.8729 207 53.9947 207Z" fill="#367D83"/>
<path d="M126.657 265.732C124.518 273.715 117.261 279.289 109.009 279.289C107.416 279.289 105.82 279.078 104.264 278.661C94.5265 276.052 88.7271 266.007 91.3359 256.268C93.4747 248.286 100.732 242.711 108.984 242.711C110.577 242.711 112.173 242.922 113.728 243.339C118.446 244.603 122.389 247.628 124.83 251.859C127.273 256.088 127.921 261.015 126.657 265.732ZM114.689 239.755C112.82 239.254 110.901 239 108.984 239C99.0552 239 90.3245 245.706 87.7519 255.307C84.613 267.022 91.5903 279.107 103.304 282.245C105.173 282.746 107.092 283 109.009 283C118.937 283 127.669 276.295 130.241 266.693C131.761 261.018 130.981 255.091 128.044 250.002C125.107 244.914 120.364 241.275 114.689 239.755Z" fill="#73A9AD"/>
<path d="M178.341 278.661C176.75 279.078 175.117 279.289 173.487 279.289C165.046 279.289 157.623 273.715 155.435 265.732C152.766 255.994 158.699 245.948 168.66 243.339C170.25 242.922 171.883 242.711 173.513 242.711C181.954 242.711 189.377 248.286 191.564 256.268C194.233 266.006 188.301 276.052 178.341 278.661ZM173.513 239C171.552 239 169.588 239.254 167.678 239.755C155.695 242.894 148.559 254.978 151.769 266.693C154.401 276.295 163.332 283 173.487 283C175.448 283 177.411 282.746 179.323 282.245C191.305 279.106 198.442 267.022 195.231 255.307C192.599 245.706 183.669 239 173.513 239Z" fill="#3F4A4E"/>
<path d="M241.938 241.932C238.482 245.386 233.887 247.289 229 247.289C224.113 247.289 219.518 245.386 216.062 241.932C208.928 234.802 208.928 223.199 216.062 216.069C219.518 212.614 224.113 210.712 229 210.712C233.887 210.712 238.482 212.614 241.938 216.069C249.072 223.199 249.072 234.802 241.938 241.932ZM229 207C223.121 207 217.593 209.289 213.436 213.444C204.855 222.022 204.855 235.979 213.436 244.557C217.593 248.712 223.121 251 229 251C234.88 251 240.407 248.712 244.564 244.557C253.145 235.979 253.145 222.022 244.564 213.444C240.407 209.289 234.88 207 229 207Z" fill="#367D83"/>
<path d="M278.657 178.732C276.519 186.715 269.263 192.289 261.013 192.289C259.42 192.289 257.824 192.078 256.269 191.662C251.552 190.397 247.61 187.372 245.169 183.142C242.727 178.913 242.079 173.985 243.342 169.268C245.481 161.286 252.737 155.711 260.987 155.711C262.58 155.711 264.177 155.923 265.732 156.339C270.448 157.603 274.39 160.629 276.831 164.858C279.273 169.088 279.921 174.015 278.657 178.732ZM280.045 163.002C277.108 157.915 272.365 154.275 266.692 152.755C264.824 152.254 262.905 152 260.987 152C251.06 152 242.331 158.706 239.759 168.307C238.238 173.982 239.019 179.909 241.956 184.998C244.893 190.086 249.635 193.725 255.309 195.246C257.177 195.746 259.096 196 261.013 196C270.94 196 279.669 189.295 282.241 179.693C283.761 174.018 282.981 168.091 280.045 163.002Z" fill="#73A9AD"/>
<path d="M256.272 92.3389C257.827 91.9221 259.424 91.711 261.017 91.711C269.268 91.711 276.525 97.2859 278.664 105.268C281.273 115.006 275.474 125.051 265.736 127.661C264.181 128.078 262.585 128.289 260.991 128.289C252.739 128.289 245.482 122.714 243.343 114.732C242.079 110.015 242.728 105.088 245.17 100.858C247.612 96.6282 251.554 93.6033 256.272 92.3389ZM241.956 99.0025C239.019 104.091 238.238 110.018 239.759 115.693C242.332 125.295 251.062 132 260.991 132C262.908 132 264.828 131.746 266.696 131.246C278.411 128.106 285.387 116.021 282.248 104.307C279.675 94.7061 270.945 88 261.017 88C259.099 88 257.18 88.2537 255.312 88.7548C249.636 90.275 244.894 93.9144 241.956 99.0025Z" fill="#3F4A4E"/>
<path d="M165.342 31.4118C166.225 30.5089 167.115 29.6138 168.005 28.7172C168.797 29.5007 169.579 30.2928 170.334 31.1104C172.034 32.9489 174.812 30.2373 173.121 28.4073C172.353 27.5754 171.555 26.7692 170.749 25.9722C173.819 22.9193 176.917 19.892 180.025 16.8754C179.965 18.4552 179.731 20.0314 179.714 21.6125C179.688 24.0782 183.63 24.0753 183.656 21.6125C183.674 19.8636 183.932 18.1203 183.984 16.3713C184.04 14.4773 184.045 12.0607 182.289 10.8421C180.822 9.82546 178.493 9.9904 176.789 10.0423C175.1 10.0942 173.416 10.331 171.728 10.3487C169.187 10.375 169.185 14.1972 171.728 14.1702C173.092 14.156 174.459 13.9832 175.82 13.9071C176.403 13.8744 176.987 13.8552 177.571 13.8488C174.356 16.9692 171.152 20.0989 167.975 23.2563C167.08 22.3747 166.194 21.4846 165.342 20.5632C163.643 18.7239 160.864 21.4362 162.555 23.2655C163.42 24.2019 164.322 25.1062 165.232 26.0013C164.337 26.9021 163.442 27.8022 162.555 28.7094C160.807 30.4961 163.59 33.2034 165.342 31.4118Z" fill="#73A9AD"/>
<path d="M218.812 48.527L218.869 48.5299L218.956 48.5731L219.07 48.6735L219.085 48.6918C219.141 48.7826 219.194 48.8755 219.245 48.9693L219.367 49.2343C219.401 49.3354 219.435 49.4379 219.467 49.5404C219.91 50.9728 219.915 51.9723 219.947 53.5943C220 56.4384 219.616 59.2584 219.6 62.0959C219.587 64.6354 223.336 64.634 223.349 62.0959C223.365 58.8908 223.81 55.7171 223.66 52.5039C223.617 51.5835 223.52 50.5576 223.315 49.5573C223.607 49.2182 223.911 48.8909 224.234 48.5826C224.307 48.5145 224.381 48.4479 224.457 48.3827L224.498 48.3512C224.677 48.2158 224.868 48.1001 225.064 47.9939L225.125 47.9778L225.171 48.0225L225.204 48.0576L225.205 48.0583C225.292 48.1909 225.367 48.3322 225.441 48.4735C225.478 48.5489 225.515 48.6251 225.55 48.7027L225.571 48.7467C225.901 49.6203 226.09 50.5532 226.245 51.4758C226.284 51.7065 226.318 51.9386 226.351 52.1708L226.359 52.2301C226.371 52.3341 226.383 52.438 226.394 52.542C226.458 53.0919 226.504 53.6441 226.544 54.1969C226.621 55.2287 226.662 56.2626 226.687 57.2973C226.727 58.8966 226.704 60.4959 226.702 62.0959C226.7 64.6347 230.448 64.6347 230.451 62.0959C230.455 57.8253 230.555 53.4669 229.638 49.2761C229.588 49.0498 229.532 48.8206 229.471 48.5921L229.522 48.5687C229.66 48.4977 229.798 48.4289 229.937 48.3615L230.021 48.3278C230.259 48.2319 230.502 48.1535 230.748 48.0847C230.847 48.0569 230.948 48.0356 231.05 48.0151C231.156 48.0056 231.263 48.0027 231.37 48.0056C231.413 48.0159 231.496 48.032 231.577 48.051L231.713 48.1191L231.82 48.2282L231.847 48.2597L231.921 48.3798C231.966 48.4567 232.008 48.5358 232.048 48.6156C232.079 48.6991 232.179 48.9436 232.209 49.0374C232.349 49.4782 232.443 49.9351 232.521 50.3914C232.536 50.4741 232.572 50.7318 232.59 50.8607C232.609 51.0321 232.628 51.2027 232.645 51.3741C232.694 51.9013 232.726 52.43 232.754 52.9594C232.918 56.013 232.569 63.1328 237.355 61.9758C238.4 61.7232 239.313 60.9602 240.123 60.2696C241.372 59.2042 242.459 57.9212 243.513 56.6515C245.094 54.7469 242.454 51.9504 240.863 53.8682C239.805 55.1423 238.713 56.404 237.472 57.4863L237.38 57.5624C237.3 57.6239 237.22 57.684 237.139 57.7433C237.054 57.8048 236.967 57.8634 236.879 57.9191C236.847 57.7807 236.819 57.6408 236.794 57.5016C236.78 57.427 236.755 57.2454 236.739 57.1312C236.722 56.9627 236.706 56.7943 236.692 56.6251C236.374 52.8408 237.076 47.4418 233.8 44.8576C231.979 43.4216 229.529 44.1993 227.689 45.1403C227.3 44.7529 226.847 44.4351 226.31 44.2212C224.591 43.5366 222.907 44.5478 221.595 45.7934C220.911 45.0831 220.007 44.6247 218.812 44.5903C216.393 44.52 216.4 48.4567 218.812 48.527Z" fill="#367D83"/>
<path d="M248.853 112.691H252.484C252.774 112.691 253.029 112.635 253.251 112.539C254.952 113.283 256.927 110.918 255.351 109.343C254.572 108.565 254.234 107.805 254.224 106.933C254.214 106.007 254.677 105.039 255.31 104.096C255.858 103.279 256.714 102.521 257.531 101.971C257.974 101.672 258.539 101.375 258.881 101.243C259.144 101.143 259.415 101.068 259.687 101C259.78 100.978 259.873 100.962 259.966 100.945C259.97 100.948 260.033 100.944 260.158 100.931C262.486 100.784 264.584 101.628 265.71 103.57C266.828 105.498 266.478 107.993 265.349 110.05C264.47 111.651 265.972 113.13 267.325 112.98C267.416 112.991 267.51 113 267.609 113H272.147C274.618 113 274.618 109.079 272.147 109.079H269.832C270.47 106.588 270.289 103.954 269.019 101.591C267.243 98.2854 263.509 96.798 259.966 97.0219C254.505 97.3677 249.36 103.497 250.694 108.769H248.853C246.382 108.769 246.382 112.691 248.853 112.691Z" fill="#3F4A4E"/>
<path d="M270.168 116H249.832C247.389 116 247.389 119 249.832 119H270.168C272.611 119 272.611 116 270.168 116Z" fill="#3F4A4E"/>
<path d="M267.709 170.457C267.723 170.127 267.642 170.824 267.61 170.959C267.525 171.323 267.407 171.679 267.29 172.034C266.935 173.105 266.54 174.158 266.149 175.215C266.168 174.588 266.185 173.962 266.182 173.335C266.176 172.242 266.13 171.115 265.985 170.006C266.318 170.027 266.623 170.054 266.848 170.093C267.094 170.136 267.335 170.203 267.573 170.279L267.714 170.336L267.709 170.457ZM270.887 176.473C270.223 177.28 269.545 178.082 268.825 178.839C269.545 176.591 270.534 174.436 271.16 172.161C271.598 170.572 271.592 168.74 270.345 167.538C268.931 166.175 266.727 166.089 264.88 166.075C264.638 165.581 264.353 165.107 264.015 164.661C262.021 162.03 258.752 162.964 256.35 164.45L256.202 164.346C254.662 163.348 252.99 163.788 251.535 164.64C251.306 164.467 251.059 164.315 250.791 164.189C249.866 163.751 248.794 163.902 248.243 164.886C247.77 165.729 247.985 167.111 248.911 167.549C248.979 167.581 249.34 167.812 249.292 167.752C249.395 167.849 249.487 167.956 249.577 168.066C249.419 167.885 249.752 168.385 249.788 168.456C250.004 168.865 249.876 168.596 250.026 169.056C250.454 170.366 250.523 171.429 250.577 172.8C250.631 174.171 250.574 175.546 250.474 176.913C250.427 177.564 250.361 178.213 250.287 178.861C250.275 178.956 250.264 179.052 250.252 179.148L250.233 179.286C250.196 179.556 250.156 179.826 250.113 180.096C249.949 181.142 250.359 182.187 251.414 182.489C252.315 182.748 253.541 182.179 253.706 181.131C254.175 178.147 254.442 175.095 254.267 172.072C254.192 170.779 254.024 169.249 253.585 167.856L253.679 167.8L253.759 167.778C253.853 167.742 253.949 167.715 254.045 167.691L254.239 167.673L254.285 167.686L254.289 167.686L254.321 167.705L254.363 167.729L254.374 167.74L254.46 167.829C254.499 167.882 254.629 168.047 254.67 168.113C254.763 168.266 254.842 168.428 254.92 168.589L254.98 168.71L255.009 168.792C255.316 169.618 255.499 170.492 255.65 171.36C255.681 171.537 255.707 171.715 255.734 171.893C255.748 171.99 255.762 172.087 255.775 172.184L255.788 172.287C255.847 172.781 255.892 173.277 255.932 173.774C256.011 174.745 256.055 175.719 256.089 176.693C256.138 178.101 256.118 179.516 256.224 180.921C256.303 181.978 257.01 182.867 258.087 182.867C259.042 182.867 260.029 181.979 259.95 180.921C259.656 177.031 259.885 173.14 259.042 169.301C258.916 168.727 258.755 168.144 258.548 167.579C258.822 167.411 259.086 167.264 259.316 167.167C259.621 167.037 259.939 166.947 260.261 166.875C259.903 166.955 260.804 166.952 260.691 166.887L260.835 166.925L260.859 166.931L260.905 166.957L261.088 167.088C261.157 167.156 261.222 167.226 261.286 167.298L261.303 167.318C261.379 167.432 261.447 167.552 261.514 167.67C261.577 167.783 261.632 167.901 261.686 168.019C261.603 167.843 261.779 168.261 261.794 168.304C262.31 169.794 262.362 170.785 262.431 172.297C262.507 173.985 262.371 175.668 262.382 177.356C262.394 179.168 262.527 181.598 263.531 183.192C263.184 184.172 262.805 185.139 262.361 186.083C261.913 187.035 262.107 188.18 263.029 188.744C263.857 189.251 265.13 188.998 265.578 188.046C266.079 186.98 266.516 185.892 266.915 184.789C267.999 184.592 268.998 183.812 269.824 183.145C271.21 182.026 272.384 180.604 273.523 179.225C275.081 177.333 272.458 174.568 270.887 176.473Z" fill="#73A9AD"/>
<path d="M222.993 236.131L222.99 236.162C222.962 236.308 222.916 236.448 222.867 236.588C222.942 236.372 222.746 236.666 222.73 236.681C222.57 236.824 222.558 236.834 222.695 236.711C222.544 236.817 222.374 236.901 222.212 236.988L222.027 237.076L221.906 237.121C221.811 237.155 221.401 237.236 221.373 237.256L221.198 237.258C221.218 237.251 221.065 237.225 220.929 237.195C220.86 237.165 220.775 237.126 220.728 237.098L220.706 237.083L220.592 236.974L220.454 236.824C220.342 236.662 220.248 236.489 220.159 236.314L220.133 236.264L220.114 236.212C220.044 236.019 219.99 235.82 219.939 235.621C219.92 235.541 219.876 235.271 219.857 235.178C219.847 235.046 219.84 234.913 219.836 234.78C219.832 234.619 219.838 234.458 219.847 234.297L219.851 234.198L219.869 234.107C219.903 233.926 219.955 233.746 220.012 233.57L220.015 233.561L220.073 233.452L220.149 233.334L220.184 233.334L220.289 233.363C220.366 233.384 220.412 233.393 220.44 233.397C220.47 233.415 220.517 233.441 220.597 233.482C221.234 233.804 221.401 233.98 221.847 234.383C222.166 234.672 222.513 234.824 222.857 234.874C222.898 235.079 222.97 235.489 222.98 235.488C222.999 235.702 223 235.917 222.993 236.131ZM237.282 232.525C237.112 233.331 236.911 233.646 236.343 233.982C235.9 234.244 235.34 234.222 234.938 234.024C234.637 233.875 234.486 233.766 234.286 233.489C234.198 233.366 234.115 233.235 234.038 233.104C234.109 233.211 234.033 233.013 233.986 232.883L233.935 232.469C233.922 232.236 233.928 232.002 233.933 231.769C233.944 231.172 234.004 230.575 234.058 229.981C234.246 227.959 234.437 226.032 233.633 224.11C232.864 222.27 231.682 220.719 230.09 219.519C227.129 217.286 223.126 217.386 221.016 220.682C219.906 222.416 219.573 224.653 219.919 226.65C220.097 227.672 220.465 228.691 220.873 229.673C219.423 229.389 217.981 229.774 216.89 231.354C215.51 233.352 215.887 236.435 216.983 238.453C218.542 241.322 221.819 241.606 224.453 240.109C228.433 237.847 226.358 232.922 225.011 229.724C224.708 229.005 224.377 228.209 224.089 227.409C223.947 227.014 223.825 226.612 223.717 226.206C223.666 226.017 223.628 225.826 223.589 225.635L223.573 225.555L223.564 225.42C223.501 224.644 223.721 223.939 224.03 223.104C224.061 223.019 224.314 222.593 224.476 222.35C224.372 222.51 224.668 222.157 224.688 222.137L224.755 222.068L224.822 222.023C224.917 221.958 225.018 221.904 225.121 221.853C224.955 221.941 225.298 221.802 225.371 221.782L225.449 221.76L225.478 221.758C225.635 221.745 225.794 221.752 225.951 221.758L226.002 221.76L226.087 221.777C226.251 221.809 226.412 221.857 226.572 221.904L226.889 222.021C227.008 222.079 227.125 222.139 227.241 222.201C228.453 222.856 229.292 223.843 229.982 225.207C230.077 225.394 230.197 225.712 230.315 226.103C230.478 226.635 230.434 226.499 230.45 226.975C230.483 227.977 230.347 228.987 230.252 229.981C230.066 231.946 229.935 233.941 231.144 235.616C233.927 239.473 239.962 238.232 240.952 233.541C241.459 231.138 237.791 230.116 237.282 232.525Z" fill="#367D83"/>
<path d="M169.703 258.312C169.579 258.392 169.451 258.463 169.322 258.533C169.237 258.579 169.187 258.608 169.157 258.626L169.088 258.654C168.806 258.77 168.514 258.859 168.221 258.939C168.11 258.97 167.55 259.073 167.532 259.086C167.269 259.116 167.006 259.13 166.741 259.134C166.59 259.136 166.438 259.129 166.286 259.122C166.231 259.119 165.994 259.091 165.894 259.081C165.655 259.036 165.42 258.977 165.187 258.906C165.111 258.882 165.035 258.855 164.96 258.827C165.067 258.866 164.791 258.748 164.726 258.713C164.605 258.647 164.49 258.572 164.376 258.496L164.34 258.472L164.325 258.459C164.224 258.37 164.133 258.271 164.041 258.17L164.011 258.138L163.934 258.006L163.813 257.768C163.789 257.691 163.767 257.614 163.745 257.536C163.733 257.49 163.706 257.33 163.692 257.26C163.688 257.171 163.686 257.081 163.686 256.991L163.7 256.831C163.721 256.736 163.746 256.643 163.774 256.551L163.793 256.513C163.825 256.447 163.983 256.213 163.997 256.18C164.122 256.036 164.26 255.904 164.4 255.776C164.212 255.954 164.81 255.489 164.935 255.412C165.174 255.264 165.423 255.139 165.675 255.017L165.993 254.878C166.215 254.789 166.442 254.711 166.667 254.633C167.71 254.275 168.72 254.021 169.722 253.83C169.766 253.996 169.833 254.156 169.933 254.304C170.45 255.069 170.636 255.408 170.813 256.116C170.822 256.156 170.842 256.292 170.854 256.376C170.858 256.479 170.859 256.581 170.858 256.685V256.758C170.833 256.896 170.794 257.031 170.751 257.165C170.798 256.993 170.648 257.321 170.539 257.532C170.497 257.56 170.208 257.923 170.122 258.006L169.977 258.127C169.887 258.191 169.795 258.253 169.703 258.312ZM174.244 258.433C174.89 256.738 174.511 254.885 173.705 253.318C174.405 253.258 175.118 253.204 175.853 253.146C177.12 253.045 178.39 252.964 179.645 252.755C180.646 252.588 181.187 251.311 180.941 250.382C180.651 249.287 179.656 248.869 178.659 249.035L178.592 249.047L178.448 249.063C178.198 249.092 177.947 249.115 177.696 249.138C177.026 249.199 176.354 249.248 175.682 249.302C173.998 249.436 172.318 249.602 170.644 249.837C167.547 250.27 164.161 250.917 161.721 253.098C159.369 255.2 159.458 259.208 161.803 261.277C164.033 263.245 167.414 263.405 170.074 262.373C171.93 261.652 173.501 260.383 174.244 258.433Z" fill="#3F4A4E"/>
<path d="M185.124 265.728C185.101 265.816 185.075 265.903 185.046 265.988L185.026 266.024C184.992 266.085 184.827 266.303 184.813 266.333C184.682 266.467 184.537 266.589 184.39 266.708C184.586 266.543 183.96 266.975 183.83 267.046C183.58 267.183 183.318 267.301 183.055 267.413L182.721 267.542C182.488 267.625 182.252 267.698 182.015 267.77C180.922 268.102 179.865 268.338 178.815 268.515C178.769 268.361 178.698 268.212 178.593 268.074C178.052 267.365 177.857 267.05 177.673 266.393C177.662 266.355 177.642 266.229 177.629 266.152C177.625 266.056 177.624 265.96 177.625 265.864V265.796C177.651 265.668 177.692 265.542 177.737 265.419C177.687 265.578 177.844 265.274 177.958 265.077C178.003 265.052 178.306 264.714 178.396 264.637L178.548 264.526C178.643 264.466 178.738 264.409 178.835 264.353C178.964 264.279 179.1 264.214 179.234 264.148C179.322 264.105 179.376 264.078 179.406 264.062L179.479 264.037C179.774 263.929 180.08 263.846 180.387 263.771C180.505 263.742 181.091 263.647 181.109 263.634C181.384 263.607 181.66 263.594 181.937 263.591C182.096 263.588 182.255 263.594 182.414 263.601C182.472 263.604 182.721 263.63 182.825 263.64C183.075 263.682 183.322 263.736 183.566 263.802C183.646 263.824 183.725 263.85 183.804 263.876C183.692 263.839 183.98 263.949 184.049 263.981C184.176 264.041 184.296 264.112 184.416 264.183L184.454 264.205L184.468 264.216C184.574 264.299 184.67 264.393 184.766 264.485L184.797 264.516L184.878 264.638L185.005 264.858C185.03 264.93 185.053 265.001 185.076 265.074C185.089 265.117 185.117 265.265 185.132 265.33C185.136 265.413 185.138 265.497 185.138 265.58L185.124 265.728ZM187.111 261.6C184.774 259.773 181.233 259.623 178.446 260.583C176.503 261.252 174.856 262.43 174.077 264.241C173.401 265.815 173.798 267.537 174.642 268.99C173.909 269.046 173.162 269.096 172.392 269.151C171.066 269.244 169.735 269.319 168.419 269.513C167.371 269.669 166.804 270.854 167.062 271.717C167.365 272.733 168.407 273.122 169.452 272.967L169.523 272.957L169.673 272.942C169.936 272.915 170.198 272.893 170.461 272.872C171.163 272.815 171.867 272.769 172.571 272.72C174.335 272.595 176.095 272.441 177.849 272.224C181.094 271.821 184.641 271.22 187.197 269.196C189.662 267.243 189.568 263.522 187.111 261.6Z" fill="#3F4A4E"/>
<path d="M109.504 268.205C109.153 268.133 108.798 268.073 108.437 268.03C107.864 267.961 107.295 267.957 106.732 268.005V253.773C107.638 254.026 108.572 254.213 109.504 254.314V268.205ZM114.807 249.209C113.535 250.568 111.493 250.601 109.566 250.39C107.514 250.165 105.443 249.396 103.721 248.302C101.656 246.988 99.7681 250.312 101.822 251.618C102.182 251.847 102.567 252.069 102.97 252.281V269.067L102.973 269.127C102.108 269.571 101.293 270.12 100.551 270.741C99.7562 271.405 99.8794 272.772 100.551 273.457C101.329 274.252 102.418 274.12 103.211 273.457C106.166 270.984 110.275 271.46 112.728 274.367C114.314 276.247 116.963 273.517 115.389 271.651C114.755 270.901 114.041 270.273 113.266 269.757V254.185C114.862 253.86 116.322 253.151 117.467 251.925C119.141 250.134 116.485 247.413 114.807 249.209Z" fill="#73A9AD"/>
<path d="M58.5185 230.97C58.0108 234.059 54.7913 235.191 52.1672 235.034C50.8941 234.958 49.6043 234.151 48.8865 233.113C47.9877 231.812 47.957 230.309 48.4144 228.835C48.8835 227.321 50.1478 226.743 51.6149 226.546C51.7864 226.663 51.9797 226.749 52.1942 226.788C54.5936 227.226 59.0722 227.603 58.5185 230.97ZM62.5244 218.937C61.3973 218.626 60.5211 219.323 60.1126 220.315C60.284 219.898 59.823 220.678 59.9265 220.594C59.8441 220.688 59.7573 220.779 59.6675 220.867L59.596 220.939L59.5384 220.98C58.9606 221.388 58.8673 221.394 58.0254 221.589C56.9581 221.837 55.0861 221.702 53.7926 221.439C52.2029 221.116 50.7183 220.6 49.4124 219.948C48.7646 219.625 48.143 219.248 47.5528 218.827L47.5025 218.791L47.3945 218.699C47.2683 218.593 47.1487 218.48 47.0291 218.366C46.9167 218.26 46.8131 218.144 46.7095 218.029L46.6905 218.009L46.6687 217.976C46.061 217.095 44.9615 216.693 43.9854 217.268C43.1173 217.781 42.6722 219.082 43.2821 219.966C44.3947 221.579 46.0624 222.782 47.9096 223.661C46.2689 224.605 45.1213 226.21 44.5406 228.084C42.9451 233.229 46.6913 238.432 51.898 238.951C56.4291 239.402 61.3039 236.733 62.3005 232.018C62.8578 229.378 61.9904 226.748 59.7937 225.16L59.7704 225.144C61.5527 224.555 63.0592 223.39 63.8938 221.363C64.3038 220.369 63.459 219.196 62.5244 218.937Z" fill="#367D83"/>
<path d="M31.6748 163.339C25.3739 161.724 22.1416 166.107 20.5393 171.589L20.5262 171.514C20.1218 169.391 19.3296 167.299 17.9116 165.688C16.3831 163.951 14.0486 163.299 11.8542 163.575C10.8509 163.702 10 164.359 10 165.509C10 166.467 10.8481 167.569 11.8542 167.442C12.3055 167.386 12.752 167.361 13.206 167.381C13.2792 167.384 13.3523 167.393 13.4255 167.4C13.4496 167.405 13.4972 167.414 13.5718 167.427C13.785 167.47 13.9927 167.539 14.1984 167.61L14.2397 167.624L14.3301 167.672C14.5137 167.765 14.6862 167.881 14.856 167.999L14.8732 168.012C14.9408 168.072 15.0078 168.132 15.0719 168.196C15.2231 168.341 15.3604 168.501 15.495 168.663L15.517 168.689L15.5847 168.793C15.7089 168.977 15.8179 169.17 15.9249 169.365C16.036 169.565 16.1326 169.773 16.2271 169.982L16.2664 170.074C16.3009 170.165 16.3354 170.256 16.3672 170.349C16.7115 171.307 16.9227 172.315 17.0862 173.322C17.6003 176.486 17.3285 180.571 17.3209 184.131C17.316 186.252 19.9983 186.567 20.8036 185.08C21.7711 185.139 22.7854 184.518 22.7875 183.215C22.793 179.224 23.0635 175.657 24.2753 171.889C24.7783 170.326 25.5153 168.849 26.705 167.752L26.7671 167.693L26.8554 167.63C27.0349 167.497 27.226 167.383 27.4192 167.272C27.4937 167.23 27.5703 167.192 27.6476 167.154L27.7373 167.119C27.9505 167.037 28.1721 166.979 28.3929 166.926C28.9594 166.788 29.8772 166.86 30.6887 167.068C33.0121 167.663 33.9969 163.935 31.6748 163.339Z" fill="#3F4A4E"/>
<path d="M10.8787 110.51H15.9724C15.7166 113.193 14.9555 115.908 13.8021 118.22C12.6992 120.43 16.0497 122.374 17.1569 120.155C18.5482 117.367 19.6012 113.954 19.9235 110.51H24.1854C24.3523 114.129 25.2196 117.763 26.6831 121.064C27.108 122.022 28.5087 122.233 29.3413 121.751C30.3328 121.178 30.4629 120.086 30.0379 119.128C28.9654 116.71 28.2723 113.472 28.088 110.51H31.1213C33.6262 110.51 33.6262 106.676 31.1213 106.676H28.1704C28.4516 104.354 29.2314 102.116 30.9616 100.564C32.819 98.8974 30.0632 96.1939 28.2138 97.8524C25.693 100.114 24.6183 103.392 24.2808 106.676H19.956C19.6705 103.227 18.4723 99.976 15.9326 97.5499C14.1331 95.8301 11.3832 98.5393 13.1856 100.261C14.9845 101.98 15.7447 104.291 15.9811 106.676H10.8787C8.37376 106.676 8.37376 110.51 10.8787 110.51Z" fill="#73A9AD"/>
<path d="M43.8611 51.3334C44.6936 50.7499 45.5615 50.1322 46.5441 49.8251C46.6459 49.795 46.7506 49.7727 46.8546 49.7504C46.7386 49.7853 47.1489 49.7343 47.1871 49.7343L47.2373 49.7336L47.3568 49.7657L47.6737 49.876C49.1783 50.5894 50.4303 51.8541 51.8825 52.6714C53.8143 53.7596 56.058 54.408 58.2445 53.7108C60.4146 53.019 62.0366 51.2287 63.457 49.5591C64.1226 48.7767 64.2372 47.676 63.457 46.9054C62.7722 46.2304 61.4354 46.1222 60.7683 46.9054C59.6182 48.2574 58.2982 49.9025 56.5935 50.262C56.1655 50.352 55.2601 50.1343 54.639 49.8592C53.699 49.4425 52.8261 48.8702 51.9893 48.2804C50.7592 47.4128 49.5779 46.3512 48.0366 46.0796C45.7738 45.6811 43.7238 46.8446 41.9413 48.0933C41.0981 48.6845 40.7006 49.7189 41.2594 50.6605C41.7482 51.4842 43.0144 51.9267 43.8611 51.3334Z" fill="#367D83"/>
<path d="M43.7602 63.6797C44.603 63.1077 45.4513 62.5444 46.3578 62.0829L46.4789 62.0248C46.6413 61.9595 46.8085 61.9121 46.9772 61.8669L47.0115 61.8576L47.0682 61.8554L47.1886 61.8626L47.372 61.9128L47.4406 61.9329L47.4616 61.943C47.7178 62.065 47.9635 62.2106 48.2091 62.352C48.9644 62.7869 49.7182 63.2176 50.5029 63.5972C52.7497 64.6838 54.8748 65.2759 57.3596 64.8733C59.659 64.5015 61.672 62.9915 63.4485 61.5504C64.2542 60.8966 64.11 59.5007 63.4485 58.8225C62.6604 58.0151 61.5908 58.1708 60.788 58.8225C59.4161 59.9349 57.8034 61.0487 56.0094 61.1858C54.0936 61.3322 52.2423 60.2528 50.6247 59.3212C49.4705 58.6567 48.3015 57.9376 46.9261 58.0043C45.06 58.094 43.362 59.3299 41.8613 60.3483C39.8482 61.7147 41.7304 65.057 43.7602 63.6797Z" fill="#367D83"/>
<path d="M108.868 24.9849C108.881 24.8006 108.901 24.6178 108.921 24.4343L108.927 24.382C108.933 24.3516 108.942 24.2993 108.955 24.2108L109.071 24.2587C109.194 24.3153 109.317 24.3733 109.438 24.4335C109.742 24.5844 110.036 24.7549 110.325 24.9312C111.126 25.4201 111.07 25.386 111.742 26.0179C111.965 26.2268 112.172 26.451 112.372 26.6817L112.495 26.8348C112.554 26.9182 112.613 27.0016 112.669 27.088C112.781 27.257 112.877 27.4362 112.968 27.6176C112.924 27.5494 113.021 27.8127 113.09 28.0253C113.094 28.0928 113.105 28.2066 113.111 28.3104L113.105 28.3365L113.06 28.4061L112.935 28.5287V28.5295L112.92 28.5389C112.815 28.6114 112.703 28.6724 112.589 28.7312L112.28 28.861C112.11 28.9205 111.935 28.9654 111.762 29.0119L111.387 29.104C111.245 29.1178 111.103 29.1265 110.961 29.1323C110.791 29.1403 110.622 29.1316 110.453 29.1229L110.425 29.1221L110.351 29.1062C110.208 29.0779 110.069 29.0337 109.931 28.9887L109.919 28.9851C109.892 28.9662 109.847 28.9386 109.773 28.8958L109.65 28.8102C109.583 28.7471 109.519 28.6811 109.456 28.6143L109.437 28.5955L109.433 28.5882C109.355 28.4758 109.29 28.3561 109.225 28.2364L109.145 28.0608C109.112 27.9643 109.081 27.8671 109.051 27.7692C109.007 27.6241 108.974 27.4754 108.94 27.3274C108.927 27.2701 108.887 26.9958 108.872 26.9059C108.809 26.2675 108.823 25.6226 108.868 24.9849ZM102.67 25.5362C103.303 24.575 104.019 24.0403 105.085 23.7494C104.822 25.5638 104.851 27.4166 105.407 29.0873C106.558 32.5499 110.023 33.6722 113.309 32.621C114.863 32.1241 116.152 31.1592 116.757 29.6075C117.264 28.3104 116.906 26.9008 116.34 25.698C115.172 23.2213 112.534 21.3808 109.953 20.4276C110.246 19.6571 110.592 18.9324 111.028 18.1424C111.226 17.7833 111.443 17.4358 111.669 17.0948C111.733 16.9998 111.8 16.9076 111.867 16.8148L112.145 16.4622C112.364 16.2047 112.602 15.966 112.853 15.7404L112.889 15.7077C113.016 15.6163 113.15 15.5365 113.286 15.4611C115.301 14.3337 113.866 11.4957 111.794 11.8969C109.233 12.3924 105.109 12.5941 102.979 10.5512C101.172 8.81808 98.4301 11.5712 100.242 13.3086C102.219 15.205 104.948 15.958 107.713 16.0741C107.079 17.2239 106.576 18.4478 106.161 19.586L106.11 19.7333C103.404 19.8073 100.932 21.1254 99.3275 23.568C97.9453 25.6726 101.3 27.6234 102.67 25.5362Z" fill="#3F4A4E"/>
<path d="M72.2265 141.353L71.873 141L72.2265 140.646L140.646 72.2265L141 71.873L141.353 72.2265L209.773 140.646L210.126 141L209.773 141.353L141.353 209.773L141 210.127L140.646 209.773L72.2265 141.353ZM138.841 65.3946L138.84 65.3947L65.3947 138.84C64.2018 140.033 64.2018 141.967 65.3947 143.16L138.84 216.606C139.437 217.202 140.218 217.5 141 217.5C141.782 217.5 142.563 217.202 143.16 216.606L216.605 143.16C217.798 141.967 217.798 140.033 216.605 138.84L143.16 65.3947L143.159 65.3946C141.967 64.2018 140.033 64.2018 138.841 65.3946Z" stroke="#3F4A4E"/>
<path d="M82.3544 141L141 199.645L199.645 141L141 82.3544L82.3544 141ZM141 207C140.22 207 139.441 206.703 138.846 206.108L75.8924 143.154C74.7025 141.964 74.7025 140.035 75.8924 138.846L138.846 75.8924C140.035 74.7025 141.965 74.7025 143.154 75.8924L206.108 138.846C207.297 140.035 207.297 141.964 206.108 143.154L143.154 206.108C142.559 206.703 141.78 207 141 207Z" fill="#3F4A4E"/>
</svg>
