<svg width="136" height="136" viewBox="0 0 136 136" fill="none" xmlns="http://www.w3.org/2000/svg">
<path d="M116.831 67.9368C116.831 94.9399 94.9408 116.83 67.9377 116.83C40.9346 116.83 19.0444 94.9399 19.0444 67.9368C19.0444 40.9338 40.9346 19.0436 67.9377 19.0436C94.9408 19.0436 116.831 40.9338 116.831 67.9368Z" stroke="#292D32" stroke-width="2.66667" stroke-miterlimit="10" stroke-linecap="round" stroke-linejoin="round"/>
<path d="M55.0354 36.3555L47.1699 18.5447" stroke="#292D32" stroke-width="2.66667" stroke-miterlimit="10" stroke-linecap="round" stroke-linejoin="round"/>
<path d="M40.9735 47.0391L25.2563 35.5463" stroke="#292D32" stroke-width="2.66667" stroke-miterlimit="10" stroke-linecap="round" stroke-linejoin="round"/>
<path d="M34.1363 63.3203L14.7793 61.2261" stroke="#292D32" stroke-width="2.66667" stroke-miterlimit="10" stroke-linecap="round" stroke-linejoin="round"/>
<path d="M36.3568 80.8376L18.5454 88.7031" stroke="#292D32" stroke-width="2.66667" stroke-miterlimit="10" stroke-linecap="round" stroke-linejoin="round"/>
<path d="M47.039 94.902L35.5469 110.619" stroke="#292D32" stroke-width="2.66667" stroke-miterlimit="10" stroke-linecap="round" stroke-linejoin="round"/>
<path d="M63.3213 101.738L61.2271 121.096" stroke="#292D32" stroke-width="2.66667" stroke-miterlimit="10" stroke-linecap="round" stroke-linejoin="round"/>
<path d="M80.8398 99.5167L88.7054 117.328" stroke="#292D32" stroke-width="2.66667" stroke-miterlimit="10" stroke-linecap="round" stroke-linejoin="round"/>
<path d="M94.9014 88.836L110.619 100.328" stroke="#292D32" stroke-width="2.66667" stroke-miterlimit="10" stroke-linecap="round" stroke-linejoin="round"/>
<path d="M101.738 72.5529L121.096 74.6465" stroke="#292D32" stroke-width="2.66667" stroke-miterlimit="10" stroke-linecap="round" stroke-linejoin="round"/>
<path d="M99.5176 55.0332L117.329 47.1683" stroke="#292D32" stroke-width="2.66667" stroke-miterlimit="10" stroke-linecap="round" stroke-linejoin="round"/>
<path d="M88.8364 40.9727L100.329 25.2561" stroke="#292D32" stroke-width="2.66667" stroke-miterlimit="10" stroke-linecap="round" stroke-linejoin="round"/>
<path d="M72.5542 34.1367L74.6484 14.7791" stroke="#292D32" stroke-width="2.66667" stroke-miterlimit="10" stroke-linecap="round" stroke-linejoin="round"/>
<path d="M76.5304 67.9347C76.5304 72.6807 72.6831 76.5273 67.9378 76.5273C63.1925 76.5273 59.3452 72.6807 59.3452 67.9347C59.3452 63.1894 63.1925 59.3421 67.9378 59.3421C72.6831 59.3421 76.5304 63.1894 76.5304 67.9347Z" fill="#292D32"/>
<path d="M62.1781 23.5684L61.0278 16.9218" stroke="#292D32" stroke-width="2.66667" stroke-miterlimit="10" stroke-linecap="round" stroke-linejoin="round"/>
<path d="M40.765 32.3945L36.4453 27.2135" stroke="#292D32" stroke-width="2.66667" stroke-miterlimit="10" stroke-linecap="round" stroke-linejoin="round"/>
<path d="M26.6332 50.7422L20.3013 48.4146" stroke="#292D32" stroke-width="2.66667" stroke-miterlimit="10" stroke-linecap="round" stroke-linejoin="round"/>
<path d="M23.5684 73.6955L16.9219 74.8457" stroke="#292D32" stroke-width="2.66667" stroke-miterlimit="10" stroke-linecap="round" stroke-linejoin="round"/>
<path d="M32.3931 95.1107L27.2114 99.4297" stroke="#292D32" stroke-width="2.66667" stroke-miterlimit="10" stroke-linecap="round" stroke-linejoin="round"/>
<path d="M50.741 109.239L48.4141 115.57" stroke="#292D32" stroke-width="2.66667" stroke-miterlimit="10" stroke-linecap="round" stroke-linejoin="round"/>
<path d="M73.6973 112.308L74.8475 118.955" stroke="#292D32" stroke-width="2.66667" stroke-miterlimit="10" stroke-linecap="round" stroke-linejoin="round"/>
<path d="M95.1099 103.481L99.4289 108.662" stroke="#292D32" stroke-width="2.66667" stroke-miterlimit="10" stroke-linecap="round" stroke-linejoin="round"/>
<path d="M109.242 85.136L115.573 87.4629" stroke="#292D32" stroke-width="2.66667" stroke-miterlimit="10" stroke-linecap="round" stroke-linejoin="round"/>
<path d="M112.307 62.1777L118.954 61.0275" stroke="#292D32" stroke-width="2.66667" stroke-miterlimit="10" stroke-linecap="round" stroke-linejoin="round"/>
<path d="M103.482 40.7637L108.663 36.444" stroke="#292D32" stroke-width="2.66667" stroke-miterlimit="10" stroke-linecap="round" stroke-linejoin="round"/>
<path d="M85.1343 26.6328L87.4612 20.3016" stroke="#292D32" stroke-width="2.66667" stroke-miterlimit="10" stroke-linecap="round" stroke-linejoin="round"/>
<path d="M91.5016 67.9382C91.5016 80.9519 80.9516 91.502 67.9378 91.502C54.924 91.502 44.374 80.9519 44.374 67.9382C44.374 54.9244 54.924 44.375 67.9378 44.375C80.9516 44.375 91.5016 54.9244 91.5016 67.9382Z" stroke="#292D32" stroke-width="2.66667" stroke-miterlimit="10" stroke-linecap="round" stroke-linejoin="round"/>
<path d="M57.8138 20.7986C57.8138 21.8372 56.9719 22.6797 55.9333 22.6797C54.8941 22.6797 54.0522 21.8372 54.0522 20.7986C54.0522 19.7594 54.8941 18.9175 55.9333 18.9175C56.9719 18.9175 57.8138 19.7594 57.8138 20.7986Z" fill="#292D32"/>
<path d="M35.6008 32.1772C36.1204 33.0764 35.8121 34.2266 34.9122 34.7456C34.013 35.2652 32.8627 34.9569 32.3438 34.0576C31.8241 33.1577 32.1325 32.0081 33.0317 31.4885C33.9316 30.9695 35.0812 31.2773 35.6008 32.1772Z" fill="#292D32"/>
<path d="M22.0523 53.1353C22.9522 53.6543 23.2599 54.8045 22.741 55.7038C22.2213 56.6036 21.0717 56.9114 20.1719 56.3924C19.2726 55.8728 18.9643 54.7232 19.4839 53.8233C20.0029 52.9241 21.1531 52.6157 22.0523 53.1353Z" fill="#292D32"/>
<path d="M20.7999 78.062C21.8391 78.062 22.681 78.9045 22.681 79.9431C22.681 80.9824 21.8391 81.8242 20.7999 81.8242C19.7613 81.8242 18.9194 80.9824 18.9194 79.9431C18.9194 78.9045 19.7613 78.062 20.7999 78.062Z" fill="#292D32"/>
<path d="M32.1777 100.276C33.0776 99.756 34.2278 100.064 34.7468 100.964C35.2664 101.864 34.9581 103.014 34.0588 103.533C33.159 104.052 32.0087 103.744 31.4897 102.845C30.9701 101.945 31.2785 100.795 32.1777 100.276Z" fill="#292D32"/>
<path d="M53.1364 113.822C53.656 112.922 54.8063 112.614 55.7055 113.133C56.6047 113.652 56.9131 114.803 56.3935 115.702C55.8745 116.601 54.7243 116.91 53.825 116.39C52.9252 115.871 52.6174 114.721 53.1364 113.822Z" fill="#292D32"/>
<path d="M78.062 115.073C78.062 114.035 78.9039 113.193 79.9425 113.193C80.9817 113.193 81.8236 114.035 81.8236 115.073C81.8236 116.113 80.9817 116.955 79.9425 116.955C78.9039 116.955 78.062 116.113 78.062 115.073Z" fill="#292D32"/>
<path d="M100.274 103.696C99.7546 102.796 100.062 101.646 100.962 101.127C101.862 100.608 103.012 100.916 103.531 101.815C104.051 102.715 103.743 103.865 102.843 104.384C101.943 104.904 100.794 104.596 100.274 103.696Z" fill="#292D32"/>
<path d="M113.822 82.7398C112.922 82.2202 112.615 81.0699 113.133 80.1707C113.652 79.2714 114.803 78.9631 115.702 79.4821C116.602 80.0017 116.91 81.1519 116.391 82.0511C115.872 82.951 114.721 83.2594 113.822 82.7398Z" fill="#292D32"/>
<path d="M115.074 57.8145C114.036 57.8145 113.194 56.972 113.194 55.9334C113.194 54.8948 114.036 54.0523 115.074 54.0523C116.113 54.0523 116.955 54.8948 116.955 55.9334C116.955 56.972 116.113 57.8145 115.074 57.8145Z" fill="#292D32"/>
<path d="M103.697 35.6011C102.798 36.1207 101.648 35.8123 101.129 34.9131C100.609 34.0132 100.918 32.8636 101.817 32.344C102.716 31.825 103.867 32.1327 104.386 33.0326C104.905 33.9319 104.597 35.0821 103.697 35.6011Z" fill="#292D32"/>
<path d="M82.7383 22.0518C82.2187 22.951 81.0685 23.2594 80.1686 22.7397C79.27 22.2208 78.961 21.0705 79.4813 20.1713C80.0002 19.2714 81.1505 18.9637 82.0497 19.4827C82.9496 20.0023 83.2573 21.1519 82.7383 22.0518Z" fill="#292D32"/>
<path d="M74.9506 45.4389C75.4459 45.5924 75.9743 45.2978 76.0834 44.7909L82.9459 12.9037C82.9541 12.8646 82.8973 12.8507 82.8866 12.8892L74.3495 44.3716C74.2255 44.8288 74.4982 45.2987 74.9506 45.4389V45.4389Z" fill="#292D32"/>
<path d="M51.9624 50.6209C52.3447 50.2698 52.356 49.6631 51.9712 49.3148L27.7814 27.424C27.7524 27.3975 27.7115 27.4398 27.7392 27.4675L50.7372 50.6044C51.0713 50.9405 51.6134 50.9415 51.9624 50.6209V50.6209Z" fill="#292D32"/>
<path d="M62.7568 44.9485C63.2637 44.8366 63.579 44.3166 63.4198 43.8224L53.4182 12.772C53.4063 12.7341 53.3495 12.7505 53.3596 12.789L61.7071 44.3203C61.8283 44.778 62.2945 45.0505 62.7568 44.9485V44.9485Z" fill="#292D32"/>
<path d="M91.5534 61.7067C91.0956 61.8279 90.8231 62.294 90.925 62.7564V62.7564C91.0369 63.2636 91.5572 63.5792 92.0515 63.42L123.102 53.4179C123.139 53.4059 123.123 53.3492 123.085 53.3599L91.5534 61.7067Z" fill="#292D32"/>
<path d="M91.5022 74.3481C91.0451 74.2241 90.5752 74.4968 90.4352 74.9493V74.9493C90.2821 75.4446 90.5766 75.973 91.0835 76.082L122.971 82.9445C123.009 82.9527 123.023 82.8953 122.985 82.8852L91.5022 74.3481Z" fill="#292D32"/>
<path d="M85.255 51.9645C85.6055 52.3468 86.2114 52.3578 86.5594 51.9732L108.451 27.7834C108.478 27.7538 108.436 27.7134 108.408 27.7412L85.2714 50.7383C84.9352 51.0725 84.9346 51.615 85.255 51.9645V51.9645Z" fill="#292D32"/>
<path d="M44.3218 74.1689C44.7795 74.0477 45.0521 73.5819 44.9501 73.1195V73.1195C44.8382 72.6123 44.3178 72.2964 43.8234 72.4557L12.7729 82.4577C12.7357 82.4697 12.7521 82.5265 12.7906 82.5164L44.3218 74.1689Z" fill="#292D32"/>
<path d="M83.9123 85.2562C83.5299 85.6069 83.5188 86.2132 83.9036 86.5613L108.094 108.453C108.123 108.479 108.163 108.437 108.135 108.409L85.138 85.2728C84.8038 84.9367 84.2616 84.9357 83.9123 85.2562V85.2562Z" fill="#292D32"/>
<path d="M73.117 90.9252C72.6104 91.0368 72.2952 91.5562 72.4542 92.05L82.456 123.102C82.468 123.139 82.5247 123.123 82.514 123.084L74.1672 91.553C74.0461 91.0953 73.5793 90.8233 73.117 90.9252V90.9252Z" fill="#292D32"/>
<path d="M44.372 61.5272C44.8296 61.6513 45.3002 61.3783 45.4404 60.9253V60.9253C45.5937 60.43 45.299 59.9021 44.7921 59.793L12.9044 52.9304C12.8659 52.9222 12.852 52.9796 12.8905 52.9897L44.372 61.5272Z" fill="#292D32"/>
<path d="M50.6202 83.9102C50.2694 83.5278 49.6635 83.5173 49.3153 83.9021L27.4233 108.092C27.3969 108.121 27.4397 108.161 27.4675 108.133L50.6039 85.1369C50.9403 84.8026 50.9409 84.2596 50.6202 83.9102V83.9102Z" fill="#292D32"/>
<path d="M60.9243 90.435C60.4288 90.2818 59.9006 90.5767 59.7915 91.0837L52.929 122.971C52.9208 123.01 52.9776 123.023 52.9883 122.985L61.5254 91.5025C61.6494 91.0452 61.3769 90.575 60.9243 90.435V90.435Z" fill="#292D32"/>
<path d="M67.9373 44.3737V44.3737C68.3864 44.3737 68.7557 44.0179 68.7474 43.5689L67.9373 7.96942e-06L67.1272 43.5689C67.1188 44.0179 67.4882 44.3737 67.9373 44.3737V44.3737Z" fill="#292D32"/>
<path d="M56.3198 47.5778C56.6324 47.3968 56.7447 46.9946 56.5579 46.6854L38.4565 16.705L55.43 47.3394C55.6049 47.6549 56.0076 47.7586 56.3198 47.5778V47.5778Z" fill="#292D32"/>
<path d="M47.5876 56.3575C47.7609 56.0602 47.6619 55.6757 47.3605 55.5097L18.1201 39.407L46.7422 56.5831C47.0353 56.759 47.4155 56.6529 47.5876 56.3575V56.3575Z" fill="#292D32"/>
<path d="M79.6927 47.58C79.9988 47.759 80.3955 47.6571 80.566 47.3461L97.1031 17.178L79.461 46.7121C79.2812 47.0132 79.3899 47.4029 79.6927 47.58V47.58Z" fill="#292D32"/>
<path d="M135.875 67.9363L92.3061 67.1262C91.8574 67.1178 91.5013 67.4875 91.5013 67.9363V67.9363V67.9363C91.5013 68.3851 91.8574 68.7547 92.3061 68.7464L135.875 67.9363Z" fill="#292D32"/>
<path d="M88.4355 56.3497C88.6066 56.6478 88.9898 56.7549 89.2832 56.5759L117.44 39.407L88.6601 55.5116C88.364 55.6773 88.2666 56.0554 88.4355 56.3497V56.3497Z" fill="#292D32"/>
<path d="M44.3737 67.9363V67.9363C44.3737 67.4875 44.0176 67.1178 43.5689 67.1262L0 67.9363L43.5689 68.7464C44.0176 68.7547 44.3737 68.3851 44.3737 67.9363V67.9363Z" fill="#292D32"/>
<path d="M79.7002 88.452C79.3947 88.6281 79.2851 89.0209 79.468 89.3224L97.1031 118.391L80.5643 88.6836C80.394 88.3778 80.0035 88.2772 79.7002 88.452V88.452Z" fill="#292D32"/>
<path d="M88.4354 79.6942C88.2665 79.9886 88.3639 80.3669 88.6601 80.5326L117.44 96.6367L89.2836 79.468C88.9899 79.2889 88.6065 79.3959 88.4354 79.6942V79.6942Z" fill="#292D32"/>
<path d="M67.9373 91.5007V91.5007C67.4885 91.5007 67.1188 91.8568 67.1272 92.3055L67.9373 135.875L68.7474 92.3055C68.7557 91.8568 68.3861 91.5007 67.9373 91.5007V91.5007Z" fill="#292D32"/>
<path d="M56.3657 88.439C56.0773 88.2718 55.7051 88.3676 55.5437 88.6593L39.876 116.973L56.5855 89.2627C56.7576 88.9772 56.6541 88.6062 56.3657 88.439V88.439Z" fill="#292D32"/>
<path d="M47.5737 79.7185C47.3926 79.4059 46.9905 79.2938 46.6812 79.4805L16.7012 97.582L47.3352 80.6088C47.6509 80.4338 47.7547 80.0309 47.5737 79.7185V79.7185Z" fill="#292D32"/>
</svg>
