<svg width="340" height="314" viewBox="0 0 340 314" fill="none" xmlns="http://www.w3.org/2000/svg">
<path opacity="0.5" d="M169.653 260.264C231.743 260.264 282.078 213.713 282.078 156.29C282.078 98.8666 231.743 52.3159 169.653 52.3159C107.562 52.3159 57.228 98.8666 57.228 156.29C57.228 213.713 107.562 260.264 169.653 260.264Z" fill="#2C3639"/>
<path d="M169.653 313.426C127.672 313.374 87.2091 298.904 56.1118 272.823C25.0145 246.742 5.4999 210.908 1.3534 172.273C-2.79309 133.638 8.72409 94.9562 33.6709 63.7302C58.6177 32.5042 95.2157 10.9602 136.366 3.27732C177.516 -4.40557 220.285 2.32026 256.377 22.1502C292.469 41.9801 319.31 73.5005 331.695 110.597C344.08 147.694 341.125 187.723 323.404 222.919C305.682 258.114 274.458 285.969 235.787 301.079C214.865 309.267 192.371 313.467 169.653 313.426V313.426ZM169.653 0.469439C130.671 0.468489 92.8957 12.9679 62.7622 35.8378C32.6286 58.7077 12.0018 90.5331 4.39613 125.891C-3.20949 161.25 2.67673 197.953 21.0518 229.747C39.427 261.542 69.154 286.46 105.168 300.257C141.182 314.053 181.254 315.874 218.557 305.41C255.86 294.945 288.085 272.842 309.742 242.867C331.399 212.891 341.148 176.899 337.327 141.021C333.507 105.144 316.353 71.6012 288.789 46.1093C273.181 31.5939 254.614 20.0861 234.164 12.2519C213.715 4.41778 191.788 0.413 169.653 0.469439V0.469439Z" fill="#2C3639"/>
<path d="M169.652 299.784C133.754 299.785 98.9665 288.275 71.2164 267.214C43.4663 246.153 24.4709 216.845 17.4667 184.284C10.4626 151.722 15.8831 117.922 32.8047 88.6427C49.7262 59.3631 77.1019 36.4156 110.267 23.7102C143.432 11.0049 180.335 9.32778 214.687 18.9647C249.039 28.6017 278.716 48.9564 298.66 76.5606C318.604 104.165 327.582 137.311 324.063 170.35C320.545 203.39 304.748 234.279 279.364 257.755C264.99 271.121 247.892 281.718 229.06 288.933C210.228 296.147 190.036 299.836 169.652 299.784V299.784ZM169.652 14.1108C134.083 14.1101 99.6148 25.5153 72.1194 46.3832C44.6239 67.2511 25.8029 96.2905 18.8633 128.553C11.9236 160.816 17.2947 194.306 34.0613 223.317C50.8279 252.328 77.9527 275.065 110.814 287.654C143.675 300.242 180.239 301.904 214.276 292.355C248.314 282.806 277.718 262.638 297.479 235.287C317.24 207.936 326.135 175.094 322.648 142.357C319.162 109.621 303.51 79.0149 278.359 55.7548C264.117 42.5104 247.176 32.0102 228.516 24.862C209.856 17.7138 189.849 14.0596 169.652 14.1108V14.1108Z" fill="#2C3639"/>
<g opacity="0.8">
<path d="M166.633 159.23C166.529 159.232 166.425 159.213 166.33 159.175C166.234 159.136 166.149 159.08 166.078 159.009L81.3991 75.7152C81.2621 75.5781 81.1891 75.3966 81.1957 75.21C81.2024 75.0234 81.2882 74.8467 81.4347 74.7182C81.5075 74.6544 81.5933 74.6045 81.6871 74.5716C81.7809 74.5386 81.8808 74.5232 81.9811 74.5263C82.0814 74.5293 82.1801 74.5508 82.2713 74.5894C82.3626 74.628 82.4446 74.683 82.5127 74.7511L167.187 158.045C167.29 158.145 167.359 158.27 167.385 158.406C167.411 158.541 167.394 158.681 167.335 158.808C167.276 158.934 167.177 159.042 167.053 159.117C166.928 159.192 166.782 159.231 166.633 159.23Z" fill="#2C3639"/>
<path d="M166.638 159.235C166.524 159.236 166.411 159.212 166.308 159.167C166.205 159.121 166.114 159.054 166.043 158.971L71.8702 49.4271C71.7441 49.2806 71.6861 49.0937 71.709 48.9076C71.7319 48.7215 71.8338 48.5515 71.9922 48.4348C72.1507 48.3182 72.3528 48.2646 72.554 48.2858C72.7552 48.3069 72.9391 48.4012 73.0652 48.5477L167.233 158.092C167.295 158.165 167.342 158.248 167.37 158.337C167.397 158.426 167.406 158.519 167.394 158.612C167.383 158.704 167.352 158.793 167.304 158.874C167.255 158.955 167.189 159.027 167.111 159.084C166.977 159.184 166.81 159.237 166.638 159.235V159.235Z" fill="#2C3639"/>
<path d="M166.633 159.23C166.508 159.231 166.385 159.203 166.275 159.149C166.165 159.094 166.071 159.016 166.002 158.92L97.3555 63.8457C97.2512 63.6904 97.2162 63.5037 97.2578 63.325C97.2994 63.1463 97.4144 62.9895 97.5786 62.8876C97.7428 62.7858 97.9433 62.7469 98.1379 62.7791C98.3324 62.8113 98.5059 62.9121 98.6217 63.0603L167.268 158.135C167.377 158.291 167.415 158.481 167.374 158.663C167.333 158.845 167.216 159.004 167.05 159.108C166.926 159.185 166.781 159.227 166.633 159.23Z" fill="#2C3639"/>
<path d="M166.638 159.235C166.502 159.236 166.368 159.203 166.25 159.139C166.133 159.075 166.036 158.983 165.972 158.872L92.6368 36.4568C92.5439 36.2949 92.5232 36.1058 92.5793 35.93C92.6354 35.7541 92.7637 35.6056 92.9368 35.5163C93.1118 35.4324 93.315 35.4139 93.5043 35.4646C93.6936 35.5154 93.8546 35.6316 93.9538 35.7891L167.304 158.191C167.395 158.352 167.415 158.54 167.36 158.715C167.305 158.89 167.179 159.039 167.009 159.131C166.896 159.193 166.769 159.229 166.638 159.235V159.235Z" fill="#2C3639"/>
<path d="M166.632 159.23C166.485 159.231 166.341 159.192 166.218 159.119C166.094 159.045 165.996 158.94 165.936 158.816L115.183 54.567C115.135 54.4818 115.105 54.3883 115.097 54.2923C115.089 54.1963 115.103 54.0998 115.137 54.0087C115.171 53.9177 115.224 53.834 115.294 53.7628C115.365 53.6917 115.45 53.6345 115.545 53.595C115.64 53.5554 115.742 53.5343 115.846 53.5328C115.95 53.5313 116.054 53.5496 116.15 53.5865C116.246 53.6234 116.333 53.678 116.406 53.7472C116.478 53.8163 116.535 53.8985 116.571 53.9886L167.324 158.238C167.377 158.345 167.4 158.463 167.391 158.581C167.381 158.698 167.34 158.812 167.271 158.911C167.201 159.01 167.106 159.091 166.993 159.147C166.881 159.203 166.755 159.231 166.627 159.23H166.632Z" fill="#2C3639"/>
<path d="M166.637 159.235C166.479 159.236 166.325 159.191 166.195 159.106C166.066 159.022 165.968 158.903 165.915 158.765L115.432 26.8403C115.365 26.6638 115.376 26.4698 115.463 26.3009C115.55 26.132 115.707 26.0021 115.898 25.9397C116.088 25.8774 116.298 25.8877 116.481 25.9684C116.663 26.0491 116.804 26.1935 116.871 26.37L167.354 158.295C167.398 158.401 167.412 158.515 167.396 158.628C167.381 158.74 167.336 158.847 167.265 158.94C167.194 159.033 167.1 159.108 166.991 159.16C166.881 159.211 166.76 159.237 166.637 159.235V159.235Z" fill="#2C3639"/>
<path d="M166.633 159.23C166.465 159.23 166.302 159.179 166.168 159.085C166.035 158.99 165.939 158.858 165.895 158.708L134.44 48.1244C134.388 47.9435 134.416 47.751 134.518 47.5892C134.619 47.4273 134.786 47.3094 134.982 47.2614C135.177 47.2134 135.385 47.2392 135.56 47.3331C135.735 47.427 135.863 47.5814 135.915 47.7623L167.37 158.327C167.421 158.508 167.393 158.7 167.291 158.862C167.189 159.023 167.021 159.14 166.826 159.188C166.765 159.211 166.699 159.226 166.633 159.23V159.23Z" fill="#2C3639"/>
<path d="M166.638 159.235C166.459 159.235 166.286 159.178 166.148 159.072C166.01 158.966 165.917 158.819 165.885 158.656L139.632 20.8487C139.608 20.7553 139.605 20.6585 139.624 20.5641C139.642 20.4697 139.681 20.3797 139.738 20.2997C139.795 20.2197 139.869 20.1513 139.956 20.0986C140.043 20.046 140.14 20.0103 140.242 19.9936C140.344 19.977 140.449 19.9798 140.55 20.0018C140.651 20.0238 140.746 20.0647 140.829 20.1218C140.912 20.179 140.982 20.2512 141.034 20.3342C141.086 20.4171 141.119 20.509 141.132 20.6042L167.39 158.426C167.408 158.517 167.406 158.611 167.384 158.702C167.362 158.792 167.322 158.878 167.264 158.954C167.206 159.03 167.133 159.095 167.048 159.145C166.963 159.194 166.869 159.228 166.77 159.244C166.726 159.245 166.681 159.242 166.638 159.235V159.235Z" fill="#2C3639"/>
<path d="M166.633 159.23C166.443 159.231 166.259 159.165 166.119 159.047C165.979 158.928 165.892 158.766 165.875 158.591L154.576 44.7432C154.567 44.6508 154.578 44.5578 154.608 44.4692C154.638 44.3807 154.686 44.2985 154.75 44.2273C154.815 44.1561 154.893 44.0973 154.982 44.0543C155.071 44.0113 155.168 43.9849 155.268 43.9766C155.469 43.9609 155.669 44.0193 155.824 44.139C155.98 44.2587 156.077 44.4302 156.097 44.6162L167.395 158.464C167.412 158.65 167.349 158.835 167.22 158.978C167.09 159.122 166.905 159.212 166.704 159.23H166.633Z" fill="#2C3639"/>
<path d="M166.638 159.235C166.436 159.235 166.243 159.161 166.1 159.03C165.957 158.899 165.876 158.72 165.875 158.534L165.732 18.5916C165.732 18.4045 165.813 18.2251 165.956 18.0928C166.099 17.9605 166.293 17.8862 166.495 17.8862C166.697 17.8862 166.891 17.9605 167.035 18.0928C167.178 18.2251 167.258 18.4045 167.258 18.5916L167.4 158.529C167.4 158.717 167.32 158.896 167.177 159.028C167.034 159.161 166.84 159.235 166.638 159.235Z" fill="#2C3639"/>
<path d="M166.633 159.23H166.577C166.477 159.224 166.379 159.199 166.29 159.157C166.2 159.115 166.12 159.058 166.055 158.987C165.99 158.917 165.94 158.835 165.909 158.747C165.878 158.658 165.867 158.565 165.875 158.473L175.028 44.461C175.044 44.2739 175.139 44.1002 175.293 43.978C175.447 43.8559 175.647 43.7953 175.849 43.8097C176.052 43.824 176.239 43.9121 176.371 44.0545C176.504 44.197 176.569 44.3821 176.554 44.5692L167.401 158.581C167.385 158.759 167.297 158.925 167.155 159.045C167.012 159.166 166.826 159.232 166.633 159.23Z" fill="#2C3639"/>
<path d="M166.638 159.235H166.541C166.342 159.205 166.163 159.103 166.045 158.951C165.927 158.799 165.878 158.611 165.911 158.426L189.591 20.2046C189.607 20.1119 189.642 20.0231 189.695 19.943C189.748 19.863 189.817 19.7934 189.899 19.7382C189.981 19.6829 190.074 19.6431 190.172 19.6211C190.271 19.599 190.373 19.5952 190.473 19.6097C190.574 19.6242 190.67 19.6568 190.756 19.7057C190.843 19.7545 190.918 19.8187 190.978 19.8944C191.037 19.9702 191.08 20.0561 191.104 20.1472C191.128 20.2384 191.132 20.333 191.117 20.4256L167.39 158.638C167.363 158.804 167.273 158.956 167.134 159.066C166.996 159.176 166.82 159.236 166.638 159.235V159.235Z" fill="#2C3639"/>
<path d="M166.633 159.23C166.574 159.237 166.514 159.237 166.455 159.23C166.358 159.209 166.266 159.17 166.185 159.115C166.104 159.061 166.035 158.992 165.983 158.913C165.931 158.834 165.897 158.746 165.882 158.654C165.867 158.562 165.871 158.469 165.896 158.379L195.281 47.33C195.338 47.1575 195.464 47.0116 195.633 46.9222C195.803 46.8329 196.003 46.807 196.192 46.8497C196.381 46.8924 196.546 47.0006 196.652 47.152C196.758 47.3034 196.797 47.4866 196.761 47.6639L167.375 158.694C167.335 158.848 167.24 158.985 167.105 159.082C166.97 159.179 166.804 159.232 166.633 159.23V159.23Z" fill="#2C3639"/>
<path d="M166.638 159.235C166.555 159.236 166.473 159.224 166.393 159.202C166.202 159.142 166.044 159.014 165.955 158.847C165.865 158.679 165.851 158.486 165.915 158.308L213.932 25.5939C214 25.4168 214.141 25.2717 214.324 25.1906C214.507 25.1095 214.717 25.0989 214.909 25.1613C215.1 25.2236 215.257 25.3538 215.345 25.5231C215.433 25.6925 215.444 25.8871 215.377 26.0642L167.36 158.755C167.309 158.895 167.212 159.017 167.083 159.103C166.953 159.189 166.797 159.235 166.638 159.235V159.235Z" fill="#2C3639"/>
<path d="M166.633 159.23C166.529 159.232 166.427 159.213 166.333 159.174C166.239 159.137 166.154 159.083 166.083 159.016C166.012 158.949 165.956 158.869 165.919 158.781C165.882 158.694 165.863 158.6 165.865 158.506C165.867 158.412 165.89 158.319 165.931 158.233L214.746 53.1941C214.785 53.1066 214.842 53.0274 214.915 52.961C214.987 52.8946 215.074 52.8425 215.169 52.8078C215.264 52.7731 215.366 52.7565 215.468 52.759C215.57 52.7616 215.67 52.7832 215.763 52.8225C215.857 52.8594 215.941 52.9131 216.012 52.9804C216.083 53.0478 216.139 53.1276 216.177 53.2151C216.214 53.3026 216.232 53.3961 216.23 53.4902C216.228 53.5843 216.206 53.677 216.165 53.7631L167.349 158.807C167.289 158.935 167.188 159.044 167.061 159.12C166.933 159.195 166.784 159.234 166.633 159.23Z" fill="#2C3639"/>
<path d="M166.638 159.235C166.506 159.237 166.376 159.206 166.26 159.147C166.145 159.088 166.048 159.001 165.979 158.897C165.911 158.792 165.873 158.673 165.87 158.551C165.867 158.429 165.899 158.308 165.962 158.2L237.003 34.6326C237.05 34.5508 237.114 34.4783 237.192 34.4194C237.269 34.3604 237.358 34.3162 237.454 34.2891C237.55 34.262 237.651 34.2527 237.75 34.2616C237.85 34.2705 237.947 34.2975 238.035 34.341C238.124 34.3846 238.202 34.4438 238.266 34.5153C238.33 34.5869 238.378 34.6693 238.407 34.758C238.436 34.8466 238.446 34.9397 238.437 35.032C238.427 35.1242 238.398 35.2138 238.351 35.2957L167.309 158.863C167.244 158.976 167.148 159.07 167.029 159.136C166.911 159.201 166.776 159.235 166.638 159.235V159.235Z" fill="#2C3639"/>
<path d="M166.633 159.23C166.487 159.231 166.344 159.194 166.221 159.122C166.136 159.072 166.063 159.007 166.006 158.93C165.948 158.854 165.908 158.768 165.886 158.677C165.865 158.586 165.863 158.492 165.882 158.401C165.9 158.309 165.937 158.222 165.992 158.144L232.864 61.9879C232.918 61.9101 232.989 61.843 233.071 61.7904C233.154 61.7377 233.247 61.7006 233.345 61.6812C233.443 61.6618 233.544 61.6604 233.642 61.6771C233.741 61.6938 233.835 61.7283 233.919 61.7787C234.003 61.829 234.076 61.8942 234.133 61.9705C234.19 62.0467 234.23 62.1326 234.251 62.2232C234.272 62.3139 234.273 62.4074 234.255 62.4986C234.237 62.5897 234.2 62.6767 234.145 62.7545L167.273 158.91C167.204 159.009 167.109 159.09 166.997 159.146C166.885 159.202 166.76 159.231 166.633 159.23Z" fill="#2C3639"/>
<path d="M166.638 159.235C166.471 159.235 166.309 159.185 166.175 159.094C166.095 159.037 166.028 158.967 165.977 158.887C165.927 158.806 165.894 158.717 165.881 158.625C165.867 158.533 165.874 158.439 165.9 158.349C165.926 158.259 165.971 158.175 166.033 158.101L258.141 47.071C258.202 46.9975 258.278 46.9359 258.365 46.8896C258.452 46.8434 258.548 46.8134 258.647 46.8014C258.747 46.7894 258.848 46.7956 258.944 46.8196C259.041 46.8437 259.132 46.8852 259.211 46.9417C259.291 46.9982 259.358 47.0687 259.408 47.149C259.458 47.2293 259.49 47.318 259.503 47.4099C259.516 47.5018 259.509 47.5952 259.483 47.6847C259.457 47.7742 259.412 47.8581 259.351 47.9316L167.243 158.962C167.171 159.047 167.079 159.116 166.974 159.163C166.87 159.21 166.754 159.235 166.638 159.235Z" fill="#2C3639"/>
<path d="M166.633 159.23C166.444 159.231 166.262 159.165 166.124 159.047C165.976 158.921 165.887 158.746 165.878 158.56C165.868 158.374 165.939 158.192 166.073 158.054L249.186 73.4059C249.25 73.3276 249.33 73.2624 249.423 73.2144C249.515 73.1664 249.617 73.1368 249.723 73.1273C249.828 73.1179 249.934 73.1288 250.035 73.1595C250.136 73.1901 250.228 73.2398 250.307 73.3053C250.386 73.3709 250.449 73.4509 250.492 73.5402C250.535 73.6295 250.558 73.7262 250.559 73.8242C250.56 73.9221 250.539 74.0191 250.497 74.1091C250.455 74.199 250.393 74.2798 250.315 74.3464L167.202 158.995C167.131 159.07 167.043 159.129 166.945 159.17C166.847 159.21 166.74 159.231 166.633 159.23Z" fill="#2C3639"/>
<path d="M166.638 159.235C166.533 159.234 166.43 159.215 166.334 159.177C166.238 159.139 166.151 159.083 166.079 159.014C166.01 158.946 165.957 158.866 165.923 158.779C165.888 158.692 165.872 158.6 165.876 158.507C165.879 158.415 165.903 158.324 165.945 158.24C165.986 158.155 166.046 158.08 166.119 158.017L276.777 62.5521C276.847 62.4752 276.934 62.4129 277.032 62.3696C277.131 62.3263 277.238 62.3029 277.346 62.3009C277.455 62.299 277.563 62.3186 277.663 62.3584C277.763 62.3982 277.852 62.4572 277.925 62.5317C277.999 62.6061 278.054 62.6941 278.087 62.7899C278.12 62.8856 278.131 62.9868 278.119 63.0867C278.106 63.1867 278.071 63.283 278.015 63.3692C277.959 63.4554 277.884 63.5296 277.794 63.5867L167.136 159.051C167 159.167 166.823 159.232 166.638 159.235V159.235Z" fill="#2C3639"/>
<path d="M166.633 159.23C166.475 159.229 166.322 159.183 166.194 159.099C166.065 159.014 165.969 158.894 165.917 158.757C165.865 158.619 165.861 158.47 165.904 158.33C165.948 158.19 166.037 158.066 166.16 157.975L263.231 87.1851C263.309 87.1226 263.4 87.0755 263.498 87.0464C263.596 87.0173 263.699 87.0069 263.802 87.0158C263.905 87.0247 264.004 87.0527 264.095 87.0982C264.185 87.1436 264.265 87.2056 264.329 87.2803C264.393 87.355 264.44 87.441 264.467 87.5329C264.494 87.6248 264.5 87.7209 264.486 87.8153C264.472 87.9096 264.437 88.0004 264.384 88.082C264.331 88.1636 264.261 88.2344 264.177 88.2902L167.106 159.08C166.972 159.179 166.805 159.232 166.633 159.23V159.23Z" fill="#2C3639"/>
<path d="M166.638 159.235C166.512 159.236 166.387 159.207 166.276 159.152C166.165 159.097 166.071 159.017 166.002 158.92C165.946 158.842 165.908 158.756 165.889 158.665C165.869 158.574 165.87 158.48 165.89 158.39C165.909 158.299 165.948 158.212 166.004 158.135C166.06 158.059 166.132 157.993 166.216 157.941L292.388 80.6857C292.471 80.6344 292.565 80.5988 292.663 80.581C292.761 80.5632 292.863 80.5635 292.961 80.5818C293.059 80.6002 293.152 80.6362 293.236 80.6879C293.319 80.7396 293.39 80.806 293.445 80.8832C293.501 80.9604 293.539 81.0469 293.559 81.1378C293.578 81.2288 293.577 81.3223 293.558 81.4132C293.538 81.504 293.499 81.5903 293.443 81.6672C293.387 81.7441 293.315 81.8101 293.232 81.8613L167.049 159.108C166.927 159.184 166.785 159.228 166.638 159.235V159.235Z" fill="#2C3639"/>
<path d="M166.633 159.23C166.464 159.229 166.301 159.176 166.168 159.08C166.036 158.985 165.941 158.851 165.899 158.7C165.858 158.549 165.871 158.389 165.937 158.246C166.004 158.103 166.12 157.985 166.267 157.909L274.637 102.887C274.813 102.804 275.017 102.787 275.206 102.84C275.396 102.892 275.556 103.01 275.654 103.169C275.746 103.332 275.766 103.521 275.709 103.697C275.652 103.873 275.522 104.021 275.348 104.11L166.979 159.131C166.873 159.189 166.755 159.223 166.633 159.23V159.23Z" fill="#2C3639"/>
<path d="M166.638 159.235C166.463 159.235 166.294 159.18 166.158 159.078C166.022 158.976 165.928 158.834 165.892 158.676C165.856 158.518 165.879 158.354 165.959 158.21C166.038 158.066 166.168 157.951 166.328 157.885L304.556 100.945C304.648 100.906 304.748 100.884 304.849 100.881C304.95 100.878 305.051 100.894 305.146 100.927C305.24 100.96 305.327 101.011 305.4 101.075C305.474 101.14 305.533 101.217 305.573 101.303C305.615 101.388 305.638 101.48 305.641 101.573C305.644 101.667 305.627 101.76 305.591 101.847C305.555 101.935 305.501 102.015 305.432 102.083C305.362 102.151 305.279 102.205 305.187 102.243L166.948 159.174C166.85 159.214 166.745 159.235 166.638 159.235Z" fill="#2C3639"/>
<path d="M166.633 159.23C166.454 159.228 166.282 159.168 166.147 159.06C166.011 158.953 165.921 158.805 165.891 158.642C165.862 158.479 165.895 158.312 165.985 158.17C166.075 158.027 166.216 157.918 166.384 157.862L283.083 120.146C283.177 120.115 283.277 120.102 283.377 120.107C283.477 120.112 283.575 120.135 283.666 120.175C283.756 120.215 283.837 120.271 283.904 120.34C283.971 120.409 284.023 120.489 284.056 120.577C284.09 120.664 284.104 120.757 284.099 120.849C284.094 120.942 284.069 121.032 284.025 121.116C283.982 121.2 283.922 121.275 283.847 121.336C283.773 121.398 283.686 121.446 283.591 121.477L166.892 159.193C166.809 159.219 166.721 159.232 166.633 159.23V159.23Z" fill="#2C3639"/>
<path d="M166.638 159.235C166.469 159.236 166.304 159.185 166.17 159.09C166.036 158.994 165.941 158.86 165.9 158.708C165.849 158.527 165.878 158.335 165.98 158.174C166.082 158.012 166.249 157.895 166.444 157.847L312.936 122.779C313.033 122.756 313.134 122.751 313.234 122.764C313.333 122.777 313.429 122.808 313.515 122.855C313.602 122.902 313.677 122.964 313.738 123.039C313.798 123.113 313.842 123.197 313.866 123.287C313.892 123.377 313.898 123.47 313.884 123.561C313.87 123.652 313.837 123.74 313.787 123.82C313.736 123.899 313.669 123.969 313.589 124.024C313.51 124.08 313.419 124.12 313.322 124.143L166.826 159.216C166.764 159.229 166.701 159.235 166.638 159.235Z" fill="#2C3639"/>
<path d="M166.633 159.23C166.43 159.246 166.23 159.186 166.075 159.065C165.92 158.944 165.823 158.771 165.806 158.584C165.789 158.396 165.854 158.211 165.985 158.067C166.116 157.924 166.303 157.835 166.506 157.819L288.335 138.43C288.538 138.399 288.745 138.443 288.912 138.554C289.079 138.664 289.191 138.831 289.225 139.018C289.259 139.205 289.211 139.397 289.092 139.551C288.972 139.706 288.792 139.81 288.589 139.841L166.765 159.221C166.721 159.229 166.677 159.232 166.633 159.23V159.23Z" fill="#2C3639"/>
<path d="M166.638 159.235C166.436 159.243 166.238 159.176 166.089 159.05C165.94 158.923 165.851 158.747 165.842 158.56C165.833 158.373 165.905 158.19 166.042 158.052C166.179 157.914 166.369 157.832 166.572 157.824L317.314 145.597C317.414 145.589 317.514 145.599 317.61 145.626C317.705 145.654 317.794 145.699 317.87 145.758C317.947 145.818 318.01 145.891 318.056 145.973C318.102 146.055 318.13 146.145 318.138 146.237C318.155 146.423 318.092 146.608 317.963 146.751C317.833 146.895 317.648 146.985 317.447 147.003L166.704 159.23L166.638 159.235Z" fill="#2C3639"/>
<path d="M166.633 159.23C166.431 159.23 166.237 159.156 166.094 159.024C165.95 158.892 165.87 158.712 165.87 158.525C165.87 158.338 165.95 158.159 166.094 158.026C166.237 157.894 166.431 157.82 166.633 157.82L290.247 157.293C290.45 157.293 290.644 157.367 290.787 157.5C290.93 157.632 291.01 157.811 291.01 157.998C291.01 158.185 290.93 158.365 290.787 158.497C290.644 158.629 290.45 158.704 290.247 158.704L166.628 159.23H166.633Z" fill="#2C3639"/>
<path d="M317.497 170.173H317.436L166.577 159.235C166.374 159.22 166.187 159.131 166.055 158.988C165.924 158.845 165.859 158.66 165.875 158.473C165.891 158.286 165.987 158.112 166.142 157.991C166.296 157.869 166.496 157.809 166.699 157.824L317.563 168.767C317.766 168.774 317.957 168.855 318.095 168.992C318.232 169.129 318.306 169.311 318.298 169.498C318.291 169.686 318.203 169.862 318.055 169.99C317.907 170.117 317.71 170.185 317.507 170.178L317.497 170.173Z" fill="#2C3639"/>
<path d="M288.65 177.575H288.528L166.49 159.235C166.39 159.22 166.294 159.187 166.208 159.138C166.121 159.089 166.046 159.024 165.987 158.948C165.927 158.872 165.884 158.786 165.861 158.695C165.837 158.604 165.834 158.509 165.85 158.416C165.866 158.324 165.901 158.235 165.954 158.155C166.007 158.075 166.077 158.006 166.159 157.951C166.241 157.896 166.334 157.856 166.433 157.834C166.532 157.813 166.634 157.809 166.734 157.824L288.772 176.164C288.963 176.193 289.134 176.287 289.253 176.427C289.371 176.568 289.429 176.744 289.413 176.922C289.398 177.099 289.311 177.265 289.17 177.386C289.028 177.507 288.843 177.575 288.65 177.575V177.575Z" fill="#2C3639"/>
<path d="M313.495 193.047C313.435 193.054 313.373 193.054 313.312 193.047L166.475 159.235C166.375 159.216 166.279 159.178 166.195 159.124C166.11 159.07 166.039 159.001 165.984 158.92C165.929 158.84 165.893 158.75 165.876 158.657C165.86 158.563 165.864 158.467 165.889 158.375C165.914 158.283 165.958 158.196 166.02 158.12C166.082 158.044 166.159 157.981 166.248 157.933C166.337 157.886 166.435 157.856 166.537 157.844C166.639 157.833 166.743 157.84 166.841 157.867L313.679 191.674C313.881 191.697 314.065 191.792 314.191 191.941C314.317 192.089 314.374 192.277 314.35 192.464C314.325 192.651 314.222 192.822 314.062 192.938C313.901 193.055 313.698 193.107 313.495 193.085V193.047Z" fill="#2C3639"/>
<path d="M283.708 195.944C283.625 195.943 283.543 195.93 283.464 195.906L166.389 159.197C166.196 159.135 166.039 159.004 165.951 158.835C165.863 158.665 165.851 158.47 165.918 158.292C165.986 158.114 166.127 157.969 166.31 157.887C166.494 157.805 166.705 157.795 166.897 157.857L283.952 194.571C284.123 194.625 284.268 194.733 284.361 194.876C284.453 195.019 284.488 195.188 284.459 195.353C284.43 195.518 284.338 195.668 284.201 195.776C284.063 195.884 283.889 195.944 283.708 195.944V195.944Z" fill="#2C3639"/>
<path d="M305.431 214.99C305.326 214.99 305.222 214.97 305.126 214.933L166.333 159.178C166.147 159.103 166.002 158.964 165.928 158.789C165.854 158.615 165.858 158.421 165.939 158.249C166.02 158.078 166.171 157.943 166.359 157.875C166.548 157.807 166.757 157.81 166.943 157.885L305.736 213.659C305.83 213.696 305.914 213.749 305.985 213.817C306.056 213.885 306.111 213.965 306.147 214.052C306.184 214.14 306.201 214.234 306.198 214.328C306.194 214.422 306.17 214.514 306.128 214.599C306.065 214.72 305.965 214.821 305.842 214.89C305.718 214.959 305.575 214.994 305.431 214.99V214.99Z" fill="#2C3639"/>
<path d="M275.552 213.306C275.426 213.305 275.302 213.276 275.191 213.221L166.272 159.141C166.093 159.052 165.959 158.901 165.901 158.722C165.842 158.543 165.863 158.349 165.959 158.184C166.055 158.018 166.217 157.895 166.411 157.841C166.605 157.787 166.815 157.806 166.994 157.894L275.913 211.975C276.062 212.05 276.18 212.168 276.248 212.312C276.317 212.455 276.331 212.616 276.29 212.768C276.249 212.92 276.154 213.055 276.02 213.152C275.886 213.249 275.721 213.301 275.552 213.301V213.306Z" fill="#2C3639"/>
<path d="M293.578 235.409C293.428 235.409 293.281 235.368 293.156 235.291L166.221 159.108C166.133 159.059 166.057 158.994 165.998 158.917C165.938 158.841 165.895 158.753 165.872 158.661C165.85 158.569 165.847 158.473 165.866 158.38C165.884 158.287 165.922 158.198 165.978 158.119C166.034 158.04 166.106 157.972 166.191 157.919C166.276 157.866 166.372 157.83 166.472 157.812C166.573 157.794 166.676 157.795 166.776 157.815C166.876 157.835 166.971 157.873 167.055 157.928L293.995 234.111C294.133 234.194 294.239 234.316 294.296 234.459C294.354 234.602 294.359 234.758 294.312 234.905C294.265 235.051 294.168 235.179 294.036 235.27C293.903 235.361 293.743 235.41 293.578 235.409V235.409Z" fill="#2C3639"/>
<path d="M264.411 229.178C264.241 229.176 264.077 229.123 263.943 229.028L166.165 159.108C166.086 159.051 166.02 158.98 165.97 158.9C165.921 158.82 165.889 158.731 165.876 158.639C165.864 158.547 165.871 158.454 165.897 158.364C165.924 158.275 165.969 158.191 166.03 158.118C166.092 158.045 166.168 157.984 166.255 157.938C166.342 157.892 166.438 157.862 166.538 157.851C166.637 157.839 166.738 157.846 166.835 157.87C166.931 157.895 167.022 157.937 167.101 157.993L264.879 227.922C265.005 228.012 265.098 228.137 265.145 228.278C265.191 228.419 265.188 228.571 265.136 228.71C265.084 228.85 264.987 228.971 264.857 229.057C264.726 229.142 264.571 229.188 264.411 229.187V229.178Z" fill="#2C3639"/>
<path d="M278.252 253.735C278.064 253.733 277.883 253.668 277.743 253.552L166.134 159.028C166.047 158.97 165.974 158.896 165.92 158.81C165.866 158.724 165.832 158.628 165.82 158.53C165.809 158.431 165.82 158.331 165.853 158.236C165.887 158.142 165.941 158.055 166.013 157.981C166.085 157.907 166.173 157.849 166.272 157.809C166.37 157.769 166.477 157.748 166.584 157.749C166.691 157.75 166.798 157.771 166.895 157.813C166.993 157.854 167.08 157.914 167.151 157.988L278.765 252.508C278.839 252.57 278.899 252.646 278.941 252.73C278.983 252.814 279.007 252.905 279.012 252.997C279.016 253.09 279 253.183 278.966 253.27C278.932 253.357 278.879 253.437 278.811 253.505C278.741 253.578 278.655 253.636 278.558 253.676C278.462 253.716 278.357 253.736 278.252 253.735V253.735Z" fill="#2C3639"/>
<path d="M250.59 243.15C250.484 243.149 250.38 243.128 250.284 243.089C250.188 243.049 250.101 242.991 250.03 242.919L166.073 159.005C165.99 158.94 165.923 158.859 165.876 158.769C165.829 158.678 165.804 158.579 165.801 158.478C165.799 158.378 165.821 158.278 165.864 158.186C165.907 158.093 165.97 158.01 166.051 157.943C166.131 157.875 166.227 157.824 166.33 157.793C166.434 157.762 166.543 157.752 166.651 157.764C166.759 157.775 166.863 157.808 166.957 157.86C167.05 157.912 167.13 157.981 167.192 158.064L251.149 241.965C251.217 242.033 251.27 242.112 251.305 242.199C251.34 242.286 251.356 242.378 251.352 242.471C251.348 242.563 251.325 242.654 251.283 242.739C251.241 242.823 251.182 242.899 251.108 242.962C250.966 243.081 250.782 243.148 250.59 243.15Z" fill="#2C3639"/>
<path d="M259.86 269.475C259.744 269.475 259.629 269.451 259.525 269.403C259.421 269.356 259.33 269.287 259.26 269.202L166.033 158.966C165.967 158.894 165.918 158.81 165.889 158.72C165.859 158.629 165.849 158.534 165.86 158.441C165.871 158.347 165.902 158.256 165.951 158.173C166.001 158.091 166.068 158.018 166.148 157.96C166.228 157.902 166.321 157.859 166.419 157.834C166.518 157.809 166.621 157.803 166.722 157.816C166.823 157.829 166.92 157.86 167.008 157.908C167.096 157.956 167.172 158.02 167.233 158.096L260.46 268.332C260.547 268.437 260.6 268.562 260.615 268.693C260.629 268.824 260.604 268.956 260.542 269.075C260.479 269.194 260.382 269.294 260.262 269.365C260.142 269.435 260.002 269.473 259.86 269.475V269.475Z" fill="#2C3639"/>
<path d="M234.466 254.808C234.34 254.808 234.216 254.779 234.105 254.724C233.994 254.669 233.899 254.59 233.83 254.492L165.997 158.915C165.942 158.838 165.904 158.751 165.885 158.66C165.866 158.569 165.867 158.475 165.887 158.384C165.908 158.293 165.947 158.207 166.003 158.13C166.06 158.054 166.132 157.988 166.216 157.937C166.3 157.886 166.393 157.851 166.492 157.833C166.59 157.816 166.692 157.817 166.79 157.835C166.888 157.854 166.981 157.891 167.064 157.943C167.147 157.995 167.218 158.062 167.273 158.139L235.106 253.717C235.216 253.873 235.255 254.064 235.214 254.247C235.173 254.43 235.056 254.591 234.888 254.695C234.761 254.768 234.615 254.807 234.466 254.808V254.808Z" fill="#2C3639"/>
<path d="M238.915 282.186C238.778 282.187 238.643 282.153 238.525 282.088C238.407 282.024 238.31 281.931 238.244 281.82L165.967 158.868C165.87 158.703 165.848 158.51 165.906 158.33C165.964 158.151 166.096 158 166.274 157.911C166.452 157.822 166.661 157.802 166.855 157.855C167.049 157.908 167.213 158.031 167.309 158.195L239.581 281.147C239.674 281.31 239.694 281.499 239.637 281.675C239.579 281.851 239.45 281.999 239.276 282.088C239.166 282.147 239.042 282.181 238.915 282.186V282.186Z" fill="#2C3639"/>
<path d="M216.485 263.851C216.337 263.852 216.191 263.813 216.067 263.737C215.943 263.662 215.846 263.554 215.789 263.428L165.956 158.812C165.875 158.64 165.87 158.446 165.944 158.271C166.017 158.097 166.162 157.956 166.348 157.881C166.533 157.805 166.744 157.801 166.932 157.869C167.121 157.937 167.273 158.071 167.355 158.243L217.187 262.863C217.23 262.949 217.254 263.041 217.257 263.135C217.26 263.229 217.243 263.323 217.207 263.41C217.17 263.498 217.115 263.578 217.044 263.646C216.974 263.714 216.889 263.767 216.795 263.804C216.697 263.841 216.591 263.857 216.485 263.851V263.851Z" fill="#2C3639"/>
<path d="M215.987 291.531C215.828 291.532 215.674 291.487 215.544 291.403C215.414 291.319 215.317 291.199 215.265 291.061L165.916 158.76C165.882 158.672 165.868 158.579 165.873 158.487C165.879 158.394 165.904 158.303 165.947 158.219C165.991 158.135 166.052 158.06 166.126 157.998C166.201 157.936 166.289 157.888 166.383 157.857C166.478 157.826 166.579 157.813 166.679 157.818C166.779 157.823 166.878 157.846 166.968 157.886C167.059 157.927 167.14 157.983 167.207 158.052C167.274 158.121 167.326 158.202 167.36 158.29L216.683 290.581C216.717 290.668 216.732 290.761 216.726 290.854C216.721 290.946 216.696 291.037 216.652 291.12C216.609 291.204 216.548 291.279 216.473 291.34C216.398 291.402 216.31 291.449 216.216 291.479C216.143 291.508 216.066 291.525 215.987 291.531V291.531Z" fill="#2C3639"/>
<path d="M197.132 270.025C196.962 270.026 196.798 269.974 196.664 269.877C196.53 269.781 196.436 269.646 196.395 269.494L165.885 158.699C165.836 158.518 165.866 158.326 165.969 158.166C166.072 158.006 166.239 157.889 166.434 157.843C166.63 157.797 166.838 157.825 167.012 157.92C167.187 158.015 167.313 158.17 167.365 158.351L197.874 269.146C197.924 269.327 197.894 269.518 197.791 269.679C197.688 269.839 197.52 269.955 197.325 270.002C197.262 270.017 197.197 270.025 197.132 270.025V270.025Z" fill="#2C3639"/>
<path d="M191.701 297.249C191.521 297.249 191.346 297.19 191.209 297.083C191.071 296.975 190.979 296.826 190.949 296.661L165.885 158.638C165.868 158.547 165.871 158.453 165.894 158.363C165.916 158.273 165.958 158.188 166.016 158.113C166.074 158.038 166.148 157.974 166.233 157.925C166.317 157.876 166.412 157.844 166.511 157.829C166.609 157.813 166.711 157.816 166.808 157.837C166.906 157.857 166.998 157.896 167.08 157.949C167.162 158.003 167.231 158.071 167.285 158.15C167.338 158.228 167.374 158.316 167.39 158.407L192.474 296.426C192.507 296.611 192.458 296.801 192.34 296.953C192.222 297.106 192.044 297.209 191.844 297.24L191.701 297.249Z" fill="#2C3639"/>
<path d="M176.95 273.162C176.759 273.161 176.575 273.093 176.434 272.973C176.293 272.854 176.205 272.69 176.187 272.513L165.875 158.586C165.858 158.399 165.923 158.213 166.054 158.07C166.185 157.927 166.372 157.837 166.574 157.822C166.777 157.806 166.977 157.866 167.132 157.987C167.287 158.108 167.384 158.281 167.401 158.468L177.728 272.396C177.737 272.488 177.726 272.581 177.696 272.67C177.666 272.758 177.617 272.84 177.552 272.911C177.487 272.982 177.408 273.04 177.319 273.083C177.229 273.125 177.132 273.15 177.032 273.158L176.95 273.162Z" fill="#2C3639"/>
<path d="M166.739 299.182C166.537 299.182 166.343 299.108 166.2 298.976C166.057 298.843 165.977 298.664 165.977 298.477L165.875 158.534C165.875 158.347 165.955 158.167 166.098 158.034C166.241 157.901 166.435 157.825 166.638 157.824C166.84 157.824 167.034 157.899 167.177 158.031C167.32 158.163 167.4 158.343 167.4 158.53L167.502 298.477C167.502 298.664 167.422 298.843 167.279 298.976C167.136 299.108 166.942 299.182 166.739 299.182V299.182Z" fill="#2C3639"/>
<path d="M156.483 273.172H156.417C156.216 273.155 156.03 273.066 155.9 272.923C155.769 272.78 155.705 272.596 155.721 272.41L165.89 158.468C165.898 158.376 165.926 158.286 165.971 158.203C166.017 158.12 166.08 158.047 166.157 157.987C166.233 157.927 166.322 157.882 166.418 157.854C166.513 157.826 166.614 157.816 166.714 157.824C166.915 157.841 167.101 157.93 167.232 158.073C167.362 158.215 167.426 158.4 167.411 158.586L157.241 272.527C157.226 272.703 157.139 272.867 156.999 272.987C156.858 273.106 156.674 273.172 156.483 273.172V273.172Z" fill="#2C3639"/>
<path d="M141.768 297.278C141.725 297.282 141.683 297.282 141.641 297.278C141.542 297.263 141.447 297.23 141.362 297.181C141.278 297.133 141.204 297.069 141.146 296.994C141.088 296.918 141.046 296.833 141.024 296.743C141.001 296.653 140.998 296.56 141.015 296.469L165.885 158.426C165.918 158.239 166.031 158.072 166.197 157.961C166.363 157.85 166.57 157.805 166.773 157.836C166.975 157.867 167.156 157.97 167.276 158.124C167.395 158.278 167.444 158.47 167.411 158.657L142.52 296.69C142.491 296.855 142.399 297.005 142.261 297.112C142.123 297.22 141.948 297.279 141.768 297.278V297.278Z" fill="#2C3639"/>
<path d="M136.291 270.063C136.227 270.062 136.164 270.054 136.103 270.039C136.006 270.017 135.914 269.977 135.834 269.921C135.754 269.866 135.686 269.797 135.635 269.717C135.584 269.638 135.551 269.549 135.537 269.458C135.523 269.366 135.528 269.273 135.554 269.183L165.895 158.355C165.92 158.265 165.963 158.181 166.023 158.106C166.082 158.032 166.157 157.969 166.243 157.922C166.329 157.874 166.424 157.842 166.524 157.829C166.623 157.815 166.724 157.82 166.821 157.842C166.918 157.865 167.009 157.905 167.09 157.96C167.17 158.015 167.238 158.085 167.29 158.164C167.341 158.244 167.375 158.332 167.39 158.423C167.404 158.515 167.399 158.609 167.375 158.698L137.049 269.531C137.006 269.686 136.908 269.823 136.77 269.92C136.633 270.016 136.464 270.067 136.291 270.063V270.063Z" fill="#2C3639"/>
<path d="M117.477 291.592C117.392 291.59 117.308 291.578 117.227 291.554C117.132 291.524 117.045 291.477 116.97 291.415C116.895 291.354 116.833 291.279 116.789 291.196C116.745 291.112 116.72 291.022 116.714 290.929C116.708 290.836 116.722 290.743 116.754 290.656L165.916 158.303C165.949 158.216 166.001 158.135 166.068 158.066C166.135 157.997 166.216 157.94 166.307 157.9C166.397 157.86 166.496 157.837 166.596 157.832C166.697 157.827 166.797 157.84 166.892 157.871C166.987 157.902 167.074 157.949 167.149 158.012C167.224 158.074 167.285 158.149 167.328 158.233C167.371 158.316 167.397 158.407 167.402 158.5C167.407 158.593 167.393 158.686 167.36 158.774L118.199 291.117C118.147 291.256 118.05 291.377 117.92 291.462C117.791 291.547 117.636 291.593 117.477 291.592V291.592Z" fill="#2C3639"/>
<path d="M116.933 263.912C116.827 263.913 116.723 263.892 116.627 263.851C116.533 263.815 116.448 263.761 116.377 263.694C116.306 263.626 116.25 263.546 116.214 263.458C116.177 263.37 116.16 263.276 116.164 263.182C116.168 263.088 116.192 262.995 116.236 262.91L165.936 158.229C165.976 158.142 166.035 158.064 166.108 157.999C166.181 157.934 166.267 157.884 166.362 157.85C166.457 157.816 166.558 157.8 166.659 157.803C166.761 157.806 166.861 157.827 166.953 157.866C167.046 157.904 167.129 157.958 167.199 158.026C167.269 158.094 167.324 158.174 167.36 158.261C167.397 158.349 167.414 158.442 167.411 158.536C167.409 158.629 167.386 158.721 167.345 158.807L117.629 263.508C117.568 263.63 117.469 263.733 117.345 263.805C117.222 263.877 117.078 263.914 116.933 263.912V263.912Z" fill="#2C3639"/>
<path d="M94.5383 282.276C94.4107 282.276 94.285 282.247 94.1722 282.191C93.9982 282.103 93.8688 281.954 93.8117 281.779C93.7547 281.603 93.7746 281.413 93.8671 281.251L165.966 158.195C166.063 158.031 166.226 157.908 166.42 157.855C166.614 157.802 166.823 157.822 167.001 157.911C167.179 158 167.312 158.151 167.369 158.33C167.427 158.51 167.405 158.703 167.309 158.868L95.2096 281.909C95.1433 282.02 95.0461 282.113 94.928 282.177C94.81 282.242 94.6754 282.276 94.5383 282.276V282.276Z" fill="#2C3639"/>
<path d="M98.9373 254.892C98.7895 254.892 98.6449 254.853 98.5203 254.779C98.4364 254.728 98.3642 254.663 98.3078 254.586C98.2514 254.509 98.2119 254.423 98.1916 254.332C98.1713 254.241 98.1705 254.148 98.1894 254.057C98.2083 253.965 98.2465 253.879 98.3017 253.801L165.997 158.139C166.109 157.983 166.282 157.873 166.481 157.835C166.679 157.798 166.886 157.834 167.055 157.937C167.224 158.04 167.342 158.201 167.383 158.384C167.424 158.568 167.385 158.759 167.274 158.915L99.578 254.572C99.5082 254.671 99.4131 254.751 99.3012 254.807C99.1894 254.863 99.0644 254.892 98.9373 254.892V254.892Z" fill="#2C3639"/>
<path d="M73.5734 269.588C73.4312 269.585 73.2925 269.547 73.1728 269.476C73.0531 269.405 72.957 269.304 72.8954 269.186C72.8337 269.067 72.8088 268.935 72.8234 268.805C72.8381 268.674 72.8918 268.549 72.9784 268.445L166.033 158.096C166.093 158.02 166.17 157.956 166.257 157.908C166.345 157.86 166.442 157.829 166.544 157.816C166.645 157.803 166.748 157.809 166.846 157.834C166.945 157.859 167.037 157.902 167.117 157.96C167.197 158.018 167.264 158.091 167.314 158.173C167.363 158.256 167.394 158.347 167.405 158.441C167.416 158.534 167.406 158.629 167.376 158.72C167.347 158.81 167.298 158.894 167.233 158.966L74.1784 269.315C74.1071 269.4 74.0154 269.47 73.9104 269.517C73.8055 269.564 73.6901 269.588 73.5734 269.588V269.588Z" fill="#2C3639"/>
<path d="M82.7976 243.248C82.6097 243.246 82.4291 243.181 82.2891 243.065C82.2156 243.002 82.1563 242.926 82.1145 242.842C82.0727 242.758 82.0492 242.667 82.0455 242.574C82.0417 242.482 82.0577 242.389 82.0925 242.302C82.1273 242.216 82.1803 242.136 82.2484 242.068L166.073 158.05C166.135 157.967 166.215 157.897 166.309 157.846C166.402 157.794 166.506 157.761 166.614 157.75C166.722 157.738 166.832 157.748 166.935 157.779C167.039 157.81 167.134 157.861 167.214 157.929C167.295 157.996 167.359 158.079 167.402 158.171C167.445 158.264 167.466 158.364 167.464 158.464C167.462 158.565 167.436 158.664 167.389 158.754C167.343 158.845 167.275 158.926 167.192 158.99L83.3569 243.023C83.2857 243.094 83.1992 243.151 83.1029 243.19C83.0066 243.229 82.9026 243.249 82.7976 243.248V243.248Z" fill="#2C3639"/>
<path d="M55.1815 253.872C55.029 253.87 54.8806 253.826 54.7555 253.745C54.6304 253.665 54.5343 253.551 54.4796 253.42C54.4248 253.288 54.414 253.144 54.4485 253.007C54.4829 252.87 54.5611 252.745 54.673 252.649L166.119 158.012C166.19 157.938 166.277 157.878 166.375 157.837C166.473 157.795 166.579 157.774 166.687 157.773C166.794 157.772 166.9 157.793 166.999 157.833C167.097 157.873 167.185 157.931 167.257 158.005C167.33 158.079 167.384 158.166 167.417 158.26C167.45 158.355 167.462 158.455 167.45 158.553C167.439 158.652 167.405 158.748 167.351 158.834C167.297 158.919 167.224 158.994 167.136 159.052L55.6899 253.689C55.5505 253.805 55.3695 253.87 55.1815 253.872V253.872Z" fill="#2C3639"/>
<path d="M68.9566 229.305C68.797 229.306 68.6411 229.26 68.511 229.174C68.3809 229.089 68.2831 228.968 68.2315 228.828C68.1798 228.688 68.1768 228.537 68.223 228.396C68.2692 228.254 68.3622 228.13 68.4888 228.04L166.165 157.97C166.246 157.913 166.338 157.872 166.436 157.848C166.534 157.824 166.637 157.818 166.737 157.831C166.838 157.843 166.935 157.874 167.022 157.922C167.11 157.969 167.187 158.032 167.248 158.106C167.31 158.181 167.355 158.266 167.38 158.357C167.406 158.448 167.413 158.542 167.399 158.635C167.385 158.728 167.352 158.818 167.301 158.899C167.249 158.98 167.182 159.051 167.101 159.108L69.4194 229.178C69.2837 229.265 69.1216 229.31 68.9566 229.305V229.305Z" fill="#2C3639"/>
<path d="M39.8044 235.564C39.6395 235.565 39.4788 235.516 39.3464 235.425C39.2141 235.334 39.1171 235.206 39.0702 235.06C39.0232 234.913 39.0287 234.757 39.0859 234.614C39.1431 234.471 39.2489 234.349 39.3875 234.266L166.221 157.942C166.303 157.874 166.399 157.824 166.504 157.794C166.609 157.764 166.719 157.756 166.828 157.769C166.936 157.782 167.041 157.817 167.134 157.87C167.226 157.924 167.306 157.996 167.366 158.081C167.426 158.165 167.466 158.261 167.482 158.361C167.499 158.461 167.492 158.564 167.462 158.661C167.432 158.759 167.38 158.849 167.308 158.926C167.237 159.003 167.149 159.065 167.05 159.108L40.2214 235.447C40.098 235.523 39.9529 235.564 39.8044 235.564V235.564Z" fill="#2C3639"/>
<path d="M57.7949 213.438C57.6248 213.439 57.4593 213.387 57.3247 213.291C57.1901 213.195 57.0941 213.06 57.052 212.907C57.0099 212.755 57.0242 212.594 57.0924 212.45C57.1607 212.305 57.2791 212.187 57.4288 212.112L166.272 157.904C166.449 157.824 166.652 157.811 166.84 157.866C167.028 157.922 167.185 158.043 167.278 158.204C167.371 158.364 167.394 158.552 167.341 158.728C167.288 158.903 167.163 159.053 166.994 159.146L58.1763 213.353C58.0591 213.411 57.9278 213.44 57.7949 213.438V213.438Z" fill="#2C3639"/>
<path d="M27.9262 215.159C27.752 215.158 27.5834 215.102 27.4486 215C27.3137 214.897 27.2207 214.756 27.1851 214.598C27.1494 214.44 27.1732 214.276 27.2526 214.133C27.3319 213.989 27.462 213.875 27.6211 213.809L166.333 157.885C166.425 157.848 166.523 157.828 166.624 157.826C166.724 157.825 166.823 157.841 166.917 157.875C167.01 157.909 167.095 157.959 167.167 158.024C167.239 158.088 167.297 158.165 167.337 158.249C167.377 158.334 167.399 158.426 167.401 158.518C167.402 158.611 167.385 158.703 167.348 158.789C167.311 158.876 167.257 158.954 167.187 159.021C167.118 159.088 167.035 159.141 166.943 159.178L28.2313 215.103C28.1348 215.14 28.031 215.16 27.9262 215.159V215.159Z" fill="#2C3639"/>
<path d="M49.6136 196.085C49.433 196.085 49.2585 196.025 49.121 195.917C48.9835 195.809 48.8919 195.659 48.8626 195.494C48.8334 195.329 48.8682 195.16 48.961 195.017C49.0538 194.874 49.1986 194.766 49.3695 194.712L166.389 157.857C166.58 157.795 166.791 157.805 166.974 157.886C167.157 157.968 167.298 158.113 167.365 158.29C167.433 158.467 167.421 158.661 167.333 158.831C167.246 159 167.089 159.13 166.897 159.193L49.8577 196.048C49.7795 196.074 49.6967 196.087 49.6136 196.085Z" fill="#2C3639"/>
<path d="M19.8461 193.226C19.6619 193.223 19.4849 193.159 19.3479 193.045C19.2109 192.931 19.1232 192.775 19.1008 192.606C19.0785 192.437 19.1232 192.266 19.2265 192.125C19.3298 191.984 19.4849 191.882 19.663 191.838L166.45 157.847C166.646 157.802 166.854 157.83 167.027 157.926C167.201 158.023 167.326 158.178 167.375 158.36C167.424 158.541 167.393 158.734 167.29 158.894C167.186 159.055 167.017 159.17 166.821 159.216L20.0342 193.207C19.9725 193.22 19.9094 193.226 19.8461 193.226Z" fill="#2C3639"/>
<path d="M44.6402 177.721C44.4379 177.736 44.2374 177.676 44.083 177.554C43.9285 177.432 43.8326 177.259 43.8164 177.072C43.8002 176.885 43.8651 176.699 43.9967 176.556C44.1283 176.414 44.3158 176.325 44.5181 176.31L166.511 157.819C166.713 157.789 166.92 157.835 167.086 157.946C167.252 158.057 167.363 158.224 167.395 158.412C167.428 158.599 167.378 158.79 167.258 158.943C167.138 159.097 166.957 159.2 166.755 159.23L44.7673 177.721C44.725 177.725 44.6824 177.725 44.6402 177.721Z" fill="#2C3639"/>
<path d="M15.7934 170.362C15.5911 170.369 15.3939 170.302 15.2451 170.175C15.0963 170.048 15.0082 169.871 15.0001 169.684C14.992 169.497 15.0646 169.315 15.2019 169.177C15.3393 169.04 15.5301 168.958 15.7324 168.951L166.577 157.829C166.779 157.814 166.979 157.874 167.134 157.996C167.288 158.117 167.384 158.291 167.4 158.478C167.417 158.665 167.352 158.85 167.22 158.993C167.089 159.136 166.901 159.225 166.699 159.24L15.8544 170.357L15.7934 170.362Z" fill="#2C3639"/>
<path d="M166.633 159.23L43.0132 158.854C42.8109 158.854 42.6169 158.779 42.4739 158.647C42.3308 158.515 42.2505 158.335 42.2505 158.148C42.2505 157.961 42.3308 157.782 42.4739 157.649C42.6169 157.517 42.8109 157.443 43.0132 157.443L166.633 157.819C166.835 157.819 167.029 157.893 167.172 158.026C167.315 158.158 167.396 158.337 167.396 158.524C167.396 158.712 167.315 158.891 167.172 159.023C167.029 159.156 166.835 159.23 166.633 159.23V159.23Z" fill="#2C3639"/>
<path d="M166.638 159.235H166.572L15.8138 147.187C15.6115 147.171 15.4244 147.081 15.2938 146.937C15.1631 146.793 15.0996 146.607 15.1171 146.42C15.1347 146.233 15.2318 146.06 15.3873 145.939C15.5427 145.819 15.7437 145.76 15.946 145.776L166.704 157.824C166.906 157.832 167.097 157.915 167.233 158.053C167.37 158.191 167.442 158.373 167.433 158.56C167.425 158.747 167.336 158.924 167.187 159.05C167.037 159.177 166.84 159.243 166.638 159.235Z" fill="#2C3639"/>
<path d="M166.633 159.23C166.591 159.235 166.548 159.235 166.506 159.23L44.6505 139.982C44.5504 139.967 44.4545 139.933 44.3683 139.883C44.2822 139.834 44.2074 139.769 44.1484 139.692C44.0894 139.616 44.0472 139.529 44.0243 139.438C44.0014 139.346 43.9982 139.252 44.0149 139.159C44.0316 139.066 44.0679 138.978 44.1216 138.898C44.1754 138.818 44.2456 138.749 44.3282 138.695C44.4108 138.64 44.5043 138.601 44.6032 138.58C44.7021 138.559 44.8046 138.556 44.9048 138.571L166.76 157.81C166.962 157.826 167.15 157.915 167.281 158.058C167.412 158.201 167.476 158.387 167.459 158.574C167.442 158.761 167.346 158.934 167.191 159.056C167.036 159.177 166.835 159.236 166.633 159.221V159.23Z" fill="#2C3639"/>
<path d="M166.638 159.235C166.574 159.242 166.509 159.242 166.445 159.235L19.9023 124.308C19.7165 124.253 19.5605 124.135 19.4662 123.977C19.3719 123.819 19.3466 123.634 19.3954 123.459C19.4442 123.285 19.5635 123.134 19.7287 123.038C19.8939 122.943 20.0925 122.909 20.2837 122.944L166.826 157.834C167.022 157.881 167.189 157.998 167.292 158.159C167.395 158.321 167.425 158.513 167.375 158.694C167.337 158.848 167.243 158.986 167.109 159.084C166.975 159.183 166.809 159.236 166.638 159.235V159.235Z" fill="#2C3639"/>
<path d="M166.633 159.23C166.548 159.231 166.463 159.219 166.383 159.193L49.6284 121.623C49.4369 121.56 49.2801 121.43 49.1923 121.261C49.1046 121.092 49.0932 120.897 49.1606 120.72C49.2281 120.543 49.3688 120.398 49.5519 120.317C49.735 120.235 49.9454 120.225 50.1369 120.287L166.892 157.862C167.06 157.918 167.201 158.027 167.291 158.17C167.381 158.314 167.414 158.481 167.383 158.644C167.353 158.807 167.262 158.955 167.126 159.062C166.989 159.17 166.817 159.229 166.638 159.23H166.633Z" fill="#2C3639"/>
<path d="M166.638 159.235C166.532 159.235 166.426 159.215 166.328 159.178L28.0179 102.403C27.8374 102.324 27.6974 102.183 27.6279 102.01C27.5584 101.837 27.5649 101.646 27.646 101.478C27.7272 101.309 27.8765 101.177 28.062 101.109C28.2475 101.041 28.4544 101.043 28.6383 101.114L166.948 157.885C167.108 157.951 167.238 158.065 167.317 158.209C167.397 158.353 167.42 158.518 167.384 158.676C167.347 158.834 167.254 158.976 167.118 159.077C166.982 159.179 166.813 159.235 166.638 159.235V159.235Z" fill="#2C3639"/>
<path d="M166.633 159.23C166.505 159.232 166.379 159.203 166.267 159.146L57.8203 104.275C57.6423 104.185 57.5102 104.033 57.4529 103.853C57.3957 103.673 57.4181 103.48 57.5152 103.315C57.6123 103.151 57.7762 103.028 57.9707 102.976C58.1653 102.923 58.3745 102.943 58.5526 103.033L166.999 157.909C167.146 157.985 167.262 158.103 167.328 158.246C167.395 158.39 167.408 158.549 167.366 158.7C167.324 158.851 167.23 158.985 167.097 159.081C166.964 159.176 166.801 159.229 166.633 159.23V159.23Z" fill="#2C3639"/>
<path d="M166.637 159.235C166.488 159.235 166.342 159.196 166.215 159.122L39.9263 82.0169C39.8367 81.9685 39.7587 81.9038 39.6971 81.8267C39.6354 81.7495 39.5915 81.6615 39.5679 81.5681C39.5443 81.4747 39.5415 81.3779 39.5597 81.2835C39.578 81.189 39.6169 81.099 39.674 81.019C39.7311 80.9389 39.8053 80.8705 39.892 80.8179C39.9787 80.7652 40.0761 80.7295 40.1783 80.7128C40.2804 80.6962 40.3851 80.699 40.4861 80.7211C40.587 80.7431 40.682 80.784 40.7653 80.8412L167.049 157.942C167.186 158.026 167.29 158.148 167.345 158.29C167.401 158.433 167.405 158.588 167.358 158.733C167.311 158.879 167.214 159.006 167.082 159.096C166.951 159.186 166.791 159.235 166.627 159.235H166.637Z" fill="#2C3639"/>
<path d="M166.633 159.23C166.462 159.231 166.297 159.178 166.165 159.08L68.9918 88.4124C68.9096 88.3564 68.8405 88.2857 68.7884 88.2045C68.7363 88.1233 68.7024 88.0333 68.6886 87.9398C68.6748 87.8462 68.6815 87.7511 68.7082 87.66C68.7349 87.5689 68.7811 87.4837 68.8441 87.4094C68.9071 87.3351 68.9855 87.2732 69.0748 87.2275C69.1641 87.1818 69.2624 87.1531 69.3639 87.1431C69.4654 87.1331 69.568 87.1421 69.6657 87.1695C69.7634 87.1969 69.8541 87.2421 69.9325 87.3025L167.105 157.975C167.228 158.066 167.318 158.19 167.361 158.33C167.405 158.47 167.4 158.619 167.348 158.757C167.297 158.894 167.2 159.014 167.072 159.099C166.944 159.183 166.79 159.229 166.633 159.23V159.23Z" fill="#2C3639"/>
<path d="M166.638 159.235C166.449 159.233 166.267 159.166 166.129 159.047L55.3236 63.7327C55.2341 63.6756 55.1589 63.6014 55.1029 63.5152C55.0469 63.429 55.0115 63.3327 54.9991 63.2327C54.9867 63.1328 54.9975 63.0316 55.0309 62.9359C55.0642 62.8401 55.1193 62.7521 55.1925 62.6777C55.2657 62.6032 55.3552 62.5442 55.455 62.5044C55.5549 62.4646 55.6628 62.445 55.7716 62.4469C55.8803 62.4488 55.9874 62.4723 56.0855 62.5156C56.1836 62.5589 56.2706 62.6212 56.3406 62.6981L167.156 158.017C167.23 158.08 167.289 158.156 167.331 158.24C167.373 158.324 167.396 158.415 167.4 158.508C167.404 158.6 167.388 158.693 167.353 158.779C167.318 158.866 167.265 158.946 167.197 159.014C167.125 159.084 167.038 159.139 166.942 159.177C166.846 159.215 166.742 159.235 166.638 159.235V159.235Z" fill="#2C3639"/>
<path d="M215.07 131.695L172.114 108.755V155.877L193.13 166.905L215.07 131.695Z" fill="#2C3639"/>
<path d="M171.042 59.707L127.488 130.739L171.042 107.483V59.707Z" fill="#2C3639"/>
<path d="M171.042 155.658V108.627L127.844 131.695L149.856 166.825L171.042 155.658Z" fill="#2C3639"/>
<path d="M173.148 200.96L214.145 179.068L193.528 168.251L173.148 200.96Z" fill="#2C3639"/>
<path d="M172.114 60.0972V107.61L215.431 130.739L172.114 60.0972Z" fill="#2C3639"/>
<path d="M215.212 133.454L194.064 167.391L215.212 178.489V133.454Z" fill="#2C3639"/>
<path d="M216.289 178.783C216.289 178.864 216.266 178.944 216.223 179.015L258.69 201.293L216.289 132.138V178.783Z" fill="#2C3639"/>
<path d="M171.369 156.627L150.392 167.685L171.573 201.491L192.594 167.764L171.369 156.627Z" fill="#2C3639"/>
<path d="M172.953 202.21H258.258L215.226 179.638L172.953 202.21Z" fill="#2C3639"/>
<path d="M127.702 178.497H127.706L148.921 167.317L127.702 133.445V178.497Z" fill="#2C3639"/>
<path d="M128.778 179.072L170.117 201.145L149.461 168.177L128.778 179.072Z" fill="#2C3639"/>
<path d="M126.625 178.783V132.138L84.1147 201.469L126.696 179.024C126.652 178.95 126.627 178.867 126.625 178.783V178.783Z" fill="#2C3639"/>
<path d="M84.8882 202.21H169.961L127.702 179.642L84.8882 202.21Z" fill="#2C3639"/>
<path d="M260.512 202.249L172.114 58.0836V57.8292H171.958L171.924 57.7766C171.879 57.6966 171.811 57.6297 171.727 57.5831C171.644 57.5364 171.548 57.5117 171.45 57.5117C171.352 57.5117 171.257 57.5364 171.173 57.5831C171.089 57.6297 171.021 57.6966 170.976 57.7766L82.2747 202.46C82.2272 202.535 82.2021 202.621 82.2021 202.708C82.2021 202.795 82.2272 202.88 82.2747 202.956C82.3229 203.032 82.3923 203.095 82.4757 203.138C82.5591 203.181 82.6534 203.203 82.749 203.201H260.175C260.265 203.2 260.353 203.178 260.431 203.137C260.509 203.095 260.575 203.037 260.622 202.966C260.67 202.895 260.697 202.815 260.701 202.732C260.706 202.648 260.688 202.566 260.649 202.491L260.716 202.346L260.512 202.249ZM172.114 60.0969L215.431 130.739L172.114 107.601V60.0969ZM194.064 167.391L215.212 133.454V178.489L194.064 167.391ZM214.145 179.068L173.148 200.96L193.542 168.251L214.145 179.068ZM172.114 108.755L215.07 131.695L193.13 166.904L172.114 155.877V108.755ZM171.042 59.7065V107.483L127.488 130.73L171.042 59.7065ZM127.844 131.691L171.042 108.627V155.658L149.856 166.817L127.844 131.691ZM148.921 167.317L127.707 178.497V133.445L148.921 167.317ZM126.63 132.138V178.783C126.632 178.869 126.656 178.953 126.701 179.028L84.1149 201.469L126.63 132.138ZM84.8928 202.21L127.707 179.642L169.966 202.21H84.8928ZM128.788 179.072L149.467 168.176L170.127 201.144L128.788 179.072ZM150.396 167.668L171.374 156.61L192.599 167.747L171.583 201.473L150.396 167.668ZM172.973 202.21L215.246 179.633L258.278 202.21H172.973ZM216.242 179.015C216.285 178.944 216.308 178.864 216.308 178.783V132.138L258.709 201.293L216.242 179.015Z" fill="#367D83"/>
</g>
</svg>
