<svg width="187" height="214" viewBox="0 0 187 214" fill="none" xmlns="http://www.w3.org/2000/svg">
<path d="M103.218 83.7842C101.581 82.2701 99.8038 80.9056 98.1471 79.4075C94.8136 76.3863 91.5304 73.3239 88.217 70.2867C86.5 68.7063 84.7831 67.1249 83.046 65.5686C82.3633 64.9611 81.6303 64.4038 80.8973 63.8466C78.9494 62.3405 76.9814 60.8425 75.0336 59.3364C74.7825 59.1526 74.5718 58.9367 74.3408 58.7289V58.7369C74.381 58.9619 74.391 59.1948 74.4512 59.4107C74.8729 60.967 76.0678 62.0985 76.7305 63.5223C77.4233 64.5203 78.106 65.5194 78.8089 66.5094C80.7066 69.1802 82.7146 71.7847 84.5219 74.5228C86.279 77.1936 87.8354 79.9899 89.482 82.736C90.6969 84.7501 91.8918 86.7713 93.1268 88.7684C93.7292 89.7594 94.3919 90.7082 95.0245 91.6812C98.5989 89.9421 102.093 88.2613 105.637 86.5384C104.864 85.6397 104.131 84.6246 103.218 83.7842Z" fill="#73A9AD"/>
<path d="M134.756 89.8426C135.76 90.0916 136.754 90.2754 137.758 90.4912C138.963 90.7412 140.158 90.9993 141.363 91.2563H141.373V91.2483C143.933 91.8226 146.474 92.405 149.034 92.9713C150.239 93.2454 151.444 93.4783 152.729 93.7534C153.05 92.8297 153.231 92.0224 153.602 91.3065C154.767 89.0263 156.012 86.7882 157.207 84.5251C158.482 82.1033 159.747 79.6735 161.002 77.2436C161.474 76.3279 161.896 75.3962 162.338 74.4644C162.267 74.4142 162.207 74.364 162.127 74.3148C159.848 75.1803 157.659 76.2536 155.55 77.4766L155.56 77.4846C148.221 81.2709 140.871 85.0161 133.602 89.2934C134.114 89.5424 134.425 89.7593 134.756 89.8426Z" fill="#73A9AD"/>
<path d="M124.023 142.15C124.013 142.158 124.013 142.167 124.003 142.175C123.973 142.241 123.963 142.317 123.942 142.383C123.912 142.358 123.862 142.325 123.832 142.3C123.882 142.259 123.942 142.216 124.003 142.175C124.003 142.167 124.003 142.15 124.013 142.142V142.134C124.033 142.059 124.053 141.975 124.083 141.901C124.063 141.983 124.043 142.067 124.023 142.15ZM132.748 90.6408C131.814 92.1639 130.76 93.6118 129.816 95.1349C128.039 98.0216 126.282 100.909 124.585 103.847C122.788 106.959 121.071 110.122 119.344 113.283C119.093 113.757 118.832 114.232 118.581 114.706C117.687 116.379 116.814 118.069 115.94 119.749C115.8 120.032 115.699 120.382 115.709 120.689C115.759 121.397 115.87 122.104 116 122.803C116.553 125.566 117.145 128.312 117.677 131.074C118.079 133.139 118.38 135.219 118.761 137.29C119.023 138.763 119.374 140.219 119.625 141.692C119.926 143.565 120.167 145.445 120.438 147.326C120.438 147.392 120.438 147.46 120.438 147.526C120.589 149.107 120.75 150.68 120.91 152.36C121.211 152.269 121.553 152.203 121.884 152.086C124.013 151.329 125.941 150.147 127.858 148.999C130.248 147.568 132.537 145.995 134.907 144.531C136.624 143.473 138.451 142.658 140.349 141.975C141.554 141.543 142.718 141.044 143.893 140.536C144.154 140.419 144.415 140.161 144.556 139.904C145.188 138.738 145.811 137.556 146.413 136.376C146.504 136.209 146.594 136.042 146.674 135.876C148.281 132.747 149.867 129.61 151.494 126.481C152.257 124.992 153.11 123.544 153.863 122.046C154.617 120.581 155.299 119.084 156.022 117.602C156.976 115.655 157.97 113.724 158.914 111.769C159.034 111.519 159.024 111.129 158.924 110.862C158.251 109.081 157.538 107.317 156.835 105.561C155.741 102.848 154.627 100.144 153.532 97.4393V97.4312C153.141 96.7736 152.749 96.1249 152.357 95.4673C152.287 95.5426 152.227 95.6089 152.157 95.6842C152.147 95.7002 152.126 95.7082 152.106 95.7253C151.926 96.0998 151.735 96.4573 151.554 96.8318C151.554 96.8408 151.564 96.8489 151.564 96.8569H151.554C151.544 96.8649 151.544 96.8649 151.534 96.8649C150.932 98.0969 150.379 99.362 149.707 100.56C148.361 102.974 146.976 105.369 145.58 107.75C144.194 110.088 142.779 112.41 141.373 114.731C138.853 118.909 136.333 123.094 133.772 127.255C132.437 129.427 131.031 131.549 129.646 133.688C128.18 135.967 126.704 138.239 125.218 140.502C125.077 140.735 124.836 140.91 124.635 141.11C124.635 141.127 124.635 141.135 124.635 141.152C124.615 141.16 124.595 141.177 124.585 141.185C124.525 141.294 124.454 141.401 124.384 141.509C124.344 141.476 124.304 141.443 124.274 141.401C124.374 141.327 124.485 141.259 124.585 141.185C124.595 141.168 124.595 141.16 124.615 141.143V141.135C124.625 141.127 124.635 141.119 124.635 141.11C124.685 140.861 124.685 140.594 124.786 140.386C126.583 137.182 128.39 133.979 130.198 130.775V130.767C130.891 129.576 131.563 128.378 132.266 127.197C133.049 125.907 133.832 124.625 134.626 123.344C135.569 121.813 136.543 120.29 137.477 118.758C139.084 116.138 140.67 113.5 142.277 110.879C143.2 109.398 144.164 107.95 145.088 106.477C146.704 103.913 148.311 101.334 149.938 98.7706C150.319 98.1722 150.731 97.5888 151.153 97.0236C151.223 96.9322 151.404 96.9071 151.534 96.8649C151.534 96.8569 151.544 96.8569 151.544 96.8489C151.544 96.8408 151.554 96.8408 151.554 96.8318C151.313 96.2414 151.755 96.0004 152.106 95.7253C152.116 95.7002 152.136 95.6842 152.146 95.6591C152.207 95.5918 152.277 95.5175 152.337 95.4422C152.136 95.1932 151.966 94.8267 151.705 94.7353C150.881 94.4441 150.008 94.2604 149.164 94.0526C146.182 93.3206 143.2 92.6047 140.238 91.8728C139.736 91.7482 139.254 91.5896 138.762 91.448H138.752C137.126 91.3316 135.559 91.0484 134.114 90.2753C133.511 89.95 133.14 90.0082 132.748 90.6408Z" fill="#73A9AD"/>
<path d="M114.263 189.981C117.807 189.349 121.351 188.733 124.886 188.001C126.341 187.693 127.767 187.127 129.183 186.62C130.88 186.012 132.537 185.288 134.243 184.697C136.764 183.824 139.123 182.634 141.372 181.202C143.571 179.812 145.64 178.273 147.457 176.41C147.768 176.085 148.059 175.744 148.461 175.294C148.541 175.76 148.601 176.06 148.632 176.367C148.742 177.624 149.294 178.656 150.298 179.405C151.493 180.312 152.718 181.169 153.933 182.043C153.933 182.043 153.933 182.034 153.943 182.043C155.158 183.166 156.473 184.223 157.618 185.421C158.833 186.703 159.526 188.284 159.415 190.09C159.335 191.321 158.582 192.295 157.879 193.236C157.477 193.76 157.056 194.251 156.604 194.708C155.258 196.097 153.692 197.23 152.015 198.228C150.931 198.885 149.847 199.534 148.732 200.134C146.292 201.457 143.812 202.68 141.182 203.586C141.172 203.596 141.171 203.596 141.161 203.596C139.866 204.016 138.581 204.469 137.286 204.901C136.422 205.188 135.559 205.465 134.685 205.717C133.38 206.095 132.055 206.415 130.689 206.624C128.159 207.023 125.659 207.523 123.139 207.989C121.04 208.388 118.942 208.797 116.843 209.229C115.939 209.416 115.026 209.57 114.112 209.699C111.371 210.088 108.61 210.254 105.849 210.435C103.509 210.577 101.18 210.726 98.8503 210.901C97.6756 210.988 96.5109 211.151 95.3462 211.24C94.9546 211.271 94.563 211.293 94.1714 211.301C93.8401 211.309 93.5087 211.303 93.1774 211.288C92.5147 211.256 91.852 211.19 91.1893 211.13C90.858 211.1 90.5266 211.072 90.1953 211.051C89.3017 210.993 88.4081 210.943 87.5145 210.892C86.6209 210.841 85.7273 210.789 84.8337 210.726C81.952 210.519 79.0703 210.286 76.1886 210.061C74.7629 209.953 73.3171 209.919 71.9114 209.711C71.078 209.595 70.2547 209.439 69.4414 209.273C68.6181 209.108 67.8048 208.933 66.9815 208.779C65.5658 208.513 64.15 208.271 62.7342 208.005C62.1218 207.889 61.4993 207.771 60.8868 207.654C59.6518 207.42 58.4168 207.181 57.1818 206.938C56.5593 206.818 55.9469 206.699 55.3344 206.575C54.6918 206.449 54.0592 206.325 53.4267 206.184C52.7941 206.043 52.1615 205.888 51.539 205.701C49.9525 205.234 48.4063 204.644 46.84 204.12C46.3379 203.953 45.8259 203.805 45.3239 203.651C44.8118 203.495 44.3098 203.333 43.8178 203.138C42.5527 202.647 41.2975 202.105 40.0927 201.49C38.446 200.633 36.8195 199.718 35.213 198.777C33.1948 197.587 31.2972 196.256 29.6806 194.6C29.1385 194.042 28.6264 193.451 28.1545 192.811C26.568 190.68 26.5681 188.966 27.9737 186.554C28.9376 184.93 30.3132 183.757 31.7691 182.659C32.984 181.727 34.3094 180.936 35.5042 179.971C36.6287 179.055 37.7031 178.032 37.7633 176.401C37.7834 176.118 37.8938 175.835 37.954 175.585C39.3597 176.817 40.6851 178.115 42.141 179.23C44.6311 181.12 47.2517 182.826 50.2237 183.907C52.2519 184.656 54.26 185.496 56.2681 186.287C56.6397 186.428 57.0212 186.528 57.3927 186.645V186.636C58.5373 187.002 59.6619 187.402 60.8165 187.701C62.8246 188.209 64.8227 188.7 66.8509 189.108C68.8891 189.516 70.9374 189.815 72.9757 190.131C73.2668 190.181 73.5982 190.073 73.8994 190.032C71.9415 189.291 70.0037 188.5 68.0257 187.851C66.1481 187.235 64.2203 186.82 62.3427 186.237C61.3286 185.921 60.3747 185.446 59.3907 185.038L59.4108 185.013L59.3706 185.03V185.038C58.7782 184.764 58.1758 184.506 57.5834 184.231C57.5232 184.231 57.4429 184.231 57.3826 184.231C55.003 183.316 52.5832 182.517 50.2839 181.452C48.2958 180.536 46.3882 179.43 44.5708 178.207C43.0949 177.208 41.7695 175.96 40.4542 174.737C39.2895 173.646 38.4761 172.274 38.0343 170.726C37.7432 169.702 37.4621 168.67 37.1709 167.638C37.2613 167.572 37.3316 167.506 37.4119 167.447C38.185 167.963 38.9381 168.496 39.7011 169.004C42.3619 170.759 44.9825 172.573 47.7035 174.229C51.1073 176.309 54.8022 177.815 58.4871 179.321C60.8868 180.295 63.2665 181.344 65.7264 182.193C67.5438 182.826 69.4715 183.191 71.3391 183.682C74.6625 184.556 78.0362 185.03 81.45 185.421C84.673 185.787 87.886 186.028 91.119 186.046C95.7478 186.062 100.387 186.003 104.975 185.43C106.29 185.263 107.586 184.964 108.891 184.689C109.102 184.648 109.323 184.598 109.534 184.556C111.712 184.132 113.891 183.773 116.04 183.258C119.966 182.3 123.912 181.411 127.607 179.688C129.303 178.898 131.071 178.265 132.757 177.458C134.515 176.617 136.232 175.702 137.918 174.737C139.515 173.83 141.051 172.823 142.607 171.849L142.547 171.841H142.587C143.652 171.142 144.736 170.468 145.78 169.736C146.744 169.053 147.658 168.296 148.601 167.589C148.722 167.488 148.893 167.463 149.134 167.372C149.083 168.845 148.642 170.151 148.099 171.408C146.774 174.512 144.284 176.542 141.553 178.323C140.599 178.947 139.675 179.614 138.691 180.187C137.888 180.662 137.035 181.027 136.191 181.436C136.121 181.436 136.051 181.436 135.98 181.436C134.856 181.902 133.741 182.384 132.617 182.834C130.518 183.682 128.44 184.573 126.331 185.347C124.635 185.97 122.887 186.453 121.171 187.002C119.012 187.685 116.853 188.342 114.714 189.058C114.012 189.291 113.359 189.673 112.686 189.989C113.218 189.989 113.751 190.073 114.263 189.981ZM158.251 195.157C158.271 195.157 158.281 195.149 158.291 195.157C158.301 195.165 158.311 195.174 158.311 195.191C158.291 195.182 158.271 195.174 158.251 195.157ZM10.7641 130.675C10.8143 130.641 10.8545 130.608 10.8946 130.575C10.8946 130.633 10.8946 130.7 10.8946 130.758C10.8545 130.733 10.8143 130.7 10.7641 130.675ZM174.316 53.4774C174.326 53.4694 174.356 53.4694 174.376 53.4694C174.356 53.4865 174.326 53.5026 174.305 53.5196C174.305 53.5026 174.306 53.4865 174.316 53.4774ZM12.6919 107.798C12.6819 107.711 12.8325 107.691 12.8425 107.777C13.6257 112.801 15.0514 117.741 17.0997 122.397C19.148 127.044 21.7486 131.23 24.6603 135.369C25.0519 135.919 24.1683 136.595 23.7366 136.085C17.16 128.271 13.5253 117.885 12.6919 107.798ZM95.1855 151.961C94.3822 149.623 93.5388 147.293 92.7556 144.946C92.1733 143.232 91.6813 141.492 91.0989 139.778C90.5768 138.256 89.9845 136.766 89.4523 135.243C88.6692 132.972 87.906 130.684 87.1329 128.403C85.8577 124.642 84.5927 120.889 83.3276 117.128C83.0866 116.404 82.8958 115.672 82.6548 114.956C82.5946 114.756 82.4339 114.59 82.3134 114.407C81.7813 112.809 81.2491 111.211 80.727 109.613V109.605V109.597C80.4459 108.532 80.1547 107.459 79.8636 106.401C79.3415 104.488 78.8193 102.566 78.2872 100.651C78.2169 100.369 78.0562 100.119 77.9358 99.8439V99.8359C77.9759 99.7947 78.0261 99.7446 78.0563 99.7034C78.0261 99.6783 77.9759 99.6612 77.9358 99.6361C77.8253 99.0126 77.6948 98.3961 77.5743 97.7224C78.0262 97.5557 78.4679 97.398 78.9298 97.2314C78.9298 97.2314 78.9398 97.2394 78.9498 97.2394C80.9379 96.5657 82.9058 95.8418 84.914 95.2263C86.1891 94.8437 87.5145 94.6269 88.8198 94.3276C90.2657 94.0023 91.6914 93.6619 93.1373 93.3457C94.4727 93.0545 94.7538 93.2041 95.045 94.5686C95.5872 97.0647 96.0992 99.5779 96.6013 102.083C97.2238 105.07 97.8362 108.057 98.4286 111.053C98.9206 113.566 99.3624 116.088 99.8544 118.593C100.427 121.455 101.039 124.309 101.611 127.171C101.913 128.695 102.144 130.226 102.455 131.74C102.887 133.887 103.369 136.034 103.831 138.173C103.981 138.897 104.132 139.621 104.272 140.345V140.353H104.262C104.664 142.392 105.065 144.422 105.457 146.452C106.039 149.398 106.612 152.335 107.234 155.481C103.6 155.597 100.055 155.714 96.4005 155.83C96.0189 154.615 95.6273 153.284 95.1855 151.961ZM77.996 101.567L78.0061 101.517L78.0563 101.559L77.996 101.567ZM77.3333 144.871C76.6506 142.666 76.038 140.444 75.3854 138.231C74.2709 134.395 73.1364 130.558 72.0319 126.714C71.309 124.209 70.6462 121.688 69.9133 119.191C69.2506 116.945 68.5076 114.731 67.8449 112.484C67.2927 110.595 66.7906 108.682 66.2987 106.776C66.138 106.16 66.4995 105.411 67.1421 104.87C67.3228 104.713 67.5236 104.579 67.7445 104.463C70.1342 103.215 72.1424 101.45 74.2609 99.8359C75.0441 99.2455 75.8975 98.7545 76.8012 98.1631C77.1727 99.62 77.5241 100.942 77.8554 102.283C78.2772 103.997 78.6185 105.736 79.1004 107.442C80.0844 110.871 81.1085 114.282 82.1628 117.685C83.0163 120.415 83.94 123.111 84.8236 125.824C85.918 129.202 87.0225 132.58 88.117 135.951C88.137 136.034 88.2374 136.101 88.2977 136.167H88.3077C88.9202 138.056 89.4824 139.953 90.1351 141.826C91.099 144.522 92.1231 147.201 93.0971 149.889C93.6292 151.304 94.1212 152.727 94.6333 154.15C94.8642 154.79 95.1253 155.431 95.3964 156.139C94.7739 156.321 94.1312 156.554 93.4786 156.696C93.3983 156.713 93.318 156.721 93.2377 156.721C92.9967 156.721 92.7456 156.663 92.5247 156.579C90.6873 155.931 88.7695 155.789 86.8518 155.706C84.9039 155.623 82.9561 155.631 80.9981 155.581C80.7572 155.581 80.4961 155.481 80.1748 155.415C79.9338 154.374 79.6226 153.326 79.4719 152.261C79.1105 149.69 78.0864 147.318 77.3333 144.871ZM49.0489 139.004C47.8541 136.159 46.6693 133.313 45.5648 130.434C44.8921 128.687 44.4002 126.864 43.8379 125.083C43.0346 122.579 42.2615 120.057 41.4081 117.569C41.147 116.829 41.3377 116.371 41.8398 115.863C42.5225 115.164 43.145 114.415 43.7776 113.666C43.8579 113.574 43.8077 113.392 43.8077 113.242C44.119 112.951 44.4905 112.693 44.7616 112.352C46.9203 109.714 49.31 107.292 51.78 104.938C52.041 104.679 52.2519 104.363 52.5029 104.063C53.6476 105.278 54.1094 106.642 54.6315 107.991C56.0372 111.594 57.5433 115.156 58.9791 118.742C59.8828 121.014 60.7262 123.303 61.6198 125.582C62.3327 127.396 63.1058 129.194 63.8086 131.016C64.8829 133.779 65.9071 136.55 66.9815 139.313C67.7145 141.21 68.4976 143.091 69.2506 144.979C70.1643 147.276 71.0579 149.573 71.9616 151.861C72.2729 152.635 72.6042 153.401 73.0259 154.416C71.7005 154.15 70.6262 153.934 69.5418 153.709H69.5317C67.2626 153.185 65.0738 152.402 62.9652 151.421C61.2985 150.646 59.7221 149.656 58.1257 148.733C57.1316 148.158 56.1677 147.534 55.1938 146.91C54.0592 146.169 52.9347 145.412 51.8202 144.647C51.6093 144.497 51.3985 144.289 51.298 144.064C50.5249 142.383 49.7518 140.702 49.0489 139.004ZM64.6521 95.5335C64.632 95.5335 64.6018 95.5335 64.5917 95.5174C64.5917 95.5094 64.5818 95.4924 64.5717 95.4843C64.6019 95.4924 64.6219 95.5175 64.6521 95.5335ZM41.167 106.912C40.8257 109.011 40.4742 111.307 39.691 113.289C39.5404 113.657 39.0284 113.604 38.9983 113.196C38.8377 111.073 39.1991 108.787 39.4902 106.686C39.7915 104.578 40.2032 102.485 40.5847 100.39C41.3679 96.0857 42.3016 91.8215 43.1752 87.5372C43.1952 87.4368 43.3659 87.4589 43.3559 87.5613C42.9141 91.9038 42.5325 96.2464 42.0004 100.582C41.7393 102.693 41.4984 104.811 41.167 106.912ZM41.2072 115.763C41.2072 115.771 41.2072 115.779 41.2072 115.788L41.1971 115.779C41.1971 115.771 41.1972 115.771 41.2072 115.763C41.2273 115.688 41.2474 115.605 41.2775 115.53C41.2976 115.546 41.3277 115.555 41.3477 115.564C41.2975 115.63 41.2474 115.697 41.2072 115.763ZM44.5306 86.7299L44.5206 86.7801L44.4804 86.747L44.5306 86.7299ZM46.0066 88.3274L45.9865 88.3946L45.9062 88.3525L46.0066 88.3274ZM50.1434 105.652C50.1133 105.652 50.0731 105.644 50.043 105.644C50.043 105.611 50.053 105.586 50.0631 105.553C50.0932 105.561 50.1232 105.553 50.1333 105.561C50.1333 105.586 50.1333 105.619 50.1434 105.652ZM49.3401 93.7453C48.4365 91.7813 47.6633 89.7592 46.8099 87.7701C46.6392 87.3876 46.4083 87.0291 46.2074 86.6636H46.1974C45.9866 86.2891 45.8158 85.8815 45.5347 85.5562C45.2736 85.2569 45.1632 85.016 45.3841 84.6746H45.3942C46.7798 85.4648 48.1955 86.2219 49.5509 87.0713C51.6394 88.3856 53.6977 89.7592 55.756 91.1317C57.4027 92.2221 59.0494 93.3035 60.6358 94.4602C61.8407 95.3257 62.9652 96.2916 64.0998 97.2485C64.2805 97.4061 64.411 97.7555 64.3909 98.0055C64.3006 99.6361 64.17 101.259 64.0395 102.982C62.9752 102.915 61.9511 102.857 60.9269 102.782C59.1497 102.665 57.3826 102.424 55.6054 102.44C54.029 102.466 53.1154 101.983 52.5029 100.418C51.6093 98.13 50.3643 95.9833 49.3401 93.7453ZM77.3935 65.0191L77.4538 65.0031L77.4437 65.0442L77.3935 65.0191ZM78.1366 96.8318C78.1366 96.8237 78.1366 96.8237 78.1366 96.8157C77.9358 96.8318 77.7349 96.8488 77.3333 96.8739C77.3333 95.9331 77.3333 95.0094 77.3333 94.0696V94.0606C77.3534 94.0365 77.3836 94.0194 77.3735 93.9943C77.3635 93.9531 77.3534 93.911 77.3333 93.8698C77.3333 93.8618 77.3333 93.8527 77.3333 93.8447C77.3534 90.7994 77.0522 87.7782 76.7209 84.7579C76.3494 81.3461 75.9879 77.9424 75.6465 74.5306C75.516 73.2574 75.4256 71.9763 75.3152 70.7031C75.3052 70.6368 75.2147 70.5696 75.1545 70.5113C75.0942 68.9139 75.024 67.3164 74.9638 65.7099C74.9537 65.5191 74.9537 65.3193 74.9537 65.1276C74.9537 65.0613 74.9537 64.986 74.9437 64.9197C74.8734 63.7962 74.8131 62.6646 74.7328 61.533C74.7328 61.5159 74.7328 61.4909 74.7328 61.4748C74.7328 61.4909 74.7328 61.5159 74.7429 61.533C75.0039 61.7991 75.265 62.0652 75.526 62.3403L75.536 62.3483C76.1886 63.4799 76.8714 64.6034 77.5341 65.735L77.5441 65.727C77.7249 66.0684 77.8755 66.4258 78.0864 66.7421C78.7892 67.8074 79.5222 68.8637 80.2451 69.929C81.5303 71.8267 82.8556 73.6902 84.0705 75.629C85.5264 77.9595 86.902 80.3471 88.2876 82.7187C89.0808 84.0671 89.7937 85.4648 90.617 86.7962C91.6311 88.477 92.7055 90.1246 93.8401 91.9058C93.6293 92.0143 93.4385 92.18 93.2176 92.2382C91.2797 92.7543 89.3319 93.2202 87.4141 93.7694C85.2353 94.3859 83.0866 95.0516 80.9278 95.7424C79.974 96.0416 79.0703 96.4663 78.1366 96.8318ZM95.9988 96.9573H95.9486L95.9787 96.9151L95.9988 96.9573ZM95.0249 91.6809C94.3923 90.708 93.7296 89.7592 93.1272 88.7681C91.8922 86.7711 90.6974 84.7499 89.4824 82.7358C87.8358 79.9897 86.2795 77.1934 84.5223 74.5226C82.715 71.7845 80.707 69.1799 78.8093 66.5091C78.1065 65.5191 77.4237 64.5201 76.7309 63.5221C76.0682 62.0983 74.8733 60.9667 74.4516 59.4104C74.3914 59.1946 74.3814 58.9616 74.3412 58.7367V58.7287C74.5722 58.9365 74.783 59.1524 75.034 59.3361C76.9819 60.8422 78.9499 62.3403 80.8977 63.8464C81.6307 64.4036 82.3637 64.9609 83.0465 65.5683C84.7835 67.1246 86.5004 68.706 88.2174 70.2864C91.5308 73.3237 94.814 76.3861 98.1475 79.4073C99.8042 80.9054 101.581 82.2699 103.218 83.784C104.132 84.6244 104.865 85.6395 105.638 86.5381C102.093 88.2611 98.5993 89.9419 95.0249 91.6809ZM72.3632 67.2331C72.5841 66.2762 72.815 65.3274 73.046 64.3705C73.1162 64.0954 73.2066 63.8293 73.4476 63.5803C73.4677 63.746 73.5078 63.9126 73.5179 64.0793C73.6986 67.6739 73.8291 71.2684 74.05 74.8639C74.2408 77.7847 74.4818 80.7056 74.7931 83.6173C75.1646 87.0131 75.6565 90.3827 76.0882 93.7694C76.2188 94.7262 76.3493 95.6921 76.5301 96.649C76.6305 97.2153 76.2188 97.3729 75.8874 97.631C74.4817 98.7214 73.0961 99.8359 71.6704 100.909C70.1141 102.091 68.5277 103.24 66.8509 104.488C66.7204 104.579 66.5899 104.68 66.4594 104.779C66.3188 104.412 66.2184 104.263 66.2284 104.121C66.3088 102.566 66.3388 101.001 66.5196 99.4534C66.9111 96.0004 67.3328 92.5464 67.8549 89.1015C68.1863 86.9217 68.7185 84.766 69.1502 82.6022C69.7025 79.823 70.2246 77.0437 70.8069 74.2725C71.2989 71.9261 71.8411 69.5796 72.3632 67.2331ZM73.3171 62.756C73.3472 62.7058 73.3673 62.6566 73.3874 62.5983C73.4376 62.9226 73.4677 63.1134 73.5079 63.3052C73.4677 63.3132 73.4275 63.3303 73.3874 63.3474C73.3271 63.247 73.2167 63.1556 73.2067 63.0552C73.1966 62.9809 73.2468 62.8975 73.3171 62.756ZM72.9958 60.4848C72.9857 60.4677 73.0259 60.4506 73.0561 60.4265C73.0761 60.4848 73.0962 60.534 73.1063 60.5842C73.1063 60.6012 73.066 60.6254 73.046 60.6424C73.0259 60.5922 73.0058 60.543 72.9958 60.4848ZM36.2973 33.0679C40.3738 29.0868 45.0628 25.6298 50.0229 22.8235C52.5431 21.3947 55.1436 20.0904 57.8244 18.9779C60.445 17.8895 63.2062 16.769 66.0276 16.3563C66.4192 16.3001 66.7405 16.8363 66.3188 17.0451C63.4773 18.489 60.4149 19.5171 57.5332 20.9007C52.3523 23.3817 47.4726 26.2654 42.7936 29.5898C38.195 32.8621 33.6366 36.559 29.8212 40.7359C29.7107 40.8544 29.55 40.6817 29.6504 40.5612C31.769 37.9778 33.9077 35.4094 36.2973 33.0679ZM77.6445 155.364V155.423L77.5943 155.39L77.6445 155.364ZM75.7569 154.882C75.5059 154.823 75.2047 154.524 75.0842 154.266C74.1805 152.186 73.2769 150.105 72.4335 148C71.2889 145.179 70.2245 142.342 69.0799 139.529C68.2465 137.498 67.3027 135.51 66.4694 133.479C65.7866 131.798 65.2043 130.076 64.5215 128.395C63.6781 126.356 62.7644 124.351 61.911 122.312C60.7965 119.649 59.7121 116.97 58.6277 114.29C57.3325 111.12 56.0673 107.95 54.7621 104.779C54.5914 104.363 54.2902 103.997 53.9789 103.498C55.0231 103.498 55.9267 103.448 56.8304 103.506C58.8285 103.639 60.8266 103.814 62.8246 103.989C64.1199 104.105 63.9592 104.13 64.0395 105.212C64.1901 107.092 64.3307 108.965 65.0637 110.779C65.877 112.751 66.4192 114.832 67.0116 116.878C67.7044 119.275 68.2868 121.696 68.9896 124.085C69.8431 127.006 70.8069 129.892 71.6604 132.813C72.2929 135.002 72.7649 137.24 73.3874 139.437C74.0802 141.859 74.8231 144.273 75.6063 146.668C76.1385 148.316 76.8112 149.922 77.3534 151.562C77.7651 152.76 78.0864 153.983 78.478 155.314C77.5743 155.173 76.6606 155.073 75.7569 154.882ZM113.339 115.672C111.612 111.172 110.688 106.474 109.654 101.778C108.65 97.1902 107.766 92.6007 107.315 87.9278C107.304 87.8655 107.395 87.8625 107.415 87.9137C109.021 92.441 110.186 97.0788 111.25 101.766C112.285 106.357 113.399 110.912 113.751 115.617C113.761 115.869 113.419 115.874 113.339 115.672ZM114.022 118.804C114.795 123.667 115.729 128.511 116.552 133.368C116.974 135.8 117.355 138.236 117.737 140.674C118.098 143.011 118.6 145.378 118.62 147.748C118.62 148.212 117.958 148.284 117.827 147.855C117.124 145.504 116.913 142.998 116.562 140.575C116.231 138.285 115.899 135.997 115.598 133.705C114.945 128.771 114.403 123.817 113.71 118.89C113.68 118.687 113.992 118.597 114.022 118.804ZM134.113 90.2752C135.559 91.0484 137.125 91.3315 138.752 91.448H138.762C139.254 91.5896 139.736 91.7482 140.238 91.8727C143.2 92.6047 146.182 93.3206 149.164 94.0525C150.007 94.2604 150.881 94.4441 151.704 94.7353C151.965 94.8267 152.136 95.1931 152.337 95.4421C152.276 95.5174 152.206 95.5918 152.146 95.659C152.136 95.6841 152.116 95.7002 152.106 95.7253C152.126 95.7082 152.146 95.7002 152.156 95.6841C152.226 95.6088 152.286 95.5425 152.357 95.4672C152.748 96.1249 153.14 96.7735 153.531 97.4312V97.4392C154.626 100.144 155.74 102.848 156.835 105.561C157.538 107.317 158.25 109.081 158.923 110.861C159.024 111.129 159.034 111.519 158.913 111.769C157.969 113.724 156.975 115.655 156.022 117.602C155.299 119.084 154.616 120.581 153.863 122.046C153.11 123.544 152.256 124.992 151.493 126.481C149.867 129.61 148.28 132.747 146.674 135.876C146.593 136.042 146.503 136.209 146.413 136.376C145.81 137.556 145.188 138.738 144.555 139.904C144.415 140.161 144.154 140.419 143.893 140.535C142.718 141.044 141.553 141.543 140.348 141.975C138.45 142.658 136.623 143.473 134.906 144.531C132.537 145.995 130.247 147.568 127.858 148.999C125.94 150.147 124.012 151.329 121.883 152.086C121.552 152.203 121.211 152.269 120.91 152.36C120.749 150.68 120.588 149.107 120.438 147.526C120.438 147.46 120.438 147.392 120.438 147.326C120.167 145.445 119.926 143.565 119.624 141.692C119.373 140.219 119.022 138.763 118.761 137.29C118.379 135.219 118.078 133.139 117.676 131.074C117.144 128.312 116.552 125.566 116 122.803C115.869 122.104 115.759 121.397 115.709 120.689C115.698 120.382 115.799 120.032 115.939 119.749C116.813 118.069 117.686 116.379 118.58 114.706C118.831 114.232 119.092 113.757 119.343 113.283C121.07 110.122 122.787 106.959 124.584 103.847C126.281 100.909 128.038 98.0216 129.816 95.1349C130.759 93.6118 131.814 92.1639 132.747 90.6407C133.139 90.0082 133.51 89.9499 134.113 90.2752ZM154.084 94.8518C154.044 94.8598 154.013 94.8598 153.983 94.8678C153.993 94.8437 153.993 94.8186 153.993 94.7935C154.003 94.7764 154.043 94.7855 154.054 94.7765C154.064 94.8016 154.074 94.8267 154.084 94.8518ZM156.845 85.756L156.835 85.8062L156.785 85.7731L156.845 85.756ZM155.56 77.4845L155.55 77.4765C157.658 76.2535 159.847 75.1802 162.126 74.3147C162.207 74.3639 162.267 74.4141 162.337 74.4643C161.895 75.3961 161.474 76.3278 161.002 77.2435C159.747 79.6734 158.481 82.1032 157.206 84.525C156.011 86.7881 154.766 89.0262 153.602 91.3064C153.23 92.0223 153.05 92.8296 152.728 93.7533C151.443 93.4782 150.238 93.2453 149.033 92.9712C146.473 92.4049 143.933 91.8225 141.372 91.2482V91.2562H141.362C140.157 90.9992 138.963 90.7411 137.758 90.4911C136.754 90.2753 135.76 90.0915 134.756 89.8425C134.424 89.7592 134.113 89.5423 133.601 89.2933C140.87 85.016 148.22 81.2708 155.56 77.4845ZM163.361 76.6281C163.371 76.5949 163.452 76.5779 163.492 76.5528C163.502 76.603 163.532 76.6612 163.522 76.6943C163.492 76.7355 163.431 76.7606 163.381 76.7937C163.371 76.7355 163.341 76.6773 163.361 76.6281ZM160.7 99.0678C160.861 96.654 161.012 94.2393 161.202 91.8285C161.584 87.0361 162.106 82.2749 162.849 77.5237C162.869 77.3811 163.09 77.4243 163.09 77.5568C163.221 82.3914 163.13 87.2058 162.899 92.0354C162.779 94.4491 162.618 96.8619 162.468 99.2746C162.337 101.512 162.458 104.123 161.594 106.224C161.433 106.624 160.821 106.71 160.69 106.224C160.078 103.978 160.55 101.359 160.7 99.0678ZM159.636 108.282C159.656 108.282 159.686 108.274 159.706 108.274C159.727 108.282 159.737 108.307 159.747 108.332C159.726 108.34 159.706 108.357 159.686 108.365C159.676 108.34 159.656 108.307 159.636 108.282ZM9.02711 93.3517C9.02711 93.6539 8.57522 93.6519 8.56518 93.3517C8.32421 85.6988 9.06721 78.0679 10.9247 70.6348C12.7521 63.3233 15.5033 55.835 19.8007 49.5917C20.0718 49.2022 20.634 49.5355 20.4332 49.9592C17.2503 56.837 14.1779 63.6426 12.1899 70.9852C10.2219 78.2677 9.11747 85.8062 9.02711 93.3517ZM9.25802 99.869C9.25802 99.8861 9.24796 99.9022 9.23792 99.9192C9.23792 99.9112 9.23798 99.8861 9.24802 99.8781L9.25802 99.869ZM156.182 150.963C154.003 153.152 151.704 155.223 149.445 157.345C149.033 157.736 148.592 158.111 148.16 158.485V158.477C145.569 160.449 143.009 162.463 140.368 164.377C139.053 165.326 137.647 166.157 136.211 166.931C133.581 168.338 130.92 169.702 128.239 171.009C126.352 171.924 124.394 172.707 122.466 173.522C121.683 173.854 120.879 174.112 120.076 174.403C120.026 174.395 119.976 174.379 119.926 174.362C119.946 174.412 119.956 174.462 119.976 174.512C118.66 174.894 117.345 175.278 116.04 175.661C113.851 176.293 111.642 176.883 109.473 177.574C105.808 178.748 102.043 179.23 98.2479 179.571C96.6916 179.705 95.1654 180.012 93.6292 180.138C92.8862 180.196 92.1231 180.029 91.3701 179.954C89.5125 179.754 87.6551 179.563 85.8076 179.346C83.8397 179.105 81.8717 178.931 79.9439 178.356C77.6245 177.674 75.265 177.15 72.9355 176.451C70.4656 175.711 68.0257 174.861 65.5657 174.054C65.4954 174.054 65.4251 174.054 65.3448 174.054C63.0154 173.264 60.7663 172.265 58.5273 171.234C56.6196 170.343 54.7018 169.478 52.8643 168.47C50.6655 167.281 48.4767 166.041 46.3983 164.66C43.2857 162.596 40.3036 160.358 37.5223 157.87C34.972 155.589 32.4016 153.301 29.9819 150.862C29.1887 150.047 28.3954 149.215 27.6323 148.358C26.2668 146.827 25.0418 145.146 23.7968 143.498C22.7927 142.183 21.8489 140.819 20.885 139.479C20.9252 139.413 20.9553 139.338 20.9854 139.271C21.2766 139.305 21.5778 139.33 21.869 139.363C21.9393 139.363 21.9995 139.363 22.0698 139.363C22.612 139.404 23.1642 139.446 23.6964 139.504C27.7227 139.904 31.759 140.228 35.7752 140.735C37.9741 141.018 40.0827 141.75 42.1209 142.641C43.8378 143.39 45.605 144.015 47.3019 144.78C49.7819 145.895 52.0511 147.368 54.3102 148.882C55.7962 149.881 57.3626 150.763 58.9088 151.679C59.8827 152.261 60.8366 152.902 61.8708 153.35C63.5576 154.091 65.2545 154.865 67.0317 155.331C69.9535 156.088 72.9355 156.663 75.9075 157.195C77.6144 157.495 79.3615 157.67 81.0985 157.711C84.5023 157.786 87.9262 157.836 91.33 157.686C91.9525 157.662 92.585 157.662 93.2075 157.67C95.0148 157.711 96.8221 157.87 98.6294 157.844C101.822 157.794 105.005 157.62 108.198 157.486C108.409 157.478 108.63 157.37 108.841 157.303C108.921 157.303 108.991 157.303 109.062 157.303C110.548 157.087 112.054 156.946 113.52 156.638C115.889 156.139 118.239 155.614 120.558 154.94C122.787 154.274 124.916 153.276 126.924 152.086C128.571 151.112 130.177 150.089 131.794 149.09C133.48 148.042 135.107 146.918 136.834 145.969C138.44 145.079 140.117 144.281 141.824 143.59C144.083 142.691 146.352 141.801 148.692 141.152C150.489 140.644 152.407 140.486 154.285 140.236C155.901 140.011 157.538 139.862 159.164 139.728C161.223 139.554 163.271 139.429 165.54 139.271C164.737 140.486 164.064 141.56 163.321 142.575C162.498 143.714 161.664 144.846 160.751 145.911C159.265 147.634 157.789 149.365 156.182 150.963ZM173.432 94.3708C173.331 95.1158 172.197 95.171 172.227 94.3708C172.448 87.0161 172.468 79.5398 170.862 72.3146C170.811 72.0947 171.143 72.0034 171.193 72.2213C173.181 79.4334 174.426 86.8825 173.432 94.3708ZM139.294 20.0432C142.597 22.3887 145.86 24.7553 148.782 27.5888C153.993 32.6482 158.431 38.6003 162.056 44.8827C165.63 51.0687 168.803 57.9033 169.898 65.0211C169.968 65.493 169.355 65.6647 169.185 65.2179C167.689 61.4256 166.323 57.5961 164.707 53.852C161.895 47.3517 158.271 41.1998 153.943 35.5911C151.744 32.7285 149.314 30.0588 146.854 27.411C144.475 24.8427 141.975 22.2974 139.264 20.0744C139.254 20.0603 139.274 20.0312 139.294 20.0432ZM125.779 14.7769C126.07 15.0189 125.759 15.528 125.418 15.4075C123.872 14.8743 122.416 14.0982 120.9 13.4767C119.373 12.8492 117.817 12.2668 116.261 11.7256C113.128 10.6392 109.905 9.85404 106.632 9.30984C103.308 8.7556 99.9447 8.32185 96.5711 8.28068C93.1472 8.23851 89.7635 8.74253 86.4301 9.52168C86.2493 9.56386 86.169 9.28774 86.3498 9.24557C89.7033 8.45035 93.1372 8.01159 96.5711 7.70234C99.9447 7.39911 103.328 7.34288 106.692 7.77463C110.096 8.2124 113.449 9.03271 116.692 10.1492C119.805 11.2206 123.249 12.6303 125.779 14.7769ZM106.923 5.66912C100.407 5.22733 93.83 5.4894 87.3337 6.17919C76.2388 7.35494 65.3549 10.4575 55.3344 15.3713C50.6253 17.6807 46.0468 20.3063 41.7695 23.3516C37.4219 26.4521 33.3956 29.9583 29.5601 33.6703C29.4497 33.7758 29.299 33.6171 29.3994 33.5047C33.3353 28.9864 37.8436 24.9902 42.6631 21.4258C51.4989 14.8864 61.3286 9.98658 71.9516 7.0989C77.6647 5.54562 83.5283 4.54255 89.4422 4.15298C95.306 3.76641 101.2 4.2313 106.993 5.15804C107.284 5.20523 107.214 5.6882 106.923 5.66912ZM5.18157 79.4304C6.34628 70.5445 8.83635 61.532 13.9169 54.0468C14.1478 53.7034 14.8105 53.9162 14.6297 54.347C12.7421 58.9576 10.9348 63.6094 9.49903 68.3827C4.39841 85.3343 5.30206 104.238 11.9088 120.65C11.9389 120.711 11.8284 120.753 11.7983 120.695C9.55922 116.12 7.80213 111.343 6.59726 106.387C4.45861 97.5406 3.98674 88.4539 5.18157 79.4304ZM4.69955 112.235C4.69955 112.285 4.69955 112.326 4.69955 112.368C4.68951 112.334 4.67949 112.309 4.66945 112.276C4.66945 112.268 4.68951 112.251 4.69955 112.235ZM179.637 93.6991C179.085 107.714 175.44 121.643 167.89 133.539C167.719 133.799 167.357 133.573 167.478 133.303C170.651 126.254 173.261 118.837 175.018 111.304C178.081 98.128 178.332 84.4527 175.53 71.2071C172.829 58.4004 167.628 45.8887 159.947 35.2497C159.897 35.1774 160.018 35.0861 160.078 35.1553C164.777 41.0381 168.793 47.3677 171.956 54.2144C177.619 66.4951 180.159 80.2045 179.637 93.6991ZM185.722 84.3664C185.661 83.3432 185.581 82.3191 185.39 81.321C184.808 78.2085 184.236 75.0969 183.513 72.0174C183.031 69.9792 182.348 67.9821 181.695 65.985C181.485 65.3776 181.274 64.7701 181.063 64.1627C180.29 61.8985 179.486 59.6524 178.703 57.3973C177.599 54.2014 175.912 51.2976 174.316 48.3437C173.332 46.5294 172.177 44.8064 171.113 43.0342C169.305 40.022 167.398 37.0681 165.108 34.3963C162.96 31.8921 160.831 29.371 158.331 27.1992L158.321 27.2072C157.417 26.3588 156.544 25.4591 155.6 24.6609C153.752 23.0886 151.915 21.465 149.957 20.0422C146.905 17.8293 143.782 15.7318 140.659 13.6353C138.129 11.9375 135.388 10.6222 132.607 9.41628C129.785 8.19233 126.924 7.09387 124.133 5.85485C121.492 4.68914 118.761 3.89092 115.97 3.22523C112.747 2.4511 109.534 1.68502 106.2 1.49425C105.608 1.46112 105.015 1.40287 104.423 1.32756C102.736 1.11972 101.049 0.820498 99.3523 0.78636C95.0449 0.694991 90.7274 0.778336 86.4301 0.869705C84.5123 0.911876 82.5745 1.01932 80.6969 1.3607C76.2489 2.1519 71.8311 3.09971 67.4433 4.17305C63.156 5.21326 59.0493 6.71134 55.1034 8.55881C51.3482 10.3149 47.7638 12.4616 44.1893 14.5751C42.2414 15.7238 40.4643 17.1716 38.6168 18.4859C37.7935 19.0773 36.95 19.6597 36.1467 20.2922C34.9117 21.2652 33.6768 22.2472 32.502 23.2874C30.775 24.8105 29.018 26.3166 27.4215 27.9723C25.3833 30.0698 23.4555 32.2667 21.5478 34.4796C19.881 36.4185 18.2544 38.3914 16.7283 40.4467C15.7142 41.8032 14.9912 43.3836 13.9972 44.7652C12.5112 46.8707 11.4067 49.175 10.3023 51.4894C9.07733 54.0939 7.93268 56.7567 6.86838 59.4446C6.10529 61.3413 5.50283 63.3052 4.89036 65.2611C4.19756 67.4992 3.555 69.7623 2.92244 72.0264C2.58106 73.2163 2.23964 74.4141 2.02879 75.629C1.75769 77.1271 1.58704 78.6412 1.41635 80.1473C1.09505 83.0932 0.803871 86.0391 0.512694 88.9931C0.382166 90.2662 0.271719 91.5394 0.211476 92.8125C0.151232 93.7453 0.131112 94.6851 0.171274 95.6169C0.231518 96.8067 0.422329 97.9884 0.462491 99.1702C0.582978 102.832 1.20544 106.409 1.85808 110.005C2.02877 110.987 2.23962 111.952 2.46051 112.917C3.24368 116.412 4.29796 119.841 5.44259 123.236C6.90852 127.579 8.44475 131.899 10.734 135.909C12.21 138.505 13.6156 141.152 15.2121 143.681C16.8186 146.228 18.5757 148.7 20.373 151.129C21.6281 152.81 22.9936 154.425 24.4394 155.939C26.1463 157.72 27.9837 159.359 29.771 161.056C30.3633 161.622 30.9457 162.213 31.5783 162.745C32.8434 163.828 34.1286 164.893 35.4439 165.924C35.7451 166.157 35.8958 166.299 35.7853 166.706C35.705 166.997 35.6548 167.289 35.6046 167.572C35.454 168.853 35.6749 170.11 36.0564 171.366C36.7392 173.68 36.3777 176.051 34.0483 177.699C32.1004 179.072 30.1425 180.47 28.3553 182.034C27.301 182.966 26.3471 184.148 25.6945 185.396C24.4394 187.802 24.3792 190.298 26.0459 192.619C26.7086 193.535 27.5018 194.35 28.1645 195.274C29.4396 197.063 31.0964 198.445 32.8735 199.684C34.4399 200.774 36.0965 201.731 37.7331 202.713C40.2834 204.252 43.0145 205.409 45.8158 206.383C46.4986 206.624 47.1713 206.866 47.8641 207.074C49.8421 207.656 51.8302 208.322 53.8383 208.788C55.8866 209.253 57.975 209.503 60.0434 209.903C63.0355 210.468 66.0276 211.126 69.0197 211.658C72.7548 212.333 76.5301 212.682 80.3355 212.69C81.3898 212.698 82.434 212.849 83.4782 212.932C83.3878 212.965 83.2974 212.999 83.2071 213.024C83.2271 213.065 83.2372 213.107 83.2573 213.148C83.3476 213.098 83.448 213.057 83.5384 213.007C84.1107 213.131 84.6629 213.315 85.2252 213.365C86.159 213.439 87.1028 213.447 88.0467 213.456C88.6591 213.456 89.2816 213.398 89.8941 213.365V213.373C89.9644 213.373 90.0246 213.373 90.0949 213.373V213.365C92.5347 213.406 94.9747 213.498 97.4145 213.456C99.2218 213.423 101.029 213.223 102.846 213.073C103.258 213.032 103.67 212.832 104.082 212.807C105.397 212.732 106.722 212.698 108.037 212.665C111.512 212.558 114.925 212.108 118.329 211.459C120.508 211.043 122.677 210.61 124.845 210.202C127.757 209.645 130.689 209.179 133.581 208.538C135.378 208.139 137.125 207.547 138.862 206.932C141.091 206.142 143.33 205.327 145.489 204.345C147.477 203.429 149.395 202.313 151.292 201.207C153.983 199.617 156.413 197.712 158.321 195.224C158.331 195.216 158.331 195.216 158.341 195.208C159.114 194.175 159.967 193.201 160.65 192.112C161.845 190.156 161.875 188.06 161.002 185.97C160.108 183.832 158.471 182.251 156.724 180.828C155.158 179.546 153.511 178.34 151.784 177.266C150.288 176.326 149.796 173.38 150.168 172.024C150.62 170.409 150.931 168.829 150.71 167.181C150.69 167.007 150.65 166.823 150.62 166.648C150.58 166.448 150.72 166.124 150.881 165.991C151.995 165.068 153.15 164.193 154.254 163.278C156.935 161.048 159.345 158.535 161.634 155.914C163.13 154.2 164.596 152.461 166.042 150.705C167.458 148.974 168.944 147.276 170.199 145.429C172.127 142.6 173.974 139.704 175.4 136.574C176.494 134.179 177.599 131.782 178.693 129.393C178.703 129.302 178.703 129.219 178.713 129.135C178.824 128.986 178.994 128.861 179.055 128.695C179.998 125.898 181.003 123.127 181.876 120.307C182.669 117.752 183.382 115.181 184.005 112.584C184.406 110.887 184.577 109.14 184.848 107.417L184.868 107.434C184.868 107.426 184.868 107.426 184.868 107.417C184.938 107.117 185.019 106.801 185.049 106.493C185.27 104.596 185.531 102.69 185.671 100.785C185.872 97.8559 186.113 94.918 186.123 91.9811C186.143 89.4429 185.882 86.9046 185.722 84.3664Z" fill="#292D32"/>
<path d="M112.103 204.19C117.485 203.257 122.756 201.865 128.108 200.879C128.81 200.749 129.071 201.699 128.409 201.944C123.268 203.83 117.665 204.647 112.233 205.143C106.701 205.648 101.078 205.861 95.5258 205.806C95.3752 205.804 95.3752 205.571 95.5258 205.571C101.118 205.593 106.591 205.148 112.103 204.19ZM112.484 193.051C121.581 190.633 130.487 187.445 139.775 185.795C140.387 185.686 140.638 186.539 140.036 186.735C131.059 189.648 121.682 191.024 112.515 193.164C112.444 193.181 112.414 193.07 112.484 193.051ZM111.089 207.61C106.4 208.882 101.51 209.315 96.6704 209.491C88.0756 209.801 79.4909 209.259 71.0166 207.842C66.7193 207.125 62.4922 206.149 58.3053 204.965C54.0882 203.77 50.0921 202.092 46.0256 200.491C45.9453 200.461 45.9754 200.339 46.0557 200.366C50.6242 201.957 55.4236 203.03 60.1327 204.102C68.4162 205.988 76.8704 207.148 85.3547 207.559C89.632 207.767 93.9193 207.767 98.1966 207.557C102.464 207.347 106.721 206.963 110.988 206.844C111.43 206.832 111.51 207.497 111.089 207.61ZM45.9553 185.442C49.3591 187.094 53.054 188.21 56.6787 189.245C60.233 190.259 63.8377 191.098 67.4824 191.716C71.1673 192.341 74.9225 192.696 78.6576 192.869C82.3626 193.039 86.0274 192.806 89.7224 192.822C90.0838 192.823 90.1641 193.378 89.8027 193.461C86.168 194.301 82.1919 194.411 78.4769 194.36C74.7016 194.308 70.9664 193.9 67.2514 193.241C63.4259 192.564 59.6708 191.57 56.026 190.234C52.5118 188.945 49.2286 187.218 45.8951 185.554C45.8148 185.517 45.885 185.405 45.9553 185.442ZM110.597 190.497L110.657 190.53L110.587 190.555L110.597 190.497ZM121.169 187.002C122.886 186.453 124.633 185.97 126.33 185.346C128.439 184.572 130.517 183.681 132.616 182.833C133.74 182.383 134.855 181.901 135.979 181.435C136.05 181.435 136.12 181.435 136.19 181.435C137.034 181.027 137.887 180.661 138.69 180.186C139.674 179.613 140.598 178.946 141.552 178.323C144.283 176.542 146.773 174.511 148.098 171.408C148.641 170.151 149.082 168.844 149.133 167.371C148.892 167.463 148.721 167.488 148.6 167.588C147.657 168.295 146.743 169.052 145.779 169.735C144.735 170.467 143.65 171.142 142.586 171.841H142.546L142.606 171.849C141.05 172.823 139.514 173.83 137.917 174.736C136.23 175.701 134.513 176.617 132.756 177.457C131.07 178.265 129.302 178.897 127.606 179.687C123.911 181.41 119.965 182.3 116.039 183.258C113.89 183.773 111.711 184.131 109.532 184.555C109.322 184.597 109.101 184.647 108.89 184.689C107.585 184.964 106.289 185.263 104.974 185.43C100.385 186.003 95.7467 186.061 91.1179 186.045C87.8849 186.028 84.6719 185.787 81.4489 185.42C78.0351 185.03 74.6614 184.555 71.338 183.681C69.4704 183.19 67.5427 182.825 65.7253 182.192C63.2654 181.343 60.8857 180.295 58.486 179.321C54.8011 177.815 51.1062 176.309 47.7024 174.228C44.9814 172.573 42.3608 170.758 39.7001 169.003C38.937 168.495 38.1839 167.963 37.4108 167.447C37.3305 167.505 37.2602 167.571 37.1698 167.638C37.461 168.67 37.7421 169.702 38.0333 170.725C38.475 172.273 39.2884 173.646 40.4531 174.736C41.7684 175.959 43.0938 177.207 44.5697 178.206C46.3871 179.429 48.2948 180.536 50.2828 181.451C52.5821 182.517 55.0019 183.316 57.3815 184.231C57.4418 184.231 57.5221 184.231 57.5823 184.231C58.1747 184.506 58.7771 184.764 59.3695 185.038V185.03L59.4097 185.013L59.3896 185.038C60.3736 185.446 61.3275 185.92 62.3416 186.237C64.2192 186.819 66.147 187.235 68.0246 187.85C70.0026 188.5 71.9404 189.29 73.8983 190.031C73.9184 190.022 73.9284 190.022 73.9485 190.022C74.1393 190.08 74.3401 190.148 74.5308 190.214V190.222C74.33 190.164 74.1393 190.097 73.9385 190.039H73.9284C73.9184 190.039 73.9083 190.031 73.8983 190.031C73.5971 190.072 73.2657 190.181 72.9746 190.131C70.9363 189.814 68.888 189.515 66.8498 189.107C64.8216 188.7 62.8235 188.209 60.8154 187.701C59.6608 187.401 58.5362 187.002 57.3916 186.635V186.644C57.0201 186.528 56.6385 186.428 56.267 186.286C54.2589 185.496 52.2508 184.655 50.2226 183.906C47.2506 182.825 44.63 181.119 42.1399 179.229C40.684 178.115 39.3586 176.817 37.9529 175.585C37.8927 175.835 37.7823 176.118 37.7622 176.4C37.702 178.032 36.6276 179.055 35.5031 179.97C34.3083 180.935 32.9829 181.727 31.768 182.658C30.3121 183.757 28.9365 184.93 27.9726 186.553C26.567 188.966 26.5669 190.68 28.1534 192.81C28.6253 193.451 29.1374 194.041 29.6795 194.6C31.2961 196.255 33.1937 197.587 35.2119 198.776C36.8184 199.717 38.4449 200.632 40.0916 201.489C41.2964 202.105 42.5516 202.646 43.8167 203.137C44.3087 203.333 44.8107 203.495 45.3228 203.65C45.8248 203.805 46.3369 203.952 46.8389 204.119C48.4052 204.643 49.9514 205.234 51.5379 205.7C52.1604 205.887 52.793 206.043 53.4256 206.183C54.0581 206.324 54.6907 206.449 55.3333 206.574C55.9458 206.699 56.5582 206.817 57.1807 206.938C58.4157 207.18 59.6507 207.419 60.8857 207.653C61.4982 207.771 62.1207 207.888 62.7331 208.005C64.1489 208.271 65.5647 208.513 66.9804 208.779C67.8037 208.933 68.617 209.107 69.4403 209.273C70.2536 209.439 71.0769 209.594 71.9103 209.711C73.316 209.919 74.7618 209.953 76.1875 210.06C79.0692 210.285 81.9509 210.518 84.8326 210.726C85.7262 210.788 86.6198 210.84 87.5134 210.891C88.407 210.943 89.3006 210.993 90.1942 211.05C90.5255 211.071 90.8569 211.099 91.1882 211.129C91.8509 211.189 92.5136 211.256 93.1763 211.287C93.5076 211.302 93.839 211.308 94.1703 211.3C94.5619 211.292 94.9535 211.27 95.3451 211.24C96.5098 211.151 97.6745 210.988 98.8492 210.901C101.179 210.726 103.508 210.576 105.848 210.435C108.609 210.254 111.37 210.087 114.111 209.699C115.025 209.569 115.938 209.416 116.842 209.229C118.94 208.796 121.039 208.387 123.137 207.989C125.658 207.523 128.158 207.023 130.688 206.623C132.054 206.414 133.379 206.094 134.684 205.717C135.558 205.465 136.421 205.187 137.285 204.9C138.58 204.469 139.865 204.016 141.16 203.595C141.17 203.595 141.17 203.595 141.18 203.586C143.811 202.679 146.291 201.456 148.731 200.133C149.845 199.534 150.93 198.885 152.014 198.227C153.691 197.229 155.257 196.097 156.603 194.707C157.055 194.25 157.476 193.759 157.878 193.235C158.581 192.294 159.334 191.32 159.414 190.089C159.525 188.283 158.832 186.703 157.617 185.42C156.472 184.223 155.157 183.165 153.942 182.043C153.932 182.034 153.932 182.043 153.932 182.043C152.717 181.168 151.492 180.312 150.297 179.404C149.293 178.655 148.741 177.624 148.631 176.367C148.6 176.06 148.54 175.759 148.46 175.294C148.058 175.743 147.767 176.085 147.456 176.409C145.638 178.273 143.57 179.812 141.371 181.201C139.122 182.633 136.763 183.823 134.242 184.697C132.535 185.288 130.879 186.012 129.182 186.619C127.766 187.126 126.34 187.693 124.884 188.001C121.35 188.733 117.806 189.348 114.262 189.981C113.749 190.072 113.217 189.989 112.685 189.989L112.675 189.998C112.585 189.998 112.494 189.989 112.404 189.989C112.394 189.998 112.384 189.998 112.364 190.006C112.243 190.139 112.133 190.264 112.012 190.389C111.972 190.33 111.932 190.264 111.892 190.206C112.043 190.139 112.203 190.072 112.364 190.006C112.374 189.998 112.384 189.989 112.394 189.981C112.484 189.989 112.585 189.989 112.685 189.989C113.358 189.673 114.011 189.29 114.713 189.057C116.852 188.341 119.011 187.685 121.169 187.002Z" fill="#73A9AD"/>
<path d="M29.8215 40.7361C33.637 36.5592 38.1954 32.8623 42.794 29.5901C47.4729 26.2656 52.3526 23.382 57.5336 20.9009C60.4152 19.5173 63.4776 18.4892 66.3191 17.0453C66.7408 16.8365 66.4196 16.3003 66.028 16.3565C63.2066 16.7692 60.4454 17.8898 57.8248 18.9782C55.144 20.0907 52.5434 21.3949 50.0232 22.8237C45.0632 25.63 40.3742 29.087 36.2977 33.0681C33.9081 35.4096 31.7694 37.978 29.6508 40.5614C29.5504 40.6819 29.7111 40.8546 29.8215 40.7361Z" fill="#73A9AD"/>
<path d="M116.562 140.574C116.914 142.998 117.124 145.503 117.827 147.855C117.958 148.283 118.62 148.211 118.62 147.747C118.6 145.378 118.098 143.01 117.737 140.674C117.355 138.236 116.974 135.8 116.552 133.367C115.729 128.511 114.795 123.667 114.022 118.803C113.992 118.596 113.68 118.687 113.711 118.89C114.403 123.817 114.946 128.771 115.598 133.705C115.899 135.997 116.231 138.285 116.562 140.574Z" fill="#73A9AD"/>
<path d="M28.4964 159.007C27.0405 157.457 25.5946 155.896 24.199 154.302C21.3173 151.026 18.8574 147.445 16.4175 143.849C16.1966 143.533 15.5841 143.726 15.7448 144.129C16.1765 145.136 16.518 146.099 17.0803 147.054C17.6526 148.039 18.265 149.007 18.8976 149.955C20.1225 151.771 21.4077 153.545 22.8335 155.207C24.2894 156.916 25.8557 158.479 27.6128 159.884C29.3197 161.247 31.0869 162.697 33.0046 163.748C33.1552 163.836 33.336 163.625 33.1954 163.492C31.6492 161.972 29.9824 160.599 28.4964 159.007Z" fill="#73A9AD"/>
<path d="M186.465 85.5701C185.481 72.2573 181.565 59.2948 174.918 47.714C168.352 36.2898 159.395 26.5193 148.853 18.6665C138.32 10.8288 126.171 5.2764 113.369 2.36061C100.397 -0.595345 86.8319 -0.827306 73.8092 1.95997C60.7163 4.76029 48.1454 10.5537 37.3718 18.4667C26.3974 26.5273 17.1902 36.8973 10.8244 48.955C4.23779 61.4184 0.613169 75.402 0.0709766 89.4729C-0.20012 96.4872 0.301871 103.515 1.63727 110.409C2.29995 113.852 3.12336 117.279 4.17762 120.628C5.22185 123.927 6.56729 127.083 7.99305 130.231C9.41882 133.386 11.0052 136.455 12.8024 139.416C12.8828 139.544 13.0836 139.43 13.0134 139.297C6.48696 127.047 3.04296 113.362 2.23971 99.5406C1.4465 85.8101 3.53502 71.8888 8.54529 59.0699C13.4551 46.5172 21.2667 35.2747 31.2471 26.2311C40.9864 17.4085 52.6436 10.6883 65.104 6.55055C77.4941 2.43993 90.9284 0.497083 103.941 1.86863C116.883 3.23415 129.143 7.8026 140.218 14.569C151.212 21.2811 160.821 30.2514 168.321 40.7298C175.882 51.3075 181.113 63.4055 183.433 76.2123C185.802 89.2811 185.19 102.864 181.926 115.725C180.29 122.201 178.141 128.482 175.31 134.536C172.508 140.523 168.813 146.062 164.948 151.405C163.02 154.082 160.881 156.624 158.542 158.957C158.371 159.129 158.632 159.396 158.813 159.224C163.582 154.462 168.08 149.536 171.705 143.825C175.34 138.101 178.402 131.977 180.782 125.63C185.561 112.914 187.479 99.1129 186.465 85.5701Z" fill="#73A9AD"/>
<path d="M167.891 133.539C175.441 121.643 179.086 107.713 179.638 93.6988C180.16 80.2042 177.62 66.4948 171.957 54.2141C168.794 47.3674 164.778 41.0378 160.079 35.155C160.019 35.0857 159.898 35.1771 159.948 35.2494C167.63 45.8884 172.831 58.4 175.532 71.2068C178.333 84.4524 178.082 98.1277 175.019 111.304C173.262 118.836 170.652 126.253 167.479 133.303C167.358 133.573 167.72 133.799 167.891 133.539Z" fill="#73A9AD"/>
<path d="M173.432 94.3705C174.426 86.8823 173.181 79.4332 171.193 72.221C171.143 72.0031 170.812 72.0945 170.862 72.3144C172.469 79.5396 172.448 87.0158 172.228 94.3705C172.197 95.1708 173.332 95.1156 173.432 94.3705Z" fill="#73A9AD"/>
<path d="M139.294 20.0432C139.274 20.0311 139.254 20.0602 139.264 20.0743C141.975 22.2973 144.475 24.8426 146.855 27.411C149.315 30.0587 151.744 32.7285 153.943 35.5911C158.271 41.1997 161.895 47.3516 164.707 53.8519C166.323 57.596 167.689 61.4255 169.185 65.2179C169.356 65.6647 169.968 65.493 169.898 65.0211C168.803 57.9033 165.631 51.0687 162.056 44.8826C158.431 38.6002 153.993 32.6482 148.782 27.5887C145.861 24.7552 142.597 22.3887 139.294 20.0432Z" fill="#73A9AD"/>
<path d="M162.849 77.5233C162.106 82.2745 161.584 87.0358 161.203 91.8282C161.012 94.2389 160.861 96.6537 160.7 99.0675C160.55 101.359 160.078 103.977 160.69 106.223C160.821 106.709 161.433 106.624 161.594 106.223C162.458 104.123 162.337 101.511 162.468 99.2743C162.618 96.8615 162.779 94.4488 162.899 92.035C163.13 87.2055 163.221 82.391 163.09 77.5565C163.09 77.4239 162.869 77.3808 162.849 77.5233Z" fill="#73A9AD"/>
<path d="M107.314 87.9274C107.766 92.6003 108.65 97.1899 109.654 101.777C110.688 106.473 111.612 111.171 113.339 115.672C113.419 115.873 113.76 115.868 113.75 115.616C113.399 110.911 112.284 106.357 111.25 101.765C110.186 97.0784 109.021 92.4406 107.415 87.9133C107.395 87.8621 107.304 87.8652 107.314 87.9274Z" fill="#73A9AD"/>
<path d="M43.3561 87.561C43.3662 87.4586 43.1955 87.4365 43.1754 87.5369C42.3019 91.8212 41.3681 96.0855 40.585 100.39C40.2034 102.484 39.7917 104.578 39.4905 106.685C39.1993 108.787 38.8379 111.072 38.9986 113.196C39.0287 113.603 39.5407 113.657 39.6913 113.289C40.4745 111.307 40.8259 109.011 41.1673 106.911C41.4986 104.811 41.7396 102.693 42.0006 100.582C42.5328 96.2462 42.9143 91.9036 43.3561 87.561Z" fill="#73A9AD"/>
<path d="M106.995 5.15768C101.202 4.23093 95.3077 3.76504 89.4439 4.15261C83.53 4.54219 77.6664 5.54525 71.9533 7.09853C61.3303 9.98621 51.5006 14.886 42.6648 21.4255C37.8453 24.9899 33.3371 28.986 29.4011 33.5043C29.3007 33.6168 29.4514 33.7754 29.5619 33.67C33.3974 29.958 37.4236 26.4508 41.7712 23.3512C46.0485 20.3059 50.6271 17.6803 55.3361 15.371C65.3566 10.4571 76.2406 7.35458 87.3354 6.17782C93.8317 5.48903 100.408 5.22697 106.925 5.66875C107.216 5.68783 107.286 5.20487 106.995 5.15768Z" fill="#73A9AD"/>
<path d="M120.899 13.4768C122.415 14.0983 123.871 14.8745 125.417 15.4076C125.759 15.5281 126.07 15.019 125.779 14.7771C123.249 12.6304 119.805 11.2207 116.692 10.1493C113.449 9.03282 110.096 8.21251 106.692 7.77474C103.328 7.34299 99.9444 7.39922 96.5708 7.70245C93.1369 8.0117 89.703 8.45046 86.3494 9.24568C86.1687 9.28785 86.249 9.56396 86.4297 9.52179C89.7632 8.74264 93.1469 8.23862 96.5708 8.28079C99.9444 8.32195 103.308 8.75571 106.631 9.30995C109.905 9.85415 113.128 10.6393 116.26 11.7257C117.817 12.2669 119.373 12.8493 120.899 13.4768Z" fill="#73A9AD"/>
<path d="M9.49942 68.3823C10.9352 63.609 12.7425 58.9572 14.6301 54.3466C14.8109 53.9158 14.1482 53.703 13.9173 54.0464C8.83674 61.5316 6.34667 70.5441 5.18196 79.43C3.98713 88.4535 4.459 97.5402 6.59765 106.387C7.80252 111.343 9.55961 116.119 11.7987 120.695C11.8288 120.753 11.9393 120.711 11.9092 120.65C5.30245 104.237 4.3988 85.3339 9.49942 68.3823Z" fill="#73A9AD"/>
<path d="M24.6613 135.368C21.7495 131.229 19.1489 127.043 17.1006 122.397C15.0523 117.741 13.6266 112.801 12.8435 107.777C12.8334 107.69 12.6828 107.71 12.6929 107.798C13.5262 117.884 17.1609 128.27 23.7375 136.085C24.1693 136.594 25.0529 135.918 24.6613 135.368Z" fill="#73A9AD"/>
<path d="M20.434 49.9592C20.6348 49.5355 20.0726 49.2022 19.8015 49.5918C15.5041 55.835 12.7529 63.3233 10.9255 70.6349C9.06803 78.0679 8.32502 85.6988 8.566 93.3517C8.57604 93.6519 9.02792 93.6539 9.02792 93.3517C9.11829 85.8062 10.2228 78.2677 12.1907 70.9853C14.1788 63.6426 17.2511 56.837 20.434 49.9592Z" fill="#73A9AD"/>
<path d="M163.321 142.574C164.064 141.559 164.737 140.486 165.54 139.271C163.271 139.429 161.222 139.553 159.164 139.728C157.537 139.861 155.901 140.011 154.284 140.236C152.407 140.486 150.489 140.644 148.692 141.152C146.352 141.8 144.073 142.691 141.824 143.589C140.117 144.28 138.44 145.079 136.834 145.969C135.107 146.918 133.48 148.042 131.793 149.09C130.177 150.089 128.57 151.112 126.924 152.086C124.916 153.276 122.787 154.274 120.558 154.939C118.238 155.614 115.889 156.138 113.519 156.637C112.054 156.946 110.547 157.087 109.061 157.303H108.84C108.63 157.369 108.409 157.478 108.198 157.486C105.005 157.619 101.822 157.794 98.6291 157.844C96.8218 157.869 95.0145 157.711 93.2072 157.669C92.5847 157.66 91.9522 157.66 91.3297 157.686C87.9259 157.836 84.502 157.786 81.0983 157.711C79.3613 157.669 77.6142 157.495 75.9073 157.195C72.9353 156.662 69.9533 156.088 67.0314 155.331C65.2543 154.865 63.5574 154.091 61.8705 153.35C60.8363 152.901 59.8825 152.261 58.9086 151.678C57.3623 150.763 55.796 149.88 54.31 148.882C52.0508 147.368 49.7817 145.895 47.3017 144.779C45.6048 144.014 43.8376 143.39 42.1206 142.641C40.0824 141.75 37.9739 141.018 35.775 140.735C31.7587 140.228 27.7224 139.904 23.6961 139.504C23.164 139.446 22.6117 139.404 22.0695 139.362H21.8687C21.5775 139.329 21.2763 139.304 20.9852 139.271C20.955 139.337 20.9249 139.413 20.8848 139.479C21.8487 140.818 22.7925 142.183 23.7965 143.498C25.0416 145.146 26.2665 146.827 27.6321 148.358C28.3952 149.214 29.1884 150.047 29.9816 150.862C32.4014 153.301 34.9718 155.589 37.5221 157.869C40.3033 160.357 43.2854 162.595 46.398 164.659C48.4764 166.04 50.6652 167.28 52.8641 168.47C54.7015 169.477 56.6193 170.343 58.527 171.233C60.7661 172.264 63.0151 173.264 65.3445 174.054H65.5655C68.0254 174.861 70.4653 175.71 72.9353 176.45C75.2647 177.149 77.6242 177.673 79.9436 178.356C81.8714 178.93 83.8394 179.105 85.8074 179.346C87.6548 179.563 89.5123 179.754 91.3698 179.954C92.1228 180.029 92.8859 180.196 93.6289 180.137C95.1652 180.012 96.6913 179.705 98.2476 179.571C102.043 179.23 105.808 178.748 109.473 177.574C111.642 176.883 113.851 176.293 116.04 175.66C117.345 175.278 118.66 174.894 119.976 174.512C119.955 174.461 119.945 174.412 119.925 174.362C119.976 174.379 120.026 174.395 120.076 174.403C120.879 174.112 121.682 173.854 122.466 173.522C124.393 172.706 126.351 171.924 128.239 171.008C130.92 169.702 133.581 168.338 136.211 166.931C137.647 166.157 139.053 165.325 140.368 164.377C143.009 162.463 145.569 160.449 148.16 158.477V158.485C148.591 158.11 149.033 157.736 149.445 157.345C151.704 155.223 154.003 153.151 156.182 150.962C157.788 149.365 159.264 147.634 160.75 145.911C161.664 144.846 162.497 143.714 163.321 142.574Z" fill="#73A9AD"/>
<path d="M46.2072 86.6635C46.4081 87.0289 46.639 87.3874 46.8097 87.7699C47.6631 89.759 48.4363 91.7812 49.3399 93.7451C50.3641 95.9831 51.6091 98.1298 52.5027 100.418C53.1152 101.982 54.0288 102.465 55.6052 102.44C57.3824 102.424 59.1495 102.665 60.9267 102.782C61.9509 102.857 62.975 102.915 64.0393 102.981C64.1698 101.258 64.3004 99.6359 64.3907 98.0053C64.4108 97.7553 64.2803 97.4059 64.0996 97.2483C62.965 96.2914 61.8405 95.3255 60.6356 94.46C59.0492 93.3033 57.4025 92.2219 55.7558 91.1315C53.6975 89.759 51.6392 88.3854 49.5507 87.0711C48.1953 86.2217 46.7796 85.4646 45.394 84.6744H45.3839C45.163 85.0158 45.2734 85.2568 45.5345 85.556C45.8156 85.8813 45.9864 86.2889 46.1972 86.6635H46.2072Z" fill="#73A9AD"/>
<path d="M43.8381 125.083C44.4004 126.864 44.8923 128.686 45.565 130.434C46.6695 133.313 47.8543 136.159 49.0491 139.004C49.752 140.702 50.5251 142.383 51.2983 144.064C51.3987 144.289 51.6095 144.496 51.8204 144.647C52.9349 145.412 54.0594 146.169 55.194 146.91C56.1679 147.534 57.1319 148.158 58.1259 148.733C59.7223 149.656 61.2987 150.646 62.9655 151.42C65.074 152.402 67.2628 153.185 69.532 153.709H69.5421C70.6264 153.934 71.7007 154.149 73.0261 154.416C72.6044 153.4 72.2731 152.635 71.9618 151.861C71.0582 149.573 70.1645 147.276 69.2508 144.979C68.4978 143.091 67.7147 141.21 66.9817 139.312C65.9074 136.55 64.8832 133.779 63.8088 131.016C63.106 129.194 62.3329 127.396 61.62 125.582C60.7264 123.303 59.883 121.013 58.9793 118.742C57.5435 115.156 56.0375 111.594 54.6318 107.991C54.1097 106.642 53.6478 105.278 52.5031 104.063C52.2521 104.363 52.0413 104.679 51.7802 104.937C49.3102 107.292 46.9205 109.714 44.7618 112.351C44.4907 112.693 44.1192 112.951 43.8079 113.242C43.8079 113.392 43.8581 113.574 43.7778 113.666C43.1453 114.415 42.5228 115.164 41.84 115.863C41.338 116.371 41.1472 116.829 41.4083 117.569C42.2617 120.057 43.0349 122.579 43.8381 125.083Z" fill="#73A9AD"/>
<path d="M73.5177 64.0787C73.5076 63.912 73.4674 63.7454 73.4474 63.5797C73.2064 63.8287 73.116 64.0948 73.0457 64.3699C72.8148 65.3268 72.5839 66.2756 72.363 67.2325C71.8409 69.579 71.2987 71.9255 70.8067 74.2719C70.2244 77.0432 69.7022 79.8224 69.15 82.6016C68.7183 84.7654 68.1861 86.9211 67.8547 89.1009C67.3326 92.5458 66.9109 95.9998 66.5193 99.4528C66.3386 101 66.3086 102.565 66.2282 104.121C66.2182 104.262 66.3186 104.412 66.4591 104.778C66.5897 104.679 66.7201 104.578 66.8507 104.487C68.5275 103.239 70.1139 102.09 71.6702 100.909C73.0959 99.8353 74.4815 98.7208 75.8872 97.6304C76.2186 97.3724 76.6303 97.2147 76.5299 96.6484C76.3491 95.6916 76.2186 94.7257 76.088 93.7688C75.6563 90.3821 75.1643 87.0125 74.7928 83.6167C74.4816 80.705 74.2406 77.7841 74.0498 74.8633C73.8289 71.2678 73.6984 67.6733 73.5177 64.0787Z" fill="#73A9AD"/>
<path d="M80.9285 95.742C83.0872 95.0512 85.2359 94.3855 87.4148 93.769C89.3325 93.2198 91.2804 92.7539 93.2182 92.2378C93.4391 92.1796 93.6299 92.0139 93.8407 91.9054C92.7062 90.1242 91.6318 88.4766 90.6177 86.7958C89.7943 85.4644 89.0814 84.0667 88.2882 82.7183C86.9026 80.3467 85.527 77.9591 84.0712 75.6286C82.8562 73.6898 81.5309 71.8263 80.2457 69.9286C79.5228 68.8633 78.7898 67.807 78.087 66.7417C77.8761 66.4254 77.7255 66.068 77.5448 65.7266L77.5348 65.7346C76.8721 64.6031 76.1893 63.4795 75.5366 62.3479L75.5266 62.3399C75.2656 62.0648 75.0046 61.7987 74.7435 61.5326C74.7335 61.5156 74.7334 61.4905 74.7334 61.4744C74.7334 61.4905 74.7334 61.5156 74.7334 61.5326C74.8137 62.6642 74.874 63.7958 74.9443 64.9193C74.9544 64.9856 74.9543 65.0609 74.9543 65.1272C74.9543 65.3189 74.9544 65.5188 74.9644 65.7095C75.0247 67.316 75.0949 68.9135 75.1551 70.5109C75.2154 70.5692 75.3058 70.6364 75.3158 70.7027C75.4263 71.9759 75.5166 73.2571 75.6472 74.5302C75.9885 77.942 76.35 81.3458 76.7215 84.7575C77.0529 87.7778 77.354 90.799 77.334 93.8443V93.8694C77.354 93.9106 77.3641 93.9527 77.3742 93.9939C77.3842 94.019 77.354 94.0361 77.334 94.0602V96.8735C77.7356 96.8484 77.9364 96.8314 78.1372 96.8153C78.1372 96.8233 78.1372 96.8233 78.1372 96.8314C79.071 96.4659 79.9746 96.0412 80.9285 95.742Z" fill="#73A9AD"/>
<path d="M80.1744 155.414C80.4957 155.481 80.7568 155.581 80.9977 155.581C82.9557 155.63 84.9035 155.622 86.8514 155.706C88.7691 155.789 90.6869 155.931 92.5243 156.579C92.7452 156.662 92.9963 156.721 93.2373 156.721C93.3176 156.721 93.3979 156.713 93.4782 156.696C94.1308 156.554 94.7735 156.321 95.396 156.138C95.1249 155.43 94.8638 154.79 94.6329 154.149C94.1208 152.727 93.6288 151.304 93.0967 149.889C92.1227 147.201 91.0986 144.521 90.1347 141.825C89.482 139.953 88.9198 138.056 88.3073 136.167H88.2973C88.237 136.1 88.1366 136.034 88.1166 135.951C87.0221 132.58 85.9176 129.201 84.8232 125.824C83.9396 123.111 83.0159 120.415 82.1624 117.685C81.1081 114.282 80.084 110.87 79.1 107.441C78.6181 105.736 78.2768 103.996 77.855 102.283C77.5237 100.942 77.1723 99.6198 76.8008 98.1629C75.8971 98.7543 75.0437 99.2453 74.2605 99.8357C72.142 101.45 70.1338 103.214 67.7441 104.462C67.5232 104.579 67.3224 104.712 67.1417 104.87C66.4991 105.411 66.1376 106.16 66.2983 106.776C66.7902 108.681 67.2923 110.595 67.8445 112.484C68.5072 114.731 69.2502 116.945 69.9129 119.191C70.6458 121.688 71.3086 124.209 72.0315 126.713C73.136 130.558 74.2705 134.394 75.385 138.231C76.0376 140.444 76.6502 142.666 77.3329 144.871C78.086 147.318 79.1101 149.689 79.4715 152.261C79.6222 153.326 79.9334 154.374 80.1744 155.414Z" fill="#73A9AD"/>
<path d="M75.7575 154.881C76.6612 155.073 77.5749 155.172 78.4786 155.314C78.087 153.983 77.7657 152.76 77.354 151.562C76.8118 149.922 76.139 148.316 75.6069 146.668C74.8237 144.272 74.0808 141.859 73.388 139.437C72.7654 137.24 72.2935 135.002 71.661 132.813C70.8075 129.892 69.8436 127.005 68.9902 124.085C68.2874 121.696 67.705 119.274 67.0122 116.878C66.4198 114.831 65.8775 112.751 65.0643 110.779C64.3313 108.965 64.1907 107.092 64.0401 105.211C63.9598 104.13 64.1205 104.105 62.8252 103.988C60.8271 103.814 58.829 103.639 56.831 103.505C55.9273 103.447 55.0237 103.497 53.9795 103.497C54.2908 103.996 54.5919 104.363 54.7626 104.779C56.0679 107.949 57.333 111.119 58.6283 114.29C59.7127 116.97 60.7971 119.649 61.9116 122.312C62.765 124.351 63.6787 126.356 64.5221 128.395C65.2049 130.076 65.7872 131.798 66.4699 133.479C67.3033 135.51 68.2471 137.498 69.0805 139.529C70.2251 142.342 71.2895 145.179 72.4341 147.999C73.2775 150.105 74.1811 152.185 75.0848 154.266C75.2053 154.524 75.5065 154.823 75.7575 154.881Z" fill="#73A9AD"/>
<path d="M107.235 155.481C106.613 152.335 106.04 149.398 105.458 146.452C105.066 144.422 104.665 142.392 104.263 140.352H104.273V140.344C104.133 139.621 103.982 138.897 103.831 138.173C103.37 136.034 102.888 133.886 102.456 131.74C102.145 130.226 101.914 128.694 101.612 127.171C101.04 124.309 100.428 121.455 99.8552 118.592C99.3632 116.087 98.9214 113.566 98.4295 111.053C97.8371 108.057 97.2247 105.07 96.6021 102.083C96.1001 99.5776 95.588 97.0644 95.0458 94.5683C94.7547 93.2038 94.4735 93.0542 93.1381 93.3454C91.6923 93.6617 90.2665 94.0021 88.8207 94.3274C87.5154 94.6266 86.19 94.8434 84.9148 95.226C82.9067 95.8415 80.9387 96.5654 78.9507 97.2391C78.9406 97.2391 78.9307 97.2311 78.9307 97.2311C78.4688 97.3978 78.027 97.5554 77.5752 97.7221C77.6957 98.3958 77.8262 99.0123 77.9366 99.6358C77.9768 99.6609 78.027 99.678 78.0571 99.7031C78.027 99.7443 77.9768 99.7945 77.9366 99.8356V99.8437C78.0571 100.119 78.2178 100.369 78.288 100.651C78.8202 102.566 79.3423 104.487 79.8644 106.401C80.1556 107.458 80.4467 108.532 80.7279 109.597V109.613C81.25 111.211 81.7821 112.809 82.3143 114.407C82.4348 114.589 82.5955 114.756 82.6557 114.956C82.8967 115.672 83.0875 116.404 83.3284 117.128C84.5936 120.889 85.8586 124.642 87.1338 128.403C87.9069 130.683 88.67 132.972 89.4532 135.243C89.9854 136.766 90.5777 138.256 91.0998 139.778C91.6822 141.492 92.1742 143.232 92.7565 144.946C93.5397 147.293 94.3831 149.623 95.1864 151.96C95.6281 153.284 96.0198 154.615 96.4013 155.83C100.056 155.714 103.6 155.597 107.235 155.481Z" fill="#73A9AD"/>
<path d="M118.822 30.6764L121.774 36.0702L127.166 39.0191L121.774 41.969L118.822 47.3618L115.87 41.969L110.478 39.0191L115.87 36.0702L118.822 30.6764Z" fill="#73A9AD"/>
<path d="M119.716 69.7079L121.503 72.9821L124.777 74.7734L121.503 76.5636L119.716 79.8389L117.919 76.5636L114.646 74.7734L117.919 72.9821L119.716 69.7079Z" fill="#73A9AD"/>
<path d="M24.9618 71.4487L26.6687 74.5613L29.7813 76.2632L26.6687 77.9651L24.9618 81.0767L23.2649 77.9651L20.1523 76.2632L23.2649 74.5613L24.9618 71.4487Z" fill="#73A9AD"/>
<path d="M52.3733 29.1379L53.6584 31.4804L55.9979 32.7626L53.6584 34.0437L52.3733 36.3872L51.0981 34.0437L48.7485 32.7626L51.0981 31.4804L52.3733 29.1379Z" fill="#73A9AD"/>
<path d="M85.8179 31.7179C85.8179 32.3354 85.326 32.8354 84.7034 32.8354C84.091 32.8354 83.5889 32.3354 83.5889 31.7179C83.5889 31.1014 84.091 30.6004 84.7034 30.6004C85.326 30.6004 85.8179 31.1014 85.8179 31.7179Z" fill="#73A9AD"/>
<path d="M148.171 46.6911C148.171 47.3086 147.669 47.8086 147.056 47.8086C146.434 47.8086 145.932 47.3086 145.932 46.6911C145.932 46.0746 146.434 45.5736 147.056 45.5736C147.669 45.5736 148.171 46.0746 148.171 46.6911Z" fill="#73A9AD"/>
<path d="M141.021 65.6857C141.021 66.3032 140.519 66.8032 139.897 66.8032C139.284 66.8032 138.782 66.3032 138.782 65.6857C138.782 65.0692 139.284 64.5682 139.897 64.5682C140.519 64.5682 141.021 65.0692 141.021 65.6857Z" fill="#73A9AD"/>
<path d="M96.9922 53.6193C96.9922 54.4828 96.2894 55.1836 95.4259 55.1836C94.5624 55.1836 93.8696 54.4828 93.8696 53.6193C93.8696 52.7548 94.5624 52.055 95.4259 52.055C96.2894 52.055 96.9922 52.7548 96.9922 53.6193Z" fill="#73A9AD"/>
<path d="M104.142 19.8744C104.142 20.8624 103.349 21.6626 102.355 21.6626C101.371 21.6626 100.567 20.8624 100.567 19.8744C100.567 18.8874 101.371 18.0871 102.355 18.0871C103.349 18.0871 104.142 18.8874 104.142 19.8744Z" fill="#73A9AD"/>
<path d="M57.8853 75.9655C57.8853 76.583 57.3833 77.083 56.7708 77.083C56.1583 77.083 55.6562 76.583 55.6562 75.9655C55.6562 75.349 56.1583 74.848 56.7708 74.848C57.3833 74.848 57.8853 75.349 57.8853 75.9655Z" fill="#73A9AD"/>
<path d="M26.8293 94.9603C26.8293 95.9483 26.0261 96.7485 25.0421 96.7485C24.0481 96.7485 23.2549 95.9483 23.2549 94.9603C23.2549 93.9733 24.0481 93.1731 25.0421 93.1731C26.0261 93.1731 26.8293 93.9733 26.8293 94.9603Z" fill="#73A9AD"/>
<path d="M139.675 32.6117C139.675 33.5997 138.872 34.3999 137.888 34.3999C136.904 34.3999 136.101 33.5997 136.101 32.6117C136.101 31.6247 136.904 30.8245 137.888 30.8245C138.872 30.8245 139.675 31.6247 139.675 32.6117Z" fill="#73A9AD"/>
<path d="M153.532 60.3225C153.532 60.692 153.231 60.9922 152.86 60.9922C152.488 60.9922 152.197 60.692 152.197 60.3225C152.197 59.952 152.488 59.6518 152.86 59.6518C153.231 59.6518 153.532 59.952 153.532 60.3225Z" fill="#73A9AD"/>
</svg>
