<svg width="215" height="215" viewBox="0 0 215 215" fill="none" xmlns="http://www.w3.org/2000/svg">
<circle cx="107.143" cy="107.143" r="102.143" stroke="#3F4A4E" stroke-width="10"/>
<path d="M180.309 163.852C171.007 168.546 161.578 169.314 152.021 166.156C141.866 162.914 133.119 156.002 125.781 145.42C121.855 139.788 118.485 133.26 115.669 125.836L111.573 114.956H81.3646L74.5806 131.084C74.1539 132.194 73.9406 133.09 73.9406 133.772C73.9406 134.455 74.0686 135.223 74.3246 136.076C74.6659 136.844 75.3059 137.57 76.2446 138.252C77.2686 138.85 78.3779 139.148 79.5726 139.148H80.5966V140.428H53.2046V139.148H54.3566C56.3192 139.148 58.2392 138.594 60.1166 137.484C62.0792 136.29 63.7006 134.54 64.9806 132.236L93.5246 67.0845C90.1966 59.5751 86.6552 54.4125 82.9006 51.5965C79.7432 49.2071 76.7139 48.0125 73.8126 48.0125C70.9966 48.0125 68.3512 48.4391 65.8766 49.2925L65.6206 48.0125C71.7646 44.8551 77.6526 43.2765 83.2846 43.2765C90.2819 43.2765 96.5539 46.0071 102.101 51.4685C107.562 56.8445 112.383 64.6098 116.565 74.7645L135.125 120.588C142.122 137.911 149.29 149.815 156.629 156.3C159.615 158.946 162.687 160.78 165.845 161.804C169.002 162.828 171.647 163.34 173.781 163.34C175.999 163.34 178.133 163.084 180.181 162.572L180.309 163.852ZM83.5406 109.452H109.653L100.693 85.7725C100.266 84.5778 99.6686 82.9565 98.9006 80.9085C98.1326 78.7751 97.6206 77.2818 97.3646 76.4285L83.5406 109.452Z" fill="#3F4A4E"/>
</svg>
