<svg width="111" height="111" viewBox="0 0 111 111" fill="none" xmlns="http://www.w3.org/2000/svg">
<path d="M40.3134 111L38.1045 93.24C36.908 92.7775 35.7796 92.2225 34.7193 91.575C33.659 90.9275 32.6244 90.2338 31.6157 89.4938L15.1866 96.4313L0 70.0688L14.2202 59.2463C14.1281 58.5988 14.0821 57.9735 14.0821 57.3704V53.6297C14.0821 53.0266 14.1281 52.4013 14.2202 51.7538L0 40.9313L15.1866 14.5688L31.6157 21.5063C32.6281 20.7663 33.6866 20.0725 34.791 19.425C35.8955 18.7775 37 18.2225 38.1045 17.76L40.3134 0H70.6866L72.8955 17.76C74.092 18.2225 75.2205 18.7775 76.2808 19.425C77.341 20.0725 78.3756 20.7663 79.3843 21.5063L95.8134 14.5688L111 40.9313L96.7799 51.7538C96.8719 52.4013 96.9179 53.0266 96.9179 53.6297V57.3704C96.9179 57.9735 96.8259 58.5988 96.6418 59.2463L110.862 70.0688L95.6754 96.4313L79.3843 89.4938C78.3719 90.2338 77.3134 90.9275 76.209 91.575C75.1045 92.2225 74 92.7775 72.8955 93.24L70.6866 111H40.3134ZM55.7761 74.925C61.1144 74.925 65.6704 73.0288 69.444 69.2363C73.2177 65.4438 75.1045 60.865 75.1045 55.5C75.1045 50.135 73.2177 45.5562 69.444 41.7637C65.6704 37.9712 61.1144 36.075 55.7761 36.075C50.3458 36.075 45.7659 37.9712 42.0364 41.7637C38.307 45.5562 36.4441 50.135 36.4478 55.5C36.4478 60.865 38.3107 65.4438 42.0364 69.2363C45.7622 73.0288 50.3421 74.925 55.7761 74.925Z" fill="white"/>
</svg>
