<svg width="137" height="136" viewBox="0 0 137 136" fill="none" xmlns="http://www.w3.org/2000/svg">
<path d="M117.326 67.9368C117.326 94.9399 95.4354 116.83 68.4323 116.83C41.4292 116.83 19.5391 94.9399 19.5391 67.9368C19.5391 40.9338 41.4292 19.0436 68.4323 19.0436C95.4354 19.0436 117.326 40.9338 117.326 67.9368Z" stroke="white" stroke-width="2.66667" stroke-miterlimit="10" stroke-linecap="round" stroke-linejoin="round"/>
<path d="M55.5296 36.3555L47.6641 18.5447" stroke="white" stroke-width="2.66667" stroke-miterlimit="10" stroke-linecap="round" stroke-linejoin="round"/>
<path d="M41.4672 47.0391L25.75 35.5463" stroke="white" stroke-width="2.66667" stroke-miterlimit="10" stroke-linecap="round" stroke-linejoin="round"/>
<path d="M34.6305 63.3203L15.2734 61.2261" stroke="white" stroke-width="2.66667" stroke-miterlimit="10" stroke-linecap="round" stroke-linejoin="round"/>
<path d="M36.8505 80.8376L19.0391 88.7031" stroke="white" stroke-width="2.66667" stroke-miterlimit="10" stroke-linecap="round" stroke-linejoin="round"/>
<path d="M47.5331 94.902L36.041 110.619" stroke="white" stroke-width="2.66667" stroke-miterlimit="10" stroke-linecap="round" stroke-linejoin="round"/>
<path d="M63.8149 101.738L61.7207 121.096" stroke="white" stroke-width="2.66667" stroke-miterlimit="10" stroke-linecap="round" stroke-linejoin="round"/>
<path d="M81.334 99.5167L89.1995 117.328" stroke="white" stroke-width="2.66667" stroke-miterlimit="10" stroke-linecap="round" stroke-linejoin="round"/>
<path d="M95.3955 88.836L111.113 100.328" stroke="white" stroke-width="2.66667" stroke-miterlimit="10" stroke-linecap="round" stroke-linejoin="round"/>
<path d="M102.232 72.5529L121.59 74.6465" stroke="white" stroke-width="2.66667" stroke-miterlimit="10" stroke-linecap="round" stroke-linejoin="round"/>
<path d="M100.013 55.0332L117.824 47.1683" stroke="white" stroke-width="2.66667" stroke-miterlimit="10" stroke-linecap="round" stroke-linejoin="round"/>
<path d="M89.3301 40.9727L100.822 25.2561" stroke="white" stroke-width="2.66667" stroke-miterlimit="10" stroke-linecap="round" stroke-linejoin="round"/>
<path d="M73.0488 34.1367L75.1431 14.7791" stroke="white" stroke-width="2.66667" stroke-miterlimit="10" stroke-linecap="round" stroke-linejoin="round"/>
<path d="M77.0251 67.9347C77.0251 72.6807 73.1777 76.5273 68.4325 76.5273C63.6872 76.5273 59.8398 72.6807 59.8398 67.9347C59.8398 63.1894 63.6872 59.3421 68.4325 59.3421C73.1777 59.3421 77.0251 63.1894 77.0251 67.9347Z" fill="white"/>
<path d="M62.6717 23.5684L61.5215 16.9218" stroke="white" stroke-width="2.66667" stroke-miterlimit="10" stroke-linecap="round" stroke-linejoin="round"/>
<path d="M41.2591 32.3945L36.9395 27.2135" stroke="white" stroke-width="2.66667" stroke-miterlimit="10" stroke-linecap="round" stroke-linejoin="round"/>
<path d="M27.1268 50.7422L20.7949 48.4146" stroke="white" stroke-width="2.66667" stroke-miterlimit="10" stroke-linecap="round" stroke-linejoin="round"/>
<path d="M24.0626 73.6955L17.416 74.8457" stroke="white" stroke-width="2.66667" stroke-miterlimit="10" stroke-linecap="round" stroke-linejoin="round"/>
<path d="M32.8867 95.1107L27.7051 99.4297" stroke="white" stroke-width="2.66667" stroke-miterlimit="10" stroke-linecap="round" stroke-linejoin="round"/>
<path d="M51.2351 109.239L48.9082 115.57" stroke="white" stroke-width="2.66667" stroke-miterlimit="10" stroke-linecap="round" stroke-linejoin="round"/>
<path d="M74.1914 112.308L75.3416 118.955" stroke="white" stroke-width="2.66667" stroke-miterlimit="10" stroke-linecap="round" stroke-linejoin="round"/>
<path d="M95.6035 103.481L99.9225 108.662" stroke="white" stroke-width="2.66667" stroke-miterlimit="10" stroke-linecap="round" stroke-linejoin="round"/>
<path d="M109.736 85.136L116.068 87.4629" stroke="white" stroke-width="2.66667" stroke-miterlimit="10" stroke-linecap="round" stroke-linejoin="round"/>
<path d="M112.801 62.1777L119.448 61.0275" stroke="white" stroke-width="2.66667" stroke-miterlimit="10" stroke-linecap="round" stroke-linejoin="round"/>
<path d="M103.977 40.7637L109.158 36.444" stroke="white" stroke-width="2.66667" stroke-miterlimit="10" stroke-linecap="round" stroke-linejoin="round"/>
<path d="M85.6289 26.6328L87.9558 20.3016" stroke="white" stroke-width="2.66667" stroke-miterlimit="10" stroke-linecap="round" stroke-linejoin="round"/>
<path d="M91.9957 67.9382C91.9957 80.9519 81.4457 91.502 68.4319 91.502C55.4182 91.502 44.8682 80.9519 44.8682 67.9382C44.8682 54.9244 55.4182 44.375 68.4319 44.375C81.4457 44.375 91.9957 54.9244 91.9957 67.9382Z" stroke="white" stroke-width="2.66667" stroke-miterlimit="10" stroke-linecap="round" stroke-linejoin="round"/>
<path d="M58.3084 20.7986C58.3084 21.8372 57.4666 22.6797 56.428 22.6797C55.3887 22.6797 54.5469 21.8372 54.5469 20.7986C54.5469 19.7594 55.3887 18.9175 56.428 18.9175C57.4666 18.9175 58.3084 19.7594 58.3084 20.7986Z" fill="white"/>
<path d="M36.0954 32.1772C36.6151 33.0764 36.3067 34.2266 35.4068 34.7456C34.5076 35.2652 33.3574 34.9569 32.8384 34.0576C32.3188 33.1577 32.6271 32.0081 33.5264 31.4885C34.4262 30.9695 35.5758 31.2773 36.0954 32.1772Z" fill="white"/>
<path d="M22.5465 53.1353C23.4463 53.6543 23.7541 54.8045 23.2351 55.7038C22.7155 56.6036 21.5659 56.9114 20.666 56.3924C19.7668 55.8728 19.4584 54.7232 19.978 53.8233C20.497 52.9241 21.6472 52.6157 22.5465 53.1353Z" fill="white"/>
<path d="M21.2945 78.062C22.3338 78.062 23.1756 78.9045 23.1756 79.9431C23.1756 80.9824 22.3338 81.8242 21.2945 81.8242C20.2559 81.8242 19.4141 80.9824 19.4141 79.9431C19.4141 78.9045 20.2559 78.062 21.2945 78.062Z" fill="white"/>
<path d="M32.6719 100.276C33.5717 99.756 34.722 100.064 35.241 100.964C35.7606 101.864 35.4522 103.014 34.553 103.533C33.6531 104.052 32.5029 103.744 31.9839 102.845C31.4643 101.945 31.7726 100.795 32.6719 100.276Z" fill="white"/>
<path d="M53.631 113.822C54.1507 112.922 55.3009 112.614 56.2001 113.133C57.0994 113.652 57.4077 114.803 56.8881 115.702C56.3691 116.601 55.2189 116.91 54.3197 116.39C53.4198 115.871 53.1121 114.721 53.631 113.822Z" fill="white"/>
<path d="M78.5566 115.073C78.5566 114.035 79.3985 113.193 80.4371 113.193C81.4763 113.193 82.3182 114.035 82.3182 115.073C82.3182 116.113 81.4763 116.955 80.4371 116.955C79.3985 116.955 78.5566 116.113 78.5566 115.073Z" fill="white"/>
<path d="M100.768 103.696C100.249 102.796 100.557 101.646 101.456 101.127C102.356 100.608 103.506 100.916 104.025 101.815C104.545 102.715 104.237 103.865 103.337 104.384C102.438 104.904 101.288 104.596 100.768 103.696Z" fill="white"/>
<path d="M114.316 82.7398C113.416 82.2202 113.108 81.0699 113.627 80.1707C114.146 79.2714 115.296 78.9631 116.196 79.4821C117.095 80.0017 117.404 81.1519 116.884 82.0511C116.365 82.951 115.214 83.2594 114.316 82.7398Z" fill="white"/>
<path d="M115.568 57.8145C114.53 57.8145 113.688 56.972 113.688 55.9334C113.688 54.8948 114.53 54.0523 115.568 54.0523C116.607 54.0523 117.449 54.8948 117.449 55.9334C117.449 56.972 116.607 57.8145 115.568 57.8145Z" fill="white"/>
<path d="M104.192 35.6011C103.293 36.1207 102.143 35.8123 101.624 34.9131C101.104 34.0132 101.412 32.8636 102.312 32.344C103.211 31.825 104.362 32.1327 104.881 33.0326C105.4 33.9319 105.092 35.0821 104.192 35.6011Z" fill="white"/>
<path d="M83.2325 22.0518C82.7128 22.951 81.5626 23.2594 80.6628 22.7397C79.7641 22.2208 79.4552 21.0705 79.9754 20.1713C80.4944 19.2714 81.6446 18.9637 82.5439 19.4827C83.4437 20.0023 83.7515 21.1519 83.2325 22.0518Z" fill="white"/>
<path d="M75.4448 45.4389C75.9401 45.5924 76.4685 45.2978 76.5776 44.7909L83.44 12.9037C83.4482 12.8646 83.3915 12.8507 83.3807 12.8892L74.8436 44.3716C74.7197 44.8288 74.9923 45.2987 75.4448 45.4389V45.4389Z" fill="white"/>
<path d="M52.457 50.6209C52.8393 50.2698 52.8506 49.6631 52.4658 49.3148L28.2761 27.424C28.2471 27.3975 28.2061 27.4398 28.2338 27.4675L51.2319 50.6044C51.566 50.9405 52.108 50.9415 52.457 50.6209V50.6209Z" fill="white"/>
<path d="M63.2509 44.9485C63.7579 44.8366 64.0731 44.3166 63.914 43.8224L53.9124 12.772C53.9004 12.7341 53.8436 12.7505 53.8537 12.789L62.2013 44.3203C62.3224 44.778 62.7886 45.0505 63.2509 44.9485V44.9485Z" fill="white"/>
<path d="M92.0471 61.7067C91.5893 61.8279 91.3167 62.294 91.4187 62.7564V62.7564C91.5306 63.2636 92.0509 63.5792 92.5452 63.42L123.596 53.4179C123.633 53.4059 123.617 53.3492 123.578 53.3599L92.0471 61.7067Z" fill="white"/>
<path d="M91.9969 74.3481C91.5397 74.2241 91.0698 74.4968 90.9299 74.9493V74.9493C90.7767 75.4446 91.0713 75.973 91.5781 76.082L123.465 82.9445C123.504 82.9527 123.518 82.8953 123.479 82.8852L91.9969 74.3481Z" fill="white"/>
<path d="M85.7486 51.9645C86.0992 52.3468 86.705 52.3578 87.0531 51.9732L108.945 27.7834C108.972 27.7538 108.929 27.7134 108.902 27.7412L85.7651 50.7383C85.4288 51.0725 85.4282 51.615 85.7486 51.9645V51.9645Z" fill="white"/>
<path d="M44.8159 74.1689C45.2736 74.0477 45.5462 73.5819 45.4442 73.1195V73.1195C45.3323 72.6123 44.8119 72.2964 44.3176 72.4557L13.267 82.4577C13.2298 82.4697 13.2462 82.5265 13.2847 82.5164L44.8159 74.1689Z" fill="white"/>
<path d="M84.4069 85.2562C84.0245 85.6069 84.0135 86.2132 84.3982 86.5613L108.588 108.453C108.617 108.479 108.658 108.437 108.63 108.409L85.6326 85.2728C85.2984 84.9367 84.7562 84.9357 84.4069 85.2562V85.2562Z" fill="white"/>
<path d="M73.6116 90.9252C73.105 91.0368 72.7898 91.5562 72.9489 92.05L82.9506 123.102C82.9626 123.139 83.0193 123.123 83.0086 123.084L74.6618 91.553C74.5407 91.0953 74.0739 90.8233 73.6116 90.9252V90.9252Z" fill="white"/>
<path d="M44.8656 61.5272C45.3233 61.6513 45.7938 61.3783 45.9341 60.9253V60.9253C46.0874 60.43 45.7926 59.9021 45.2858 59.793L13.398 52.9304C13.3596 52.9222 13.3457 52.9796 13.3842 52.9897L44.8656 61.5272Z" fill="white"/>
<path d="M51.1144 83.9102C50.7635 83.5278 50.1576 83.5173 49.8094 83.9021L27.9175 108.092C27.891 108.121 27.9339 108.161 27.9616 108.133L51.0981 85.1369C51.4344 84.8026 51.435 84.2596 51.1144 83.9102V83.9102Z" fill="white"/>
<path d="M61.4179 90.435C60.9225 90.2818 60.3943 90.5767 60.2852 91.0837L53.4227 122.971C53.4145 123.01 53.4712 123.023 53.482 122.985L62.0191 91.5025C62.1431 91.0452 61.8705 90.575 61.4179 90.435V90.435Z" fill="white"/>
<path d="M68.4309 44.3737V44.3737C68.8801 44.3737 69.2494 44.0179 69.241 43.5689L68.4309 7.96942e-06L67.6208 43.5689C67.6125 44.0179 67.9818 44.3737 68.4309 44.3737V44.3737Z" fill="white"/>
<path d="M56.8144 47.5778C57.1271 47.3968 57.2393 46.9946 57.0525 46.6854L38.9512 16.705L55.9247 47.3394C56.0995 47.6549 56.5022 47.7586 56.8144 47.5778V47.5778Z" fill="white"/>
<path d="M48.0818 56.3575C48.2551 56.0602 48.1561 55.6757 47.8546 55.5097L18.6143 39.407L47.2364 56.5831C47.5295 56.759 47.9096 56.6529 48.0818 56.3575V56.3575Z" fill="white"/>
<path d="M80.1868 47.58C80.493 47.759 80.8896 47.6571 81.0601 47.3461L97.5972 17.178L79.9552 46.7121C79.7753 47.0132 79.8841 47.4029 80.1868 47.58V47.58Z" fill="white"/>
<path d="M136.369 67.9363L92.8002 67.1262C92.3515 67.1178 91.9954 67.4875 91.9954 67.9363V67.9363V67.9363C91.9954 68.3851 92.3515 68.7547 92.8002 68.7464L136.369 67.9363Z" fill="white"/>
<path d="M88.9301 56.3497C89.1012 56.6478 89.4844 56.7549 89.7779 56.5759L117.934 39.407L89.1547 55.5116C88.8586 55.6773 88.7612 56.0554 88.9301 56.3497V56.3497Z" fill="white"/>
<path d="M44.8678 67.9363V67.9363C44.8678 67.4875 44.5117 67.1178 44.063 67.1262L0.494141 67.9363L44.063 68.7464C44.5117 68.7547 44.8678 68.3851 44.8678 67.9363V67.9363Z" fill="white"/>
<path d="M80.1943 88.452C79.8889 88.6281 79.7793 89.0209 79.9621 89.3224L97.5972 118.391L81.0584 88.6836C80.8881 88.3778 80.4976 88.2772 80.1943 88.452V88.452Z" fill="white"/>
<path d="M88.93 79.6942C88.7611 79.9886 88.8586 80.3669 89.1547 80.5326L117.934 96.6367L89.7782 79.468C89.4846 79.2889 89.1012 79.3959 88.93 79.6942V79.6942Z" fill="white"/>
<path d="M68.4309 91.5007V91.5007C67.9821 91.5007 67.6125 91.8568 67.6208 92.3055L68.4309 135.875L69.241 92.3055C69.2494 91.8568 68.8797 91.5007 68.4309 91.5007V91.5007Z" fill="white"/>
<path d="M56.8598 88.439C56.5714 88.2718 56.1992 88.3676 56.0378 88.6593L40.3701 116.973L57.0796 89.2627C57.2518 88.9772 57.1482 88.6062 56.8598 88.439V88.439Z" fill="white"/>
<path d="M48.0679 79.7185C47.8868 79.4059 47.4846 79.2938 47.1753 79.4805L17.1953 97.582L47.8293 80.6088C48.145 80.4338 48.2489 80.0309 48.0679 79.7185V79.7185Z" fill="white"/>
</svg>
