<svg width="86" height="86" viewBox="0 0 86 86" fill="none" xmlns="http://www.w3.org/2000/svg">
<g opacity="0.8">
<path d="M59.6679 63.166C60.6442 63.166 61.6142 62.7892 62.3545 62.0482C63.8478 60.5663 63.8478 58.1518 62.3545 56.6635L51.4546 45.7539C49.9741 44.2657 47.5621 44.2657 46.0751 45.7539C44.5882 47.2422 44.5882 49.6502 46.0751 51.1385L56.975 62.0482C57.7216 62.7892 58.6915 63.166 59.6679 63.166" fill="#98FB98"/>
<path d="M36.7406 40.2012C37.7106 40.2012 38.6806 39.8307 39.4272 39.0834C40.9142 37.5951 40.9142 35.1871 39.4272 33.7052L28.5274 22.7955C27.0405 21.3072 24.6348 21.3072 23.1479 22.7955C21.661 24.2774 21.661 26.6919 23.1479 28.1738L34.0477 39.0834C34.7944 39.8307 35.7642 40.2012 36.7406 40.2012" fill="#98FB98"/>
<path d="M48.9571 40.3867C49.9271 40.3867 50.8971 40.0226 51.6437 39.2817L62.3516 28.5508C63.8449 27.0689 63.8449 24.6609 62.3516 23.1663C60.8711 21.6844 58.4591 21.6844 56.9721 23.1663L46.2636 33.8908C44.7767 35.379 44.7767 37.7871 46.2636 39.2817C47.0039 40.0226 47.9743 40.3867 48.9571 40.3867" fill="#98FB98"/>
<path d="M25.8408 63.5371C26.8108 63.5371 27.7808 63.1603 28.5274 62.4193L39.6186 51.3181C41.0991 49.8298 41.0991 47.4216 39.6186 45.9398C38.1253 44.4451 35.7196 44.4451 34.2391 45.9398L23.1479 57.0348C21.661 58.523 21.661 60.931 23.1479 62.4193C23.8882 63.1603 24.858 63.5371 25.8408 63.5371" fill="#98FB98"/>
<path d="M3.79718 46.4219H30.9128C33.0124 46.4219 34.7162 44.7101 34.7162 42.6086C34.7162 40.5072 33.0124 38.8017 30.9128 38.8017H3.79718C1.69763 38.8017 0 40.5072 0 42.6086C0 44.7101 1.69763 46.4219 3.79718 46.4219Z" fill="#98FB98"/>
<path d="M54.5847 46.4219H81.3239C83.4234 46.4219 85.1273 44.7101 85.1273 42.6086C85.1273 40.5072 83.4234 38.8017 81.3239 38.8017H54.5847C52.4851 38.8017 50.7812 40.5072 50.7812 42.6086C50.7812 44.7101 52.4851 46.4219 54.5847 46.4219Z" fill="#98FB98"/>
<path d="M42.5656 85.2305C44.6652 85.2305 46.3628 83.5251 46.3628 81.4236V54.2707C46.3628 52.1692 44.6652 50.4702 42.5656 50.4702C40.4661 50.4702 38.7622 52.1692 38.7622 54.2707V81.4236C38.7622 83.5251 40.4661 85.2305 42.5656 85.2305Z" fill="#98FB98"/>
<path d="M42.5656 34.377C44.6652 34.377 46.3628 32.6779 46.3628 30.5701V3.81312C46.3628 1.71166 44.6652 -0.000144873 42.5656 -0.000144873C40.4661 -0.000144873 38.7622 1.71166 38.7622 3.81312V30.5701C38.7622 32.6779 40.4661 34.377 42.5656 34.377Z" fill="#98FB98"/>
<path d="M28.0269 39.7249L40.0566 27.6847C41.4861 26.2603 44.0129 26.2603 45.4423 27.6847L57.4721 39.7249C58.959 41.2132 58.959 43.6213 57.4721 45.1096L45.4423 57.1562C44.7021 57.8971 43.7195 58.2676 42.7495 58.2676C41.7795 58.2676 40.8033 57.8971 40.0566 57.1562L28.0269 45.1096C26.5464 43.6213 26.5464 41.2132 28.0269 39.7249" fill="#98FB98"/>
</g>
</svg>
