<svg width="237" height="237" viewBox="0 0 237 237" fill="none" xmlns="http://www.w3.org/2000/svg">
<path d="M119.517 71.5792C146.791 43.3057 187.919 36.4666 221.889 51.4284C217.336 42.0174 211.074 33.235 203.113 25.5546C166.875 -9.40274 109.166 -8.36587 74.2067 27.8689C39.2509 64.1038 40.2863 121.817 76.5226 156.772C84.4839 164.454 93.4852 170.396 103.053 174.61C86.8805 141.199 92.2419 99.8512 119.517 71.5792Z" fill="#367D83"/>
<path d="M93.9873 133.067C86.2231 129.169 78.8951 124.09 72.2656 117.822C74.4698 94.5547 84.2798 71.8443 101.77 53.7161C122.756 31.9618 150.728 21.0343 178.741 21.0343C186.08 21.0343 193.425 21.784 200.643 23.2865C201.476 24.0331 202.308 24.7751 203.119 25.5574C211.08 33.2378 217.342 42.0202 221.894 51.4312C210.203 46.2825 197.666 43.7152 185.135 43.7152C162.389 43.7152 139.667 52.1794 122.102 69.01C122.096 69.0162 122.09 69.0209 122.084 69.0271C122.075 69.038 122.064 69.0473 122.053 69.0566C122.043 69.0674 122.034 69.0752 122.023 69.0861C122.02 69.0892 122.017 69.0923 122.014 69.0954C121.171 69.9041 120.341 70.733 119.523 71.582C119.073 72.0477 118.629 72.5164 118.192 72.9899C118.186 72.9961 118.18 73.0023 118.174 73.0101C118.158 73.0256 118.143 73.0427 118.129 73.0582C118.115 73.0722 118.101 73.0892 118.088 73.1032C118.081 73.1094 118.076 73.1156 118.068 73.1234C102.408 90.1139 94.4079 111.542 93.9873 133.067Z" fill="#3F4A4E"/>
<path d="M71.5799 117.164C43.3063 89.8883 36.4673 48.7594 51.429 14.7908C42.018 19.345 33.2371 25.605 25.5552 33.5679C-9.40211 69.8027 -8.36677 127.515 27.8696 162.473C64.1044 197.432 121.816 196.393 156.775 160.158C164.456 152.196 170.394 143.196 174.609 133.628C141.198 149.799 99.8518 144.439 71.5799 117.164Z" fill="#829BBA"/>
<path d="M117.816 164.423C94.5485 162.218 71.8381 152.409 53.7098 134.918C26.2574 108.434 16.0454 70.8212 23.2803 36.0454C23.9477 35.3019 24.6105 34.5569 25.3028 33.8289C25.3851 33.742 25.4689 33.655 25.5527 33.5697C28.8682 30.1331 32.3887 27.0131 36.0752 24.2114C40.9305 20.5218 46.076 17.3832 51.425 14.7941C49.9426 18.1593 48.6745 21.5959 47.619 25.0837C38.0309 56.7768 46.1055 92.5956 71.5758 117.167C88.8022 133.787 110.878 142.269 133.06 142.703C129.163 150.465 124.084 157.793 117.816 164.423Z" fill="#B8C6D8"/>
<path d="M117.167 165.107C89.8914 193.38 48.7641 200.221 14.7939 185.259C19.3481 194.668 25.6082 203.451 33.571 211.133C69.8058 246.092 127.52 245.055 162.476 208.817C197.432 172.584 196.396 114.869 160.162 79.912C152.199 72.2301 143.201 66.2898 133.631 62.0771C149.802 95.4884 144.441 136.835 117.167 165.107Z" fill="#94CED2"/>
<path d="M57.9454 215.66C50.6065 215.66 43.2631 214.909 36.0437 213.408C35.4151 212.843 34.7818 212.279 34.1609 211.7C33.9638 211.512 33.7666 211.323 33.5695 211.134C25.6066 203.453 19.3481 194.672 14.7939 185.263C26.4836 190.412 39.0177 192.979 51.5487 192.977C75.4264 192.977 99.2761 183.653 117.164 165.111C133.305 148.379 141.771 127.067 142.642 105.532C142.668 104.903 142.687 104.272 142.699 103.643C142.913 103.75 143.126 103.859 143.339 103.967C143.641 104.123 143.944 104.275 144.245 104.433C145.277 104.978 146.303 105.541 147.32 106.128C147.466 106.21 147.609 106.288 147.753 106.372C148.919 107.053 150.071 107.763 151.213 108.5C151.454 108.657 151.69 108.823 151.932 108.981C152.801 109.555 153.666 110.141 154.518 110.747C154.889 111.011 155.257 111.285 155.628 111.555C156.352 112.087 157.073 112.63 157.787 113.186C158.169 113.487 158.554 113.787 158.932 114.094C159.657 114.679 160.376 115.28 161.088 115.89C161.419 116.174 161.753 116.452 162.083 116.741C162.869 117.436 163.651 118.144 164.422 118.87C162.217 142.139 152.407 164.848 134.918 182.977C113.929 204.731 85.9582 215.66 57.9454 215.66Z" fill="#758D94"/>
<path d="M208.816 74.2064C193.382 59.3145 174.048 50.9791 154.237 49.0901C141.484 53.6691 129.559 61.1632 119.519 71.5739C112.945 78.385 107.66 85.9598 103.629 93.9955C125.807 94.4317 147.882 102.899 165.103 119.515C193.375 146.791 200.217 187.92 185.252 221.888C194.668 217.334 203.45 211.074 211.127 203.113C246.088 166.875 245.052 109.164 208.816 74.2064Z" fill="#292D32"/>
<path d="M185.255 221.888C200.221 187.921 193.378 146.794 165.107 119.52L165.103 119.519L165.089 119.503C164.902 119.325 164.715 119.146 164.527 118.968C164.493 118.935 164.455 118.899 164.421 118.867C157.79 112.597 150.464 107.522 142.698 103.625C138.1 101.319 133.351 99.4267 128.503 97.949C128.435 97.9288 128.366 97.9071 128.298 97.887L128.292 97.8854C120.252 95.4546 111.949 94.1616 103.629 93.9987C107.525 86.2345 112.604 78.9065 118.872 72.2755C142.138 74.4796 164.845 84.2787 182.973 101.767C210.423 128.25 220.635 165.863 213.403 200.636C212.655 201.468 211.911 202.303 211.127 203.116C211.037 203.209 210.947 203.302 210.857 203.394C203.244 211.223 194.557 217.389 185.255 221.888Z" fill="#2C3639"/>
</svg>
