<svg width="93" height="109" viewBox="0 0 93 109" fill="none" xmlns="http://www.w3.org/2000/svg">
<path d="M67.9835 86.3926C67.9835 88.0499 66.6395 89.3926 64.9835 89.3926H13.2222C11.5662 89.3926 10.2222 88.0499 10.2222 86.3926V83.1032C10.2222 81.4459 11.5662 80.1032 13.2222 80.1032H64.9835C66.6395 80.1032 67.9835 81.4459 67.9835 83.1032V86.3926Z" stroke="#292D32" stroke-width="1.6" stroke-miterlimit="10" stroke-linecap="round" stroke-linejoin="round"/>
<path d="M14.1439 89.4388L7.00928 107.007" stroke="#292D32" stroke-width="1.6" stroke-miterlimit="10" stroke-linecap="round" stroke-linejoin="round"/>
<path d="M64.062 89.4388L71.1967 107.007" stroke="#292D32" stroke-width="1.6" stroke-miterlimit="10" stroke-linecap="round" stroke-linejoin="round"/>
<path d="M1.81787 107.588H76.3885" stroke="#292D32" stroke-width="1.6" stroke-miterlimit="10" stroke-linecap="round" stroke-linejoin="round"/>
<path d="M77.2067 42.1444C77.2067 63.1844 60.1467 80.2417 39.1027 80.2417C18.0587 80.2417 1 63.1844 1 42.1444C1 21.1044 18.0587 4.04837 39.1027 4.04837C60.1467 4.04837 77.2067 21.1044 77.2067 42.1444Z" stroke="#292D32" stroke-width="1.6" stroke-miterlimit="10" stroke-linecap="round" stroke-linejoin="round"/>
<path d="M14.7974 30.4072C19.164 21.3859 28.4067 15.1632 39.1027 15.1632" stroke="#292D32" stroke-width="1.6" stroke-miterlimit="10" stroke-linecap="round" stroke-linejoin="round"/>
<path d="M12.1172 42.144C12.1172 39.788 12.4199 37.5014 12.9879 35.3227" stroke="#292D32" stroke-width="1.6" stroke-miterlimit="10" stroke-linecap="round" stroke-linejoin="round"/>
<path d="M67.1741 4.63343e-06L69.6927 15.016L84.7114 17.5347L69.6927 20.0533L67.1741 35.0693L64.6554 20.0533L49.6367 17.5347L64.6554 15.016L67.1741 4.63343e-06Z" fill="#292D32"/>
<path d="M56.6068 28.3773L57.6775 34.7573L64.0588 35.8267L57.6775 36.8973L56.6068 43.2773L55.5361 36.8973L49.1548 35.8267L55.5361 34.7573L56.6068 28.3773Z" fill="#292D32"/>
<path d="M81.555 32.8451L83.1084 42.1038L92.3684 43.6558L83.1084 45.2091L81.555 54.4678L80.0017 45.2091L70.7417 43.6558L80.0017 42.1038L81.555 32.8451Z" fill="#292D32"/>
<path d="M19.439 96.0116L16.3203 99.1302L19.439 102.248L22.5576 99.1302L19.439 96.0116Z" fill="#292D32"/>
<path d="M32.5484 96.0116L29.4297 99.1302L32.5484 102.248L35.667 99.1302L32.5484 96.0116Z" fill="#292D32"/>
<path d="M45.6577 96.0116L42.5391 99.1302L45.6577 102.248L48.7764 99.1302L45.6577 96.0116Z" fill="#292D32"/>
<path d="M58.7671 96.0116L55.6484 99.1302L58.7671 102.248L61.8858 99.1302L58.7671 96.0116Z" fill="#292D32"/>
</svg>
