<svg width="197" height="197" viewBox="0 0 197 197" fill="none" xmlns="http://www.w3.org/2000/svg">
<path d="M98.3333 10.1658C49.722 10.1658 10.1667 49.7212 10.1667 98.3326C10.1667 146.946 49.722 186.499 98.3333 186.499C146.947 186.499 186.5 146.946 186.5 98.3326C186.5 49.7211 146.947 10.1658 98.3333 10.1658ZM98.3333 194.166C45.4886 194.166 2.5 151.176 2.5 98.3326C2.5 45.4878 45.4886 2.49915 98.3333 2.49915C151.177 2.49915 194.167 45.4877 194.167 98.3326C194.167 151.176 151.177 194.166 98.3333 194.166Z" stroke="#3F4A4E" stroke-width="5"/>
<path d="M119.583 121.626C119.704 121.758 119.769 121.904 119.783 122.06C119.796 122.214 119.758 122.372 119.68 122.528L119.68 122.529C119.566 122.752 119.303 123.145 118.989 123.423C118.833 123.562 118.659 123.676 118.48 123.723C118.299 123.77 118.113 123.746 117.945 123.61L117.945 123.61C117.806 123.496 117.74 123.363 117.733 123.222C117.726 123.087 117.771 122.953 117.84 122.827C117.861 122.616 117.958 122.4 118.088 122.211C118.222 122.019 118.393 121.85 118.563 121.741L118.563 121.741C118.678 121.669 118.857 121.565 119.042 121.514C119.226 121.464 119.436 121.462 119.583 121.626ZM119.583 121.626C119.583 121.626 119.583 121.626 119.583 121.626L119.534 121.67L119.583 121.626C119.583 121.626 119.583 121.626 119.583 121.626ZM104.273 62.2149L104.272 62.2147L104.178 62.1575L104.273 62.2149ZM104.273 62.2149C104.422 62.307 104.487 62.4498 104.489 62.6014C104.492 62.75 104.436 62.9066 104.348 63.0399C104.261 63.1735 104.138 63.2899 103.999 63.3551C103.859 63.4207 103.699 63.4352 103.549 63.356L103.451 63.304M104.273 62.2149L103.451 63.304M99.5775 63.1002L99.5776 63.1001C99.9054 62.9107 100.063 62.659 100.091 62.3811C100.119 62.1074 100.019 61.8196 99.8564 61.5548C99.6931 61.2891 99.4625 61.0403 99.2171 60.8421C98.9723 60.6444 98.7085 60.4938 98.477 60.4289C98.477 60.4289 98.4769 60.4288 98.4769 60.4288L98.4589 60.493L99.5775 63.1002ZM99.5775 63.1002C99.4151 63.1936 99.2503 63.2158 99.0909 63.1836C98.933 63.1517 98.7841 63.0672 98.6488 62.9534C98.3808 62.7279 98.1543 62.3771 98.0026 62.0407L99.5775 63.1002ZM97.6839 137.473L97.6842 137.474C97.9949 137.921 98.5709 138.022 99.1397 137.965C99.7118 137.909 100.302 137.692 100.674 137.472M97.6839 137.473L100.674 137.472M97.6839 137.473C97.4585 137.144 97.4405 136.831 97.5557 136.545C97.6663 136.27 97.8968 136.025 98.164 135.812L98.1977 135.651L98.1966 135.651L98.2012 135.64C98.326 135.333 98.6171 135.105 98.9333 134.933C99.2513 134.761 99.6068 134.64 99.8757 134.552L99.8758 134.552C100.474 134.359 101.238 134.219 101.801 134.664M97.6839 137.473L101.801 134.664M100.674 137.472C101.121 137.209 101.723 136.773 102.057 136.274C102.224 136.023 102.328 135.751 102.303 135.472C102.278 135.191 102.124 134.917 101.801 134.664M100.674 137.472L101.801 134.664M77.3979 132.932L77.3979 132.932C77.4929 133.348 77.891 133.625 78.323 133.812C78.7594 134 79.2538 134.105 79.5787 134.165C79.5787 134.165 79.5788 134.165 79.5788 134.165L79.5909 134.1L77.3979 132.932ZM77.3979 132.932C77.3369 132.663 77.3571 132.428 77.4391 132.227C77.5209 132.027 77.6624 131.865 77.8371 131.74C78.185 131.49 78.6698 131.38 79.1087 131.392L79.1089 131.392L77.3979 132.932ZM68.9832 130.766C68.6453 130.89 68.3438 130.821 68.0884 130.658C67.3805 130.555 66.7697 130.077 66.5306 129.392L66.5306 129.392C66.4566 129.18 66.5317 128.961 66.6667 128.803C66.8012 128.645 67.0056 128.535 67.2119 128.547C67.6603 128.568 68.0978 128.781 68.4608 129.083C68.8242 129.384 69.1181 129.778 69.278 130.171L69.2781 130.171C69.3249 130.287 69.2958 130.42 69.239 130.526C69.1821 130.632 69.0889 130.728 68.9832 130.766ZM68.9832 130.766L68.9603 130.704L68.983 130.766C68.9831 130.766 68.9831 130.766 68.9832 130.766ZM103.451 63.304C103.26 63.2036 103.16 63.0512 103.137 62.8846M103.451 63.304L103.137 62.8846M103.137 62.8846C103.113 62.7207 103.163 62.5503 103.256 62.4091M103.137 62.8846L103.256 62.4091M103.256 62.4091C103.44 62.1295 103.815 61.9356 104.177 62.1573L103.256 62.4091ZM129.119 91.8919L129.131 91.8926L126.714 94.1928L126.647 94.1957C126.647 94.1956 126.647 94.1956 126.647 94.1955C126.626 93.7043 126.78 93.1385 127.062 92.6624C127.344 92.1868 127.758 91.7917 128.264 91.6557C128.545 91.5783 128.82 91.7022 129.028 91.8865L129.119 91.8919ZM127.392 95.8334L127.435 95.7824L129.127 95.4094C129.127 95.4094 129.127 95.4095 129.127 95.4095C128.946 95.6875 128.664 95.9173 128.352 96.0166C128.037 96.1167 127.691 96.084 127.392 95.8334ZM123.19 105.229L123.196 105.219L123.204 105.212C123.605 104.881 124.172 104.448 124.778 104.188C125.383 103.929 126.041 103.836 126.611 104.21C127.487 104.784 127.871 105.606 127.987 106.502C128.103 107.395 127.954 108.364 127.765 109.239C127.524 110.358 126.946 112.249 126.017 113.736C125.553 114.48 124.998 115.127 124.35 115.525C123.699 115.925 122.955 116.071 122.121 115.814C121.268 115.55 120.734 114.909 120.457 114.068C120.18 113.228 120.155 112.186 120.319 111.105C120.646 108.949 121.726 106.614 123.091 105.39L123.19 105.229ZM116.745 73.9595L116.745 73.9595L116.743 73.9568L116.626 73.7796L116.414 73.6241L116.403 73.6158L116.396 73.6035L116.353 73.5291L116.353 73.5287C116.206 73.2672 116.289 73.0122 116.434 72.8003C116.434 72.8 116.434 72.7997 116.435 72.7994L116.48 72.7279L116.481 72.7266C116.567 72.5982 116.729 72.5113 116.888 72.492C117.047 72.4727 117.22 72.5195 117.312 72.6812L117.365 72.741L117.375 72.7522L117.379 72.7665L117.419 72.9052C117.546 73.2045 117.572 73.4822 117.437 73.8289C117.384 73.9654 117.259 74.0602 117.127 74.0913C116.993 74.1228 116.842 74.0906 116.745 73.9595ZM110.76 129.456L110.76 129.456C110.472 129.637 110.03 129.825 109.607 129.861C109.394 129.879 109.183 129.859 108.996 129.776C108.809 129.693 108.651 129.549 108.547 129.325L108.546 129.325C108.146 128.465 108.619 127.59 109.11 126.915C109.479 126.408 109.851 125.953 110.356 125.619C110.617 125.354 110.909 125.152 111.218 125.07C111.532 124.987 111.859 125.028 112.18 125.244C112.588 125.519 112.768 125.886 112.788 126.29C112.808 126.69 112.671 127.122 112.457 127.534C112.028 128.358 111.276 129.13 110.76 129.456ZM106.969 69.7939L106.969 69.7936C106.826 69.5089 106.687 69.1989 106.562 68.8794C106.528 68.8146 106.491 68.7492 106.454 68.6829C106.379 68.5505 106.302 68.4145 106.24 68.2714L106.24 68.2707L106.232 68.2509C106.116 67.9724 105.975 67.6348 105.902 67.2909C105.827 66.9387 105.822 66.5702 105.993 66.2458L105.993 66.2458C106.124 66.0005 106.276 65.8297 106.445 65.7227C106.615 65.6153 106.797 65.5746 106.982 65.584C107.345 65.6025 107.716 65.8149 108.03 66.0856C108.536 66.3523 108.985 66.8164 109.338 67.3479C109.691 67.8802 109.95 68.4849 110.072 69.0379C110.313 69.5994 110.453 70.1675 110.356 70.6411C110.307 70.8805 110.197 71.0956 110.01 71.2714C109.824 71.4468 109.565 71.5799 109.221 71.6619L109.221 71.6619C108.685 71.7892 108.208 71.4863 107.829 71.0826C107.449 70.6767 107.151 70.1523 106.969 69.7939ZM125.554 81.0449L125.554 81.0451C126.099 82.1012 126.7 83.9753 126.732 85.6767C126.747 86.5276 126.62 87.3416 126.267 87.9894C125.912 88.6401 125.331 89.119 124.448 89.2982L124.448 89.2982C123.77 89.4349 123.161 88.9698 122.682 88.3881C122.201 87.8018 121.832 87.0728 121.634 86.6266L121.695 86.5996L121.634 86.6266C121.151 85.536 120.97 84.5238 120.874 83.3451C120.841 82.9453 120.779 82.187 120.824 81.42C120.846 81.0364 120.894 80.6487 120.987 80.3013C121.078 79.9596 121.213 79.6522 121.412 79.4265C121.525 79.1081 121.702 78.8308 121.957 78.6334C122.216 78.4328 122.55 78.3182 122.966 78.3225C123.272 78.3253 123.56 78.45 123.824 78.6426C124.088 78.8352 124.333 79.0982 124.552 79.3842C124.982 79.9443 125.324 80.6027 125.541 81.0191L125.554 81.0449ZM48.1246 106.219C48.2705 107.099 48.4474 107.967 48.6453 108.83L48.6453 108.83C53.0999 128.372 70.5734 142.963 91.4656 142.963C115.731 142.963 135.399 123.292 135.399 99.0293C135.399 74.7645 115.731 55.0957 91.4656 55.0957C85.1218 55.0957 79.0937 56.451 73.6473 58.8713C72.7138 59.287 71.7944 59.7248 70.8985 60.1997C72.1694 60.0339 73.4645 59.9439 74.7805 59.9317C74.7807 59.9317 74.7808 59.9317 74.781 59.9317L75.0785 59.9237H75.0803C92.3692 59.9237 106.384 73.6657 106.384 90.6209C106.384 107.575 92.3692 121.317 75.0803 121.317C64.6372 121.317 55.3962 116.298 49.7093 108.593C49.1441 107.828 48.6149 107.036 48.1246 106.219ZM81.4772 133.764C81.2419 133.999 80.897 134.131 80.5346 134.117L81.6896 132.797L81.7547 132.783C81.7548 132.783 81.7548 132.783 81.7548 132.783C81.8403 133.18 81.7165 133.524 81.4772 133.764Z" fill="#3F4A4E" stroke="#3F4A4E" stroke-width="0.133333"/>
</svg>
