<svg width="136" height="137" viewBox="0 0 136 137" fill="none" xmlns="http://www.w3.org/2000/svg">
<path d="M116.831 68.8118C116.831 95.8149 94.9412 117.705 67.9382 117.705C40.9351 117.705 19.0449 95.8149 19.0449 68.8118C19.0449 41.8088 40.9351 19.9186 67.9382 19.9186C94.9412 19.9186 116.831 41.8088 116.831 68.8118Z" stroke="#829BBA" stroke-width="2.66667" stroke-miterlimit="10" stroke-linecap="round" stroke-linejoin="round"/>
<path d="M55.0354 37.2305L47.1699 19.4197" stroke="#829BBA" stroke-width="2.66667" stroke-miterlimit="10" stroke-linecap="round" stroke-linejoin="round"/>
<path d="M40.973 47.9141L25.2559 36.4213" stroke="#829BBA" stroke-width="2.66667" stroke-miterlimit="10" stroke-linecap="round" stroke-linejoin="round"/>
<path d="M34.1363 64.1953L14.7793 62.1011" stroke="#829BBA" stroke-width="2.66667" stroke-miterlimit="10" stroke-linecap="round" stroke-linejoin="round"/>
<path d="M36.3563 81.7126L18.5449 89.5781" stroke="#829BBA" stroke-width="2.66667" stroke-miterlimit="10" stroke-linecap="round" stroke-linejoin="round"/>
<path d="M47.039 95.777L35.5469 111.494" stroke="#829BBA" stroke-width="2.66667" stroke-miterlimit="10" stroke-linecap="round" stroke-linejoin="round"/>
<path d="M63.3208 102.613L61.2266 121.971" stroke="#829BBA" stroke-width="2.66667" stroke-miterlimit="10" stroke-linecap="round" stroke-linejoin="round"/>
<path d="M80.8398 100.392L88.7054 118.203" stroke="#829BBA" stroke-width="2.66667" stroke-miterlimit="10" stroke-linecap="round" stroke-linejoin="round"/>
<path d="M94.9014 89.711L110.619 101.203" stroke="#829BBA" stroke-width="2.66667" stroke-miterlimit="10" stroke-linecap="round" stroke-linejoin="round"/>
<path d="M101.738 73.4279L121.096 75.5215" stroke="#829BBA" stroke-width="2.66667" stroke-miterlimit="10" stroke-linecap="round" stroke-linejoin="round"/>
<path d="M99.5176 55.9082L117.329 48.0433" stroke="#829BBA" stroke-width="2.66667" stroke-miterlimit="10" stroke-linecap="round" stroke-linejoin="round"/>
<path d="M88.8369 41.8477L100.329 26.1311" stroke="#829BBA" stroke-width="2.66667" stroke-miterlimit="10" stroke-linecap="round" stroke-linejoin="round"/>
<path d="M72.5547 35.0117L74.6489 15.6541" stroke="#829BBA" stroke-width="2.66667" stroke-miterlimit="10" stroke-linecap="round" stroke-linejoin="round"/>
<path d="M76.5309 68.8097C76.5309 73.5557 72.6836 77.4023 67.9383 77.4023C63.193 77.4023 59.3457 73.5557 59.3457 68.8097C59.3457 64.0644 63.193 60.2171 67.9383 60.2171C72.6836 60.2171 76.5309 64.0644 76.5309 68.8097Z" fill="#829BBA"/>
<path d="M62.1776 24.4434L61.0273 17.7968" stroke="#829BBA" stroke-width="2.66667" stroke-miterlimit="10" stroke-linecap="round" stroke-linejoin="round"/>
<path d="M40.765 33.2695L36.4453 28.0885" stroke="#829BBA" stroke-width="2.66667" stroke-miterlimit="10" stroke-linecap="round" stroke-linejoin="round"/>
<path d="M26.6327 51.6172L20.3008 49.2896" stroke="#829BBA" stroke-width="2.66667" stroke-miterlimit="10" stroke-linecap="round" stroke-linejoin="round"/>
<path d="M23.5684 74.5705L16.9219 75.7207" stroke="#829BBA" stroke-width="2.66667" stroke-miterlimit="10" stroke-linecap="round" stroke-linejoin="round"/>
<path d="M32.3926 95.9857L27.2109 100.305" stroke="#829BBA" stroke-width="2.66667" stroke-miterlimit="10" stroke-linecap="round" stroke-linejoin="round"/>
<path d="M50.741 110.114L48.4141 116.445" stroke="#829BBA" stroke-width="2.66667" stroke-miterlimit="10" stroke-linecap="round" stroke-linejoin="round"/>
<path d="M73.6973 113.183L74.8475 119.83" stroke="#829BBA" stroke-width="2.66667" stroke-miterlimit="10" stroke-linecap="round" stroke-linejoin="round"/>
<path d="M95.1094 104.356L99.4284 109.537" stroke="#829BBA" stroke-width="2.66667" stroke-miterlimit="10" stroke-linecap="round" stroke-linejoin="round"/>
<path d="M109.242 86.011L115.573 88.3379" stroke="#829BBA" stroke-width="2.66667" stroke-miterlimit="10" stroke-linecap="round" stroke-linejoin="round"/>
<path d="M112.307 63.0527L118.954 61.9025" stroke="#829BBA" stroke-width="2.66667" stroke-miterlimit="10" stroke-linecap="round" stroke-linejoin="round"/>
<path d="M103.482 41.6387L108.663 37.319" stroke="#829BBA" stroke-width="2.66667" stroke-miterlimit="10" stroke-linecap="round" stroke-linejoin="round"/>
<path d="M85.1348 27.5078L87.4617 21.1766" stroke="#829BBA" stroke-width="2.66667" stroke-miterlimit="10" stroke-linecap="round" stroke-linejoin="round"/>
<path d="M91.5016 68.8132C91.5016 81.8269 80.9516 92.377 67.9378 92.377C54.924 92.377 44.374 81.8269 44.374 68.8132C44.374 55.7994 54.924 45.25 67.9378 45.25C80.9516 45.25 91.5016 55.7994 91.5016 68.8132Z" stroke="#829BBA" stroke-width="2.66667" stroke-miterlimit="10" stroke-linecap="round" stroke-linejoin="round"/>
<path d="M57.8143 21.6736C57.8143 22.7122 56.9724 23.5547 55.9338 23.5547C54.8946 23.5547 54.0527 22.7122 54.0527 21.6736C54.0527 20.6344 54.8946 19.7925 55.9338 19.7925C56.9724 19.7925 57.8143 20.6344 57.8143 21.6736Z" fill="#829BBA"/>
<path d="M35.6013 33.0522C36.1209 33.9514 35.8126 35.1016 34.9127 35.6206C34.0134 36.1402 32.8632 35.8319 32.3442 34.9326C31.8246 34.0327 32.133 32.8831 33.0322 32.3635C33.9321 31.8445 35.0817 32.1523 35.6013 33.0522Z" fill="#829BBA"/>
<path d="M22.0523 54.0103C22.9522 54.5293 23.2599 55.6795 22.741 56.5788C22.2213 57.4786 21.0717 57.7864 20.1719 57.2674C19.2726 56.7478 18.9643 55.5982 19.4839 54.6983C20.0029 53.7991 21.1531 53.4907 22.0523 54.0103Z" fill="#829BBA"/>
<path d="M20.8004 78.937C21.8396 78.937 22.6815 79.7795 22.6815 80.8181C22.6815 81.8574 21.8396 82.6992 20.8004 82.6992C19.7618 82.6992 18.9199 81.8574 18.9199 80.8181C18.9199 79.7795 19.7618 78.937 20.8004 78.937Z" fill="#829BBA"/>
<path d="M32.1777 101.151C33.0776 100.631 34.2278 100.939 34.7468 101.839C35.2664 102.739 34.9581 103.889 34.0588 104.408C33.159 104.927 32.0087 104.619 31.4897 103.72C30.9701 102.82 31.2785 101.67 32.1777 101.151Z" fill="#829BBA"/>
<path d="M53.1369 114.697C53.6565 113.797 54.8067 113.489 55.706 114.008C56.6052 114.527 56.9136 115.678 56.394 116.577C55.875 117.476 54.7248 117.785 53.8255 117.265C52.9256 116.746 52.6179 115.596 53.1369 114.697Z" fill="#829BBA"/>
<path d="M78.0625 115.948C78.0625 114.91 78.9044 114.068 79.943 114.068C80.9822 114.068 81.824 114.91 81.824 115.948C81.824 116.988 80.9822 117.83 79.943 117.83C78.9044 117.83 78.0625 116.988 78.0625 115.948Z" fill="#829BBA"/>
<path d="M100.274 104.571C99.7546 103.671 100.062 102.521 100.962 102.002C101.862 101.483 103.012 101.791 103.531 102.69C104.051 103.59 103.743 104.74 102.843 105.259C101.943 105.779 100.794 105.471 100.274 104.571Z" fill="#829BBA"/>
<path d="M113.822 83.6148C112.922 83.0952 112.614 81.9449 113.133 81.0457C113.652 80.1464 114.802 79.8381 115.701 80.3571C116.601 80.8767 116.91 82.0269 116.39 82.9261C115.871 83.826 114.72 84.1344 113.822 83.6148Z" fill="#829BBA"/>
<path d="M115.074 58.6895C114.036 58.6895 113.193 57.847 113.193 56.8084C113.193 55.7698 114.036 54.9273 115.074 54.9273C116.112 54.9273 116.955 55.7698 116.955 56.8084C116.955 57.847 116.112 58.6895 115.074 58.6895Z" fill="#829BBA"/>
<path d="M103.697 36.4761C102.798 36.9957 101.647 36.6873 101.128 35.7881C100.609 34.8882 100.917 33.7386 101.817 33.219C102.716 32.7 103.866 33.0077 104.385 33.9076C104.904 34.8069 104.597 35.9571 103.697 36.4761Z" fill="#829BBA"/>
<path d="M82.7383 22.9268C82.2187 23.826 81.0685 24.1344 80.1686 23.6147C79.27 23.0958 78.961 21.9455 79.4813 21.0463C80.0002 20.1464 81.1505 19.8387 82.0497 20.3577C82.9496 20.8773 83.2573 22.0269 82.7383 22.9268Z" fill="#829BBA"/>
<path d="M74.9506 46.3139C75.4459 46.4674 75.9743 46.1728 76.0834 45.6659L82.9459 13.7787C82.9541 13.7396 82.8973 13.7257 82.8866 13.7642L74.3495 45.2466C74.2255 45.7038 74.4982 46.1737 74.9506 46.3139V46.3139Z" fill="#829BBA"/>
<path d="M51.9629 51.4959C52.3452 51.1448 52.3565 50.5381 51.9717 50.1898L27.7819 28.299C27.7529 28.2725 27.7119 28.3148 27.7397 28.3425L50.7377 51.4794C51.0718 51.8155 51.6138 51.8165 51.9629 51.4959V51.4959Z" fill="#829BBA"/>
<path d="M62.7568 45.8235C63.2637 45.7116 63.579 45.1916 63.4198 44.6974L53.4182 13.647C53.4063 13.6091 53.3495 13.6255 53.3596 13.664L61.7071 45.1953C61.8283 45.653 62.2945 45.9255 62.7568 45.8235V45.8235Z" fill="#829BBA"/>
<path d="M91.5539 62.5817C91.0961 62.7029 90.8236 63.169 90.9255 63.6314V63.6314C91.0374 64.1386 91.5577 64.4542 92.052 64.295L123.103 54.2929C123.14 54.2809 123.123 54.2242 123.085 54.2349L91.5539 62.5817Z" fill="#829BBA"/>
<path d="M91.5027 75.2231C91.0456 75.0991 90.5757 75.3718 90.4357 75.8243V75.8243C90.2826 76.3196 90.5771 76.848 91.084 76.957L122.971 83.8195C123.01 83.8277 123.024 83.7703 122.985 83.7602L91.5027 75.2231Z" fill="#829BBA"/>
<path d="M85.2545 52.8395C85.605 53.2218 86.2109 53.2328 86.5589 52.8482L108.451 28.6584C108.477 28.6288 108.435 28.5884 108.407 28.6162L85.2709 51.6133C84.9347 51.9475 84.9341 52.49 85.2545 52.8395V52.8395Z" fill="#829BBA"/>
<path d="M44.3218 75.0439C44.7795 74.9227 45.0521 74.4569 44.9501 73.9945V73.9945C44.8382 73.4873 44.3178 73.1714 43.8234 73.3307L12.7729 83.3327C12.7357 83.3447 12.7521 83.4015 12.7906 83.3914L44.3218 75.0439Z" fill="#829BBA"/>
<path d="M83.9127 86.1312C83.5304 86.4819 83.5193 87.0882 83.904 87.4363L108.094 109.328C108.123 109.354 108.164 109.312 108.136 109.284L85.1385 86.1478C84.8043 85.8117 84.262 85.8107 83.9127 86.1312V86.1312Z" fill="#829BBA"/>
<path d="M73.1175 91.8002C72.6109 91.9118 72.2957 92.4312 72.4547 92.925L82.4565 123.977C82.4684 124.014 82.5252 123.998 82.5145 123.959L74.1677 92.428C74.0466 91.9703 73.5798 91.6983 73.1175 91.8002V91.8002Z" fill="#829BBA"/>
<path d="M44.3715 62.4022C44.8292 62.5263 45.2997 62.2533 45.4399 61.8003V61.8003C45.5932 61.305 45.2985 60.7771 44.7917 60.668L12.9039 53.8054C12.8654 53.7972 12.8516 53.8546 12.89 53.8647L44.3715 62.4022Z" fill="#829BBA"/>
<path d="M50.6202 84.7852C50.2694 84.4028 49.6635 84.3923 49.3153 84.7771L27.4233 108.967C27.3969 108.996 27.4397 109.036 27.4675 109.008L50.6039 86.0119C50.9403 85.6776 50.9409 85.1346 50.6202 84.7852V84.7852Z" fill="#829BBA"/>
<path d="M60.9238 91.31C60.4283 91.1568 59.9001 91.4517 59.791 91.9587L52.9285 123.846C52.9203 123.885 52.9771 123.898 52.9878 123.86L61.525 92.3775C61.649 91.9202 61.3764 91.45 60.9238 91.31V91.31Z" fill="#829BBA"/>
<path d="M67.9368 45.2487V45.2487C68.3859 45.2487 68.7553 44.8929 68.7469 44.4439L67.9368 0.875008L67.1267 44.4439C67.1183 44.8929 67.4877 45.2487 67.9368 45.2487V45.2487Z" fill="#829BBA"/>
<path d="M56.3203 48.4528C56.6329 48.2718 56.7451 47.8696 56.5584 47.5604L38.457 17.58L55.4305 48.2144C55.6053 48.5299 56.0081 48.6336 56.3203 48.4528V48.4528Z" fill="#829BBA"/>
<path d="M47.5876 57.2325C47.7609 56.9352 47.6619 56.5507 47.3605 56.3847L18.1201 40.282L46.7422 57.4581C47.0353 57.634 47.4155 57.5279 47.5876 57.2325V57.2325Z" fill="#829BBA"/>
<path d="M79.6927 48.455C79.9988 48.634 80.3955 48.5321 80.566 48.2211L97.1031 18.053L79.461 47.5871C79.2812 47.8882 79.3899 48.2779 79.6927 48.455V48.455Z" fill="#829BBA"/>
<path d="M135.875 68.8113L92.3061 68.0012C91.8574 67.9928 91.5013 68.3625 91.5013 68.8113V68.8113V68.8113C91.5013 69.2601 91.8574 69.6297 92.3061 69.6214L135.875 68.8113Z" fill="#829BBA"/>
<path d="M88.436 57.2247C88.607 57.5228 88.9903 57.6299 89.2837 57.4509L117.44 40.282L88.6606 56.3866C88.3645 56.5523 88.2671 56.9304 88.436 57.2247V57.2247Z" fill="#829BBA"/>
<path d="M44.3737 68.8113V68.8113C44.3737 68.3625 44.0176 67.9928 43.5689 68.0012L0 68.8113L43.5689 69.6214C44.0176 69.6297 44.3737 69.2601 44.3737 68.8113V68.8113Z" fill="#829BBA"/>
<path d="M79.7002 89.327C79.3947 89.5031 79.2851 89.8959 79.468 90.1974L97.1031 119.266L80.5643 89.5586C80.394 89.2528 80.0035 89.1522 79.7002 89.327V89.327Z" fill="#829BBA"/>
<path d="M88.4359 80.5692C88.267 80.8636 88.3644 81.2419 88.6606 81.4076L117.44 97.5117L89.2841 80.343C88.9904 80.1639 88.607 80.2709 88.4359 80.5692V80.5692Z" fill="#829BBA"/>
<path d="M67.9368 92.3757V92.3757C67.488 92.3757 67.1183 92.7318 67.1267 93.1805L67.9368 136.75L68.7469 93.1805C68.7553 92.7318 68.3856 92.3757 67.9368 92.3757V92.3757Z" fill="#829BBA"/>
<path d="M56.3657 89.314C56.0773 89.1468 55.7051 89.2426 55.5437 89.5343L39.876 117.848L56.5855 90.1377C56.7576 89.8522 56.6541 89.4812 56.3657 89.314V89.314Z" fill="#829BBA"/>
<path d="M47.5737 80.5935C47.3926 80.2809 46.9905 80.1688 46.6812 80.3555L16.7012 98.457L47.3352 81.4838C47.6509 81.3088 47.7547 80.9059 47.5737 80.5935V80.5935Z" fill="#829BBA"/>
</svg>
