<svg width="215" height="215" viewBox="0 0 215 215" fill="none" xmlns="http://www.w3.org/2000/svg">
<g clip-path="url(#clip0_2964_50938)">
<g opacity="0.3">
<rect x="133.74" y="144.574" width="1.48368" height="1.48367" fill="#2C3639"/>
<rect x="159.679" y="117.012" width="1.48368" height="1.43455" fill="#2C3639"/>
<rect x="159.238" y="123.156" width="1.23804" height="1.18891" fill="#2C3639"/>
<rect x="154.275" y="122.17" width="1.48368" height="1.23804" fill="#2C3639"/>
<rect x="155.209" y="126.447" width="1.23804" height="1.43455" fill="#2C3639"/>
<rect x="150.74" y="123.352" width="1.48368" height="1.48368" fill="#2C3639"/>
<rect x="115.367" y="126.201" width="1.48368" height="1.23804" fill="#2C3639"/>
<rect x="114.679" y="133.275" width="1.43455" height="1.48368" fill="#2C3639"/>
<rect x="99.5474" y="137.75" width="1.48368" height="1.48367" fill="#2C3639"/>
<rect x="114.433" y="166.73" width="1.23804" height="1.48367" fill="#2C3639"/>
<rect x="126.47" y="163.238" width="1.43455" height="1.1889" fill="#2C3639"/>
<rect x="131.187" y="171.693" width="1.43455" height="1.48367" fill="#2C3639"/>
<rect x="104.755" y="187.51" width="1.23804" height="1.48367" fill="#2C3639"/>
<rect x="77.8823" y="174.543" width="1.23803" height="1.23803" fill="#2C3639"/>
<rect x="58.771" y="181.617" width="1.48367" height="1.48367" fill="#2C3639"/>
<rect x="62.3081" y="149.535" width="1.48367" height="1.23803" fill="#2C3639"/>
<rect x="58.771" y="153.564" width="1.48367" height="1.23803" fill="#2C3639"/>
<rect x="69.6284" y="163.441" width="1.23803" height="1.48367" fill="#2C3639"/>
<rect x="66.5337" y="188.197" width="1.23803" height="1.23803" fill="#2C3639"/>
<rect x="74.3452" y="188.449" width="1.43454" height="1.23803" fill="#2C3639"/>
<rect x="162.038" y="174.051" width="1.48368" height="1.48367" fill="#2C3639"/>
<rect x="160.859" y="168.893" width="1.48368" height="1.23803" fill="#2C3639"/>
<rect x="154.767" y="173.807" width="1.43455" height="1.48367" fill="#2C3639"/>
<rect x="150.984" y="171.498" width="1.48368" height="1.1889" fill="#2C3639"/>
<rect x="146.71" y="166.977" width="1.48368" height="1.48367" fill="#2C3639"/>
<rect x="97.4351" y="163.238" width="1.48368" height="1.1889" fill="#2C3639"/>
<rect x="81.6641" y="142.018" width="1.43454" height="1.1889" fill="#2C3639"/>
<rect x="102.397" y="122.42" width="1.23804" height="1.48368" fill="#2C3639"/>
<rect x="143.911" y="115.834" width="1.23804" height="1.23804" fill="#2C3639"/>
<rect x="159.238" y="141.527" width="1.23804" height="1.48367" fill="#2C3639"/>
<rect x="46.9805" y="137.992" width="1.23803" height="1.48367" fill="#2C3639"/>
<rect x="105.443" y="173.609" width="1.48368" height="1.23803" fill="#2C3639"/>
<rect x="90.6064" y="204.705" width="1.48368" height="1.48367" fill="#2C3639"/>
<rect x="160.172" y="188.693" width="1.23804" height="1.48367" fill="#2C3639"/>
<rect x="48.8472" y="181.863" width="1.48367" height="1.43454" fill="#2C3639"/>
<rect x="129.762" y="115.588" width="1.43455" height="1.23804" fill="#2C3639"/>
<rect x="126.225" y="115.1" width="1.43455" height="1.48368" fill="#2C3639"/>
<rect x="124.307" y="117.207" width="1.23804" height="1.48368" fill="#2C3639"/>
<rect x="85.2021" y="123.596" width="1.18891" height="1.48368" fill="#2C3639"/>
<rect x="114.433" y="201.17" width="2.41712" height="2.66275" fill="#2C3639"/>
<rect x="137.523" y="121.484" width="1.92584" height="1.68019" fill="#2C3639"/>
<rect x="50.7622" y="120.553" width="1.92583" height="1.68019" fill="#2C3639"/>
<rect x="140.619" y="142.018" width="1.68019" height="1.68018" fill="#2C3639"/>
<rect x="172.453" y="50.248" width="1.92584" height="1.97496" fill="#2C3639"/>
<rect x="181.886" y="62.5312" width="1.92584" height="1.92584" fill="#2C3639"/>
<rect x="181.641" y="99.7715" width="1.48368" height="1.48368" fill="#2C3639"/>
<rect x="190.336" y="90.584" width="1.23804" height="1.48368" fill="#2C3639"/>
<rect x="195.789" y="94.6074" width="1.43455" height="1.23804" fill="#2C3639"/>
<rect x="196.231" y="90.1406" width="1.48368" height="1.18891" fill="#2C3639"/>
<rect x="192.694" y="104.979" width="1.48368" height="1.23804" fill="#2C3639"/>
<rect x="179.724" y="66.5566" width="1.48368" height="1.43455" fill="#2C3639"/>
<rect x="187.535" y="73.1426" width="1.43455" height="1.23804" fill="#2C3639"/>
<rect x="172.65" y="93.873" width="1.48368" height="1.48368" fill="#2C3639"/>
<rect x="176.188" y="91.3203" width="1.48368" height="1.43455" fill="#2C3639"/>
<rect x="175.991" y="94.3633" width="1.18891" height="1.23804" fill="#2C3639"/>
<rect x="172.453" y="90.584" width="1.43455" height="1.48368" fill="#2C3639"/>
<rect x="167.737" y="113.479" width="1.43455" height="1.43455" fill="#2C3639"/>
<rect x="170.096" y="66.998" width="1.18891" height="1.23804" fill="#2C3639"/>
<rect x="192.694" y="99.5684" width="1.48368" height="1.18891" fill="#2C3639"/>
<rect x="173.388" y="80.9043" width="1.68019" height="1.72932" fill="#2C3639"/>
<rect x="175.253" y="118.193" width="1.92584" height="1.92584" fill="#2C3639"/>
<rect x="197.656" y="135.143" width="1.92584" height="1.97496" fill="#2C3639"/>
<rect x="197.41" y="133.766" width="1.23804" height="1.18891" fill="#2C3639"/>
<rect x="173.141" y="116.275" width="1.48368" height="1.48368" fill="#2C3639"/>
<rect x="187.29" y="116.768" width="1.48368" height="1.23804" fill="#2C3639"/>
<g opacity="0.2">
<rect x="184.687" y="122.666" width="1.48368" height="1.48368" fill="#2C3639"/>
</g>
<g opacity="0.2">
<rect x="189.648" y="122.42" width="1.48368" height="1.48368" fill="#2C3639"/>
</g>
<g opacity="0.2">
<rect x="184.932" y="133.275" width="1.48368" height="1.48368" fill="#2C3639"/>
</g>
<g opacity="0.2">
<rect x="183.507" y="149.535" width="1.23804" height="1.23803" fill="#2C3639"/>
</g>
<g opacity="0.2">
<rect x="179.724" y="153.564" width="1.48368" height="1.23803" fill="#2C3639"/>
</g>
<g opacity="0.2">
<rect x="167.935" y="137.992" width="1.48368" height="1.48367" fill="#2C3639"/>
</g>
<g opacity="0.2">
<rect x="170.095" y="181.863" width="1.18891" height="1.43454" fill="#2C3639"/>
</g>
<g opacity="0.2">
<rect x="192.007" y="146.49" width="2.41712" height="2.61362" fill="#2C3639"/>
</g>
<g opacity="0.2">
<rect x="172.209" y="126.203" width="2.61363" height="2.66276" fill="#2C3639"/>
</g>
<g opacity="0.2">
<rect x="171.963" y="120.553" width="1.72932" height="1.68019" fill="#2C3639"/>
</g>
<rect x="48.4048" y="174.051" width="1.23803" height="1.48367" fill="#2C3639"/>
<rect x="45.1133" y="171.498" width="1.43454" height="1.1889" fill="#2C3639"/>
<rect x="47.2266" y="168.893" width="1.23803" height="1.23803" fill="#2C3639"/>
<rect x="41.085" y="173.807" width="1.48367" height="1.48367" fill="#2C3639"/>
<rect x="37.3018" y="171.498" width="1.23803" height="1.1889" fill="#2C3639"/>
<rect x="33.0762" y="166.977" width="1.23803" height="1.48367" fill="#2C3639"/>
<rect x="29.9814" y="115.834" width="1.48367" height="1.23804" fill="#2C3639"/>
<rect x="16.0786" y="115.588" width="1.23803" height="1.23804" fill="#2C3639"/>
<rect x="12.5405" y="115.1" width="1.23803" height="1.48368" fill="#2C3639"/>
<rect x="23.8901" y="121.484" width="1.68019" height="1.68019" fill="#2C3639"/>
<rect x="92.9648" y="80.9023" width="1.92584" height="1.97496" fill="#2C3639"/>
<rect x="144.156" y="80.4609" width="1.92584" height="1.92584" fill="#2C3639"/>
<rect x="72.6748" y="67.4922" width="1.92583" height="1.92584" fill="#2C3639"/>
<rect x="111.829" y="106.65" width="1.68019" height="1.92584" fill="#2C3639"/>
<rect x="132.807" y="58.0586" width="1.92584" height="1.92584" fill="#2C3639"/>
<rect x="153.097" y="99.7695" width="1.92584" height="1.97496" fill="#2C3639"/>
<rect x="51.4507" y="50.248" width="1.92583" height="1.97496" fill="#2C3639"/>
<rect x="53.563" y="98.8359" width="1.72931" height="1.92584" fill="#2C3639"/>
<rect x="136.835" y="30.6934" width="1.92584" height="1.92584" fill="#2C3639"/>
<rect x="60.6372" y="62.5312" width="1.97495" height="1.92584" fill="#2C3639"/>
<rect x="153.097" y="91.3164" width="1.23804" height="1.18891" fill="#2C3639"/>
<rect x="130.94" y="91.7598" width="1.43455" height="1.48368" fill="#2C3639"/>
<rect x="136.344" y="79.0371" width="1.48368" height="1.48368" fill="#2C3639"/>
<rect x="132.561" y="85.4238" width="1.48368" height="1.18891" fill="#2C3639"/>
<rect x="124.799" y="85.6211" width="1.48368" height="1.23804" fill="#2C3639"/>
<rect x="123.621" y="91.5117" width="1.48368" height="1.48368" fill="#2C3639"/>
<rect x="111.829" y="94.8105" width="1.23804" height="1.48368" fill="#2C3639"/>
<rect x="98.8589" y="43.9082" width="1.23804" height="1.43455" fill="#2C3639"/>
<rect x="81.4189" y="43.6621" width="1.23803" height="1.48368" fill="#2C3639"/>
<rect x="60.6367" y="99.7715" width="1.23803" height="1.48368" fill="#2C3639"/>
<rect x="69.1372" y="90.584" width="1.48367" height="1.48368" fill="#2C3639"/>
<rect x="74.7876" y="94.6074" width="1.23803" height="1.23804" fill="#2C3639"/>
<rect x="78.5693" y="84.9336" width="1.23803" height="1.48368" fill="#2C3639"/>
<rect x="80.9277" y="90.3379" width="1.48367" height="1.23804" fill="#2C3639"/>
<rect x="75.2788" y="90.1406" width="1.23803" height="1.18891" fill="#2C3639"/>
<rect x="71.7402" y="104.979" width="1.48367" height="1.23804" fill="#2C3639"/>
<rect x="150.984" y="38.7012" width="1.48368" height="1.48368" fill="#2C3639"/>
<rect x="133.739" y="29.5176" width="1.48368" height="1.48368" fill="#2C3639"/>
<rect x="114.875" y="18.9023" width="0.9924" height="0.746759" fill="#2C3639"/>
<rect x="114.433" y="51.6758" width="1.23804" height="1.48368" fill="#2C3639"/>
<rect x="126.47" y="48.1367" width="1.43455" height="1.23804" fill="#2C3639"/>
<rect x="131.187" y="56.6367" width="1.43455" height="1.48368" fill="#2C3639"/>
<rect x="104.755" y="72.459" width="1.23804" height="1.43455" fill="#2C3639"/>
<rect x="77.8818" y="59.4805" width="1.23803" height="1.18891" fill="#2C3639"/>
<rect x="58.771" y="66.5586" width="1.48367" height="1.43455" fill="#2C3639"/>
<rect x="62.3081" y="34.4824" width="1.48367" height="1.43455" fill="#2C3639"/>
<rect x="58.771" y="38.457" width="1.48367" height="1.23804" fill="#2C3639"/>
<rect x="69.6284" y="48.3789" width="1.23803" height="1.48368" fill="#2C3639"/>
<rect x="66.5332" y="73.1426" width="1.23803" height="1.23804" fill="#2C3639"/>
<rect x="74.3447" y="73.3906" width="1.43454" height="1.43455" fill="#2C3639"/>
<rect x="92.4736" y="104.482" width="1.48368" height="1.48368" fill="#2C3639"/>
<rect x="155.455" y="109.445" width="1.48368" height="1.48368" fill="#2C3639"/>
<rect x="162.038" y="58.9902" width="1.48368" height="1.48368" fill="#2C3639"/>
<rect x="51.6973" y="93.873" width="1.23803" height="1.48368" fill="#2C3639"/>
<rect x="55.2329" y="91.3203" width="1.23803" height="1.43455" fill="#2C3639"/>
<rect x="54.7417" y="94.3613" width="1.48367" height="1.23804" fill="#2C3639"/>
<rect x="51.2051" y="90.584" width="1.48367" height="1.48368" fill="#2C3639"/>
<rect x="158.747" y="56.3887" width="1.48368" height="1.23804" fill="#2C3639"/>
<rect x="160.859" y="53.7852" width="1.48368" height="1.23804" fill="#2C3639"/>
<rect x="154.767" y="58.7461" width="1.43455" height="1.48368" fill="#2C3639"/>
<rect x="150.984" y="56.3887" width="1.48368" height="1.23804" fill="#2C3639"/>
<rect x="146.71" y="51.9199" width="1.48368" height="1.48368" fill="#2C3639"/>
<rect x="97.4351" y="48.1367" width="1.48368" height="1.23804" fill="#2C3639"/>
<rect x="81.6636" y="26.9141" width="1.43454" height="1.23804" fill="#2C3639"/>
<rect x="123.375" y="109.939" width="1.23804" height="1.23804" fill="#2C3639"/>
<rect x="105.443" y="58.502" width="1.48368" height="1.23804" fill="#2C3639"/>
<rect x="90.6064" y="89.6523" width="1.48368" height="1.48368" fill="#2C3639"/>
<rect x="106.868" y="110.188" width="1.23804" height="1.43455" fill="#2C3639"/>
<rect x="160.171" y="73.6348" width="1.23804" height="1.43455" fill="#2C3639"/>
<rect x="48.8477" y="66.998" width="1.48367" height="1.23804" fill="#2C3639"/>
<rect x="71.7402" y="99.5684" width="1.48367" height="1.18891" fill="#2C3639"/>
<rect x="77.6367" y="39.4414" width="2.4171" height="2.36799" fill="#2C3639"/>
<rect x="84.0225" y="69.8516" width="1.92583" height="1.68019" fill="#2C3639"/>
<rect x="146.269" y="103.797" width="1.68019" height="1.48368" fill="#2C3639"/>
<rect x="52.1885" y="80.9043" width="1.68019" height="1.72932" fill="#2C3639"/>
<rect x="140.619" y="26.9121" width="1.68019" height="1.72932" fill="#2C3639"/>
<rect x="124.554" y="131.848" width="1.92584" height="1.92584" fill="#2C3639"/>
<rect x="144.156" y="195.525" width="1.92584" height="1.92583" fill="#2C3639"/>
<rect x="146.71" y="138.236" width="1.97496" height="1.92583" fill="#2C3639"/>
<rect x="72.6753" y="182.549" width="1.92583" height="1.92583" fill="#2C3639"/>
<rect x="93.6519" y="128.312" width="1.97496" height="1.92584" fill="#2C3639"/>
<rect x="76.457" y="135.143" width="1.92583" height="1.97496" fill="#2C3639"/>
<rect x="132.807" y="173.119" width="1.92584" height="1.92583" fill="#2C3639"/>
<rect x="158.501" y="114.658" width="1.97496" height="1.92584" fill="#2C3639"/>
<rect x="51.4507" y="165.359" width="1.92583" height="1.92583" fill="#2C3639"/>
<rect x="136.835" y="145.754" width="1.92584" height="1.97495" fill="#2C3639"/>
<rect x="143.419" y="129.49" width="1.48368" height="1.23804" fill="#2C3639"/>
<rect x="136.344" y="194.096" width="1.48368" height="1.48367" fill="#2C3639"/>
<rect x="132.561" y="200.234" width="1.48368" height="1.48367" fill="#2C3639"/>
<rect x="124.798" y="200.73" width="1.48368" height="1.23803" fill="#2C3639"/>
<rect x="123.621" y="206.621" width="1.48368" height="1.23803" fill="#2C3639"/>
<rect x="98.8589" y="158.969" width="1.23804" height="1.48367" fill="#2C3639"/>
<rect x="81.4189" y="158.725" width="1.23803" height="1.48367" fill="#2C3639"/>
<rect x="76.2109" y="133.766" width="1.48367" height="1.18891" fill="#2C3639"/>
<rect x="52.188" y="116.275" width="1.1889" height="1.48368" fill="#2C3639"/>
<rect x="66.0913" y="116.768" width="1.43454" height="1.23804" fill="#2C3639"/>
<rect x="63.7329" y="122.664" width="1.23803" height="1.48368" fill="#2C3639"/>
<rect x="68.6948" y="122.42" width="1.1889" height="1.48368" fill="#2C3639"/>
<rect x="63.978" y="133.275" width="1.43454" height="1.48368" fill="#2C3639"/>
<rect x="78.5693" y="199.988" width="1.23803" height="1.48367" fill="#2C3639"/>
<rect x="150.985" y="153.811" width="1.48368" height="1.43454" fill="#2C3639"/>
<rect x="15.6367" y="93.4316" width="1.92583" height="1.92584" fill="#2C3639"/>
<rect x="39.2178" y="99.7695" width="1.92583" height="1.97496" fill="#2C3639"/>
<rect x="39.2178" y="91.3164" width="1.43454" height="1.18891" fill="#2C3639"/>
<rect x="17.2573" y="91.7598" width="1.23803" height="1.48368" fill="#2C3639"/>
<rect x="22.7104" y="79.0371" width="1.43454" height="1.48368" fill="#2C3639"/>
<rect x="18.9282" y="85.4238" width="1.43454" height="1.18891" fill="#2C3639"/>
<rect x="41.7725" y="109.445" width="1.23803" height="1.48368" fill="#2C3639"/>
<rect x="48.4053" y="58.9902" width="1.23803" height="1.48368" fill="#2C3639"/>
<rect x="45.1133" y="56.3848" width="1.43454" height="1.23804" fill="#2C3639"/>
<rect x="47.2266" y="53.7832" width="1.23803" height="1.23804" fill="#2C3639"/>
<rect x="41.085" y="58.7461" width="1.48367" height="1.48368" fill="#2C3639"/>
<rect x="37.3018" y="56.3848" width="1.23803" height="1.23804" fill="#2C3639"/>
<rect x="46.2925" y="73.6348" width="1.43454" height="1.43455" fill="#2C3639"/>
<rect x="32.3398" y="103.797" width="1.97495" height="1.48368" fill="#2C3639"/>
<rect x="22.9072" y="145.754" width="1.97495" height="1.97495" fill="#2C3639"/>
<rect x="29.7842" y="129.49" width="1.1889" height="1.23804" fill="#2C3639"/>
<rect x="37.3018" y="153.811" width="1.23803" height="1.43454" fill="#2C3639"/>
<rect x="20.1069" y="144.574" width="1.43454" height="1.48367" fill="#2C3639"/>
<rect x="46.0469" y="117.012" width="1.23803" height="1.43455" fill="#2C3639"/>
<rect x="45.3091" y="123.156" width="1.48367" height="1.18891" fill="#2C3639"/>
<rect x="40.5938" y="122.17" width="1.23803" height="1.23804" fill="#2C3639"/>
<rect x="41.3301" y="126.447" width="1.43454" height="1.43455" fill="#2C3639"/>
<rect x="37.0557" y="123.352" width="1.23803" height="1.48368" fill="#2C3639"/>
<rect x="19.1733" y="58.0586" width="1.68019" height="1.92584" fill="#2C3639"/>
<rect x="11.1172" y="85.6211" width="1.23803" height="1.23804" fill="#2C3639"/>
<rect x="9.93701" y="91.5156" width="1.23803" height="1.48368" fill="#2C3639"/>
<rect x="37.3018" y="38.7012" width="1.23803" height="1.48368" fill="#2C3639"/>
<rect x="17.5024" y="56.6367" width="1.23803" height="1.48368" fill="#2C3639"/>
<rect x="33.0762" y="51.9199" width="1.23803" height="1.48368" fill="#2C3639"/>
<rect x="9.49512" y="109.939" width="1.43454" height="1.23804" fill="#2C3639"/>
<rect x="45.3091" y="26.4688" width="1.48367" height="1.43455" fill="#2C3639"/>
<rect x="25.7559" y="58.498" width="2.66275" height="2.41712" fill="#2C3639"/>
<rect x="0.996094" y="86.1113" width="2.17147" height="2.66276" fill="#2C3639"/>
<rect x="45.1133" y="31.875" width="1.92583" height="1.68019" fill="#2C3639"/>
<rect x="10.6748" y="131.848" width="1.92582" height="1.92584" fill="#2C3639"/>
<rect x="19.1733" y="173.119" width="1.68019" height="1.92583" fill="#2C3639"/>
<rect x="1.68359" y="126.201" width="1.48367" height="1.23804" fill="#2C3639"/>
<rect x="0.996094" y="133.275" width="1.23803" height="1.48368" fill="#2C3639"/>
<rect x="12.7871" y="163.238" width="1.48367" height="1.1889" fill="#2C3639"/>
<rect x="17.5024" y="171.693" width="1.23803" height="1.48367" fill="#2C3639"/>
<rect x="10.4282" y="117.207" width="1.48367" height="1.48368" fill="#2C3639"/>
<rect x="8.75879" y="132.588" width="2.41711" height="2.36799" fill="#2C3639"/>
<rect x="35.6807" y="196.012" width="1.92583" height="1.92583" fill="#2C3639"/>
<rect x="124.554" y="16.7949" width="1.92584" height="1.92584" fill="#2C3639"/>
<rect x="146.71" y="23.127" width="1.97496" height="1.97496" fill="#2C3639"/>
<rect x="76.457" y="20.084" width="1.92583" height="1.92584" fill="#2C3639"/>
<rect x="143.419" y="14.4355" width="1.48368" height="1.23804" fill="#2C3639"/>
<rect x="76.2109" y="18.6562" width="1.48367" height="1.23804" fill="#2C3639"/>
<rect x="63.978" y="18.2148" width="1.43454" height="1.43455" fill="#2C3639"/>
<rect x="115.366" y="11.1426" width="1.48368" height="1.43455" fill="#2C3639"/>
<rect x="114.679" y="18.2148" width="1.43455" height="1.43455" fill="#2C3639"/>
<rect x="102.397" y="7.35938" width="1.23804" height="1.43455" fill="#2C3639"/>
<rect x="159.238" y="26.4688" width="1.23804" height="1.43455" fill="#2C3639"/>
<rect x="46.9805" y="22.9355" width="1.23803" height="1.43455" fill="#2C3639"/>
<rect x="85.2021" y="8.53711" width="1.18891" height="1.43455" fill="#2C3639"/>
<rect x="160.859" y="17.9688" width="2.17148" height="1.92584" fill="#2C3639"/>
<rect x="158.993" y="31.875" width="1.68019" height="1.68019" fill="#2C3639"/>
<rect x="129.269" y="208.49" width="1.92584" height="1.92583" fill="#2C3639"/>
<rect x="81.1729" y="211.586" width="1.92583" height="1.68019" fill="#2C3639"/>
<rect x="153.097" y="206.379" width="1.23804" height="1.23803" fill="#2C3639"/>
<rect x="130.94" y="206.869" width="1.43455" height="1.43454" fill="#2C3639"/>
<rect x="123.621" y="207.068" width="1.48368" height="0.99239" fill="#2C3639"/>
<rect x="111.829" y="209.912" width="1.23804" height="1.48367" fill="#2C3639"/>
<rect x="69.1367" y="205.688" width="1.48367" height="1.43454" fill="#2C3639"/>
<rect x="74.7871" y="209.668" width="1.23803" height="1.23803" fill="#2C3639"/>
<rect x="80.9277" y="205.439" width="1.48367" height="1.23803" fill="#2C3639"/>
<rect x="75.2783" y="204.951" width="1.23803" height="1.48367" fill="#2C3639"/>
<rect x="55.2329" y="206.379" width="1.23803" height="1.48367" fill="#2C3639"/>
<rect x="54.7417" y="209.424" width="1.48367" height="1.23803" fill="#2C3639"/>
<rect x="51.2046" y="205.688" width="1.48367" height="1.43454" fill="#2C3639"/>
<rect x="71.7407" y="214.631" width="1.48367" height="1.23803" fill="#2C3639"/>
<rect x="52.1885" y="196.014" width="1.68019" height="1.68019" fill="#2C3639"/>
<rect x="193.677" y="67.4922" width="1.92584" height="1.92584" fill="#2C3639"/>
<rect x="202.372" y="96.4766" width="1.72932" height="1.92584" fill="#2C3639"/>
<rect x="199.572" y="84.9336" width="1.43455" height="1.48368" fill="#2C3639"/>
<rect x="202.128" y="90.3379" width="1.23804" height="1.23804" fill="#2C3639"/>
<rect x="198.836" y="59.4805" width="1.48368" height="1.18891" fill="#2C3639"/>
<rect x="183.507" y="34.4824" width="1.23804" height="1.43455" fill="#2C3639"/>
<rect x="179.724" y="38.457" width="1.48368" height="1.23804" fill="#2C3639"/>
<rect x="190.582" y="48.3809" width="1.48368" height="1.48368" fill="#2C3639"/>
<rect x="195.543" y="73.3906" width="1.48368" height="1.43455" fill="#2C3639"/>
<rect x="213.475" y="104.484" width="1.43455" height="1.48368" fill="#2C3639"/>
<rect x="167.934" y="22.9355" width="1.48368" height="1.43455" fill="#2C3639"/>
<rect x="211.805" y="89.6523" width="1.23804" height="1.48368" fill="#2C3639"/>
<rect x="205.223" y="69.8516" width="1.68019" height="1.68019" fill="#2C3639"/>
<rect x="214.655" y="128.312" width="1.92584" height="1.92584" fill="#2C3639"/>
<rect x="181.886" y="177.592" width="1.92584" height="1.97495" fill="#2C3639"/>
<rect x="202.372" y="158.725" width="1.48368" height="1.48367" fill="#2C3639"/>
<rect x="179.724" y="181.617" width="1.48368" height="1.48367" fill="#2C3639"/>
<rect x="190.582" y="163.441" width="1.48368" height="1.48367" fill="#2C3639"/>
<rect x="187.535" y="188.199" width="0.9924" height="0.99239" fill="#2C3639"/>
<rect x="202.619" y="142.018" width="1.48368" height="1.1889" fill="#2C3639"/>
<rect x="206.155" y="123.596" width="1.48368" height="1.48368" fill="#2C3639"/>
<rect x="198.589" y="154.502" width="2.66276" height="2.4171" fill="#2C3639"/>
<rect x="173.387" y="196.014" width="1.68019" height="1.68019" fill="#2C3639"/>
<rect x="32.8315" y="23.127" width="1.92583" height="1.97496" fill="#2C3639"/>
<rect x="22.9077" y="30.6934" width="1.97495" height="1.92584" fill="#2C3639"/>
<path d="M20.792 30.5938C20.6218 30.5938 20.4834 30.4552 20.4834 30.2847C20.4834 30.1143 20.6218 29.9762 20.792 29.9762C20.9626 29.9762 21.1006 30.1143 21.1006 30.2847C21.1006 30.4552 20.9626 30.5938 20.792 30.5938Z" fill="#2C3639"/>
<path d="M46.0707 9.01758C45.9003 9.01758 45.7622 8.87954 45.7622 8.70906C45.7622 8.53859 45.9003 8.40005 46.0707 8.40005C46.2417 8.40005 46.3798 8.53859 46.3798 8.70906C46.3798 8.87954 46.2417 9.01758 46.0707 9.01758Z" fill="#2C3639"/>
<path d="M42.0702 12.4062C41.8998 12.4062 41.7617 12.2682 41.7617 12.0977C41.7617 11.9272 41.8998 11.7887 42.0702 11.7887C42.2407 11.7887 42.3793 11.9272 42.3793 12.0977C42.3793 12.2682 42.2407 12.4062 42.0702 12.4062Z" fill="#2C3639"/>
<path d="M1.25848 52.6855C1.0879 52.6855 0.949707 52.5475 0.949707 52.377C0.949707 52.2065 1.0879 52.068 1.25848 52.068C1.4289 52.068 1.5673 52.2065 1.5673 52.377C1.5673 52.5475 1.4289 52.6855 1.25848 52.6855Z" fill="#2C3639"/>
<path d="M13.4927 49.0898C13.3223 49.0898 13.1841 48.9513 13.1841 48.7808C13.1841 48.6108 13.3223 48.4723 13.4927 48.4723C13.6633 48.4723 13.8015 48.6108 13.8015 48.7808C13.8015 48.9513 13.6633 49.0898 13.4927 49.0898Z" fill="#2C3639"/>
<path d="M1.27199 87.5938L0.941895 87.272L1.36676 87.2101C1.33492 87.3388 1.30363 87.465 1.27199 87.5938" fill="#2C3639"/>
<path d="M49.0136 19.5625L48.4369 19.2594L47.8601 19.5625L47.9701 18.9204L47.5034 18.4655L48.1485 18.3716L48.4369 17.7875L48.7252 18.3716L49.3698 18.4655L48.9031 18.9204L49.0136 19.5625" fill="#2C3639"/>
<path d="M27.9374 28.3164L27.6365 28.1587L27.3354 28.3164L27.3927 27.9814L27.1494 27.7441L27.4858 27.6954L27.6365 27.3903L27.7867 27.6954L28.1233 27.7441L27.88 27.9814L27.9374 28.3164Z" fill="#2C3639"/>
<rect x="30.4731" y="195.521" width="1.92583" height="1.92583" fill="#2C3639"/>
<rect x="39.2178" y="214.875" width="1.92583" height="1.92583" fill="#2C3639"/>
<path d="M39.9433 207.303C39.7728 207.303 39.6348 207.165 39.6348 206.994C39.6348 206.824 39.7728 206.685 39.9433 206.685C40.1138 206.685 40.2523 206.824 40.2523 206.994C40.2523 207.165 40.1138 207.303 39.9433 207.303Z" fill="#2C3639"/>
<path d="M23.3672 195.178C23.197 195.178 23.0586 195.04 23.0586 194.869C23.0586 194.699 23.197 194.561 23.3672 194.561C23.5376 194.561 23.676 194.699 23.676 194.869C23.676 195.04 23.5376 195.178 23.3672 195.178Z" fill="#2C3639"/>
<path d="M19.5881 201.34C19.4176 201.34 19.2793 201.202 19.2793 201.031C19.2793 200.861 19.4176 200.723 19.5881 200.723C19.7583 200.723 19.8968 200.861 19.8968 201.031C19.8968 201.202 19.7583 201.34 19.5881 201.34Z" fill="#2C3639"/>
<path d="M1.25848 167.74C1.0879 167.74 0.949707 167.602 0.949707 167.432C0.949707 167.261 1.0879 167.123 1.25848 167.123C1.4289 167.123 1.5673 167.261 1.5673 167.432C1.5673 167.602 1.4289 167.74 1.25848 167.74Z" fill="#2C3639"/>
<path d="M36.9658 198.115L36.389 197.812L35.8127 198.115L35.9228 197.473L35.4561 197.018L36.0815 196.927C36.3463 197.157 36.613 197.386 36.8798 197.613L36.9658 198.115Z" fill="#2C3639"/>
<rect x="54.0542" y="3.08789" width="1.92583" height="1.97496" fill="#2C3639"/>
<rect x="158.501" y="0.0390625" width="1.97496" height="1.48368" fill="#2C3639"/>
<path d="M52.7669 2.3418C52.7231 2.3418 52.6819 2.33246 52.644 2.31625C52.7836 2.24747 52.9265 2.17673 53.0661 2.10844C53.0327 2.24207 52.9113 2.3418 52.7669 2.3418Z" fill="#2C3639"/>
<path d="M66.8632 2.64844C66.6927 2.64844 66.5547 2.50988 66.5547 2.3399C66.5547 2.16893 66.6927 2.03088 66.8632 2.03088C67.0337 2.03088 67.1717 2.16893 67.1717 2.3399C67.1717 2.50988 67.0337 2.64844 66.8632 2.64844Z" fill="#2C3639"/>
<path d="M64.3173 8.70898C64.1468 8.70898 64.0083 8.57044 64.0083 8.39997C64.0083 8.22949 64.1468 8.09143 64.3173 8.09143C64.4878 8.09143 64.6258 8.22949 64.6258 8.39997C64.6258 8.57044 64.4878 8.70898 64.3173 8.70898Z" fill="#2C3639"/>
<path d="M69.3119 8.39844C69.1415 8.39844 69.0034 8.26037 69.0034 8.0899C69.0034 7.91942 69.1415 7.78138 69.3119 7.78138C69.4824 7.78138 69.6205 7.91942 69.6205 8.0899C69.6205 8.26037 69.4824 8.39844 69.3119 8.39844Z" fill="#2C3639"/>
<path d="M160.442 2.95508C160.271 2.95508 160.133 2.81656 160.133 2.64608C160.133 2.47561 160.271 2.33755 160.442 2.33755C160.612 2.33755 160.75 2.47561 160.75 2.64608C160.75 2.81656 160.612 2.95508 160.442 2.95508Z" fill="#2C3639"/>
<path d="M159.826 9.01758C159.655 9.01758 159.517 8.87954 159.517 8.70906C159.517 8.53859 159.655 8.40005 159.826 8.40005C159.996 8.40005 160.134 8.53859 160.134 8.70906C160.134 8.87954 159.996 9.01758 159.826 9.01758Z" fill="#2C3639"/>
<path d="M154.98 8.0918C154.81 8.0918 154.671 7.95376 154.671 7.78328C154.671 7.61281 154.81 7.47426 154.98 7.47426C155.151 7.47426 155.289 7.61281 155.289 7.78328C155.289 7.95376 155.151 8.0918 154.98 8.0918Z" fill="#2C3639"/>
<path d="M155.825 12.4062C155.654 12.4062 155.516 12.2682 155.516 12.0977C155.516 11.9272 155.654 11.7887 155.825 11.7887C155.996 11.7887 156.134 11.9272 156.134 12.0977C156.134 12.2682 155.996 12.4062 155.825 12.4062Z" fill="#2C3639"/>
<path d="M151.412 9.32812C151.241 9.32812 151.103 9.18958 151.103 9.01911C151.103 8.84863 151.241 8.71059 151.412 8.71059C151.582 8.71059 151.72 8.84863 151.72 9.01911C151.72 9.18958 151.582 9.32812 151.412 9.32812Z" fill="#2C3639"/>
<path d="M144.477 1.72266C144.307 1.72266 144.168 1.58411 144.168 1.41364C144.168 1.24316 144.307 1.1051 144.477 1.1051C144.647 1.1051 144.786 1.24316 144.786 1.41364C144.786 1.58411 144.647 1.72266 144.477 1.72266Z" fill="#2C3639"/>
<path d="M130.489 1.41211C130.318 1.41211 130.18 1.27405 130.18 1.10357C130.18 0.933096 130.318 0.795056 130.489 0.795056C130.659 0.795056 130.798 0.933096 130.798 1.10357C130.798 1.27405 130.659 1.41211 130.489 1.41211Z" fill="#2C3639"/>
<path d="M126.937 1.10352C126.766 1.10352 126.628 0.965476 126.628 0.795001C126.628 0.624526 126.766 0.485983 126.937 0.485983C127.107 0.485983 127.245 0.624526 127.245 0.795001C127.245 0.965476 127.107 1.10352 126.937 1.10352Z" fill="#2C3639"/>
<path d="M124.932 3.26367C124.761 3.26367 124.623 3.12563 124.623 2.95516C124.623 2.78468 124.761 2.64664 124.932 2.64664C125.102 2.64664 125.24 2.78468 125.24 2.95516C125.24 3.12563 125.102 3.26367 124.932 3.26367Z" fill="#2C3639"/>
<path d="M162.688 18.8906C162.396 18.7211 162.102 18.5526 161.809 18.3861L161.902 18.3723L162.191 17.7882L162.479 18.3723L163.124 18.4662L162.688 18.8906" fill="#2C3639"/>
<path d="M52.9028 13.2969L52.326 12.9933L51.7492 13.2969L51.8593 12.6543L51.3926 12.1994L52.0376 12.106L52.326 11.5214L52.6144 12.106L53.2595 12.1994L52.7927 12.6543L52.9028 13.2969Z" fill="#2C3639"/>
<path d="M138.816 7.77734L138.515 7.61866L138.215 7.77734L138.272 7.4423L138.028 7.2045L138.364 7.15588L138.515 6.85079L138.666 7.15588L139.002 7.2045L138.758 7.4423L138.816 7.77734" fill="#2C3639"/>
<path d="M52.0087 6.85156L51.7076 6.69336L51.4069 6.85156L51.4644 6.51649L51.2207 6.27922L51.5572 6.2301L51.7076 5.92549L51.8584 6.2301L52.1949 6.27922L51.9512 6.51649L52.0087 6.85156" fill="#2C3639"/>
<rect x="153.097" y="214.875" width="1.92584" height="1.92583" fill="#2C3639"/>
<rect x="53.563" y="213.943" width="1.72931" height="1.92583" fill="#2C3639"/>
<path d="M52.3251 210.027C52.1546 210.027 52.0166 209.889 52.0166 209.719C52.0166 209.548 52.1546 209.41 52.3251 209.41C52.4956 209.41 52.6336 209.548 52.6336 209.719C52.6336 209.889 52.4956 210.027 52.3251 210.027Z" fill="#2C3639"/>
<rect x="214.164" y="80.9023" width="1.92584" height="1.97496" fill="#2C3639"/>
<path d="M203.088 44.6738C202.918 44.6738 202.779 44.5358 202.779 44.3653C202.779 44.1948 202.918 44.0568 203.088 44.0568C203.259 44.0568 203.397 44.1948 203.397 44.3653C203.397 44.5358 203.259 44.6738 203.088 44.6738Z" fill="#2C3639"/>
<path d="M185.716 19.293C185.545 19.293 185.407 19.1549 185.407 18.9845C185.407 18.814 185.545 18.6754 185.716 18.6754C185.887 18.6754 186.025 18.814 186.025 18.9845C186.025 19.1549 185.887 19.293 185.716 19.293Z" fill="#2C3639"/>
<path d="M184.368 35.3652C184.221 35.2223 184.075 35.0798 183.927 34.9373C183.983 34.8666 184.071 34.8209 184.168 34.8209C184.339 34.8209 184.477 34.9594 184.477 35.1294C184.477 35.2242 184.435 35.3087 184.368 35.3652" fill="#2C3639"/>
<path d="M193.782 33.5879L193.205 33.2848L192.628 33.5879L192.738 32.9458L192.272 32.4909L192.917 32.3975L193.205 31.8129L193.493 32.3975L194.138 32.4909L193.672 32.9458L193.782 33.5879Z" fill="#2C3639"/>
<path d="M200.513 41.5078L199.936 41.2047L199.359 41.5078L199.47 40.8652L199.003 40.4108L199.647 40.3169L199.936 39.7328L200.224 40.3169L200.87 40.4108L200.403 40.8652L200.513 41.5078Z" fill="#2C3639"/>
<path d="M173.991 13.2969L173.414 12.9933L172.837 13.2969L172.948 12.6543L172.48 12.1994L173.126 12.106L173.414 11.5214L173.702 12.106L174.347 12.1994L173.881 12.6543L173.991 13.2969Z" fill="#2C3639"/>
<rect x="193.677" y="182.549" width="1.92584" height="1.92583" fill="#2C3639"/>
<rect x="174.566" y="213.943" width="1.92584" height="1.92583" fill="#2C3639"/>
<path d="M190.811 206.629C190.729 206.573 190.675 206.479 190.675 206.373C190.675 206.202 190.813 206.064 190.984 206.064C191.102 206.064 191.204 206.13 191.256 206.227C191.109 206.362 190.96 206.496 190.811 206.629Z" fill="#2C3639"/>
<path d="M199.564 175.447C199.394 175.447 199.256 175.309 199.256 175.139C199.256 174.968 199.394 174.83 199.564 174.83C199.735 174.83 199.873 174.968 199.873 175.139C199.873 175.309 199.735 175.447 199.564 175.447Z" fill="#2C3639"/>
<path d="M188.261 189.115C188.096 189.115 187.961 188.986 187.952 188.823C188.054 188.714 188.154 188.607 188.255 188.498C188.257 188.498 188.259 188.498 188.261 188.498C188.431 188.498 188.569 188.636 188.569 188.806C188.569 188.977 188.431 189.115 188.261 189.115" fill="#2C3639"/>
<path d="M196.225 189.424C196.054 189.424 195.916 189.285 195.916 189.115C195.916 188.944 196.054 188.806 196.225 188.806C196.395 188.806 196.534 188.944 196.534 189.115C196.534 189.285 196.395 189.424 196.225 189.424Z" fill="#2C3639"/>
<path d="M173.414 210.027C173.244 210.027 173.105 209.889 173.105 209.719C173.105 209.548 173.244 209.41 173.414 209.41C173.584 209.41 173.723 209.548 173.723 209.719C173.723 209.889 173.584 210.027 173.414 210.027Z" fill="#2C3639"/>
<path d="M176.937 207.355C176.767 207.355 176.629 207.217 176.629 207.047C176.629 206.876 176.767 206.738 176.937 206.738C177.107 206.738 177.246 206.876 177.246 207.047C177.246 207.217 177.107 207.355 176.937 207.355Z" fill="#2C3639"/>
<path d="M176.628 210.336C176.457 210.336 176.319 210.198 176.319 210.027C176.319 209.857 176.457 209.719 176.628 209.719C176.799 209.719 176.937 209.857 176.937 210.027C176.937 210.198 176.799 210.336 176.628 210.336Z" fill="#2C3639"/>
<path d="M173.106 206.736C172.935 206.736 172.797 206.598 172.797 206.427C172.797 206.257 172.935 206.119 173.106 206.119C173.276 206.119 173.414 206.257 173.414 206.427C173.414 206.598 173.276 206.736 173.106 206.736Z" fill="#2C3639"/>
<path d="M206.37 186.234L206.069 186.076L205.768 186.234L205.825 185.899L205.582 185.662L205.918 185.613L206.069 185.308L206.219 185.613L206.556 185.662L206.312 185.899L206.37 186.234Z" fill="#2C3639"/>
<path d="M215.124 197.506C214.802 197.506 214.541 197.244 214.541 196.923C214.541 196.601 214.802 196.34 215.124 196.34C215.445 196.34 215.706 196.601 215.706 196.923C215.706 197.244 215.445 197.506 215.124 197.506Z" fill="#2C3639"/>
<path d="M203.228 213C202.906 213 202.646 212.739 202.646 212.417C202.646 212.096 202.906 211.835 203.228 211.835C203.55 211.835 203.811 212.096 203.811 212.417C203.811 212.739 203.55 213 203.228 213Z" fill="#2C3639"/>
<path d="M176.138 4.63867C175.817 4.63867 175.555 4.37781 175.555 4.05602C175.555 3.73423 175.817 3.47336 176.138 3.47336C176.46 3.47336 176.72 3.73423 176.72 4.05602C176.72 4.37781 176.46 4.63867 176.138 4.63867Z" fill="#2C3639"/>
<path d="M198.552 21.5957C198.231 21.5957 197.969 21.3343 197.969 21.0125C197.969 20.6903 198.231 20.4299 198.552 20.4299C198.874 20.4299 199.135 20.6903 199.135 21.0125C199.135 21.3343 198.874 21.5957 198.552 21.5957Z" fill="#2C3639"/>
<path d="M11.6983 18.2637C11.3765 18.2637 11.1157 18.0023 11.1157 17.681C11.1157 17.3587 11.3767 17.0979 11.6983 17.0979C12.0204 17.0979 12.2813 17.3587 12.2813 17.681C12.2813 18.0023 12.0204 18.2637 11.6983 18.2637Z" fill="#2C3639"/>
<path d="M45.8234 1.16602C45.5016 1.16602 45.2407 0.905139 45.2407 0.582858C45.2407 0.261559 45.5016 0.000204113 45.8234 0.000204113C46.1452 0.000204113 46.406 0.261559 46.406 0.582858C46.406 0.905139 46.1452 1.16602 45.8234 1.16602Z" fill="#2C3639"/>
<path d="M16.5254 210.057C16.2036 210.057 15.9424 209.795 15.9424 209.473C15.9424 209.152 16.2036 208.891 16.5254 208.891C16.847 208.891 17.1081 209.152 17.1081 209.473C17.1081 209.795 16.847 210.057 16.5254 210.057Z" fill="#2C3639"/>
<path d="M160.054 0.919922C159.707 0.759273 159.36 0.600099 159.012 0.442889C159.075 0.189879 159.304 0.00270192 159.577 0.00270192C159.898 0.00270192 160.159 0.264057 160.159 0.585356C160.159 0.710142 160.121 0.825104 160.054 0.919922" fill="#2C3639"/>
</g>
<circle cx="108.5" cy="107.5" r="83.5" stroke="#2C3639" stroke-width="12"/>
<path d="M163.813 153.507C156.546 157.174 149.179 157.774 141.713 155.307C133.779 152.774 126.946 147.374 121.213 139.107C118.146 134.707 115.513 129.607 113.313 123.807L110.113 115.307H86.5125L81.2125 127.907C80.8792 128.774 80.7125 129.474 80.7125 130.007C80.7125 130.54 80.8125 131.14 81.0125 131.807C81.2792 132.407 81.7792 132.974 82.5125 133.507C83.3125 133.974 84.1792 134.207 85.1125 134.207H85.9125V135.207H64.5125V134.207H65.4125C66.9458 134.207 68.4458 133.774 69.9125 132.907C71.4458 131.974 72.7125 130.607 73.7125 128.807L96.0125 77.907C93.4125 72.0404 90.6458 68.007 87.7125 65.807C85.2458 63.9404 82.8792 63.007 80.6125 63.007C78.4125 63.007 76.3458 63.3404 74.4125 64.007L74.2125 63.007C79.0125 60.5404 83.6125 59.307 88.0125 59.307C93.4792 59.307 98.3792 61.4404 102.713 65.707C106.979 69.907 110.746 75.9737 114.013 83.907L128.513 119.707C133.979 133.24 139.579 142.54 145.313 147.607C147.646 149.674 150.046 151.107 152.513 151.907C154.979 152.707 157.046 153.107 158.713 153.107C160.446 153.107 162.113 152.907 163.713 152.507L163.813 153.507ZM88.2125 111.007H108.613L101.613 92.507C101.279 91.5737 100.813 90.307 100.213 88.707C99.6125 87.0404 99.2125 85.8737 99.0125 85.207L88.2125 111.007Z" fill="#2C3639"/>
</g>
<defs>
<clipPath id="clip0_2964_50938">
<rect width="215" height="215" rx="21" fill="white"/>
</clipPath>
</defs>
</svg>
