<svg width="577" height="590" viewBox="0 0 577 590" fill="none" xmlns="http://www.w3.org/2000/svg">
<path d="M43.275 280.952C43.275 217.616 69.1111 156.874 115.1 112.089C161.088 67.3031 223.462 42.1429 288.5 42.1429C353.538 42.1429 415.912 67.3031 461.9 112.089C507.889 156.874 533.725 217.616 533.725 280.952V337.143H468.813C463.074 337.143 457.57 339.363 453.512 343.315C449.455 347.266 447.175 352.626 447.175 358.214V540.833C447.175 552.465 456.869 561.905 468.813 561.905H490.45C513.404 561.905 535.419 553.025 551.65 537.218C567.881 521.411 577 499.973 577 477.619V280.952C577 125.782 447.839 0 288.5 0C129.161 0 0 125.782 0 280.952V477.619C0 499.973 9.11864 521.411 25.3499 537.218C41.5812 553.025 63.5955 561.905 86.55 561.905H108.188C113.926 561.905 119.43 559.685 123.488 555.733C127.545 551.781 129.825 546.422 129.825 540.833V358.214C129.825 352.626 127.545 347.266 123.488 343.315C119.43 339.363 113.926 337.143 108.188 337.143H43.275V280.952ZM310.138 273.929C310.138 268.34 307.858 262.98 303.8 259.029C299.742 255.077 294.239 252.857 288.5 252.857C282.761 252.857 277.258 255.077 273.2 259.029C269.142 262.98 266.863 268.34 266.863 273.929V568.929C266.863 574.517 269.142 579.877 273.2 583.828C277.258 587.78 282.761 590 288.5 590C294.239 590 299.742 587.78 303.8 583.828C307.858 579.877 310.138 574.517 310.138 568.929V273.929ZM194.738 337.143C200.476 337.143 205.98 339.363 210.038 343.315C214.095 347.266 216.375 352.626 216.375 358.214V484.643C216.375 490.231 214.095 495.591 210.038 499.543C205.98 503.494 200.476 505.714 194.738 505.714C188.999 505.714 183.495 503.494 179.437 499.543C175.38 495.591 173.1 490.231 173.1 484.643V358.214C173.1 352.626 175.38 347.266 179.437 343.315C183.495 339.363 188.999 337.143 194.738 337.143ZM403.9 358.214C403.9 352.626 401.62 347.266 397.563 343.315C393.505 339.363 388.001 337.143 382.263 337.143C376.524 337.143 371.02 339.363 366.962 343.315C362.905 347.266 360.625 352.626 360.625 358.214V484.643C360.625 490.231 362.905 495.591 366.962 499.543C371.02 503.494 376.524 505.714 382.263 505.714C388.001 505.714 393.505 503.494 397.563 499.543C401.62 495.591 403.9 490.231 403.9 484.643V358.214Z" fill="#73A9AD"/>
</svg>
