<svg width="74" height="115" viewBox="0 0 74 115" fill="none" xmlns="http://www.w3.org/2000/svg">
<path d="M51.8755 56.9691C51.8755 50.5384 56.6769 42.0771 64.5782 41.2104C70.5502 40.5557 73.9595 44.8077 72.9635 47.0224C72.7982 47.3877 66.1942 52.6331 66.1942 62.5797C66.1942 72.5277 68.8369 88.4237 63.9275 98.7011C60.0529 106.813 50.5742 114.101 37.2969 114.101C24.0195 114.101 14.5395 106.813 10.6649 98.7011C5.75686 88.4237 8.39953 72.5277 8.39953 62.5797C8.39953 52.6331 1.79419 47.3877 1.63019 47.0224C0.634194 44.8077 4.04219 40.5557 10.0155 41.2104C17.9155 42.0771 22.7182 50.5384 22.7182 56.9691" stroke="#829BBA" stroke-width="1.6" stroke-miterlimit="10" stroke-linecap="round" stroke-linejoin="round"/>
<path d="M17.1577 44.3824V17.625C17.1577 13.917 20.163 10.9117 23.871 10.9117C27.5777 10.9117 30.583 13.917 30.583 17.625V54.1304" stroke="#829BBA" stroke-width="1.6" stroke-miterlimit="10" stroke-linecap="round" stroke-linejoin="round"/>
<path d="M57.4351 44.3824V17.625C57.4351 13.917 54.4298 10.9117 50.7218 10.9117C47.0151 10.9117 44.0098 13.917 44.0098 17.625V54.1304" stroke="#829BBA" stroke-width="1.6" stroke-miterlimit="10" stroke-linecap="round" stroke-linejoin="round"/>
<path d="M44.0093 17.3125V8.10317C44.0093 4.39517 41.004 1.38983 37.296 1.38983C33.5893 1.38983 30.584 4.39517 30.584 8.10317V17.3125" stroke="#829BBA" stroke-width="1.6" stroke-miterlimit="10" stroke-linecap="round" stroke-linejoin="round"/>
<path d="M56.6222 83.2029C56.6222 83.2029 47.9702 93.0122 37.2969 93.0122C26.6222 93.0122 17.9702 83.2029 17.9702 83.2029C17.9702 83.2029 26.6222 73.3935 37.2969 73.3935C47.9702 73.3935 56.6222 83.2029 56.6222 83.2029Z" stroke="#829BBA" stroke-width="1.6" stroke-miterlimit="10" stroke-linecap="round" stroke-linejoin="round"/>
<path d="M43.5542 74.5622C45.1235 76.1502 46.0928 78.3342 46.0928 80.7436C46.0928 85.6022 42.1542 89.5396 37.2968 89.5396C32.4382 89.5396 28.4995 85.6022 28.4995 80.7436C28.4995 78.3636 29.4448 76.2036 30.9808 74.6209" stroke="#829BBA" stroke-width="1.6" stroke-miterlimit="10" stroke-linecap="round" stroke-linejoin="round"/>
<path d="M41.517 80.7444C41.517 83.075 39.6277 84.9644 37.297 84.9644C34.9663 84.9644 33.0757 83.075 33.0757 80.7444C33.0757 78.4137 34.9663 76.5244 37.297 76.5244C39.6277 76.5244 41.517 78.4137 41.517 80.7444Z" fill="#829BBA"/>
<path d="M39.5884 80.7441C39.5884 82.0095 38.5617 83.0361 37.2964 83.0361C36.0311 83.0361 35.0044 82.0095 35.0044 80.7441C35.0044 79.4788 36.0311 78.4521 37.2964 78.4521C38.5617 78.4521 39.5884 79.4788 39.5884 80.7441Z" fill="#829BBA"/>
<path d="M37.2968 98.1218L37.9754 102.167L42.0208 102.846L37.9754 103.524L37.2968 107.57L36.6181 103.524L32.5728 102.846L36.6181 102.167L37.2968 98.1218Z" fill="#829BBA"/>
<path d="M24.4567 96.0275L24.946 98.9475L27.866 99.4369L24.946 99.9262L24.4567 102.846L23.9674 99.9262L21.0474 99.4369L23.9674 98.9475L24.4567 96.0275Z" fill="#829BBA"/>
<path d="M50.1364 96.0275L50.6257 98.9475L53.5457 99.4369L50.6257 99.9262L50.1364 102.846L49.6471 99.9262L46.7271 99.4369L49.6471 98.9475L50.1364 96.0275Z" fill="#829BBA"/>
<path d="M37.2968 68.2842L36.6181 64.2388L32.5728 63.5602L36.6181 62.8815L37.2968 58.8362L37.9754 62.8815L42.0208 63.5602L37.9754 64.2388L37.2968 68.2842Z" fill="#829BBA"/>
<path d="M50.1364 70.3789L49.6471 67.4589L46.7271 66.9696L49.6471 66.4802L50.1364 63.5602L50.6257 66.4802L53.5457 66.9696L50.6257 67.4589L50.1364 70.3789Z" fill="#829BBA"/>
<path d="M24.4567 70.3789L23.9674 67.4589L21.0474 66.9696L23.9674 66.4802L24.4567 63.5602L24.946 66.4802L27.866 66.9696L24.946 67.4589L24.4567 70.3789Z" fill="#829BBA"/>
</svg>
