<svg width="291" height="291" viewBox="0 0 291 291" fill="none" xmlns="http://www.w3.org/2000/svg">
<mask id="path-1-inside-1_3050_61824" fill="white">
<path d="M139.523 145.668C138.176 144.196 137.435 142.285 137.435 140.288C137.435 140.047 137.241 139.852 136.999 139.852C136.758 139.852 136.563 140.047 136.563 140.288C136.563 142.503 137.386 144.623 138.879 146.257C138.964 146.351 139.082 146.399 139.201 146.399C139.306 146.399 139.411 146.361 139.495 146.285C139.673 146.122 139.685 145.846 139.523 145.668ZM153.39 140.288C153.39 140.53 153.585 140.724 153.826 140.724C154.067 140.724 154.263 140.53 154.263 140.288C154.263 138.153 153.492 136.092 152.092 134.483C151.934 134.301 151.659 134.282 151.477 134.44C151.295 134.598 151.276 134.874 151.434 135.056C152.695 136.505 153.39 138.364 153.39 140.288ZM138.388 151.709C138.458 151.752 138.538 151.773 138.615 151.773C138.762 151.773 138.905 151.699 138.988 151.565C139.114 151.36 139.05 151.091 138.845 150.965C135.109 148.663 132.879 144.671 132.879 140.288C132.879 140.047 132.684 139.852 132.443 139.852C132.202 139.852 132.007 140.047 132.007 140.288C132.007 144.976 134.392 149.246 138.388 151.709ZM157.946 140.288C157.946 142.04 157.592 143.735 156.893 145.325C156.796 145.546 156.897 145.803 157.117 145.9C157.174 145.925 157.234 145.937 157.292 145.937C157.461 145.937 157.62 145.84 157.693 145.677C158.44 143.974 158.819 142.162 158.819 140.288C158.819 136.707 157.425 133.341 154.892 130.809C154.722 130.638 154.445 130.638 154.275 130.809C154.105 130.979 154.105 131.256 154.275 131.426C156.643 133.793 157.946 136.94 157.946 140.288ZM152.83 150.392C150.669 151.982 148.104 152.821 145.413 152.821C145.172 152.821 144.976 153.017 144.976 153.258C144.976 153.499 145.172 153.694 145.413 153.694C148.291 153.694 151.035 152.795 153.347 151.096C153.541 150.953 153.583 150.68 153.441 150.485C153.297 150.291 153.025 150.248 152.83 150.392ZM136.997 133.57C137.12 133.57 137.243 133.518 137.33 133.417C139.351 131.041 142.298 129.679 145.413 129.679C145.654 129.679 145.849 129.484 145.849 129.243C145.849 129.002 145.654 128.806 145.413 128.806C142.041 128.806 138.853 130.281 136.665 132.851C136.509 133.034 136.531 133.31 136.714 133.466C136.796 133.536 136.898 133.57 136.997 133.57ZM155.36 145.115C155.147 145.002 154.882 145.081 154.769 145.294C153.882 146.947 152.57 148.34 150.972 149.325C150.767 149.452 150.704 149.72 150.829 149.925C150.912 150.06 151.055 150.133 151.202 150.133C151.28 150.133 151.359 150.112 151.43 150.069C153.159 149.003 154.579 147.495 155.538 145.706C155.652 145.494 155.572 145.23 155.36 145.115ZM145.849 151.333C145.849 151.092 145.654 150.897 145.413 150.897C143.444 150.897 141.521 150.354 139.854 149.326C139.648 149.198 139.38 149.263 139.253 149.468C139.127 149.673 139.191 149.942 139.396 150.069C141.201 151.181 143.281 151.77 145.413 151.77C145.654 151.77 145.849 151.575 145.849 151.333ZM147.344 137.365C147.479 137.288 147.609 137.251 147.735 137.251C147.827 137.251 147.918 137.271 148.008 137.312C148.229 137.411 148.446 137.635 148.619 137.939C148.791 138.246 148.871 138.547 148.842 138.788C148.814 139.021 148.686 139.197 148.453 139.329C148.22 139.462 148.003 139.478 147.79 139.382C147.568 139.283 147.351 139.059 147.178 138.753C147.006 138.448 146.927 138.147 146.956 137.905C146.984 137.673 147.111 137.496 147.344 137.365ZM147.431 140.178C147.637 140.271 147.849 140.317 148.063 140.317C148.337 140.317 148.613 140.241 148.882 140.089C149.782 139.581 149.976 138.57 149.379 137.511C149.112 137.038 148.762 136.694 148.366 136.516C147.896 136.305 147.393 136.335 146.915 136.604C146.436 136.875 146.151 137.289 146.089 137.801C146.038 138.233 146.152 138.71 146.418 139.182C146.685 139.655 147.036 140 147.431 140.178ZM150.765 140.288C150.765 143.239 148.364 145.64 145.413 145.64C142.462 145.64 140.062 143.239 140.062 140.288C140.062 137.337 142.462 134.937 145.413 134.937C148.364 134.937 150.765 137.337 150.765 140.288ZM139.189 140.288C139.189 143.72 141.981 146.513 145.413 146.513C148.845 146.513 151.637 143.72 151.637 140.288C151.637 136.856 148.845 134.064 145.413 134.064C141.981 134.064 139.189 136.856 139.189 140.288ZM210.365 151.068C210.426 150.528 210.476 149.986 210.524 149.445C210.535 149.32 210.547 149.195 210.558 149.07C210.596 148.606 210.629 148.14 210.658 147.674C210.677 147.367 210.693 147.063 210.708 146.757C210.724 146.411 210.742 146.065 210.753 145.719C210.776 145.025 210.791 144.333 210.791 143.648C210.791 141.74 210.702 139.838 210.533 137.945C210.533 137.939 210.533 137.934 210.532 137.929L250.189 141.899C250.198 141.9 250.207 141.904 250.216 141.904C250.222 141.904 250.228 141.904 250.233 141.904C250.234 141.904 250.234 141.904 250.235 141.904L285.529 145.438L210.365 151.068ZM222.389 216.052L199.423 188.027H222.343C222.499 188.027 222.643 187.944 222.722 187.809C222.799 187.674 222.799 187.508 222.722 187.373L216.811 177.135L237.176 184.44C237.225 184.457 237.275 184.465 237.324 184.465C237.489 184.465 237.644 184.372 237.718 184.216C237.814 184.012 237.74 183.77 237.547 183.654L211.657 168.208L208.13 162.099C209.11 158.778 209.814 155.386 210.252 151.951L249.795 148.99C248.974 173.9 239.258 197.677 222.389 216.052ZM185.962 194.838C186.297 194.573 186.619 194.29 186.949 194.019C187.349 193.69 187.75 193.362 188.141 193.024C188.515 192.702 188.883 192.373 189.249 192.041C189.675 191.657 190.094 191.268 190.508 190.875C190.793 190.604 191.081 190.335 191.362 190.057C192.04 189.39 192.704 188.715 193.343 188.027H198.294L244.669 244.614L185.962 194.838ZM149.61 249.773L153.332 208.443C157.992 207.873 162.559 206.798 166.961 205.257L182.792 237.864C182.867 238.019 183.022 238.111 183.184 238.111C183.239 238.111 183.293 238.101 183.346 238.079C183.558 237.995 183.67 237.76 183.6 237.542L172.617 202.981C177.084 200.934 181.323 198.386 185.246 195.375L216.556 221.923C198.271 238.932 174.535 248.806 149.61 249.773ZM145.5 285.682L138.522 208.557C138.537 208.559 138.551 208.56 138.566 208.561C140.86 208.809 143.174 208.939 145.5 208.939C147.814 208.939 150.117 208.811 152.4 208.565C152.416 208.564 152.431 208.563 152.446 208.561L148.696 250.19C148.694 250.209 148.686 250.227 148.686 250.247C148.687 250.251 148.69 250.256 148.69 250.26L145.5 285.682ZM74.4295 221.911L105.725 195.355C109.507 198.262 113.584 200.733 117.876 202.743L106.556 237.188C106.485 237.405 106.594 237.641 106.805 237.727C106.86 237.75 106.916 237.761 106.971 237.761C107.132 237.761 107.286 237.671 107.362 237.519L123.506 205.071C128.062 206.71 132.798 207.845 137.634 208.438L141.374 249.773C116.448 248.801 92.7136 238.923 74.4295 221.911ZM92.6708 188.027H97.6544C98.2942 188.716 98.9592 189.391 99.6365 190.059C99.9132 190.331 100.195 190.596 100.475 190.863C100.896 191.262 101.321 191.657 101.754 192.047C102.114 192.371 102.472 192.694 102.838 193.009C103.261 193.374 103.694 193.73 104.128 194.085C104.423 194.328 104.709 194.582 105.009 194.818L46.33 244.61L92.6708 188.027ZM41.2041 148.971L80.7441 151.915C81.1831 155.359 81.8883 158.762 82.872 162.096L79.9438 167.167L53.1063 182.807C52.9126 182.92 52.8358 183.163 52.93 183.367C53.0025 183.525 53.1604 183.621 53.3263 183.621C53.3743 183.621 53.4223 183.613 53.4694 183.597L74.7192 176.217L68.278 187.373C68.2004 187.508 68.2004 187.674 68.278 187.809C68.3566 187.944 68.5006 188.027 68.656 188.027H91.5423L68.6001 216.04C51.7352 197.664 42.0201 173.882 41.2041 148.971ZM80.4701 137.901C80.4692 137.911 80.4692 137.919 80.4683 137.928C80.299 139.826 80.2091 141.735 80.2091 143.648C80.2091 144.333 80.2239 145.024 80.2466 145.717C80.2571 146.055 80.2754 146.394 80.2911 146.732C80.306 147.045 80.3217 147.359 80.3418 147.673C80.3697 148.13 80.4028 148.587 80.4404 149.043C80.4508 149.171 80.4639 149.3 80.4753 149.428C80.5224 149.963 80.5713 150.498 80.6315 151.031L5.47396 145.436L80.4701 137.901ZM69.1692 74.3451L94.0568 103.508C91.2167 107.139 88.7851 111.054 86.7873 115.173L53.7862 106.549C53.5698 106.494 53.3525 106.606 53.2704 106.81C53.1892 107.015 53.2739 107.249 53.4677 107.354L83.3852 123.647C81.9843 127.984 81.0356 132.465 80.5661 137.014L41.2451 140.964C42.3073 116.153 52.2082 92.5332 69.1692 74.3451ZM103.758 93.4924C103.516 93.6941 103.287 93.9096 103.049 94.1139C102.564 94.5293 102.082 94.9474 101.609 95.3768C101.345 95.6159 101.087 95.8603 100.828 96.1047C100.308 96.5926 99.7954 97.0883 99.2918 97.5928C99.0902 97.7953 98.8886 97.9969 98.6896 98.202C98.0978 98.8104 97.5183 99.4318 96.9492 100.064C96.8436 100.181 96.7354 100.295 96.6315 100.414C95.9385 101.194 95.2595 101.988 94.6031 102.803L46.4818 46.4149L103.758 93.4924ZM141.458 41.2253L139.432 64.13L130.163 80.1858C128.282 80.6406 126.427 81.1861 124.598 81.8075L108.194 53.1101C108.085 52.9181 107.851 52.8404 107.647 52.9242C107.445 53.0088 107.336 53.2323 107.396 53.4444L116.307 85.2899C112.103 87.4047 108.124 89.9681 104.455 92.9365L74.9069 68.6493C93.1412 51.8917 116.736 42.1679 141.458 41.2253ZM145.501 5.40849L150.562 62.3887L145.878 54.2753C145.8 54.1409 145.656 54.0571 145.5 54.0571C145.344 54.0571 145.2 54.1409 145.122 54.2753L140.467 62.3372L145.501 5.40849ZM216.104 68.6606L186.569 92.953C183.037 90.0912 179.218 87.6037 175.185 85.5317L184.447 53.7987C184.509 53.5875 184.404 53.3623 184.201 53.2759C184 53.1886 183.764 53.2654 183.652 53.4557L166.935 81.9917C164.933 81.2917 162.9 80.6799 160.835 80.1806L151.598 64.1832L149.559 41.2253C174.28 42.1731 197.873 51.8995 216.104 68.6606ZM196.419 102.828C195.759 102.007 195.074 101.207 194.377 100.42C194.285 100.315 194.189 100.213 194.094 100.109C193.516 99.4641 192.926 98.8313 192.323 98.2116C192.125 98.0083 191.925 97.8075 191.725 97.6068C191.225 97.1049 190.717 96.6127 190.201 96.1283C189.932 95.8752 189.665 95.6229 189.393 95.3742C188.941 94.9648 188.481 94.566 188.02 94.1697C187.767 93.9515 187.523 93.7229 187.266 93.509L244.523 46.4166L196.419 102.828ZM204.848 116.468L234.312 109.106L207.54 123.313C206.779 121.001 205.875 118.702 204.848 116.468ZM167.815 82.3024C167.801 82.298 167.787 82.291 167.774 82.2867L182.621 56.9434L174.395 85.1232C174.277 85.0639 174.153 85.0141 174.033 84.9557C172.008 83.965 169.934 83.0783 167.815 82.3024ZM207.243 162.035C206.965 162.963 206.666 163.887 206.345 164.807C205.38 167.565 204.22 170.275 202.88 172.893C201.988 174.636 201.036 176.314 200.048 177.884H188.826C192.523 173.212 195.419 168.019 197.44 162.433C199.003 158.111 200.02 153.584 200.461 148.978C200.634 147.171 200.721 145.378 200.721 143.648C200.721 122.097 188.071 102.397 168.478 93.42L161.438 81.2262C163.3 81.701 165.124 82.2561 166.909 82.8819C166.935 82.8976 166.957 82.9203 166.985 82.9299C169.54 83.8367 172.059 84.9155 174.471 86.1366C174.529 86.1662 174.593 86.1784 174.655 86.1811C178.79 88.267 182.643 90.7746 186.174 93.6399C186.2 93.7185 186.239 93.7918 186.304 93.845C189.893 96.7898 193.175 100.136 196.062 103.789C196.12 103.862 196.202 103.904 196.29 103.928C199.235 107.695 201.75 111.798 203.797 116.153C203.794 116.223 203.804 116.293 203.835 116.358C205.014 118.868 206.035 121.465 206.869 124.076C206.882 124.116 206.909 124.149 206.932 124.183C208.275 128.45 209.184 132.898 209.617 137.475C209.617 137.478 209.615 137.48 209.615 137.483C209.816 139.584 209.918 141.658 209.918 143.648C209.918 144.347 209.902 145.043 209.88 145.739C209.866 146.138 209.845 146.541 209.824 146.943C209.811 147.209 209.798 147.476 209.781 147.741C209.747 148.26 209.707 148.78 209.661 149.301C209.649 149.43 209.638 149.558 209.626 149.686C209.571 150.269 209.51 150.853 209.439 151.436C209.003 155.025 208.275 158.57 207.243 162.035ZM203.28 173.987L204.634 176.331L202.717 175.03C202.907 174.684 203.095 174.338 203.28 173.987ZM114.137 188.027H176.863C167.66 194.549 156.849 197.998 145.5 197.998C134.15 197.998 123.34 194.549 114.137 188.027ZM91.3057 147.488C91.2132 146.19 91.1513 144.901 91.1513 143.648C91.1513 122.879 103.112 103.856 121.735 94.7833L91.3057 147.488ZM193.591 168.965L167.087 152.357C167.527 152.066 167.966 151.783 168.401 151.51L195.947 163.876C195.25 165.616 194.463 167.312 193.591 168.965ZM173.64 177.884L159.125 157.479C159.403 157.321 159.682 157.164 159.956 157.002L179.65 177.884H173.64ZM163.568 177.884L155.266 159.393C155.536 159.279 155.803 159.162 156.069 159.042L167.877 177.884H163.568ZM155.191 177.884L151.257 160.743C151.53 160.675 151.798 160.597 152.067 160.52L158.671 177.884H155.191ZM147.578 177.884L147.095 161.407C147.376 161.387 147.652 161.358 147.929 161.328L150.721 177.884H147.578ZM142.896 161.332C143.17 161.361 143.442 161.389 143.719 161.408L143.238 177.884H140.105L142.896 161.332ZM138.751 160.539C139.021 160.615 139.291 160.69 139.566 160.759L135.635 177.884H132.155L138.751 160.539ZM134.738 159.072C135.004 159.193 135.274 159.307 135.547 159.421L127.258 177.884H122.95L134.738 159.072ZM130.841 157.033C131.116 157.195 131.396 157.355 131.677 157.513L117.185 177.884H111.177L130.841 157.033ZM122.335 151.55C122.782 151.822 123.229 152.102 123.68 152.394L97.3647 168.884C96.4997 167.236 95.7194 165.543 95.0264 163.81L122.335 151.55ZM100.787 151.352L115.294 148.022C115.725 148.432 116.281 148.719 116.871 148.98C116.88 148.985 116.891 148.983 116.9 148.986C116.91 148.991 116.918 148.998 116.928 149C117.266 149.096 117.603 149.211 117.94 149.335L97.4528 157.127L100.787 151.352ZM106.056 142.227L119.152 141.843C118.523 142.227 117.886 142.506 117.31 142.754C116.492 143.105 115.708 143.456 115.17 144.04L103.912 145.939L106.056 142.227ZM110.151 135.132L122.805 137.266C122.546 137.612 122.302 137.945 122.072 138.262L108.572 137.868L110.151 135.132ZM113.662 129.051L125.748 133.648C125.561 133.856 125.379 134.063 125.2 134.269L112.352 131.32L113.662 129.051ZM116.935 123.382L128.665 130.733C128.522 130.859 128.382 130.986 128.243 131.113L115.718 125.49L116.935 123.382ZM120.235 117.666L131.624 128.407C131.517 128.48 131.41 128.553 131.304 128.628L118.971 119.855L120.235 117.666ZM123.841 111.421L134.646 126.611C134.568 126.65 134.492 126.692 134.415 126.732L122.373 113.964L123.841 111.421ZM128.144 103.969L137.726 125.314C137.671 125.332 137.616 125.35 137.562 125.369L126.23 107.283L128.144 103.969ZM133.86 94.0667L140.843 124.488C140.805 124.495 140.768 124.501 140.731 124.508L131.022 98.9823L133.86 94.0667ZM142.958 89.3694L143.975 124.103C143.948 124.105 143.921 124.107 143.893 124.109L138.11 89.818C139.729 89.5954 141.346 89.4462 142.958 89.3694ZM147.056 123.375L148.052 89.3633C149.616 89.4357 151.174 89.5736 152.722 89.7796L147.056 123.375ZM150.095 124.508C150.058 124.501 150.02 124.495 149.983 124.488L157.015 93.8512L159.872 98.7999L150.095 124.508ZM153.263 125.369C153.209 125.35 153.154 125.332 153.1 125.314L162.758 103.799L164.686 107.139L153.263 125.369ZM156.411 126.732C156.334 126.692 156.258 126.65 156.179 126.611L167.081 111.286L168.561 113.849L156.411 126.732ZM159.521 128.628C159.417 128.553 159.308 128.48 159.201 128.407L170.703 117.56L171.978 119.767L159.521 128.628ZM162.582 131.113C162.443 130.986 162.303 130.859 162.161 130.733L174.018 123.302L175.245 125.428L162.582 131.113ZM165.626 134.269C165.448 134.063 165.265 133.856 165.077 133.648L177.306 128.997L178.628 131.285L165.626 134.269ZM168.754 138.262C168.523 137.945 168.279 137.612 168.021 137.266L180.833 135.105L182.425 137.863L168.754 138.262ZM175.655 144.04C175.117 143.456 174.334 143.105 173.516 142.754C172.94 142.506 172.303 142.227 171.673 141.843L184.947 142.232L187.107 145.971L175.655 144.04ZM174.274 148.657C174.282 148.655 174.289 148.649 174.297 148.646C174.308 148.642 174.319 148.643 174.331 148.638C174.712 148.47 175.095 148.269 175.425 147.997L190.239 151.398L193.596 157.211L172.642 149.243C173.187 149.017 173.731 148.812 174.274 148.657ZM137.076 129.797C135.852 130.77 134.811 131.935 133.989 133.269C133.863 133.474 133.926 133.743 134.132 133.87C134.203 133.913 134.282 133.934 134.36 133.934C134.506 133.934 134.649 133.86 134.732 133.726C135.527 132.436 138.198 130.01 139.396 129.081C139.396 129.081 142.026 128.323 145.5 128.323C152.572 128.323 157.663 131.544 157.861 131.653C159.631 134.199 160.568 137.181 160.568 140.288C160.568 148.644 153.77 155.442 145.413 155.442C137.057 155.442 130.258 148.644 130.258 140.288C130.258 137.181 131.194 134.199 132.964 131.653C135.764 130.058 136.887 129.864 137.076 129.797ZM121.811 149.16C120.892 146.98 120.286 144.683 120.001 142.33C120.06 142.289 120.118 142.256 120.177 142.214C120.643 141.876 121.285 141.223 122.173 140.318C124.157 138.298 127.26 135.152 131.373 132.583C130.075 134.938 129.386 137.566 129.386 140.288C129.386 149.126 136.575 156.315 145.413 156.315C154.251 156.315 161.441 149.126 161.441 140.288C161.441 137.566 160.75 134.938 159.452 132.583C163.565 135.152 166.669 138.297 168.652 140.317C169.541 141.222 170.182 141.876 170.649 142.214C170.71 142.258 170.769 142.291 170.829 142.332C170.533 144.83 170.012 146.832 169.106 148.948C167.344 149.691 165.568 150.721 163.658 151.835C158.827 154.652 153.352 157.844 145.413 157.844C137.474 157.844 132.118 154.762 127.393 152.041C125.438 150.915 123.625 149.884 121.811 149.16ZM175.475 145.962C175.475 146.843 175.095 147.331 174.045 147.808C172.74 147.822 171.481 148.078 170.23 148.51C170.932 146.707 171.371 144.932 171.646 142.831C172.176 143.119 172.694 143.35 173.172 143.555C174.727 144.225 175.475 144.607 175.475 145.962ZM145.413 124.93C156.603 124.93 163.441 132.614 167.235 137.673C165.027 135.538 156.31 127.43 145.413 127.43C134.522 127.43 125.731 135.604 123.59 137.674C127.384 132.615 134.223 124.93 145.413 124.93ZM117.156 148.151C115.911 147.591 115.35 147.129 115.35 145.962C115.35 144.607 116.098 144.225 117.654 143.555C118.136 143.348 118.659 143.116 119.193 142.824C119.47 144.862 119.985 146.851 120.724 148.765C119.561 148.39 118.384 148.163 117.156 148.151ZM164.604 152.966C159.304 156.544 153.297 160.598 145.413 160.598C137.519 160.598 131.644 156.662 126.461 153.189C124.61 151.949 122.819 150.748 121.03 149.788C122.946 150.488 124.867 151.594 126.957 152.798C131.777 155.572 137.24 158.717 145.413 158.717C153.587 158.717 159.171 155.462 164.097 152.588C166.23 151.345 168.192 150.202 170.129 149.476C168.317 150.46 166.491 151.693 164.604 152.966ZM86.4775 176.136L87.7151 173.993C87.8827 174.31 88.0572 174.628 88.2327 174.946L86.4775 176.136ZM100.126 173.549L126.879 154.518C127.195 154.728 127.513 154.94 127.835 155.151L103.73 177.884H103.299C102.164 176.488 101.111 175.039 100.126 173.549ZM187.095 177.884L162.957 155.119C163.276 154.908 163.591 154.698 163.904 154.488L190.819 173.634C189.85 175.094 188.815 176.514 187.702 177.884H187.095ZM199.694 147.488L169.25 94.758C187.883 103.825 199.849 122.858 199.849 143.648C199.849 144.899 199.787 146.189 199.694 147.488ZM131.329 79.9109L140.236 64.4834H140.237L145.5 55.3663L199.577 149.031C199.573 149.072 199.568 149.112 199.564 149.152C199.467 150.113 199.345 151.07 199.197 152.022C199.189 152.079 199.182 152.136 199.173 152.193C199.025 153.131 198.847 154.064 198.65 154.992C198.625 155.112 198.601 155.234 198.575 155.354C198.379 156.248 198.158 157.135 197.917 158.016C197.877 158.162 197.838 158.308 197.798 158.453C197.551 159.324 197.283 160.187 196.995 161.043C196.973 161.108 196.95 161.172 196.928 161.237L150.601 80.9967L149.257 78.6689V78.6681L145.878 72.8151C145.8 72.6798 145.656 72.5969 145.5 72.5969C145.344 72.5969 145.2 72.6798 145.122 72.8151L141.864 78.4586C140.968 78.5083 140.07 78.5773 139.175 78.6646C139.025 78.6794 138.875 78.7012 138.725 78.7169C137.938 78.799 137.153 78.8906 136.368 79.0015C136.036 79.0486 135.707 79.1071 135.376 79.1594C134.775 79.2537 134.175 79.3488 133.578 79.4597C133.202 79.5295 132.83 79.6089 132.456 79.6849C132.081 79.7617 131.703 79.828 131.329 79.9109ZM117.099 84.8823L109.186 56.6021L123.759 82.0973C123.62 82.1461 123.483 82.2003 123.344 82.25C122.964 82.3888 122.584 82.5267 122.206 82.6715C121.578 82.9124 120.954 83.1621 120.333 83.423C120.087 83.526 119.843 83.6351 119.599 83.7416C119.071 83.9703 118.546 84.2068 118.024 84.4494C117.828 84.5411 117.63 84.6318 117.434 84.7261C117.323 84.7793 117.21 84.8291 117.099 84.8823ZM83.64 122.793L57.0225 108.297L86.3867 115.97C85.3455 118.186 84.4229 120.477 83.64 122.793ZM81.5576 151.395C81.4825 150.777 81.417 150.159 81.3594 149.541C81.3542 149.479 81.349 149.417 81.3437 149.355C81.2914 148.774 81.2468 148.194 81.2102 147.614C81.198 147.427 81.191 147.238 81.1814 147.05C81.1561 146.588 81.1316 146.126 81.1168 145.667C81.0958 144.995 81.0819 144.322 81.0819 143.648C81.0819 141.651 81.1849 139.568 81.3874 137.456C81.3874 137.452 81.3856 137.449 81.3856 137.445C81.8368 132.7 82.803 128.094 84.23 123.684C84.2588 123.647 84.2876 123.608 84.3033 123.562C85.1639 120.946 86.206 118.358 87.4009 115.87C87.4332 115.804 87.4419 115.73 87.4384 115.659C89.4476 111.476 91.8923 107.534 94.7358 103.902C94.8222 103.877 94.9034 103.835 94.9601 103.763C97.8438 100.117 101.128 96.775 104.721 93.8293C104.786 93.7761 104.824 93.7028 104.851 93.6251C108.52 90.6506 112.538 88.0645 116.855 85.9332C116.909 85.9288 116.964 85.921 117.014 85.8965C119.451 84.6903 121.983 83.6308 124.54 82.7484C124.556 82.7431 124.566 82.73 124.58 82.7239C126.527 82.0589 128.515 81.4715 130.552 80.9862C134.349 80.0794 138.25 79.5182 142.146 79.3183C143.265 79.2607 144.393 79.231 145.5 79.231C146.491 79.231 147.513 79.2572 148.62 79.3104L149.29 80.4712L154.287 89.1276C148.212 88.1536 142.01 88.1894 135.787 89.2952C131.246 90.1016 126.821 91.478 122.635 93.3851C102.979 102.342 90.2785 122.071 90.2785 143.648C90.2785 145.335 90.3614 147.081 90.5263 148.839L83.4759 161.05C82.5866 157.884 81.9521 154.658 81.5576 151.395ZM75.3861 175.062L57.4327 181.296L79.0649 168.69L75.3861 175.062ZM69.4127 187.154L83.7195 162.374C83.7195 162.373 83.7195 162.373 83.7195 162.373L86.6573 157.285L123.123 94.1243C123.16 94.1078 123.198 94.092 123.235 94.0755C124.112 93.681 125 93.31 125.896 92.9635C125.948 92.9435 125.997 92.9216 126.049 92.9024C126.934 92.5629 127.829 92.2522 128.732 91.9598C128.848 91.9223 128.964 91.8821 129.081 91.8455C129.952 91.5697 130.833 91.3183 131.718 91.087C131.863 91.0486 132.008 91.0102 132.154 90.9736C133.032 90.7519 133.916 90.552 134.806 90.3748C134.873 90.3608 134.94 90.3486 135.006 90.3355L84.3339 178.103C84.2562 178.238 84.2562 178.404 84.3339 178.539C84.4124 178.674 84.5565 178.757 84.7127 178.757H90.4818C90.9645 179.51 91.462 180.252 91.9743 180.985C92.0511 181.095 92.134 181.201 92.2117 181.311C92.6751 181.966 93.1482 182.614 93.6352 183.251C93.8281 183.504 94.0297 183.749 94.2261 183.998C94.6084 184.484 94.9915 184.967 95.3869 185.44C95.6217 185.722 95.8635 185.997 96.1035 186.275C96.3557 186.567 96.6018 186.866 96.8593 187.154H69.4127ZM122.667 204.798L109.272 231.719L118.662 203.148C119.947 203.73 121.29 204.282 122.667 204.798ZM171.829 203.386L180.939 232.051L167.802 204.992C169.258 204.463 170.584 203.935 171.829 203.386ZM190.39 189.778C190.053 190.104 189.716 190.432 189.371 190.752C189.036 191.064 188.693 191.366 188.352 191.669C187.268 192.634 186.156 193.576 184.999 194.477C184.997 194.479 184.996 194.481 184.994 194.483C175.565 201.802 164.242 206.398 152.369 207.687C152.131 207.712 151.894 207.736 151.657 207.758C150.774 207.845 149.889 207.916 149.002 207.964C148.791 207.977 148.582 207.983 148.371 207.992C147.484 208.032 146.594 208.059 145.702 208.061C145.578 208.061 145.454 208.062 145.331 208.062C144.407 208.06 143.487 208.032 142.568 207.989C142.359 207.979 142.15 207.973 141.941 207.962C141.039 207.911 140.14 207.837 139.244 207.748C139.003 207.724 138.763 207.702 138.521 207.675C126.618 206.363 115.275 201.723 105.842 194.353C105.427 194.027 105.023 193.691 104.616 193.356C104.259 193.063 103.901 192.769 103.549 192.467C103.146 192.121 102.749 191.769 102.354 191.414C101.958 191.056 101.566 190.692 101.177 190.324C100.861 190.024 100.543 189.727 100.234 189.422C99.5318 188.728 98.8388 188.024 98.1659 187.295C95.5527 184.463 93.1718 181.365 91.0893 178.087C90.0411 176.437 89.0784 174.764 88.2239 173.112L93.8848 163.307C95.9944 168.845 98.9732 173.985 102.749 178.598C105.617 182.102 108.903 185.245 112.517 187.941C122.103 195.091 133.509 198.871 145.5 198.871C157.443 198.871 168.804 195.121 178.367 188.027H192.126C191.972 188.189 191.817 188.35 191.66 188.511C191.243 188.94 190.819 189.362 190.39 189.778ZM221.587 187.154H112.929C112.095 186.529 111.276 185.88 110.478 185.206C110.285 185.042 110.102 184.866 109.911 184.7C109.296 184.166 108.685 183.627 108.094 183.065C107.809 182.795 107.538 182.509 107.259 182.232C106.778 181.755 106.298 181.28 105.835 180.786C105.537 180.466 105.251 180.135 104.961 179.81C104.651 179.462 104.345 179.112 104.044 178.757H206.287C206.443 178.757 206.587 178.674 206.666 178.539C206.744 178.404 206.744 178.238 206.666 178.103L203.765 173.079C204.172 172.275 204.563 171.462 204.936 170.644C205.008 170.488 205.07 170.328 205.14 170.172C205.456 169.466 205.763 168.757 206.053 168.042C206.178 167.732 206.292 167.421 206.412 167.11C206.632 166.54 206.851 165.971 207.055 165.397C207.179 165.047 207.293 164.696 207.411 164.345C207.534 163.978 207.667 163.613 207.784 163.245L221.587 187.154ZM212.552 169.758L233.239 182.1L216.136 175.966L212.552 169.758ZM249.756 140.978L210.437 137.042C209.987 132.666 209.098 128.353 207.787 124.171L237.878 108.202C238.072 108.098 238.16 107.866 238.081 107.66C238.002 107.454 237.78 107.338 237.568 107.393L204.448 115.668C202.412 111.379 199.909 107.303 196.965 103.533L221.843 74.3582C238.799 92.5472 248.696 116.168 249.756 140.978ZM290.579 145.066L250.634 141.067C250.573 139.628 250.488 138.193 250.369 136.764L290.601 133.244C290.841 133.223 291.019 133.012 290.998 132.772C290.977 132.532 290.762 132.356 290.525 132.374L250.288 135.894C250.037 133.129 249.678 130.38 249.21 127.656L275.307 123.037C275.545 122.995 275.704 122.769 275.661 122.531C275.619 122.294 275.391 122.131 275.156 122.178L249.057 126.797C248.565 124.065 247.966 121.36 247.261 118.685L286.269 108.234C286.501 108.171 286.639 107.932 286.577 107.699C286.515 107.466 286.276 107.328 286.043 107.391L247.037 117.842C246.308 115.166 245.472 112.524 244.536 109.918L269.435 100.827C269.662 100.745 269.779 100.494 269.696 100.268C269.613 100.041 269.362 99.9258 269.137 100.008L244.241 109.096C243.283 106.497 242.217 103.939 241.057 101.423L277.659 84.3552C277.877 84.2539 277.971 83.9938 277.87 83.7756C277.768 83.5574 277.508 83.4623 277.29 83.5644L240.693 100.63C239.512 98.1261 238.226 95.6701 236.849 93.2629L259.796 79.9755C260.005 79.8542 260.076 79.5871 259.955 79.3794C259.835 79.1708 259.567 79.0992 259.359 79.2197L236.416 92.5053C235.023 90.1165 233.53 87.7818 231.947 85.502L265.033 62.3355C265.231 62.1967 265.278 61.9253 265.14 61.7272C265.002 61.529 264.729 61.4819 264.533 61.6198L231.448 84.7863C229.852 82.5293 228.165 80.3325 226.387 78.1968L246.683 61.1136C246.867 60.9582 246.89 60.6833 246.735 60.4992C246.58 60.3141 246.305 60.2897 246.12 60.4459L225.826 77.5291C224.721 76.2251 223.585 74.9439 222.414 73.6897L248.389 43.2283C248.535 43.0564 248.526 42.8007 248.368 42.6392C248.21 42.4777 247.952 42.4646 247.78 42.6087L216.786 68.0994C215.7 67.0992 214.597 66.1208 213.474 65.1703L239.435 34.2316C239.59 34.0465 239.566 33.7716 239.382 33.6163C239.197 33.4618 238.922 33.4862 238.767 33.6704L212.803 64.6135C210.668 62.8365 208.472 61.145 206.215 59.5504L221.404 37.8284C221.542 37.6303 221.494 37.3588 221.297 37.22C221.099 37.0821 220.827 37.1301 220.689 37.3274L205.498 59.0529C203.218 57.4697 200.882 55.979 198.493 54.586L218.687 19.6106C218.807 19.4011 218.736 19.1349 218.527 19.0136C218.318 18.8931 218.051 18.9647 217.931 19.1742L197.736 54.1505C195.33 52.7732 192.871 51.4928 190.367 50.3128L201.547 26.2761C201.649 26.057 201.555 25.7978 201.336 25.6966C201.117 25.5953 200.858 25.6887 200.756 25.9078L189.578 49.9427C187.061 48.7819 184.501 47.7223 181.901 46.764L195.714 8.81325C195.797 8.5872 195.68 8.33672 195.453 8.25467C195.228 8.1735 194.977 8.28871 194.895 8.51564L181.083 46.462C178.477 45.5264 175.832 44.6964 173.157 43.9676L179.986 18.3476C180.049 18.1146 179.911 17.8755 179.678 17.8135C179.446 17.7524 179.206 17.8894 179.143 18.1225L172.316 43.7363C169.64 43.0311 166.933 42.4376 164.202 41.9453L171.216 2.17042C171.259 1.93302 171.1 1.70697 170.862 1.66507C170.625 1.61969 170.399 1.78118 170.357 2.01858L163.344 41.7891C160.62 41.3213 157.872 40.9652 155.105 40.7129L157.376 14.2831C157.397 14.043 157.219 13.8318 156.979 13.8109C156.734 13.7794 156.528 13.968 156.507 14.208L154.237 40.6344C152.657 40.5035 151.071 40.4075 149.481 40.349L145.935 0.425732C145.915 0.200552 145.726 0.027734 145.5 0.027734C145.274 0.027734 145.085 0.200532 145.065 0.426585L141.536 40.3481C139.939 40.4075 138.349 40.5035 136.763 40.6344L133.244 0.398671C133.223 0.158653 133.009 -0.0185069 132.771 0.00156728C132.531 0.0225143 132.354 0.234596 132.374 0.474614L135.894 40.7129C133.128 40.9652 130.38 41.3222 127.656 41.79L123.037 15.6926C122.994 15.4543 122.769 15.2946 122.532 15.3391C122.294 15.3801 122.135 15.6071 122.177 15.8445L126.798 41.9453C124.067 42.4376 121.359 43.032 118.684 43.7363L108.234 4.73122C108.172 4.49819 107.932 4.35939 107.698 4.4231C107.466 4.48507 107.328 4.7251 107.39 4.95726L117.843 43.9676C115.167 44.6964 112.522 45.5255 109.917 46.462L100.827 21.5639C100.744 21.3378 100.494 21.2226 100.268 21.3038C100.042 21.3867 99.9246 21.6372 100.007 21.8632L109.098 46.764C106.499 47.7232 103.938 48.781 101.422 49.9418L84.3548 13.3413C84.2527 13.1231 83.9944 13.0289 83.7753 13.1301C83.5571 13.2322 83.462 13.4923 83.5641 13.7105L100.632 50.3128C98.1283 51.4937 95.6697 52.7732 93.2625 54.1496L79.9752 31.2039C79.8547 30.9953 79.5877 30.9246 79.3791 31.045C79.1696 31.1655 79.0989 31.4325 79.2202 31.6411L92.5067 54.586C90.1179 55.979 87.7814 57.4697 85.5017 59.0529L62.3352 25.9671C62.1973 25.769 61.9241 25.7219 61.7278 25.8598C61.5296 25.9977 61.4816 26.27 61.6204 26.4672L84.7851 59.5504C82.5281 61.145 80.3322 62.8365 78.1973 64.6135L61.1133 44.3176C60.9588 44.1334 60.683 44.1081 60.4989 44.2652C60.3138 44.4197 60.2903 44.6955 60.4456 44.8796L77.5253 65.1695C76.4063 66.1173 75.3075 67.0922 74.2252 68.0889L43.2229 42.6069C43.0474 42.4629 42.7926 42.476 42.6346 42.6383C42.4757 42.7989 42.467 43.0546 42.6136 43.2275L68.5984 73.6757C67.4227 74.9343 66.282 76.2199 65.1735 77.5291L34.2314 51.5644C34.0463 51.4108 33.7714 51.4335 33.6169 51.6185C33.4616 51.8027 33.486 52.0784 33.6702 52.2329L64.6123 78.1976C62.8353 80.3325 61.1473 82.5302 59.5519 84.7863L37.8281 69.5963C37.6309 69.4584 37.3577 69.5055 37.2207 69.7036C37.0819 69.9009 37.1299 70.1732 37.328 70.3111L59.0527 85.502C57.4694 87.7818 55.9769 90.1165 54.584 92.5062L19.6104 72.3133C19.4009 72.1919 19.1347 72.2635 19.0143 72.473C18.8929 72.6816 18.9645 72.9487 19.174 73.0691L54.1502 93.2638C52.7729 95.6709 51.4882 98.1261 50.3073 100.63L26.2759 89.4532C26.0551 89.351 25.7976 89.4462 25.6963 89.6644C25.5942 89.8826 25.6894 90.1427 25.9076 90.2439L49.9433 101.423C48.7825 103.939 47.7169 106.497 46.7577 109.097L8.81379 95.286C8.58808 95.2048 8.3368 95.3201 8.25468 95.5461C8.17185 95.773 8.28836 96.0235 8.51511 96.1056L46.4635 109.918C45.527 112.524 44.6909 115.166 43.963 117.842L18.3474 111.014C18.117 110.953 17.8753 111.09 17.8133 111.323C17.7513 111.556 17.8901 111.795 18.1223 111.856L43.7387 118.685C43.0343 121.36 42.4347 124.065 41.9416 126.797L2.17071 119.784C1.9341 119.742 1.7063 119.901 1.66511 120.138C1.62278 120.375 1.78136 120.601 2.01867 120.643L41.7897 127.656C41.3219 130.38 40.9632 133.129 40.711 135.894L14.283 133.623C14.0373 133.599 13.8313 133.781 13.8109 134.021C13.7901 134.261 13.968 134.473 14.2081 134.494L40.6307 136.764C40.5128 138.189 40.4264 139.62 40.3671 141.053L0.421727 145.066C0.196024 145.088 0.0255704 145.28 0.0286252 145.506C0.03168 145.733 0.206933 145.918 0.432637 145.935L40.3278 148.906C40.3845 150.689 40.4893 152.466 40.6359 154.236L0.398512 157.756C0.158145 157.777 -0.0191183 157.989 0.00165415 158.229C0.0218156 158.456 0.212345 158.627 0.436041 158.627C0.448609 158.627 0.461615 158.627 0.474183 158.625L40.711 155.106C40.9632 157.872 41.3245 160.62 41.7915 163.344L15.6924 167.963C15.455 168.005 15.2962 168.232 15.3389 168.469C15.3765 168.681 15.5598 168.829 15.7675 168.829C15.7928 168.829 15.819 168.827 15.8443 168.823L41.9442 164.203C42.4365 166.934 43.0335 169.641 43.7378 172.315L4.73148 182.767C4.49862 182.829 4.36054 183.069 4.42286 183.301C4.47471 183.497 4.65136 183.625 4.84398 183.625C4.88143 183.625 4.9193 183.62 4.95709 183.61L43.9673 173.157C44.6952 175.833 45.5244 178.478 46.46 181.083L21.5646 190.173C21.3376 190.255 21.2207 190.506 21.3036 190.733C21.3682 190.91 21.5357 191.019 21.7138 191.019C21.7635 191.019 21.8142 191.01 21.8631 190.993L46.7638 181.902C47.7221 184.501 48.7773 187.064 49.9381 189.58L13.3414 206.645C13.1232 206.747 13.0284 207.007 13.1303 207.225C13.2044 207.384 13.3615 207.477 13.5262 207.477C13.5879 207.477 13.6506 207.463 13.7103 207.436L50.3125 190.369C51.4925 192.872 52.7703 195.332 54.1476 197.739L31.2036 211.025C30.995 211.146 30.9235 211.413 31.0448 211.621C31.126 211.761 31.2726 211.84 31.4227 211.84C31.4969 211.84 31.572 211.82 31.6409 211.78L54.5857 198.494C55.9787 200.883 57.4677 203.22 59.0518 205.5L25.9669 228.665C25.7688 228.804 25.7217 229.075 25.8596 229.273C25.9442 229.394 26.0795 229.46 26.2174 229.46C26.3038 229.46 26.3911 229.433 26.467 229.38L59.551 206.215C61.1456 208.471 62.8353 210.668 64.6132 212.803L44.3173 229.887C44.1332 230.043 44.1087 230.317 44.265 230.502C44.3505 230.605 44.4744 230.657 44.5992 230.657C44.6979 230.657 44.7974 230.624 44.8794 230.555L65.17 213.474C66.1022 214.576 67.0605 215.657 68.0406 216.723L42.6058 247.779C42.4626 247.953 42.4766 248.208 42.6372 248.366C42.7227 248.449 42.8327 248.492 42.9436 248.492C43.0439 248.492 43.1443 248.457 43.2263 248.388L73.7592 222.479C74.9916 223.628 76.2492 224.743 77.5287 225.827L51.565 256.769C51.4096 256.954 51.4341 257.229 51.6182 257.384C51.7003 257.453 51.7998 257.486 51.8984 257.486C52.0232 257.486 52.1463 257.433 52.2327 257.33L78.1973 226.387C80.3322 228.165 82.529 229.855 84.7851 231.449L69.596 253.172C69.4572 253.371 69.5061 253.642 69.7033 253.78C69.7792 253.833 69.8665 253.859 69.9529 253.859C70.0908 253.859 70.2261 253.794 70.3108 253.673L85.5017 231.948C87.7814 233.531 90.1153 235.025 92.5041 236.419L72.313 271.39C72.1925 271.599 72.2641 271.866 72.4727 271.986C72.5416 272.026 72.6167 272.045 72.6909 272.045C72.841 272.045 72.9876 271.967 73.0688 271.827L93.2625 236.85C95.6697 238.228 98.1257 239.512 100.63 240.693L89.4528 264.725C89.3507 264.943 89.445 265.203 89.664 265.304C89.7234 265.332 89.7862 265.345 89.8473 265.345C90.0123 265.345 90.1694 265.252 90.2436 265.093L101.422 241.059C103.938 242.22 106.498 243.283 109.097 244.241L95.2857 282.186C95.2028 282.414 95.3197 282.664 95.5466 282.746C95.5955 282.764 95.6461 282.772 95.6959 282.772C95.8739 282.772 96.0415 282.662 96.1052 282.485L109.917 244.539C112.522 245.475 115.166 246.308 117.842 247.037L111.013 272.653C110.951 272.886 111.089 273.125 111.322 273.187C111.36 273.197 111.397 273.202 111.435 273.202C111.628 273.202 111.804 273.073 111.856 272.878L118.684 247.264C121.359 247.969 124.066 248.565 126.797 249.057L119.784 288.83C119.741 289.068 119.9 289.294 120.137 289.335C120.163 289.34 120.188 289.342 120.213 289.342C120.422 289.342 120.605 289.193 120.643 288.981L127.656 249.214C130.379 249.682 133.128 250.036 135.895 250.289L133.624 276.718C133.603 276.958 133.781 277.169 134.021 277.19C134.033 277.191 134.046 277.192 134.059 277.192C134.283 277.192 134.473 277.02 134.493 276.793L136.763 250.367C138.321 250.496 139.885 250.59 141.454 250.649L145.065 290.575C145.086 290.8 145.275 290.972 145.5 290.972C145.726 290.972 145.914 290.8 145.935 290.575L149.531 250.65C151.104 250.591 152.673 250.496 154.237 250.367L157.756 290.602C157.776 290.829 157.967 291 158.19 291C158.203 291 158.216 291 158.229 290.998C158.469 290.978 158.647 290.766 158.626 290.526L155.106 250.289C157.872 250.036 160.621 249.681 163.344 249.214L167.963 275.308C168 275.52 168.185 275.669 168.392 275.669C168.418 275.669 168.443 275.667 168.468 275.662C168.706 275.62 168.865 275.394 168.823 275.156L164.203 249.057C166.934 248.565 169.641 247.969 172.316 247.264L182.766 286.269C182.819 286.464 182.995 286.592 183.188 286.592C183.225 286.592 183.263 286.588 183.3 286.578C183.534 286.516 183.671 286.276 183.609 286.044L173.158 247.036C175.834 246.308 178.477 245.475 181.083 244.539L190.173 269.436C190.237 269.613 190.404 269.723 190.582 269.723C190.632 269.723 190.683 269.714 190.732 269.697C190.958 269.614 191.075 269.364 190.992 269.138L181.903 244.241C184.502 243.282 187.062 242.22 189.578 241.059L206.645 277.66C206.719 277.817 206.876 277.911 207.04 277.911C207.102 277.911 207.165 277.898 207.225 277.87C207.443 277.769 207.538 277.508 207.436 277.29L190.37 240.693C192.874 239.512 195.33 238.228 197.737 236.851L211.025 259.797C211.106 259.937 211.252 260.014 211.403 260.014C211.477 260.014 211.553 259.996 211.621 259.956C211.83 259.835 211.901 259.568 211.78 259.36L198.496 236.419C200.885 235.026 203.218 233.531 205.498 231.948L228.665 265.034C228.749 265.155 228.885 265.22 229.022 265.22C229.109 265.22 229.197 265.194 229.272 265.141C229.47 265.002 229.518 264.731 229.379 264.534L206.215 231.449C208.471 229.855 210.668 228.165 212.803 226.387L229.887 246.683C229.973 246.785 230.096 246.839 230.221 246.839C230.319 246.839 230.419 246.805 230.501 246.736C230.686 246.58 230.71 246.305 230.554 246.121L213.471 225.827C214.746 224.747 216 223.636 217.228 222.492L247.772 248.389C247.853 248.459 247.954 248.493 248.054 248.493C248.165 248.493 248.275 248.451 248.36 248.368C248.521 248.21 248.535 247.955 248.391 247.78L222.949 216.734C223.932 215.665 224.895 214.579 225.831 213.474L256.768 239.436C256.851 239.504 256.95 239.539 257.049 239.539C257.173 239.539 257.297 239.485 257.383 239.382C257.538 239.197 257.514 238.922 257.33 238.768L226.387 212.803C228.165 210.668 229.854 208.471 231.449 206.215L253.172 221.405C253.249 221.458 253.335 221.483 253.421 221.483C253.559 221.483 253.695 221.418 253.779 221.297C253.918 221.1 253.87 220.828 253.673 220.69L231.949 205.5C233.532 203.22 235.021 200.883 236.414 198.494L271.389 218.688C271.458 218.727 271.533 218.746 271.608 218.746C271.759 218.746 271.905 218.667 271.986 218.528C272.107 218.318 272.035 218.052 271.826 217.932L236.853 197.739C238.23 195.332 239.507 192.872 240.688 190.368L264.724 201.548C264.783 201.576 264.846 201.589 264.907 201.589C265.072 201.589 265.23 201.495 265.303 201.336C265.406 201.117 265.31 200.858 265.092 200.757L241.062 189.58C242.223 187.064 243.278 184.501 244.237 181.902L282.186 195.715C282.236 195.733 282.286 195.741 282.335 195.741C282.513 195.741 282.681 195.631 282.745 195.454C282.828 195.228 282.711 194.977 282.484 194.895L244.54 181.083C245.475 178.478 246.305 175.833 247.033 173.157L272.652 179.987C272.69 179.997 272.727 180.002 272.765 180.002C272.958 180.002 273.134 179.874 273.187 179.678C273.249 179.445 273.111 179.206 272.878 179.144L247.261 172.315C247.966 169.641 248.563 166.934 249.056 164.203L288.83 171.216C288.855 171.222 288.88 171.223 288.905 171.223C289.113 171.223 289.297 171.075 289.335 170.863C289.377 170.625 289.218 170.399 288.981 170.358L249.207 163.344C249.675 160.62 250.038 157.872 250.29 155.105L276.717 157.376C276.729 157.378 276.742 157.378 276.755 157.378C276.979 157.378 277.169 157.206 277.189 156.979C277.21 156.739 277.032 156.528 276.792 156.507L250.363 154.236C250.51 152.472 250.614 150.701 250.671 148.924L290.567 145.935C290.793 145.918 290.968 145.733 290.971 145.506C290.974 145.28 290.803 145.088 290.579 145.066Z"/>
</mask>
<path d="M139.523 145.668C138.176 144.196 137.435 142.285 137.435 140.288C137.435 140.047 137.241 139.852 136.999 139.852C136.758 139.852 136.563 140.047 136.563 140.288C136.563 142.503 137.386 144.623 138.879 146.257C138.964 146.351 139.082 146.399 139.201 146.399C139.306 146.399 139.411 146.361 139.495 146.285C139.673 146.122 139.685 145.846 139.523 145.668ZM153.39 140.288C153.39 140.53 153.585 140.724 153.826 140.724C154.067 140.724 154.263 140.53 154.263 140.288C154.263 138.153 153.492 136.092 152.092 134.483C151.934 134.301 151.659 134.282 151.477 134.44C151.295 134.598 151.276 134.874 151.434 135.056C152.695 136.505 153.39 138.364 153.39 140.288ZM138.388 151.709C138.458 151.752 138.538 151.773 138.615 151.773C138.762 151.773 138.905 151.699 138.988 151.565C139.114 151.36 139.05 151.091 138.845 150.965C135.109 148.663 132.879 144.671 132.879 140.288C132.879 140.047 132.684 139.852 132.443 139.852C132.202 139.852 132.007 140.047 132.007 140.288C132.007 144.976 134.392 149.246 138.388 151.709ZM157.946 140.288C157.946 142.04 157.592 143.735 156.893 145.325C156.796 145.546 156.897 145.803 157.117 145.9C157.174 145.925 157.234 145.937 157.292 145.937C157.461 145.937 157.62 145.84 157.693 145.677C158.44 143.974 158.819 142.162 158.819 140.288C158.819 136.707 157.425 133.341 154.892 130.809C154.722 130.638 154.445 130.638 154.275 130.809C154.105 130.979 154.105 131.256 154.275 131.426C156.643 133.793 157.946 136.94 157.946 140.288ZM152.83 150.392C150.669 151.982 148.104 152.821 145.413 152.821C145.172 152.821 144.976 153.017 144.976 153.258C144.976 153.499 145.172 153.694 145.413 153.694C148.291 153.694 151.035 152.795 153.347 151.096C153.541 150.953 153.583 150.68 153.441 150.485C153.297 150.291 153.025 150.248 152.83 150.392ZM136.997 133.57C137.12 133.57 137.243 133.518 137.33 133.417C139.351 131.041 142.298 129.679 145.413 129.679C145.654 129.679 145.849 129.484 145.849 129.243C145.849 129.002 145.654 128.806 145.413 128.806C142.041 128.806 138.853 130.281 136.665 132.851C136.509 133.034 136.531 133.31 136.714 133.466C136.796 133.536 136.898 133.57 136.997 133.57ZM155.36 145.115C155.147 145.002 154.882 145.081 154.769 145.294C153.882 146.947 152.57 148.34 150.972 149.325C150.767 149.452 150.704 149.72 150.829 149.925C150.912 150.06 151.055 150.133 151.202 150.133C151.28 150.133 151.359 150.112 151.43 150.069C153.159 149.003 154.579 147.495 155.538 145.706C155.652 145.494 155.572 145.23 155.36 145.115ZM145.849 151.333C145.849 151.092 145.654 150.897 145.413 150.897C143.444 150.897 141.521 150.354 139.854 149.326C139.648 149.198 139.38 149.263 139.253 149.468C139.127 149.673 139.191 149.942 139.396 150.069C141.201 151.181 143.281 151.77 145.413 151.77C145.654 151.77 145.849 151.575 145.849 151.333ZM147.344 137.365C147.479 137.288 147.609 137.251 147.735 137.251C147.827 137.251 147.918 137.271 148.008 137.312C148.229 137.411 148.446 137.635 148.619 137.939C148.791 138.246 148.871 138.547 148.842 138.788C148.814 139.021 148.686 139.197 148.453 139.329C148.22 139.462 148.003 139.478 147.79 139.382C147.568 139.283 147.351 139.059 147.178 138.753C147.006 138.448 146.927 138.147 146.956 137.905C146.984 137.673 147.111 137.496 147.344 137.365ZM147.431 140.178C147.637 140.271 147.849 140.317 148.063 140.317C148.337 140.317 148.613 140.241 148.882 140.089C149.782 139.581 149.976 138.57 149.379 137.511C149.112 137.038 148.762 136.694 148.366 136.516C147.896 136.305 147.393 136.335 146.915 136.604C146.436 136.875 146.151 137.289 146.089 137.801C146.038 138.233 146.152 138.71 146.418 139.182C146.685 139.655 147.036 140 147.431 140.178ZM150.765 140.288C150.765 143.239 148.364 145.64 145.413 145.64C142.462 145.64 140.062 143.239 140.062 140.288C140.062 137.337 142.462 134.937 145.413 134.937C148.364 134.937 150.765 137.337 150.765 140.288ZM139.189 140.288C139.189 143.72 141.981 146.513 145.413 146.513C148.845 146.513 151.637 143.72 151.637 140.288C151.637 136.856 148.845 134.064 145.413 134.064C141.981 134.064 139.189 136.856 139.189 140.288ZM210.365 151.068C210.426 150.528 210.476 149.986 210.524 149.445C210.535 149.32 210.547 149.195 210.558 149.07C210.596 148.606 210.629 148.14 210.658 147.674C210.677 147.367 210.693 147.063 210.708 146.757C210.724 146.411 210.742 146.065 210.753 145.719C210.776 145.025 210.791 144.333 210.791 143.648C210.791 141.74 210.702 139.838 210.533 137.945C210.533 137.939 210.533 137.934 210.532 137.929L250.189 141.899C250.198 141.9 250.207 141.904 250.216 141.904C250.222 141.904 250.228 141.904 250.233 141.904C250.234 141.904 250.234 141.904 250.235 141.904L285.529 145.438L210.365 151.068ZM222.389 216.052L199.423 188.027H222.343C222.499 188.027 222.643 187.944 222.722 187.809C222.799 187.674 222.799 187.508 222.722 187.373L216.811 177.135L237.176 184.44C237.225 184.457 237.275 184.465 237.324 184.465C237.489 184.465 237.644 184.372 237.718 184.216C237.814 184.012 237.74 183.77 237.547 183.654L211.657 168.208L208.13 162.099C209.11 158.778 209.814 155.386 210.252 151.951L249.795 148.99C248.974 173.9 239.258 197.677 222.389 216.052ZM185.962 194.838C186.297 194.573 186.619 194.29 186.949 194.019C187.349 193.69 187.75 193.362 188.141 193.024C188.515 192.702 188.883 192.373 189.249 192.041C189.675 191.657 190.094 191.268 190.508 190.875C190.793 190.604 191.081 190.335 191.362 190.057C192.04 189.39 192.704 188.715 193.343 188.027H198.294L244.669 244.614L185.962 194.838ZM149.61 249.773L153.332 208.443C157.992 207.873 162.559 206.798 166.961 205.257L182.792 237.864C182.867 238.019 183.022 238.111 183.184 238.111C183.239 238.111 183.293 238.101 183.346 238.079C183.558 237.995 183.67 237.76 183.6 237.542L172.617 202.981C177.084 200.934 181.323 198.386 185.246 195.375L216.556 221.923C198.271 238.932 174.535 248.806 149.61 249.773ZM145.5 285.682L138.522 208.557C138.537 208.559 138.551 208.56 138.566 208.561C140.86 208.809 143.174 208.939 145.5 208.939C147.814 208.939 150.117 208.811 152.4 208.565C152.416 208.564 152.431 208.563 152.446 208.561L148.696 250.19C148.694 250.209 148.686 250.227 148.686 250.247C148.687 250.251 148.69 250.256 148.69 250.26L145.5 285.682ZM74.4295 221.911L105.725 195.355C109.507 198.262 113.584 200.733 117.876 202.743L106.556 237.188C106.485 237.405 106.594 237.641 106.805 237.727C106.86 237.75 106.916 237.761 106.971 237.761C107.132 237.761 107.286 237.671 107.362 237.519L123.506 205.071C128.062 206.71 132.798 207.845 137.634 208.438L141.374 249.773C116.448 248.801 92.7136 238.923 74.4295 221.911ZM92.6708 188.027H97.6544C98.2942 188.716 98.9592 189.391 99.6365 190.059C99.9132 190.331 100.195 190.596 100.475 190.863C100.896 191.262 101.321 191.657 101.754 192.047C102.114 192.371 102.472 192.694 102.838 193.009C103.261 193.374 103.694 193.73 104.128 194.085C104.423 194.328 104.709 194.582 105.009 194.818L46.33 244.61L92.6708 188.027ZM41.2041 148.971L80.7441 151.915C81.1831 155.359 81.8883 158.762 82.872 162.096L79.9438 167.167L53.1063 182.807C52.9126 182.92 52.8358 183.163 52.93 183.367C53.0025 183.525 53.1604 183.621 53.3263 183.621C53.3743 183.621 53.4223 183.613 53.4694 183.597L74.7192 176.217L68.278 187.373C68.2004 187.508 68.2004 187.674 68.278 187.809C68.3566 187.944 68.5006 188.027 68.656 188.027H91.5423L68.6001 216.04C51.7352 197.664 42.0201 173.882 41.2041 148.971ZM80.4701 137.901C80.4692 137.911 80.4692 137.919 80.4683 137.928C80.299 139.826 80.2091 141.735 80.2091 143.648C80.2091 144.333 80.2239 145.024 80.2466 145.717C80.2571 146.055 80.2754 146.394 80.2911 146.732C80.306 147.045 80.3217 147.359 80.3418 147.673C80.3697 148.13 80.4028 148.587 80.4404 149.043C80.4508 149.171 80.4639 149.3 80.4753 149.428C80.5224 149.963 80.5713 150.498 80.6315 151.031L5.47396 145.436L80.4701 137.901ZM69.1692 74.3451L94.0568 103.508C91.2167 107.139 88.7851 111.054 86.7873 115.173L53.7862 106.549C53.5698 106.494 53.3525 106.606 53.2704 106.81C53.1892 107.015 53.2739 107.249 53.4677 107.354L83.3852 123.647C81.9843 127.984 81.0356 132.465 80.5661 137.014L41.2451 140.964C42.3073 116.153 52.2082 92.5332 69.1692 74.3451ZM103.758 93.4924C103.516 93.6941 103.287 93.9096 103.049 94.1139C102.564 94.5293 102.082 94.9474 101.609 95.3768C101.345 95.6159 101.087 95.8603 100.828 96.1047C100.308 96.5926 99.7954 97.0883 99.2918 97.5928C99.0902 97.7953 98.8886 97.9969 98.6896 98.202C98.0978 98.8104 97.5183 99.4318 96.9492 100.064C96.8436 100.181 96.7354 100.295 96.6315 100.414C95.9385 101.194 95.2595 101.988 94.6031 102.803L46.4818 46.4149L103.758 93.4924ZM141.458 41.2253L139.432 64.13L130.163 80.1858C128.282 80.6406 126.427 81.1861 124.598 81.8075L108.194 53.1101C108.085 52.9181 107.851 52.8404 107.647 52.9242C107.445 53.0088 107.336 53.2323 107.396 53.4444L116.307 85.2899C112.103 87.4047 108.124 89.9681 104.455 92.9365L74.9069 68.6493C93.1412 51.8917 116.736 42.1679 141.458 41.2253ZM145.501 5.40849L150.562 62.3887L145.878 54.2753C145.8 54.1409 145.656 54.0571 145.5 54.0571C145.344 54.0571 145.2 54.1409 145.122 54.2753L140.467 62.3372L145.501 5.40849ZM216.104 68.6606L186.569 92.953C183.037 90.0912 179.218 87.6037 175.185 85.5317L184.447 53.7987C184.509 53.5875 184.404 53.3623 184.201 53.2759C184 53.1886 183.764 53.2654 183.652 53.4557L166.935 81.9917C164.933 81.2917 162.9 80.6799 160.835 80.1806L151.598 64.1832L149.559 41.2253C174.28 42.1731 197.873 51.8995 216.104 68.6606ZM196.419 102.828C195.759 102.007 195.074 101.207 194.377 100.42C194.285 100.315 194.189 100.213 194.094 100.109C193.516 99.4641 192.926 98.8313 192.323 98.2116C192.125 98.0083 191.925 97.8075 191.725 97.6068C191.225 97.1049 190.717 96.6127 190.201 96.1283C189.932 95.8752 189.665 95.6229 189.393 95.3742C188.941 94.9648 188.481 94.566 188.02 94.1697C187.767 93.9515 187.523 93.7229 187.266 93.509L244.523 46.4166L196.419 102.828ZM204.848 116.468L234.312 109.106L207.54 123.313C206.779 121.001 205.875 118.702 204.848 116.468ZM167.815 82.3024C167.801 82.298 167.787 82.291 167.774 82.2867L182.621 56.9434L174.395 85.1232C174.277 85.0639 174.153 85.0141 174.033 84.9557C172.008 83.965 169.934 83.0783 167.815 82.3024ZM207.243 162.035C206.965 162.963 206.666 163.887 206.345 164.807C205.38 167.565 204.22 170.275 202.88 172.893C201.988 174.636 201.036 176.314 200.048 177.884H188.826C192.523 173.212 195.419 168.019 197.44 162.433C199.003 158.111 200.02 153.584 200.461 148.978C200.634 147.171 200.721 145.378 200.721 143.648C200.721 122.097 188.071 102.397 168.478 93.42L161.438 81.2262C163.3 81.701 165.124 82.2561 166.909 82.8819C166.935 82.8976 166.957 82.9203 166.985 82.9299C169.54 83.8367 172.059 84.9155 174.471 86.1366C174.529 86.1662 174.593 86.1784 174.655 86.1811C178.79 88.267 182.643 90.7746 186.174 93.6399C186.2 93.7185 186.239 93.7918 186.304 93.845C189.893 96.7898 193.175 100.136 196.062 103.789C196.12 103.862 196.202 103.904 196.29 103.928C199.235 107.695 201.75 111.798 203.797 116.153C203.794 116.223 203.804 116.293 203.835 116.358C205.014 118.868 206.035 121.465 206.869 124.076C206.882 124.116 206.909 124.149 206.932 124.183C208.275 128.45 209.184 132.898 209.617 137.475C209.617 137.478 209.615 137.48 209.615 137.483C209.816 139.584 209.918 141.658 209.918 143.648C209.918 144.347 209.902 145.043 209.88 145.739C209.866 146.138 209.845 146.541 209.824 146.943C209.811 147.209 209.798 147.476 209.781 147.741C209.747 148.26 209.707 148.78 209.661 149.301C209.649 149.43 209.638 149.558 209.626 149.686C209.571 150.269 209.51 150.853 209.439 151.436C209.003 155.025 208.275 158.57 207.243 162.035ZM203.28 173.987L204.634 176.331L202.717 175.03C202.907 174.684 203.095 174.338 203.28 173.987ZM114.137 188.027H176.863C167.66 194.549 156.849 197.998 145.5 197.998C134.15 197.998 123.34 194.549 114.137 188.027ZM91.3057 147.488C91.2132 146.19 91.1513 144.901 91.1513 143.648C91.1513 122.879 103.112 103.856 121.735 94.7833L91.3057 147.488ZM193.591 168.965L167.087 152.357C167.527 152.066 167.966 151.783 168.401 151.51L195.947 163.876C195.25 165.616 194.463 167.312 193.591 168.965ZM173.64 177.884L159.125 157.479C159.403 157.321 159.682 157.164 159.956 157.002L179.65 177.884H173.64ZM163.568 177.884L155.266 159.393C155.536 159.279 155.803 159.162 156.069 159.042L167.877 177.884H163.568ZM155.191 177.884L151.257 160.743C151.53 160.675 151.798 160.597 152.067 160.52L158.671 177.884H155.191ZM147.578 177.884L147.095 161.407C147.376 161.387 147.652 161.358 147.929 161.328L150.721 177.884H147.578ZM142.896 161.332C143.17 161.361 143.442 161.389 143.719 161.408L143.238 177.884H140.105L142.896 161.332ZM138.751 160.539C139.021 160.615 139.291 160.69 139.566 160.759L135.635 177.884H132.155L138.751 160.539ZM134.738 159.072C135.004 159.193 135.274 159.307 135.547 159.421L127.258 177.884H122.95L134.738 159.072ZM130.841 157.033C131.116 157.195 131.396 157.355 131.677 157.513L117.185 177.884H111.177L130.841 157.033ZM122.335 151.55C122.782 151.822 123.229 152.102 123.68 152.394L97.3647 168.884C96.4997 167.236 95.7194 165.543 95.0264 163.81L122.335 151.55ZM100.787 151.352L115.294 148.022C115.725 148.432 116.281 148.719 116.871 148.98C116.88 148.985 116.891 148.983 116.9 148.986C116.91 148.991 116.918 148.998 116.928 149C117.266 149.096 117.603 149.211 117.94 149.335L97.4528 157.127L100.787 151.352ZM106.056 142.227L119.152 141.843C118.523 142.227 117.886 142.506 117.31 142.754C116.492 143.105 115.708 143.456 115.17 144.04L103.912 145.939L106.056 142.227ZM110.151 135.132L122.805 137.266C122.546 137.612 122.302 137.945 122.072 138.262L108.572 137.868L110.151 135.132ZM113.662 129.051L125.748 133.648C125.561 133.856 125.379 134.063 125.2 134.269L112.352 131.32L113.662 129.051ZM116.935 123.382L128.665 130.733C128.522 130.859 128.382 130.986 128.243 131.113L115.718 125.49L116.935 123.382ZM120.235 117.666L131.624 128.407C131.517 128.48 131.41 128.553 131.304 128.628L118.971 119.855L120.235 117.666ZM123.841 111.421L134.646 126.611C134.568 126.65 134.492 126.692 134.415 126.732L122.373 113.964L123.841 111.421ZM128.144 103.969L137.726 125.314C137.671 125.332 137.616 125.35 137.562 125.369L126.23 107.283L128.144 103.969ZM133.86 94.0667L140.843 124.488C140.805 124.495 140.768 124.501 140.731 124.508L131.022 98.9823L133.86 94.0667ZM142.958 89.3694L143.975 124.103C143.948 124.105 143.921 124.107 143.893 124.109L138.11 89.818C139.729 89.5954 141.346 89.4462 142.958 89.3694ZM147.056 123.375L148.052 89.3633C149.616 89.4357 151.174 89.5736 152.722 89.7796L147.056 123.375ZM150.095 124.508C150.058 124.501 150.02 124.495 149.983 124.488L157.015 93.8512L159.872 98.7999L150.095 124.508ZM153.263 125.369C153.209 125.35 153.154 125.332 153.1 125.314L162.758 103.799L164.686 107.139L153.263 125.369ZM156.411 126.732C156.334 126.692 156.258 126.65 156.179 126.611L167.081 111.286L168.561 113.849L156.411 126.732ZM159.521 128.628C159.417 128.553 159.308 128.48 159.201 128.407L170.703 117.56L171.978 119.767L159.521 128.628ZM162.582 131.113C162.443 130.986 162.303 130.859 162.161 130.733L174.018 123.302L175.245 125.428L162.582 131.113ZM165.626 134.269C165.448 134.063 165.265 133.856 165.077 133.648L177.306 128.997L178.628 131.285L165.626 134.269ZM168.754 138.262C168.523 137.945 168.279 137.612 168.021 137.266L180.833 135.105L182.425 137.863L168.754 138.262ZM175.655 144.04C175.117 143.456 174.334 143.105 173.516 142.754C172.94 142.506 172.303 142.227 171.673 141.843L184.947 142.232L187.107 145.971L175.655 144.04ZM174.274 148.657C174.282 148.655 174.289 148.649 174.297 148.646C174.308 148.642 174.319 148.643 174.331 148.638C174.712 148.47 175.095 148.269 175.425 147.997L190.239 151.398L193.596 157.211L172.642 149.243C173.187 149.017 173.731 148.812 174.274 148.657ZM137.076 129.797C135.852 130.77 134.811 131.935 133.989 133.269C133.863 133.474 133.926 133.743 134.132 133.87C134.203 133.913 134.282 133.934 134.36 133.934C134.506 133.934 134.649 133.86 134.732 133.726C135.527 132.436 138.198 130.01 139.396 129.081C139.396 129.081 142.026 128.323 145.5 128.323C152.572 128.323 157.663 131.544 157.861 131.653C159.631 134.199 160.568 137.181 160.568 140.288C160.568 148.644 153.77 155.442 145.413 155.442C137.057 155.442 130.258 148.644 130.258 140.288C130.258 137.181 131.194 134.199 132.964 131.653C135.764 130.058 136.887 129.864 137.076 129.797ZM121.811 149.16C120.892 146.98 120.286 144.683 120.001 142.33C120.06 142.289 120.118 142.256 120.177 142.214C120.643 141.876 121.285 141.223 122.173 140.318C124.157 138.298 127.26 135.152 131.373 132.583C130.075 134.938 129.386 137.566 129.386 140.288C129.386 149.126 136.575 156.315 145.413 156.315C154.251 156.315 161.441 149.126 161.441 140.288C161.441 137.566 160.75 134.938 159.452 132.583C163.565 135.152 166.669 138.297 168.652 140.317C169.541 141.222 170.182 141.876 170.649 142.214C170.71 142.258 170.769 142.291 170.829 142.332C170.533 144.83 170.012 146.832 169.106 148.948C167.344 149.691 165.568 150.721 163.658 151.835C158.827 154.652 153.352 157.844 145.413 157.844C137.474 157.844 132.118 154.762 127.393 152.041C125.438 150.915 123.625 149.884 121.811 149.16ZM175.475 145.962C175.475 146.843 175.095 147.331 174.045 147.808C172.74 147.822 171.481 148.078 170.23 148.51C170.932 146.707 171.371 144.932 171.646 142.831C172.176 143.119 172.694 143.35 173.172 143.555C174.727 144.225 175.475 144.607 175.475 145.962ZM145.413 124.93C156.603 124.93 163.441 132.614 167.235 137.673C165.027 135.538 156.31 127.43 145.413 127.43C134.522 127.43 125.731 135.604 123.59 137.674C127.384 132.615 134.223 124.93 145.413 124.93ZM117.156 148.151C115.911 147.591 115.35 147.129 115.35 145.962C115.35 144.607 116.098 144.225 117.654 143.555C118.136 143.348 118.659 143.116 119.193 142.824C119.47 144.862 119.985 146.851 120.724 148.765C119.561 148.39 118.384 148.163 117.156 148.151ZM164.604 152.966C159.304 156.544 153.297 160.598 145.413 160.598C137.519 160.598 131.644 156.662 126.461 153.189C124.61 151.949 122.819 150.748 121.03 149.788C122.946 150.488 124.867 151.594 126.957 152.798C131.777 155.572 137.24 158.717 145.413 158.717C153.587 158.717 159.171 155.462 164.097 152.588C166.23 151.345 168.192 150.202 170.129 149.476C168.317 150.46 166.491 151.693 164.604 152.966ZM86.4775 176.136L87.7151 173.993C87.8827 174.31 88.0572 174.628 88.2327 174.946L86.4775 176.136ZM100.126 173.549L126.879 154.518C127.195 154.728 127.513 154.94 127.835 155.151L103.73 177.884H103.299C102.164 176.488 101.111 175.039 100.126 173.549ZM187.095 177.884L162.957 155.119C163.276 154.908 163.591 154.698 163.904 154.488L190.819 173.634C189.85 175.094 188.815 176.514 187.702 177.884H187.095ZM199.694 147.488L169.25 94.758C187.883 103.825 199.849 122.858 199.849 143.648C199.849 144.899 199.787 146.189 199.694 147.488ZM131.329 79.9109L140.236 64.4834H140.237L145.5 55.3663L199.577 149.031C199.573 149.072 199.568 149.112 199.564 149.152C199.467 150.113 199.345 151.07 199.197 152.022C199.189 152.079 199.182 152.136 199.173 152.193C199.025 153.131 198.847 154.064 198.65 154.992C198.625 155.112 198.601 155.234 198.575 155.354C198.379 156.248 198.158 157.135 197.917 158.016C197.877 158.162 197.838 158.308 197.798 158.453C197.551 159.324 197.283 160.187 196.995 161.043C196.973 161.108 196.95 161.172 196.928 161.237L150.601 80.9967L149.257 78.6689V78.6681L145.878 72.8151C145.8 72.6798 145.656 72.5969 145.5 72.5969C145.344 72.5969 145.2 72.6798 145.122 72.8151L141.864 78.4586C140.968 78.5083 140.07 78.5773 139.175 78.6646C139.025 78.6794 138.875 78.7012 138.725 78.7169C137.938 78.799 137.153 78.8906 136.368 79.0015C136.036 79.0486 135.707 79.1071 135.376 79.1594C134.775 79.2537 134.175 79.3488 133.578 79.4597C133.202 79.5295 132.83 79.6089 132.456 79.6849C132.081 79.7617 131.703 79.828 131.329 79.9109ZM117.099 84.8823L109.186 56.6021L123.759 82.0973C123.62 82.1461 123.483 82.2003 123.344 82.25C122.964 82.3888 122.584 82.5267 122.206 82.6715C121.578 82.9124 120.954 83.1621 120.333 83.423C120.087 83.526 119.843 83.6351 119.599 83.7416C119.071 83.9703 118.546 84.2068 118.024 84.4494C117.828 84.5411 117.63 84.6318 117.434 84.7261C117.323 84.7793 117.21 84.8291 117.099 84.8823ZM83.64 122.793L57.0225 108.297L86.3867 115.97C85.3455 118.186 84.4229 120.477 83.64 122.793ZM81.5576 151.395C81.4825 150.777 81.417 150.159 81.3594 149.541C81.3542 149.479 81.349 149.417 81.3437 149.355C81.2914 148.774 81.2468 148.194 81.2102 147.614C81.198 147.427 81.191 147.238 81.1814 147.05C81.1561 146.588 81.1316 146.126 81.1168 145.667C81.0958 144.995 81.0819 144.322 81.0819 143.648C81.0819 141.651 81.1849 139.568 81.3874 137.456C81.3874 137.452 81.3856 137.449 81.3856 137.445C81.8368 132.7 82.803 128.094 84.23 123.684C84.2588 123.647 84.2876 123.608 84.3033 123.562C85.1639 120.946 86.206 118.358 87.4009 115.87C87.4332 115.804 87.4419 115.73 87.4384 115.659C89.4476 111.476 91.8923 107.534 94.7358 103.902C94.8222 103.877 94.9034 103.835 94.9601 103.763C97.8438 100.117 101.128 96.775 104.721 93.8293C104.786 93.7761 104.824 93.7028 104.851 93.6251C108.52 90.6506 112.538 88.0645 116.855 85.9332C116.909 85.9288 116.964 85.921 117.014 85.8965C119.451 84.6903 121.983 83.6308 124.54 82.7484C124.556 82.7431 124.566 82.73 124.58 82.7239C126.527 82.0589 128.515 81.4715 130.552 80.9862C134.349 80.0794 138.25 79.5182 142.146 79.3183C143.265 79.2607 144.393 79.231 145.5 79.231C146.491 79.231 147.513 79.2572 148.62 79.3104L149.29 80.4712L154.287 89.1276C148.212 88.1536 142.01 88.1894 135.787 89.2952C131.246 90.1016 126.821 91.478 122.635 93.3851C102.979 102.342 90.2785 122.071 90.2785 143.648C90.2785 145.335 90.3614 147.081 90.5263 148.839L83.4759 161.05C82.5866 157.884 81.9521 154.658 81.5576 151.395ZM75.3861 175.062L57.4327 181.296L79.0649 168.69L75.3861 175.062ZM69.4127 187.154L83.7195 162.374C83.7195 162.373 83.7195 162.373 83.7195 162.373L86.6573 157.285L123.123 94.1243C123.16 94.1078 123.198 94.092 123.235 94.0755C124.112 93.681 125 93.31 125.896 92.9635C125.948 92.9435 125.997 92.9216 126.049 92.9024C126.934 92.5629 127.829 92.2522 128.732 91.9598C128.848 91.9223 128.964 91.8821 129.081 91.8455C129.952 91.5697 130.833 91.3183 131.718 91.087C131.863 91.0486 132.008 91.0102 132.154 90.9736C133.032 90.7519 133.916 90.552 134.806 90.3748C134.873 90.3608 134.94 90.3486 135.006 90.3355L84.3339 178.103C84.2562 178.238 84.2562 178.404 84.3339 178.539C84.4124 178.674 84.5565 178.757 84.7127 178.757H90.4818C90.9645 179.51 91.462 180.252 91.9743 180.985C92.0511 181.095 92.134 181.201 92.2117 181.311C92.6751 181.966 93.1482 182.614 93.6352 183.251C93.8281 183.504 94.0297 183.749 94.2261 183.998C94.6084 184.484 94.9915 184.967 95.3869 185.44C95.6217 185.722 95.8635 185.997 96.1035 186.275C96.3557 186.567 96.6018 186.866 96.8593 187.154H69.4127ZM122.667 204.798L109.272 231.719L118.662 203.148C119.947 203.73 121.29 204.282 122.667 204.798ZM171.829 203.386L180.939 232.051L167.802 204.992C169.258 204.463 170.584 203.935 171.829 203.386ZM190.39 189.778C190.053 190.104 189.716 190.432 189.371 190.752C189.036 191.064 188.693 191.366 188.352 191.669C187.268 192.634 186.156 193.576 184.999 194.477C184.997 194.479 184.996 194.481 184.994 194.483C175.565 201.802 164.242 206.398 152.369 207.687C152.131 207.712 151.894 207.736 151.657 207.758C150.774 207.845 149.889 207.916 149.002 207.964C148.791 207.977 148.582 207.983 148.371 207.992C147.484 208.032 146.594 208.059 145.702 208.061C145.578 208.061 145.454 208.062 145.331 208.062C144.407 208.06 143.487 208.032 142.568 207.989C142.359 207.979 142.15 207.973 141.941 207.962C141.039 207.911 140.14 207.837 139.244 207.748C139.003 207.724 138.763 207.702 138.521 207.675C126.618 206.363 115.275 201.723 105.842 194.353C105.427 194.027 105.023 193.691 104.616 193.356C104.259 193.063 103.901 192.769 103.549 192.467C103.146 192.121 102.749 191.769 102.354 191.414C101.958 191.056 101.566 190.692 101.177 190.324C100.861 190.024 100.543 189.727 100.234 189.422C99.5318 188.728 98.8388 188.024 98.1659 187.295C95.5527 184.463 93.1718 181.365 91.0893 178.087C90.0411 176.437 89.0784 174.764 88.2239 173.112L93.8848 163.307C95.9944 168.845 98.9732 173.985 102.749 178.598C105.617 182.102 108.903 185.245 112.517 187.941C122.103 195.091 133.509 198.871 145.5 198.871C157.443 198.871 168.804 195.121 178.367 188.027H192.126C191.972 188.189 191.817 188.35 191.66 188.511C191.243 188.94 190.819 189.362 190.39 189.778ZM221.587 187.154H112.929C112.095 186.529 111.276 185.88 110.478 185.206C110.285 185.042 110.102 184.866 109.911 184.7C109.296 184.166 108.685 183.627 108.094 183.065C107.809 182.795 107.538 182.509 107.259 182.232C106.778 181.755 106.298 181.28 105.835 180.786C105.537 180.466 105.251 180.135 104.961 179.81C104.651 179.462 104.345 179.112 104.044 178.757H206.287C206.443 178.757 206.587 178.674 206.666 178.539C206.744 178.404 206.744 178.238 206.666 178.103L203.765 173.079C204.172 172.275 204.563 171.462 204.936 170.644C205.008 170.488 205.07 170.328 205.14 170.172C205.456 169.466 205.763 168.757 206.053 168.042C206.178 167.732 206.292 167.421 206.412 167.11C206.632 166.54 206.851 165.971 207.055 165.397C207.179 165.047 207.293 164.696 207.411 164.345C207.534 163.978 207.667 163.613 207.784 163.245L221.587 187.154ZM212.552 169.758L233.239 182.1L216.136 175.966L212.552 169.758ZM249.756 140.978L210.437 137.042C209.987 132.666 209.098 128.353 207.787 124.171L237.878 108.202C238.072 108.098 238.16 107.866 238.081 107.66C238.002 107.454 237.78 107.338 237.568 107.393L204.448 115.668C202.412 111.379 199.909 107.303 196.965 103.533L221.843 74.3582C238.799 92.5472 248.696 116.168 249.756 140.978ZM290.579 145.066L250.634 141.067C250.573 139.628 250.488 138.193 250.369 136.764L290.601 133.244C290.841 133.223 291.019 133.012 290.998 132.772C290.977 132.532 290.762 132.356 290.525 132.374L250.288 135.894C250.037 133.129 249.678 130.38 249.21 127.656L275.307 123.037C275.545 122.995 275.704 122.769 275.661 122.531C275.619 122.294 275.391 122.131 275.156 122.178L249.057 126.797C248.565 124.065 247.966 121.36 247.261 118.685L286.269 108.234C286.501 108.171 286.639 107.932 286.577 107.699C286.515 107.466 286.276 107.328 286.043 107.391L247.037 117.842C246.308 115.166 245.472 112.524 244.536 109.918L269.435 100.827C269.662 100.745 269.779 100.494 269.696 100.268C269.613 100.041 269.362 99.9258 269.137 100.008L244.241 109.096C243.283 106.497 242.217 103.939 241.057 101.423L277.659 84.3552C277.877 84.2539 277.971 83.9938 277.87 83.7756C277.768 83.5574 277.508 83.4623 277.29 83.5644L240.693 100.63C239.512 98.1261 238.226 95.6701 236.849 93.2629L259.796 79.9755C260.005 79.8542 260.076 79.5871 259.955 79.3794C259.835 79.1708 259.567 79.0992 259.359 79.2197L236.416 92.5053C235.023 90.1165 233.53 87.7818 231.947 85.502L265.033 62.3355C265.231 62.1967 265.278 61.9253 265.14 61.7272C265.002 61.529 264.729 61.4819 264.533 61.6198L231.448 84.7863C229.852 82.5293 228.165 80.3325 226.387 78.1968L246.683 61.1136C246.867 60.9582 246.89 60.6833 246.735 60.4992C246.58 60.3141 246.305 60.2897 246.12 60.4459L225.826 77.5291C224.721 76.2251 223.585 74.9439 222.414 73.6897L248.389 43.2283C248.535 43.0564 248.526 42.8007 248.368 42.6392C248.21 42.4777 247.952 42.4646 247.78 42.6087L216.786 68.0994C215.7 67.0992 214.597 66.1208 213.474 65.1703L239.435 34.2316C239.59 34.0465 239.566 33.7716 239.382 33.6163C239.197 33.4618 238.922 33.4862 238.767 33.6704L212.803 64.6135C210.668 62.8365 208.472 61.145 206.215 59.5504L221.404 37.8284C221.542 37.6303 221.494 37.3588 221.297 37.22C221.099 37.0821 220.827 37.1301 220.689 37.3274L205.498 59.0529C203.218 57.4697 200.882 55.979 198.493 54.586L218.687 19.6106C218.807 19.4011 218.736 19.1349 218.527 19.0136C218.318 18.8931 218.051 18.9647 217.931 19.1742L197.736 54.1505C195.33 52.7732 192.871 51.4928 190.367 50.3128L201.547 26.2761C201.649 26.057 201.555 25.7978 201.336 25.6966C201.117 25.5953 200.858 25.6887 200.756 25.9078L189.578 49.9427C187.061 48.7819 184.501 47.7223 181.901 46.764L195.714 8.81325C195.797 8.5872 195.68 8.33672 195.453 8.25467C195.228 8.1735 194.977 8.28871 194.895 8.51564L181.083 46.462C178.477 45.5264 175.832 44.6964 173.157 43.9676L179.986 18.3476C180.049 18.1146 179.911 17.8755 179.678 17.8135C179.446 17.7524 179.206 17.8894 179.143 18.1225L172.316 43.7363C169.64 43.0311 166.933 42.4376 164.202 41.9453L171.216 2.17042C171.259 1.93302 171.1 1.70697 170.862 1.66507C170.625 1.61969 170.399 1.78118 170.357 2.01858L163.344 41.7891C160.62 41.3213 157.872 40.9652 155.105 40.7129L157.376 14.2831C157.397 14.043 157.219 13.8318 156.979 13.8109C156.734 13.7794 156.528 13.968 156.507 14.208L154.237 40.6344C152.657 40.5035 151.071 40.4075 149.481 40.349L145.935 0.425732C145.915 0.200552 145.726 0.027734 145.5 0.027734C145.274 0.027734 145.085 0.200532 145.065 0.426585L141.536 40.3481C139.939 40.4075 138.349 40.5035 136.763 40.6344L133.244 0.398671C133.223 0.158653 133.009 -0.0185069 132.771 0.00156728C132.531 0.0225143 132.354 0.234596 132.374 0.474614L135.894 40.7129C133.128 40.9652 130.38 41.3222 127.656 41.79L123.037 15.6926C122.994 15.4543 122.769 15.2946 122.532 15.3391C122.294 15.3801 122.135 15.6071 122.177 15.8445L126.798 41.9453C124.067 42.4376 121.359 43.032 118.684 43.7363L108.234 4.73122C108.172 4.49819 107.932 4.35939 107.698 4.4231C107.466 4.48507 107.328 4.7251 107.39 4.95726L117.843 43.9676C115.167 44.6964 112.522 45.5255 109.917 46.462L100.827 21.5639C100.744 21.3378 100.494 21.2226 100.268 21.3038C100.042 21.3867 99.9246 21.6372 100.007 21.8632L109.098 46.764C106.499 47.7232 103.938 48.781 101.422 49.9418L84.3548 13.3413C84.2527 13.1231 83.9944 13.0289 83.7753 13.1301C83.5571 13.2322 83.462 13.4923 83.5641 13.7105L100.632 50.3128C98.1283 51.4937 95.6697 52.7732 93.2625 54.1496L79.9752 31.2039C79.8547 30.9953 79.5877 30.9246 79.3791 31.045C79.1696 31.1655 79.0989 31.4325 79.2202 31.6411L92.5067 54.586C90.1179 55.979 87.7814 57.4697 85.5017 59.0529L62.3352 25.9671C62.1973 25.769 61.9241 25.7219 61.7278 25.8598C61.5296 25.9977 61.4816 26.27 61.6204 26.4672L84.7851 59.5504C82.5281 61.145 80.3322 62.8365 78.1973 64.6135L61.1133 44.3176C60.9588 44.1334 60.683 44.1081 60.4989 44.2652C60.3138 44.4197 60.2903 44.6955 60.4456 44.8796L77.5253 65.1695C76.4063 66.1173 75.3075 67.0922 74.2252 68.0889L43.2229 42.6069C43.0474 42.4629 42.7926 42.476 42.6346 42.6383C42.4757 42.7989 42.467 43.0546 42.6136 43.2275L68.5984 73.6757C67.4227 74.9343 66.282 76.2199 65.1735 77.5291L34.2314 51.5644C34.0463 51.4108 33.7714 51.4335 33.6169 51.6185C33.4616 51.8027 33.486 52.0784 33.6702 52.2329L64.6123 78.1976C62.8353 80.3325 61.1473 82.5302 59.5519 84.7863L37.8281 69.5963C37.6309 69.4584 37.3577 69.5055 37.2207 69.7036C37.0819 69.9009 37.1299 70.1732 37.328 70.3111L59.0527 85.502C57.4694 87.7818 55.9769 90.1165 54.584 92.5062L19.6104 72.3133C19.4009 72.1919 19.1347 72.2635 19.0143 72.473C18.8929 72.6816 18.9645 72.9487 19.174 73.0691L54.1502 93.2638C52.7729 95.6709 51.4882 98.1261 50.3073 100.63L26.2759 89.4532C26.0551 89.351 25.7976 89.4462 25.6963 89.6644C25.5942 89.8826 25.6894 90.1427 25.9076 90.2439L49.9433 101.423C48.7825 103.939 47.7169 106.497 46.7577 109.097L8.81379 95.286C8.58808 95.2048 8.3368 95.3201 8.25468 95.5461C8.17185 95.773 8.28836 96.0235 8.51511 96.1056L46.4635 109.918C45.527 112.524 44.6909 115.166 43.963 117.842L18.3474 111.014C18.117 110.953 17.8753 111.09 17.8133 111.323C17.7513 111.556 17.8901 111.795 18.1223 111.856L43.7387 118.685C43.0343 121.36 42.4347 124.065 41.9416 126.797L2.17071 119.784C1.9341 119.742 1.7063 119.901 1.66511 120.138C1.62278 120.375 1.78136 120.601 2.01867 120.643L41.7897 127.656C41.3219 130.38 40.9632 133.129 40.711 135.894L14.283 133.623C14.0373 133.599 13.8313 133.781 13.8109 134.021C13.7901 134.261 13.968 134.473 14.2081 134.494L40.6307 136.764C40.5128 138.189 40.4264 139.62 40.3671 141.053L0.421727 145.066C0.196024 145.088 0.0255704 145.28 0.0286252 145.506C0.03168 145.733 0.206933 145.918 0.432637 145.935L40.3278 148.906C40.3845 150.689 40.4893 152.466 40.6359 154.236L0.398512 157.756C0.158145 157.777 -0.0191183 157.989 0.00165415 158.229C0.0218156 158.456 0.212345 158.627 0.436041 158.627C0.448609 158.627 0.461615 158.627 0.474183 158.625L40.711 155.106C40.9632 157.872 41.3245 160.62 41.7915 163.344L15.6924 167.963C15.455 168.005 15.2962 168.232 15.3389 168.469C15.3765 168.681 15.5598 168.829 15.7675 168.829C15.7928 168.829 15.819 168.827 15.8443 168.823L41.9442 164.203C42.4365 166.934 43.0335 169.641 43.7378 172.315L4.73148 182.767C4.49862 182.829 4.36054 183.069 4.42286 183.301C4.47471 183.497 4.65136 183.625 4.84398 183.625C4.88143 183.625 4.9193 183.62 4.95709 183.61L43.9673 173.157C44.6952 175.833 45.5244 178.478 46.46 181.083L21.5646 190.173C21.3376 190.255 21.2207 190.506 21.3036 190.733C21.3682 190.91 21.5357 191.019 21.7138 191.019C21.7635 191.019 21.8142 191.01 21.8631 190.993L46.7638 181.902C47.7221 184.501 48.7773 187.064 49.9381 189.58L13.3414 206.645C13.1232 206.747 13.0284 207.007 13.1303 207.225C13.2044 207.384 13.3615 207.477 13.5262 207.477C13.5879 207.477 13.6506 207.463 13.7103 207.436L50.3125 190.369C51.4925 192.872 52.7703 195.332 54.1476 197.739L31.2036 211.025C30.995 211.146 30.9235 211.413 31.0448 211.621C31.126 211.761 31.2726 211.84 31.4227 211.84C31.4969 211.84 31.572 211.82 31.6409 211.78L54.5857 198.494C55.9787 200.883 57.4677 203.22 59.0518 205.5L25.9669 228.665C25.7688 228.804 25.7217 229.075 25.8596 229.273C25.9442 229.394 26.0795 229.46 26.2174 229.46C26.3038 229.46 26.3911 229.433 26.467 229.38L59.551 206.215C61.1456 208.471 62.8353 210.668 64.6132 212.803L44.3173 229.887C44.1332 230.043 44.1087 230.317 44.265 230.502C44.3505 230.605 44.4744 230.657 44.5992 230.657C44.6979 230.657 44.7974 230.624 44.8794 230.555L65.17 213.474C66.1022 214.576 67.0605 215.657 68.0406 216.723L42.6058 247.779C42.4626 247.953 42.4766 248.208 42.6372 248.366C42.7227 248.449 42.8327 248.492 42.9436 248.492C43.0439 248.492 43.1443 248.457 43.2263 248.388L73.7592 222.479C74.9916 223.628 76.2492 224.743 77.5287 225.827L51.565 256.769C51.4096 256.954 51.4341 257.229 51.6182 257.384C51.7003 257.453 51.7998 257.486 51.8984 257.486C52.0232 257.486 52.1463 257.433 52.2327 257.33L78.1973 226.387C80.3322 228.165 82.529 229.855 84.7851 231.449L69.596 253.172C69.4572 253.371 69.5061 253.642 69.7033 253.78C69.7792 253.833 69.8665 253.859 69.9529 253.859C70.0908 253.859 70.2261 253.794 70.3108 253.673L85.5017 231.948C87.7814 233.531 90.1153 235.025 92.5041 236.419L72.313 271.39C72.1925 271.599 72.2641 271.866 72.4727 271.986C72.5416 272.026 72.6167 272.045 72.6909 272.045C72.841 272.045 72.9876 271.967 73.0688 271.827L93.2625 236.85C95.6697 238.228 98.1257 239.512 100.63 240.693L89.4528 264.725C89.3507 264.943 89.445 265.203 89.664 265.304C89.7234 265.332 89.7862 265.345 89.8473 265.345C90.0123 265.345 90.1694 265.252 90.2436 265.093L101.422 241.059C103.938 242.22 106.498 243.283 109.097 244.241L95.2857 282.186C95.2028 282.414 95.3197 282.664 95.5466 282.746C95.5955 282.764 95.6461 282.772 95.6959 282.772C95.8739 282.772 96.0415 282.662 96.1052 282.485L109.917 244.539C112.522 245.475 115.166 246.308 117.842 247.037L111.013 272.653C110.951 272.886 111.089 273.125 111.322 273.187C111.36 273.197 111.397 273.202 111.435 273.202C111.628 273.202 111.804 273.073 111.856 272.878L118.684 247.264C121.359 247.969 124.066 248.565 126.797 249.057L119.784 288.83C119.741 289.068 119.9 289.294 120.137 289.335C120.163 289.34 120.188 289.342 120.213 289.342C120.422 289.342 120.605 289.193 120.643 288.981L127.656 249.214C130.379 249.682 133.128 250.036 135.895 250.289L133.624 276.718C133.603 276.958 133.781 277.169 134.021 277.19C134.033 277.191 134.046 277.192 134.059 277.192C134.283 277.192 134.473 277.02 134.493 276.793L136.763 250.367C138.321 250.496 139.885 250.59 141.454 250.649L145.065 290.575C145.086 290.8 145.275 290.972 145.5 290.972C145.726 290.972 145.914 290.8 145.935 290.575L149.531 250.65C151.104 250.591 152.673 250.496 154.237 250.367L157.756 290.602C157.776 290.829 157.967 291 158.19 291C158.203 291 158.216 291 158.229 290.998C158.469 290.978 158.647 290.766 158.626 290.526L155.106 250.289C157.872 250.036 160.621 249.681 163.344 249.214L167.963 275.308C168 275.52 168.185 275.669 168.392 275.669C168.418 275.669 168.443 275.667 168.468 275.662C168.706 275.62 168.865 275.394 168.823 275.156L164.203 249.057C166.934 248.565 169.641 247.969 172.316 247.264L182.766 286.269C182.819 286.464 182.995 286.592 183.188 286.592C183.225 286.592 183.263 286.588 183.3 286.578C183.534 286.516 183.671 286.276 183.609 286.044L173.158 247.036C175.834 246.308 178.477 245.475 181.083 244.539L190.173 269.436C190.237 269.613 190.404 269.723 190.582 269.723C190.632 269.723 190.683 269.714 190.732 269.697C190.958 269.614 191.075 269.364 190.992 269.138L181.903 244.241C184.502 243.282 187.062 242.22 189.578 241.059L206.645 277.66C206.719 277.817 206.876 277.911 207.04 277.911C207.102 277.911 207.165 277.898 207.225 277.87C207.443 277.769 207.538 277.508 207.436 277.29L190.37 240.693C192.874 239.512 195.33 238.228 197.737 236.851L211.025 259.797C211.106 259.937 211.252 260.014 211.403 260.014C211.477 260.014 211.553 259.996 211.621 259.956C211.83 259.835 211.901 259.568 211.78 259.36L198.496 236.419C200.885 235.026 203.218 233.531 205.498 231.948L228.665 265.034C228.749 265.155 228.885 265.22 229.022 265.22C229.109 265.22 229.197 265.194 229.272 265.141C229.47 265.002 229.518 264.731 229.379 264.534L206.215 231.449C208.471 229.855 210.668 228.165 212.803 226.387L229.887 246.683C229.973 246.785 230.096 246.839 230.221 246.839C230.319 246.839 230.419 246.805 230.501 246.736C230.686 246.58 230.71 246.305 230.554 246.121L213.471 225.827C214.746 224.747 216 223.636 217.228 222.492L247.772 248.389C247.853 248.459 247.954 248.493 248.054 248.493C248.165 248.493 248.275 248.451 248.36 248.368C248.521 248.21 248.535 247.955 248.391 247.78L222.949 216.734C223.932 215.665 224.895 214.579 225.831 213.474L256.768 239.436C256.851 239.504 256.95 239.539 257.049 239.539C257.173 239.539 257.297 239.485 257.383 239.382C257.538 239.197 257.514 238.922 257.33 238.768L226.387 212.803C228.165 210.668 229.854 208.471 231.449 206.215L253.172 221.405C253.249 221.458 253.335 221.483 253.421 221.483C253.559 221.483 253.695 221.418 253.779 221.297C253.918 221.1 253.87 220.828 253.673 220.69L231.949 205.5C233.532 203.22 235.021 200.883 236.414 198.494L271.389 218.688C271.458 218.727 271.533 218.746 271.608 218.746C271.759 218.746 271.905 218.667 271.986 218.528C272.107 218.318 272.035 218.052 271.826 217.932L236.853 197.739C238.23 195.332 239.507 192.872 240.688 190.368L264.724 201.548C264.783 201.576 264.846 201.589 264.907 201.589C265.072 201.589 265.23 201.495 265.303 201.336C265.406 201.117 265.31 200.858 265.092 200.757L241.062 189.58C242.223 187.064 243.278 184.501 244.237 181.902L282.186 195.715C282.236 195.733 282.286 195.741 282.335 195.741C282.513 195.741 282.681 195.631 282.745 195.454C282.828 195.228 282.711 194.977 282.484 194.895L244.54 181.083C245.475 178.478 246.305 175.833 247.033 173.157L272.652 179.987C272.69 179.997 272.727 180.002 272.765 180.002C272.958 180.002 273.134 179.874 273.187 179.678C273.249 179.445 273.111 179.206 272.878 179.144L247.261 172.315C247.966 169.641 248.563 166.934 249.056 164.203L288.83 171.216C288.855 171.222 288.88 171.223 288.905 171.223C289.113 171.223 289.297 171.075 289.335 170.863C289.377 170.625 289.218 170.399 288.981 170.358L249.207 163.344C249.675 160.62 250.038 157.872 250.29 155.105L276.717 157.376C276.729 157.378 276.742 157.378 276.755 157.378C276.979 157.378 277.169 157.206 277.189 156.979C277.21 156.739 277.032 156.528 276.792 156.507L250.363 154.236C250.51 152.472 250.614 150.701 250.671 148.924L290.567 145.935C290.793 145.918 290.968 145.733 290.971 145.506C290.974 145.28 290.803 145.088 290.579 145.066Z" fill="#3F4A4E" stroke="#2C3639" stroke-width="0.266667" mask="url(#path-1-inside-1_3050_61824)"/>
</svg>
