<svg width="215" height="215" viewBox="0 0 215 215" fill="none" xmlns="http://www.w3.org/2000/svg">
<path d="M107.036 0.571289C47.8929 0.571289 0 48.5713 0 107.714C0 166.857 47.8929 214.857 107.036 214.857C166.286 214.857 214.286 166.857 214.286 107.714C214.286 48.5713 166.286 0.571289 107.036 0.571289ZM181.286 64.857H149.679C146.325 51.5869 141.36 38.7773 134.893 26.7141C154.437 33.4427 170.905 46.9826 181.286 64.857ZM107.143 22.4284C116.036 35.2856 123 49.5356 127.607 64.857H86.6786C91.2857 49.5356 98.25 35.2856 107.143 22.4284ZM24.2143 129.143C22.5 122.286 21.4286 115.107 21.4286 107.714C21.4286 100.321 22.5 93.1427 24.2143 86.2856H60.4286C59.5714 93.357 58.9286 100.428 58.9286 107.714C58.9286 115 59.5714 122.071 60.4286 129.143H24.2143ZM33 150.571H64.6071C68.0357 163.964 72.9643 176.821 79.3929 188.714C59.8282 182.022 43.3482 168.473 33 150.571ZM64.6071 64.857H33C43.3482 46.9553 59.8282 33.4059 79.3929 26.7141C72.926 38.7773 67.9605 51.5869 64.6071 64.857ZM107.143 193C98.25 180.143 91.2857 165.893 86.6786 150.571H127.607C123 165.893 116.036 180.143 107.143 193ZM132.214 129.143H82.0714C81.1071 122.071 80.3571 115 80.3571 107.714C80.3571 100.428 81.1071 93.2499 82.0714 86.2856H132.214C133.179 93.2499 133.929 100.428 133.929 107.714C133.929 115 133.179 122.071 132.214 129.143ZM134.893 188.714C141.321 176.821 146.25 163.964 149.679 150.571H181.286C170.905 168.446 154.437 181.986 134.893 188.714ZM153.857 129.143C154.714 122.071 155.357 115 155.357 107.714C155.357 100.428 154.714 93.357 153.857 86.2856H190.071C191.786 93.1427 192.857 100.321 192.857 107.714C192.857 115.107 191.786 122.286 190.071 129.143H153.857Z" fill="#758D94"/>
</svg>
