<svg width="302" height="520" viewBox="0 0 302 520" fill="none" xmlns="http://www.w3.org/2000/svg">
<rect x="1.19922" y="1.64673" width="299.801" height="516.95" rx="1" fill="#3F4A4E" stroke="#F6F3EB" stroke-width="2"/>
<g opacity="0.8">
<path d="M47.5496 287.795C47.7098 287.795 47.8689 287.734 47.9904 287.612C48.2354 287.369 48.2354 286.974 47.9904 286.73L46.2022 284.941C45.9593 284.698 45.5636 284.698 45.3197 284.941C45.0757 285.185 45.0757 285.58 45.3197 285.824L47.1078 287.612C47.2303 287.734 47.3894 287.795 47.5496 287.795Z" fill="#F6F3EB"/>
<path d="M43.7879 284.032C43.947 284.032 44.1062 283.972 44.2287 283.849C44.4726 283.605 44.4726 283.21 44.2287 282.968L42.4405 281.179C42.1965 280.935 41.8019 280.935 41.558 281.179C41.314 281.422 41.314 281.818 41.558 282.061L43.3461 283.849C43.4686 283.972 43.6277 284.032 43.7879 284.032Z" fill="#F6F3EB"/>
<path d="M45.7923 284.063C45.9514 284.063 46.1106 284.003 46.2331 283.882L47.9897 282.123C48.2347 281.88 48.2347 281.485 47.9897 281.24C47.7469 280.998 47.3511 280.998 47.1072 281.24L45.3504 282.998C45.1065 283.242 45.1065 283.637 45.3504 283.882C45.4719 284.003 45.6311 284.063 45.7923 284.063Z" fill="#F6F3EB"/>
<path d="M41.9997 287.856C42.1589 287.856 42.318 287.795 42.4405 287.673L44.26 285.854C44.5029 285.61 44.5029 285.215 44.26 284.972C44.0151 284.727 43.6204 284.727 43.3775 284.972L41.558 286.791C41.314 287.035 41.314 287.429 41.558 287.673C41.6794 287.795 41.8385 287.856 41.9997 287.856Z" fill="#F6F3EB"/>
<path d="M38.3837 285.05H42.8321C43.1766 285.05 43.4561 284.769 43.4561 284.425C43.4561 284.08 43.1766 283.801 42.8321 283.801H38.3837C38.0392 283.801 37.7607 284.08 37.7607 284.425C37.7607 284.769 38.0392 285.05 38.3837 285.05Z" fill="#F6F3EB"/>
<path d="M46.7158 285.05H51.1025C51.4469 285.05 51.7264 284.769 51.7264 284.425C51.7264 284.08 51.4469 283.801 51.1025 283.801H46.7158C46.3713 283.801 46.0918 284.08 46.0918 284.425C46.0918 284.769 46.3713 285.05 46.7158 285.05Z" fill="#F6F3EB"/>
<path d="M44.7441 291.411C45.0885 291.411 45.367 291.132 45.367 290.787V286.337C45.367 285.992 45.0885 285.714 44.7441 285.714C44.3996 285.714 44.1201 285.992 44.1201 286.337V290.787C44.1201 291.132 44.3996 291.411 44.7441 291.411Z" fill="#F6F3EB"/>
<path d="M44.7441 283.077C45.0885 283.077 45.367 282.798 45.367 282.453V278.067C45.367 277.723 45.0885 277.442 44.7441 277.442C44.3996 277.442 44.1201 277.723 44.1201 278.067V282.453C44.1201 282.798 44.3996 283.077 44.7441 283.077Z" fill="#F6F3EB"/>
<path d="M42.3584 283.954L44.332 281.98C44.5665 281.747 44.981 281.747 45.2155 281.98L47.1891 283.954C47.433 284.198 47.433 284.593 47.1891 284.836L45.2155 286.811C45.0941 286.932 44.9329 286.993 44.7737 286.993C44.6146 286.993 44.4545 286.932 44.332 286.811L42.3584 284.836C42.1155 284.593 42.1155 284.198 42.3584 283.954Z" fill="#F6F3EB"/>
</g>
<g opacity="0.8">
<path d="M79.9173 263.114C80.0775 263.114 80.2366 263.052 80.358 262.931C80.603 262.688 80.603 262.292 80.358 262.048L78.5699 260.26C78.327 260.016 77.9313 260.016 77.6873 260.26C77.4434 260.504 77.4434 260.899 77.6873 261.143L79.4755 262.931C79.598 263.052 79.7571 263.114 79.9173 263.114Z" fill="#F6F3EB"/>
<path d="M76.1556 259.352C76.3147 259.352 76.4738 259.291 76.5963 259.168C76.8403 258.924 76.8403 258.53 76.5963 258.287L74.8082 256.499C74.5642 256.255 74.1696 256.255 73.9256 256.499C73.6817 256.742 73.6817 257.137 73.9256 257.38L75.7138 259.168C75.8363 259.291 75.9954 259.352 76.1556 259.352Z" fill="#F6F3EB"/>
<path d="M78.1605 259.382C78.3196 259.382 78.4787 259.322 78.6012 259.201L80.3579 257.442C80.6029 257.199 80.6029 256.804 80.3579 256.559C80.115 256.316 79.7193 256.316 79.4754 256.559L77.7186 258.317C77.4747 258.561 77.4747 258.956 77.7186 259.201C77.84 259.322 77.9992 259.382 78.1605 259.382Z" fill="#F6F3EB"/>
<path d="M74.3674 263.176C74.5265 263.176 74.6857 263.115 74.8082 262.993L76.6277 261.173C76.8706 260.93 76.8706 260.535 76.6277 260.292C76.3827 260.047 75.9881 260.047 75.7452 260.292L73.9256 262.11C73.6817 262.354 73.6817 262.749 73.9256 262.993C74.0471 263.115 74.2062 263.176 74.3674 263.176Z" fill="#F6F3EB"/>
<path d="M70.7514 260.37H75.1998C75.5442 260.37 75.8238 260.089 75.8238 259.745C75.8238 259.4 75.5442 259.121 75.1998 259.121H70.7514C70.4069 259.121 70.1284 259.4 70.1284 259.745C70.1284 260.089 70.4069 260.37 70.7514 260.37Z" fill="#F6F3EB"/>
<path d="M79.0834 260.37H83.4701C83.8146 260.37 84.0941 260.089 84.0941 259.745C84.0941 259.4 83.8146 259.121 83.4701 259.121H79.0834C78.739 259.121 78.4595 259.4 78.4595 259.745C78.4595 260.089 78.739 260.37 79.0834 260.37Z" fill="#F6F3EB"/>
<path d="M77.1118 266.73C77.4562 266.73 77.7347 266.451 77.7347 266.107V261.656C77.7347 261.312 77.4562 261.033 77.1118 261.033C76.7673 261.033 76.4878 261.312 76.4878 261.656V266.107C76.4878 266.451 76.7673 266.73 77.1118 266.73Z" fill="#F6F3EB"/>
<path d="M77.1118 258.396C77.4562 258.396 77.7347 258.118 77.7347 257.773V253.387C77.7347 253.042 77.4562 252.762 77.1118 252.762C76.7673 252.762 76.4878 253.042 76.4878 253.387V257.773C76.4878 258.118 76.7673 258.396 77.1118 258.396Z" fill="#F6F3EB"/>
<path d="M74.7256 259.273L76.6992 257.3C76.9337 257.066 77.3482 257.066 77.5827 257.3L79.5562 259.273C79.8002 259.517 79.8002 259.912 79.5562 260.156L77.5827 262.13C77.4613 262.252 77.3001 262.312 77.1409 262.312C76.9818 262.312 76.8216 262.252 76.6992 262.13L74.7256 260.156C74.4827 259.912 74.4827 259.517 74.7256 259.273Z" fill="#F6F3EB"/>
</g>
<g opacity="0.8">
<path d="M249.22 257.595C249.38 257.595 249.539 257.533 249.661 257.412C249.906 257.169 249.906 256.773 249.661 256.529L247.873 254.741C247.63 254.497 247.234 254.497 246.99 254.741C246.746 254.985 246.746 255.38 246.99 255.624L248.778 257.412C248.901 257.533 249.06 257.595 249.22 257.595Z" fill="#F6F3EB"/>
<path d="M245.458 253.833C245.617 253.833 245.776 253.772 245.899 253.649C246.143 253.405 246.143 253.011 245.899 252.768L244.11 250.98C243.866 250.736 243.472 250.736 243.228 250.98C242.984 251.223 242.984 251.618 243.228 251.861L245.016 253.649C245.139 253.772 245.298 253.833 245.458 253.833Z" fill="#F6F3EB"/>
<path d="M247.463 253.863C247.622 253.863 247.781 253.803 247.903 253.682L249.66 251.923C249.905 251.68 249.905 251.285 249.66 251.04C249.417 250.797 249.022 250.797 248.778 251.04L247.021 252.798C246.777 253.042 246.777 253.437 247.021 253.682C247.142 253.803 247.301 253.863 247.463 253.863Z" fill="#F6F3EB"/>
<path d="M243.67 257.656C243.829 257.656 243.988 257.594 244.11 257.473L245.93 255.653C246.173 255.41 246.173 255.015 245.93 254.772C245.685 254.527 245.29 254.527 245.047 254.772L243.228 256.59C242.984 256.834 242.984 257.229 243.228 257.473C243.349 257.594 243.508 257.656 243.67 257.656Z" fill="#F6F3EB"/>
<path d="M240.054 254.85H244.503C244.847 254.85 245.127 254.569 245.127 254.225C245.127 253.88 244.847 253.601 244.503 253.601H240.054C239.71 253.601 239.431 253.88 239.431 254.225C239.431 254.569 239.71 254.85 240.054 254.85Z" fill="#F6F3EB"/>
<path d="M248.386 254.85H252.773C253.117 254.85 253.397 254.569 253.397 254.225C253.397 253.88 253.117 253.601 252.773 253.601H248.386C248.042 253.601 247.762 253.88 247.762 254.225C247.762 254.569 248.042 254.85 248.386 254.85Z" fill="#F6F3EB"/>
<path d="M246.414 261.211C246.758 261.211 247.037 260.931 247.037 260.587V256.136C247.037 255.792 246.758 255.514 246.414 255.514C246.07 255.514 245.79 255.792 245.79 256.136V260.587C245.79 260.931 246.07 261.211 246.414 261.211Z" fill="#F6F3EB"/>
<path d="M246.414 252.876C246.758 252.876 247.037 252.598 247.037 252.252V247.867C247.037 247.522 246.758 247.242 246.414 247.242C246.07 247.242 245.79 247.522 245.79 247.867V252.252C245.79 252.598 246.07 252.876 246.414 252.876Z" fill="#F6F3EB"/>
<path d="M244.028 253.754L246.002 251.78C246.236 251.547 246.651 251.547 246.885 251.78L248.859 253.754C249.103 253.998 249.103 254.392 248.859 254.636L246.885 256.611C246.764 256.732 246.603 256.793 246.444 256.793C246.285 256.793 246.124 256.732 246.002 256.611L244.028 254.636C243.785 254.392 243.785 253.998 244.028 253.754Z" fill="#F6F3EB"/>
</g>
<g opacity="0.8">
<path d="M269.463 288.877C269.623 288.877 269.782 288.816 269.903 288.694C270.148 288.451 270.148 288.056 269.903 287.812L268.115 286.024C267.872 285.78 267.477 285.78 267.233 286.024C266.989 286.267 266.989 286.662 267.233 286.906L269.021 288.694C269.143 288.816 269.303 288.877 269.463 288.877Z" fill="#F6F3EB"/>
<path d="M265.701 285.115C265.861 285.115 266.02 285.055 266.142 284.932C266.386 284.688 266.386 284.293 266.142 284.051L264.354 282.262C264.11 282.018 263.715 282.018 263.472 282.262C263.228 282.505 263.228 282.901 263.472 283.144L265.26 284.932C265.382 285.055 265.541 285.115 265.701 285.115Z" fill="#F6F3EB"/>
<path d="M267.706 285.145C267.866 285.145 268.025 285.085 268.147 284.963L269.904 283.205C270.149 282.962 270.149 282.567 269.904 282.322C269.661 282.079 269.265 282.079 269.021 282.322L267.264 284.08C267.021 284.324 267.021 284.718 267.264 284.963C267.386 285.085 267.545 285.145 267.706 285.145Z" fill="#F6F3EB"/>
<path d="M263.913 288.939C264.072 288.939 264.232 288.877 264.354 288.756L266.174 286.936C266.417 286.692 266.417 286.298 266.174 286.055C265.929 285.81 265.534 285.81 265.291 286.055L263.472 287.873C263.228 288.117 263.228 288.512 263.472 288.756C263.593 288.877 263.752 288.939 263.913 288.939Z" fill="#F6F3EB"/>
<path d="M260.297 286.133H264.745C265.09 286.133 265.369 285.852 265.369 285.508C265.369 285.163 265.09 284.884 264.745 284.884H260.297C259.952 284.884 259.674 285.163 259.674 285.508C259.674 285.852 259.952 286.133 260.297 286.133Z" fill="#F6F3EB"/>
<path d="M268.629 286.133H273.016C273.36 286.133 273.64 285.852 273.64 285.508C273.64 285.163 273.36 284.884 273.016 284.884H268.629C268.284 284.884 268.005 285.163 268.005 285.508C268.005 285.852 268.284 286.133 268.629 286.133Z" fill="#F6F3EB"/>
<path d="M266.658 292.494C267.002 292.494 267.281 292.214 267.281 291.87V287.419C267.281 287.075 267.002 286.796 266.658 286.796C266.313 286.796 266.034 287.075 266.034 287.419V291.87C266.034 292.214 266.313 292.494 266.658 292.494Z" fill="#F6F3EB"/>
<path d="M266.658 284.159C267.002 284.159 267.281 283.881 267.281 283.535V279.15C267.281 278.805 267.002 278.525 266.658 278.525C266.313 278.525 266.034 278.805 266.034 279.15V283.535C266.034 283.881 266.313 284.159 266.658 284.159Z" fill="#F6F3EB"/>
<path d="M264.272 285.035L266.245 283.062C266.48 282.829 266.894 282.829 267.129 283.062L269.102 285.035C269.346 285.279 269.346 285.674 269.102 285.918L267.129 287.893C267.007 288.014 266.846 288.075 266.687 288.075C266.528 288.075 266.368 288.014 266.245 287.893L264.272 285.918C264.029 285.674 264.029 285.279 264.272 285.035Z" fill="#F6F3EB"/>
</g>
<g opacity="0.8">
<path d="M197.693 334.884C197.853 334.884 198.012 334.822 198.134 334.701C198.379 334.458 198.379 334.062 198.134 333.818L196.346 332.03C196.103 331.786 195.707 331.786 195.463 332.03C195.219 332.274 195.219 332.668 195.463 332.912L197.251 334.701C197.374 334.822 197.533 334.884 197.693 334.884Z" fill="#F6F3EB"/>
<path d="M193.931 331.122C194.091 331.122 194.25 331.061 194.372 330.938C194.616 330.694 194.616 330.3 194.372 330.057L192.584 328.269C192.34 328.025 191.945 328.025 191.702 328.269C191.458 328.512 191.458 328.907 191.702 329.15L193.49 330.938C193.612 331.061 193.771 331.122 193.931 331.122Z" fill="#F6F3EB"/>
<path d="M195.935 331.152C196.095 331.152 196.254 331.092 196.376 330.971L198.133 329.212C198.378 328.969 198.378 328.574 198.133 328.329C197.89 328.086 197.494 328.086 197.25 328.329L195.493 330.087C195.25 330.331 195.25 330.726 195.493 330.971C195.615 331.092 195.774 331.152 195.935 331.152Z" fill="#F6F3EB"/>
<path d="M192.143 334.946C192.302 334.946 192.462 334.884 192.584 334.763L194.404 332.943C194.646 332.699 194.646 332.304 194.404 332.061C194.159 331.817 193.764 331.817 193.521 332.061L191.702 333.88C191.458 334.124 191.458 334.519 191.702 334.763C191.823 334.884 191.982 334.946 192.143 334.946Z" fill="#F6F3EB"/>
<path d="M188.527 332.139H192.976C193.32 332.139 193.6 331.858 193.6 331.514C193.6 331.169 193.32 330.89 192.976 330.89H188.527C188.183 330.89 187.904 331.169 187.904 331.514C187.904 331.858 188.183 332.139 188.527 332.139Z" fill="#F6F3EB"/>
<path d="M196.859 332.139H201.246C201.59 332.139 201.869 331.858 201.869 331.514C201.869 331.169 201.59 330.89 201.246 330.89H196.859C196.514 330.89 196.235 331.169 196.235 331.514C196.235 331.858 196.514 332.139 196.859 332.139Z" fill="#F6F3EB"/>
<path d="M194.888 338.5C195.232 338.5 195.511 338.22 195.511 337.876V333.426C195.511 333.081 195.232 332.803 194.888 332.803C194.543 332.803 194.264 333.081 194.264 333.426V337.876C194.264 338.22 194.543 338.5 194.888 338.5Z" fill="#F6F3EB"/>
<path d="M194.888 330.166C195.232 330.166 195.511 329.887 195.511 329.542V325.156C195.511 324.812 195.232 324.531 194.888 324.531C194.543 324.531 194.264 324.812 194.264 325.156V329.542C194.264 329.887 194.543 330.166 194.888 330.166Z" fill="#F6F3EB"/>
<path d="M192.502 331.042L194.475 329.069C194.71 328.835 195.124 328.835 195.359 329.069L197.332 331.042C197.576 331.286 197.576 331.681 197.332 331.925L195.359 333.899C195.237 334.021 195.076 334.082 194.917 334.082C194.758 334.082 194.598 334.021 194.475 333.899L192.502 331.925C192.259 331.681 192.259 331.286 192.502 331.042Z" fill="#F6F3EB"/>
</g>
<g opacity="0.8">
<path d="M98.3206 336.724C98.4808 336.724 98.6399 336.662 98.7614 336.54C99.0064 336.298 99.0064 335.902 98.7614 335.658L96.9732 333.87C96.7303 333.626 96.3346 333.626 96.0907 333.87C95.8467 334.114 95.8467 334.508 96.0907 334.752L97.8788 336.54C98.0013 336.662 98.1604 336.724 98.3206 336.724Z" fill="#F6F3EB"/>
<path d="M94.5589 332.961C94.718 332.961 94.8772 332.901 94.9996 332.778C95.2436 332.534 95.2436 332.14 94.9996 331.897L93.2115 330.109C92.9675 329.865 92.5729 329.865 92.3289 330.109C92.085 330.351 92.085 330.747 92.3289 330.99L94.1171 332.778C94.2396 332.901 94.3987 332.961 94.5589 332.961Z" fill="#F6F3EB"/>
<path d="M96.5638 332.991C96.7229 332.991 96.8821 332.932 97.0046 332.81L98.7612 331.051C99.0062 330.808 99.0062 330.414 98.7612 330.169C98.5183 329.926 98.1226 329.926 97.8787 330.169L96.1219 331.926C95.878 332.17 95.878 332.565 96.1219 332.81C96.2434 332.932 96.4026 332.991 96.5638 332.991Z" fill="#F6F3EB"/>
<path d="M92.7707 336.786C92.9299 336.786 93.089 336.724 93.2115 336.602L95.031 334.783C95.2739 334.539 95.2739 334.144 95.031 333.901C94.7861 333.656 94.3914 333.656 94.1485 333.901L92.3289 335.72C92.085 335.964 92.085 336.358 92.3289 336.602C92.4504 336.724 92.6095 336.786 92.7707 336.786Z" fill="#F6F3EB"/>
<path d="M89.1547 333.979H93.6031C93.9476 333.979 94.2271 333.698 94.2271 333.354C94.2271 333.01 93.9476 332.73 93.6031 332.73H89.1547C88.8102 332.73 88.5317 333.01 88.5317 333.354C88.5317 333.698 88.8102 333.979 89.1547 333.979Z" fill="#F6F3EB"/>
<path d="M97.4877 333.979H101.874C102.219 333.979 102.498 333.698 102.498 333.354C102.498 333.01 102.219 332.73 101.874 332.73H97.4877C97.1433 332.73 96.8638 333.01 96.8638 333.354C96.8638 333.698 97.1433 333.979 97.4877 333.979Z" fill="#F6F3EB"/>
<path d="M95.5151 340.34C95.8595 340.34 96.138 340.06 96.138 339.716V335.265C96.138 334.921 95.8595 334.642 95.5151 334.642C95.1706 334.642 94.8911 334.921 94.8911 335.265V339.716C94.8911 340.06 95.1706 340.34 95.5151 340.34Z" fill="#F6F3EB"/>
<path d="M95.5151 332.006C95.8595 332.006 96.138 331.727 96.138 331.382V326.996C96.138 326.652 95.8595 326.371 95.5151 326.371C95.1706 326.371 94.8911 326.652 94.8911 326.996V331.382C94.8911 331.727 95.1706 332.006 95.5151 332.006Z" fill="#F6F3EB"/>
<path d="M93.1299 332.883L95.1035 330.909C95.338 330.676 95.7525 330.676 95.987 330.909L97.9605 332.883C98.2045 333.127 98.2045 333.521 97.9605 333.765L95.987 335.74C95.8656 335.861 95.7044 335.922 95.5452 335.922C95.3861 335.922 95.2259 335.861 95.1035 335.74L93.1299 333.765C92.887 333.521 92.887 333.127 93.1299 332.883Z" fill="#F6F3EB"/>
<g opacity="0.8">
<path d="M48.6341 226.31C48.7943 226.31 48.9534 226.248 49.0748 226.127C49.3198 225.884 49.3198 225.488 49.0748 225.244L47.2867 223.456C47.0438 223.212 46.6481 223.212 46.4041 223.456C46.1602 223.7 46.1602 224.095 46.4041 224.339L48.1923 226.127C48.3148 226.248 48.4739 226.31 48.6341 226.31Z" fill="#F6F3EB"/>
<path d="M44.8724 222.547C45.0315 222.547 45.1906 222.486 45.3131 222.364C45.5571 222.12 45.5571 221.725 45.3131 221.482L43.525 219.694C43.281 219.45 42.8864 219.45 42.6424 219.694C42.3985 219.937 42.3985 220.333 42.6424 220.576L44.4306 222.364C44.5531 222.486 44.7122 222.547 44.8724 222.547Z" fill="#F6F3EB"/>
<path d="M46.8773 222.577C47.0364 222.577 47.1955 222.517 47.318 222.396L49.0747 220.637C49.3197 220.394 49.3197 220 49.0747 219.755C48.8318 219.512 48.4361 219.512 48.1922 219.755L46.4354 221.512C46.1915 221.756 46.1915 222.151 46.4354 222.396C46.5568 222.517 46.716 222.577 46.8773 222.577Z" fill="#F6F3EB"/>
<path d="M43.0842 226.371C43.2433 226.371 43.4025 226.309 43.525 226.187L45.3445 224.368C45.5874 224.124 45.5874 223.729 45.3445 223.486C45.0995 223.241 44.7049 223.241 44.462 223.486L42.6424 225.305C42.3985 225.549 42.3985 225.943 42.6424 226.187C42.7639 226.309 42.923 226.371 43.0842 226.371Z" fill="#F6F3EB"/>
<path d="M39.4682 223.565H43.9166C44.261 223.565 44.5406 223.284 44.5406 222.94C44.5406 222.595 44.261 222.316 43.9166 222.316H39.4682C39.1237 222.316 38.8452 222.595 38.8452 222.94C38.8452 223.284 39.1237 223.565 39.4682 223.565Z" fill="#F6F3EB"/>
<path d="M47.8002 223.565H52.1869C52.5314 223.565 52.8109 223.284 52.8109 222.94C52.8109 222.595 52.5314 222.316 52.1869 222.316H47.8002C47.4558 222.316 47.1763 222.595 47.1763 222.94C47.1763 223.284 47.4558 223.565 47.8002 223.565Z" fill="#F6F3EB"/>
<path d="M45.8286 229.925C46.173 229.925 46.4515 229.646 46.4515 229.301V224.851C46.4515 224.506 46.173 224.228 45.8286 224.228C45.4841 224.228 45.2046 224.506 45.2046 224.851V229.301C45.2046 229.646 45.4841 229.925 45.8286 229.925Z" fill="#F6F3EB"/>
<path d="M45.8286 221.591C46.173 221.591 46.4515 221.312 46.4515 220.967V216.581C46.4515 216.237 46.173 215.956 45.8286 215.956C45.4841 215.956 45.2046 216.237 45.2046 216.581V220.967C45.2046 221.312 45.4841 221.591 45.8286 221.591Z" fill="#F6F3EB"/>
<path d="M43.4424 222.468L45.416 220.495C45.6505 220.261 46.065 220.261 46.2995 220.495L48.273 222.468C48.517 222.712 48.517 223.107 48.273 223.351L46.2995 225.325C46.1781 225.447 46.0169 225.507 45.8577 225.507C45.6986 225.507 45.5384 225.447 45.416 225.325L43.4424 223.351C43.1995 223.107 43.1995 222.712 43.4424 222.468Z" fill="#F6F3EB"/>
</g>
<g opacity="0.8">
<path d="M265.784 211.587C265.945 211.587 266.104 211.526 266.225 211.404C266.47 211.161 266.47 210.766 266.225 210.522L264.437 208.733C264.194 208.49 263.798 208.49 263.555 208.733C263.311 208.977 263.311 209.372 263.555 209.616L265.343 211.404C265.465 211.526 265.624 211.587 265.784 211.587Z" fill="#F6F3EB"/>
<path d="M262.022 207.825C262.181 207.825 262.34 207.764 262.463 207.641C262.706 207.398 262.706 207.003 262.463 206.76L260.674 204.972C260.43 204.728 260.036 204.728 259.792 204.972C259.548 205.215 259.548 205.61 259.792 205.853L261.58 207.641C261.702 207.764 261.862 207.825 262.022 207.825Z" fill="#F6F3EB"/>
<path d="M264.027 207.855C264.186 207.855 264.345 207.795 264.468 207.674L266.225 205.915C266.47 205.672 266.47 205.277 266.225 205.032C265.982 204.79 265.586 204.79 265.342 205.032L263.585 206.79C263.341 207.034 263.341 207.429 263.585 207.674C263.707 207.795 263.866 207.855 264.027 207.855Z" fill="#F6F3EB"/>
<path d="M260.234 211.648C260.393 211.648 260.552 211.587 260.674 211.465L262.494 209.646C262.737 209.402 262.737 209.007 262.494 208.764C262.249 208.519 261.854 208.519 261.611 208.764L259.792 210.583C259.548 210.827 259.548 211.221 259.792 211.465C259.913 211.587 260.072 211.648 260.234 211.648Z" fill="#F6F3EB"/>
<path d="M256.619 208.842H261.067C261.411 208.842 261.691 208.561 261.691 208.217C261.691 207.872 261.411 207.593 261.067 207.593H256.619C256.274 207.593 255.996 207.872 255.996 208.217C255.996 208.561 256.274 208.842 256.619 208.842Z" fill="#F6F3EB"/>
<path d="M264.951 208.842H269.337C269.682 208.842 269.961 208.561 269.961 208.217C269.961 207.872 269.682 207.593 269.337 207.593H264.951C264.606 207.593 264.327 207.872 264.327 208.217C264.327 208.561 264.606 208.842 264.951 208.842Z" fill="#F6F3EB"/>
<path d="M262.978 215.203C263.322 215.203 263.601 214.924 263.601 214.579V210.129C263.601 209.784 263.322 209.506 262.978 209.506C262.634 209.506 262.354 209.784 262.354 210.129V214.579C262.354 214.924 262.634 215.203 262.978 215.203Z" fill="#F6F3EB"/>
<path d="M262.978 206.869C263.322 206.869 263.601 206.59 263.601 206.245V201.859C263.601 201.515 263.322 201.234 262.978 201.234C262.634 201.234 262.354 201.515 262.354 201.859V206.245C262.354 206.59 262.634 206.869 262.978 206.869Z" fill="#F6F3EB"/>
<path d="M260.594 207.746L262.568 205.772C262.802 205.539 263.217 205.539 263.451 205.772L265.425 207.746C265.669 207.99 265.669 208.385 265.425 208.628L263.451 210.603C263.33 210.724 263.169 210.785 263.01 210.785C262.85 210.785 262.69 210.724 262.568 210.603L260.594 208.628C260.351 208.385 260.351 207.99 260.594 207.746Z" fill="#F6F3EB"/>
</g>
<g opacity="0.8">
<path d="M146.167 106.692C146.327 106.692 146.487 106.631 146.608 106.509C146.853 106.266 146.853 105.871 146.608 105.627L144.82 103.838C144.577 103.595 144.181 103.595 143.937 103.838C143.693 104.082 143.693 104.477 143.937 104.721L145.726 106.509C145.848 106.631 146.007 106.692 146.167 106.692Z" fill="#F6F3EB"/>
<path d="M142.406 102.93C142.565 102.93 142.724 102.869 142.847 102.746C143.091 102.503 143.091 102.108 142.847 101.865L141.059 100.077C140.815 99.8329 140.42 99.8329 140.176 100.077C139.932 100.32 139.932 100.715 140.176 100.958L141.964 102.746C142.087 102.869 142.246 102.93 142.406 102.93Z" fill="#F6F3EB"/>
<path d="M144.411 102.959C144.57 102.959 144.729 102.9 144.852 102.778L146.608 101.02C146.853 100.777 146.853 100.382 146.608 100.137C146.366 99.8941 145.97 99.8941 145.726 100.137L143.969 101.895C143.725 102.139 143.725 102.533 143.969 102.778C144.091 102.9 144.25 102.959 144.411 102.959Z" fill="#F6F3EB"/>
<path d="M140.618 106.754C140.777 106.754 140.936 106.693 141.059 106.571L142.878 104.752C143.121 104.508 143.121 104.113 142.878 103.87C142.633 103.625 142.239 103.625 141.996 103.87L140.176 105.689C139.932 105.933 139.932 106.327 140.176 106.571C140.298 106.693 140.457 106.754 140.618 106.754Z" fill="#F6F3EB"/>
<path d="M137.001 103.948H141.45C141.794 103.948 142.074 103.667 142.074 103.323C142.074 102.978 141.794 102.699 141.45 102.699H137.001C136.657 102.699 136.378 102.978 136.378 103.323C136.378 103.667 136.657 103.948 137.001 103.948Z" fill="#F6F3EB"/>
<path d="M145.333 103.948H149.72C150.065 103.948 150.344 103.667 150.344 103.323C150.344 102.978 150.065 102.699 149.72 102.699H145.333C144.989 102.699 144.709 102.978 144.709 103.323C144.709 103.667 144.989 103.948 145.333 103.948Z" fill="#F6F3EB"/>
<path d="M143.362 110.308C143.707 110.308 143.985 110.029 143.985 109.684V105.234C143.985 104.889 143.707 104.611 143.362 104.611C143.018 104.611 142.738 104.889 142.738 105.234V109.684C142.738 110.029 143.018 110.308 143.362 110.308Z" fill="#F6F3EB"/>
<path d="M143.362 101.974C143.707 101.974 143.985 101.696 143.985 101.35V96.9645C143.985 96.6201 143.707 96.3395 143.362 96.3395C143.018 96.3395 142.738 96.6201 142.738 96.9645V101.35C142.738 101.696 143.018 101.974 143.362 101.974Z" fill="#F6F3EB"/>
<path d="M140.978 102.852L142.952 100.878C143.186 100.645 143.601 100.645 143.835 100.878L145.809 102.852C146.053 103.096 146.053 103.491 145.809 103.734L143.835 105.709C143.714 105.83 143.553 105.891 143.393 105.891C143.234 105.891 143.074 105.83 142.952 105.709L140.978 103.734C140.735 103.491 140.735 103.096 140.978 102.852Z" fill="#F6F3EB"/>
</g>
<g opacity="0.8">
<path d="M212.417 71.7278C212.577 71.7278 212.736 71.666 212.858 71.5446C213.103 71.3017 213.103 70.9059 212.858 70.662L211.069 68.8738C210.827 68.6299 210.431 68.6299 210.187 68.8738C209.943 69.1178 209.943 69.5125 210.187 69.7564L211.975 71.5446C212.098 71.666 212.257 71.7278 212.417 71.7278Z" fill="#F6F3EB"/>
<path d="M208.654 67.9658C208.813 67.9658 208.972 67.9051 209.095 67.7826C209.339 67.5387 209.339 67.144 209.095 66.9011L207.307 65.1129C207.063 64.869 206.668 64.869 206.424 65.1129C206.18 65.3558 206.18 65.7516 206.424 65.9945L208.212 67.7826C208.335 67.9051 208.494 67.9658 208.654 67.9658Z" fill="#F6F3EB"/>
<path d="M210.659 67.9951C210.819 67.9951 210.978 67.9354 211.1 67.814L212.857 66.0551C213.102 65.8123 213.102 65.4176 212.857 65.1726C212.614 64.9297 212.218 64.9297 211.974 65.1726L210.218 66.9304C209.974 67.1743 209.974 67.569 210.218 67.814C210.339 67.9354 210.498 67.9951 210.659 67.9951Z" fill="#F6F3EB"/>
<path d="M206.866 71.7898C207.025 71.7898 207.184 71.728 207.307 71.6066L209.126 69.787C209.369 69.5431 209.369 69.1484 209.126 68.9055C208.881 68.6605 208.487 68.6605 208.244 68.9055L206.424 70.724C206.18 70.968 206.18 71.3626 206.424 71.6066C206.546 71.728 206.705 71.7898 206.866 71.7898Z" fill="#F6F3EB"/>
<path d="M203.251 68.9829H207.699C208.044 68.9829 208.323 68.7023 208.323 68.3579C208.323 68.0135 208.044 67.7339 207.699 67.7339H203.251C202.906 67.7339 202.628 68.0135 202.628 68.3579C202.628 68.7023 202.906 68.9829 203.251 68.9829Z" fill="#F6F3EB"/>
<path d="M211.583 68.9829H215.97C216.314 68.9829 216.594 68.7023 216.594 68.3579C216.594 68.0135 216.314 67.7339 215.97 67.7339H211.583C211.239 67.7339 210.959 68.0135 210.959 68.3579C210.959 68.7023 211.239 68.9829 211.583 68.9829Z" fill="#F6F3EB"/>
<path d="M209.61 75.3433C209.955 75.3433 210.233 75.0637 210.233 74.7193V70.2688C210.233 69.9243 209.955 69.6459 209.61 69.6459C209.266 69.6459 208.986 69.9243 208.986 70.2688V74.7193C208.986 75.0637 209.266 75.3433 209.61 75.3433Z" fill="#F6F3EB"/>
<path d="M209.61 67.0093C209.955 67.0093 210.233 66.7308 210.233 66.3853V61.9997C210.233 61.6553 209.955 61.3747 209.61 61.3747C209.266 61.3747 208.986 61.6553 208.986 61.9997V66.3853C208.986 66.7308 209.266 67.0093 209.61 67.0093Z" fill="#F6F3EB"/>
<path d="M207.225 67.886L209.199 65.9126C209.433 65.6791 209.848 65.6791 210.082 65.9126L212.056 67.886C212.3 68.13 212.3 68.5247 212.056 68.7686L210.082 70.7431C209.961 70.8646 209.8 70.9253 209.64 70.9253C209.481 70.9253 209.321 70.8646 209.199 70.7431L207.225 68.7686C206.982 68.5247 206.982 68.13 207.225 67.886Z" fill="#F6F3EB"/>
</g>
<g opacity="0.8">
<path d="M87.2811 71.7278C87.4412 71.7278 87.6004 71.666 87.7218 71.5446C87.9668 71.3017 87.9668 70.9059 87.7218 70.662L85.9336 68.8738C85.6908 68.6299 85.2951 68.6299 85.0511 68.8738C84.8072 69.1178 84.8072 69.5125 85.0511 69.7564L86.8393 71.5446C86.9618 71.666 87.1209 71.7278 87.2811 71.7278Z" fill="#F6F3EB"/>
<path d="M83.5184 67.9658C83.6775 67.9658 83.8366 67.9051 83.9591 67.7826C84.2031 67.5387 84.2031 67.144 83.9591 66.9011L82.171 65.1129C81.927 64.869 81.5324 64.869 81.2884 65.1129C81.0445 65.3558 81.0445 65.7516 81.2884 65.9945L83.0766 67.7826C83.1991 67.9051 83.3582 67.9658 83.5184 67.9658Z" fill="#F6F3EB"/>
<path d="M85.5238 67.9951C85.6829 67.9951 85.842 67.9354 85.9645 67.814L87.7212 66.0551C87.9662 65.8123 87.9662 65.4176 87.7212 65.1726C87.4783 64.9297 87.0826 64.9297 86.8387 65.1726L85.0819 66.9304C84.8379 67.1743 84.8379 67.569 85.0819 67.814C85.2033 67.9354 85.3625 67.9951 85.5238 67.9951Z" fill="#F6F3EB"/>
<path d="M81.7302 71.7898C81.8893 71.7898 82.0485 71.728 82.171 71.6066L83.9905 69.787C84.2334 69.5431 84.2334 69.1484 83.9905 68.9055C83.7455 68.6605 83.3509 68.6605 83.108 68.9055L81.2884 70.724C81.0445 70.968 81.0445 71.3626 81.2884 71.6066C81.4099 71.728 81.569 71.7898 81.7302 71.7898Z" fill="#F6F3EB"/>
<path d="M78.1151 68.9829H82.5636C82.908 68.9829 83.1875 68.7023 83.1875 68.3579C83.1875 68.0135 82.908 67.7339 82.5636 67.7339H78.1151C77.7707 67.7339 77.4922 68.0135 77.4922 68.3579C77.4922 68.7023 77.7707 68.9829 78.1151 68.9829Z" fill="#F6F3EB"/>
<path d="M86.4472 68.9829H90.8339C91.1783 68.9829 91.4579 68.7023 91.4579 68.3579C91.4579 68.0135 91.1783 67.7339 90.8339 67.7339H86.4472C86.1028 67.7339 85.8232 68.0135 85.8232 68.3579C85.8232 68.7023 86.1028 68.9829 86.4472 68.9829Z" fill="#F6F3EB"/>
<path d="M84.4746 75.3433C84.819 75.3433 85.0975 75.0637 85.0975 74.7193V70.2688C85.0975 69.9243 84.819 69.6459 84.4746 69.6459C84.1301 69.6459 83.8506 69.9243 83.8506 70.2688V74.7193C83.8506 75.0637 84.1301 75.3433 84.4746 75.3433Z" fill="#F6F3EB"/>
<path d="M84.4746 67.0093C84.819 67.0093 85.0975 66.7308 85.0975 66.3853V61.9997C85.0975 61.6553 84.819 61.3747 84.4746 61.3747C84.1301 61.3747 83.8506 61.6553 83.8506 61.9997V66.3853C83.8506 66.7308 84.1301 67.0093 84.4746 67.0093Z" fill="#F6F3EB"/>
<path d="M82.0894 67.886L84.0629 65.9126C84.2974 65.6791 84.712 65.6791 84.9465 65.9126L86.92 67.886C87.1639 68.13 87.1639 68.5247 86.92 68.7686L84.9465 70.7431C84.825 70.8646 84.6638 70.9253 84.5047 70.9253C84.3456 70.9253 84.1854 70.8646 84.0629 70.7431L82.0894 68.7686C81.8465 68.5247 81.8465 68.13 82.0894 67.886Z" fill="#F6F3EB"/>
</g>
</g>
<path d="M269.162 107.385L262.692 88.2043L263.271 72.5288L273.331 89.6806L269.162 107.385ZM253.638 118.227L256.59 108.196L256.578 107.889L256.705 107.831L249.873 93.0291L258.386 100.21L258.875 100.31L259.226 99.9549L262.125 89.8052L268.706 109.303L253.638 118.227ZM263.136 132.991L253.686 119.415L268.38 110.709L263.136 132.991ZM230.812 122.841L242.311 119.119L252.659 119.766L262.151 133.407L230.812 122.841ZM246.858 133.885L246.708 133.908L207.96 145.777L229.365 123.453L260.299 133.884L246.858 133.885ZM204.146 131.468L227.471 123.922L206.365 145.931L204.146 131.468ZM188.492 148.642L194.791 142.695L194.954 142.355L196.067 128.022L205.155 146.503L188.492 148.642ZM190.447 167.405L187.521 149.821L204.858 147.594L190.447 167.405ZM196.692 200.14H161.013L189.896 180.041L196.692 200.14ZM206.144 169.524H219.986L205.78 175.773L205.551 175.968L195.115 192.21L190.795 179.435L206.144 169.524ZM222.678 169.479L222.819 169.392L238.777 154.972L235.974 168.671L196.591 191.845L206.345 176.667L222.68 169.483L222.678 169.479ZM233.227 182.095L198.709 191.811L235.693 170.049L233.227 182.095ZM216.385 192.536L198.983 192.819L230.213 184.029L216.385 192.536ZM197.739 199.974L195.691 193.918L213.695 193.625L197.739 199.974ZM196.899 213.42L159.869 263.963V241.36L178.731 201.185H196.899V213.42ZM171.758 281.017L160.03 265.51L195.619 216.935L171.758 281.017ZM198.904 287.806L179.02 311.562L182.53 255.079L188.647 238.654L198.904 287.806ZM150.425 345.727L166.102 290.218L169.956 288.42L170.225 288.129L181.275 258.453L177.889 312.913L150.425 345.727ZM149.258 346.012L133.666 290.801L149.037 297.976L149.258 298.021L149.479 297.976L164.852 290.801L149.258 346.012ZM125.192 323.124L120.872 268.199L128.293 288.129L128.56 288.421L132.416 290.218L148.211 346.149L125.192 323.124ZM110.251 308.181V239.677L119.544 264.632L124.055 321.987L110.251 308.181ZM102.907 216.959L138.37 265.556L126.758 281.011L102.907 216.959ZM101.619 201.185H119.725L138.498 241.292V263.957L101.619 213.42V201.185ZM84.7128 193.58L102.933 193.597L100.777 199.973L84.7128 193.58ZM68.0978 183.903L99.2482 192.55L82.1268 192.533L68.0978 183.903ZM62.7952 169.911L99.9836 191.67L65.2767 182.037L62.7952 169.911ZM62.5241 168.583L59.7392 154.972L75.6972 169.392L76.0486 169.525H76.1368L92.3721 176.666L101.79 191.518L62.5418 168.553L62.5241 168.583ZM92.3745 169.525L107.722 179.435L103.426 192.146L93.1702 175.973L92.9389 175.774L78.7331 169.525L92.3745 169.525ZM108.62 180.044L137.363 200.141H101.824L108.62 180.044ZM93.6625 147.601L110.955 149.822L108.037 167.36L93.6625 147.601ZM102.443 127.948L103.562 142.356L103.725 142.695L110.033 148.649L93.317 146.504L102.443 127.948ZM92.1696 145.803L71.2546 123.991L94.3698 131.469L92.1696 145.803ZM51.8104 133.91L51.6578 133.887H38.3621L69.2955 123.456L90.7611 145.842L51.8104 133.91ZM46.0095 119.757L56.2068 119.12L67.7785 122.864L36.5095 133.407L46.0095 119.757ZM30.1139 110.611L44.9747 119.415L35.4184 133.148L30.1139 110.611ZM36.4532 90.0368L39.2904 99.9555L39.6401 100.311L40.1305 100.211L48.8811 92.8309L41.955 107.831L41.9664 107.837L41.9265 108.197L44.8461 118.126L29.951 109.304L36.4532 90.0368ZM25.187 89.6815L35.3803 72.2988L35.971 88.2052L29.4126 107.637L25.187 89.6815ZM34.7011 55.5487L41.8663 69.8723L36.9073 85.2926L36.3588 70.4689H36.3475L36.3588 70.429L34.7011 55.5487ZM50.7957 91.1278L50.8413 91.0492L53.5639 80.7107L56.3568 94.6828L43.9795 105.931L50.8111 91.1356L50.7957 91.1278ZM100.267 99.9216L102.284 125.903L93.558 143.646L100.267 99.9216ZM120.722 158.743L109.076 167.474L111.913 150.427L120.722 158.743ZM129.089 166.398L129.123 166.42L129.119 166.426L148.589 181.533L138.834 199.898L108.869 178.946V168.937L121.495 159.468L129.089 166.398ZM167.551 166.534L149.258 180.727L130.967 166.534H167.551ZM139.543 263.996V200.792L149.256 182.509L158.825 200.792V263.915L149.6 251.719L149.184 251.512H149.182L148.766 251.719L139.543 263.996ZM138.498 238.827L120.881 201.185H138.498V238.827ZM149.672 261.268C149.473 261.013 149.045 261.013 148.846 261.268L128.944 286.886L127.19 282.176L139.443 265.866L149.184 252.902L158.875 265.713L159.07 265.974L171.326 282.178L169.572 286.886L149.672 261.268ZM157.406 293.125L149.258 296.925L139.776 292.502L149.218 277.464L157.406 293.125ZM149.722 276.174C149.634 276.007 149.467 275.901 149.278 275.895C149.095 275.884 148.914 275.979 148.816 276.138L138.824 292.057L129.595 287.75L149.258 262.439L168.921 287.75L158.352 292.681L149.722 276.174ZM159.869 201.185H177.577L159.869 238.904V201.185ZM169.394 166.42L169.428 166.397L177.019 159.467L189.648 168.936V178.943L159.536 199.895L149.923 181.534L169.398 166.425L169.394 166.42ZM186.567 150.461L189.392 167.438L177.796 158.743L186.567 150.461ZM198.249 99.9217L204.979 143.772L196.226 125.978L198.249 99.9217ZM242.157 94.6831L244.952 80.711L247.674 91.0495L247.841 91.3149L247.988 91.4396L254.786 106.159L242.157 94.6831ZM256.65 69.8724L263.815 55.5488L262.162 70.4308L262.23 70.7519L262.288 70.8521L261.74 85.694L256.65 69.8724ZM263.343 70.5875L263.345 70.5072L263.294 70.5052L263.218 70.3748L265.177 52.755C265.205 52.5039 265.048 52.267 264.805 52.1947C264.56 52.1241 264.302 52.2346 264.19 52.464L255.62 69.5957L255.592 69.9892L261.475 88.2899L258.445 98.8915L248.84 90.7927L248.8 90.6965L248.755 90.7192L248.644 90.6247L245.389 78.2635C245.327 78.0284 245.12 77.8701 244.869 77.8758C244.625 77.8815 244.419 78.0569 244.373 78.2954L241.075 94.7683L241.236 95.2563L255.496 108.216L252.412 118.705L242.279 118.072L242.086 118.095L203.987 130.424L198.598 95.2871C198.558 95.032 198.339 94.8452 198.081 94.8452H198.059C197.793 94.8566 197.576 95.0622 197.559 95.3275L193.928 142.073L186.686 148.91L186.495 149.061L186.473 149.112L176.633 158.404L168.873 165.489H129.643L121.887 158.406L104.589 142.072L100.958 95.3268C100.935 95.0614 100.721 94.8548 100.456 94.8445H100.439C100.181 94.8445 99.9602 95.0313 99.9204 95.2863L94.5314 130.423L56.4328 118.094L56.2397 118.072L46.1088 118.704L43.0224 108.215L57.2826 95.2555L57.4432 94.7676L54.1479 78.2947C54.1023 78.0556 53.895 77.8808 53.6518 77.8751C53.4046 77.8694 53.1938 78.0277 53.1312 78.2628L49.8761 90.624L40.0726 98.8915L37.0426 88.2899L42.9259 69.9892L42.8974 69.5957L34.3277 52.464C34.2132 52.2368 33.954 52.1247 33.7108 52.1947C33.4699 52.267 33.3133 52.5039 33.3412 52.755L35.2982 70.3748L24.1807 89.3344L24.1226 89.7182L34.6695 134.527L34.7207 134.611L34.7606 134.722L34.821 134.761L34.9394 134.844L35.108 134.904L35.1781 134.927H51.5801L92.2084 147.373L107.825 168.841V178.256L92.8112 168.562L92.5282 168.478H76.2487L59.2599 153.128C59.093 152.977 58.8459 152.951 58.6491 153.061C58.4543 153.174 58.3518 153.399 58.3979 153.62L64.3294 182.614L64.5687 182.954L81.7061 193.497L81.7887 193.537L100.576 201.011V213.583L100.61 213.766L109.21 236.865V308.393L109.363 308.762L148.892 348.297L148.932 348.325L148.977 348.359L149.259 348.454H149.281L149.541 348.357L149.598 348.318L149.66 348.266L199.87 288.278L199.981 287.836L189.329 236.815L197.911 213.768L197.945 213.585V201.012L216.733 193.538L216.813 193.498L233.952 182.954L234.189 182.615L240.123 153.62C240.168 153.399 240.065 153.175 239.87 153.062C239.673 152.951 239.428 152.978 239.261 153.128L222.272 168.478H205.991L205.708 168.563L190.694 178.256V168.842L206.313 147.376L246.939 134.928H263.341L263.417 134.9C263.6 134.922 263.789 134.871 263.904 134.717L263.932 134.168L269.633 109.948C269.818 109.814 269.908 109.584 269.831 109.366L269.797 109.255L274.396 89.7132L274.34 89.3294L263.345 70.5828" fill="#F6F3EB"/>
<g opacity="0.8">
<path d="M38.5079 35.876C38.6948 35.876 38.8818 35.8063 39.0235 35.6622C39.3082 35.3787 39.3082 34.9181 39.0235 34.6335L35.2801 30.8913C34.9954 30.6066 34.5348 30.6066 34.2502 30.8913C33.9667 31.1748 33.9667 31.6353 34.2502 31.9212L37.9935 35.6622C38.1365 35.8063 38.3222 35.876 38.5079 35.876Z" fill="#F6F3EB"/>
<path d="M30.6355 28.0027C30.8225 28.0027 31.0094 27.9318 31.1511 27.7901C31.4345 27.5054 31.4345 27.0449 31.1511 26.7602L27.4077 23.0192C27.1243 22.7333 26.6637 22.7333 26.379 23.0192C26.0944 23.3027 26.0944 23.7632 26.379 24.0479L30.1212 27.7901C30.2629 27.9318 30.4498 28.0027 30.6355 28.0027Z" fill="#F6F3EB"/>
<path d="M34.8303 28.0684C35.016 28.0684 35.2029 27.9963 35.3459 27.8546L39.0234 24.1771C39.308 23.8924 39.308 23.4318 39.0234 23.1472C38.7387 22.8625 38.278 22.8625 37.9934 23.1472L34.316 26.8246C34.0301 27.1093 34.0301 27.5699 34.316 27.8546C34.4577 27.9963 34.6434 28.0684 34.8303 28.0684Z" fill="#F6F3EB"/>
<path d="M26.8946 36.0046C27.0803 36.0046 27.266 35.9337 27.4077 35.792L31.2159 31.9851C31.5005 31.7005 31.5005 31.2386 31.2159 30.9552C30.9312 30.6705 30.4705 30.6705 30.1859 30.9552L26.379 34.7621C26.0944 35.0456 26.0944 35.5061 26.379 35.792C26.522 35.9337 26.7076 36.0046 26.8946 36.0046Z" fill="#F6F3EB"/>
<path d="M19.3292 30.1311H28.6364C29.0383 30.1311 29.3645 29.8037 29.3645 29.4018C29.3645 28.9998 29.0383 28.6748 28.6364 28.6748H19.3292C18.9285 28.6748 18.6011 28.9998 18.6011 29.4018C18.6011 29.8037 18.9285 30.1311 19.3292 30.1311Z" fill="#F6F3EB"/>
<path d="M36.7648 30.1313H45.9425C46.3444 30.1313 46.6718 29.804 46.6718 29.402C46.6718 29.0001 46.3444 28.675 45.9425 28.675H36.7648C36.3628 28.675 36.0366 29.0001 36.0366 29.402C36.0366 29.804 36.3628 30.1313 36.7648 30.1313Z" fill="#F6F3EB"/>
<path d="M32.6359 43.4429C33.0378 43.4429 33.364 43.1179 33.364 42.7159V33.4039C33.364 33.0019 33.0378 32.6757 32.6359 32.6757C32.2339 32.6757 31.9077 33.0019 31.9077 33.4039V42.7159C31.9077 43.1179 32.2339 43.4429 32.6359 43.4429Z" fill="#F6F3EB"/>
<path d="M32.6359 26.0034C33.0378 26.0034 33.364 25.676 33.364 25.274V16.0976C33.364 15.6956 33.0378 15.3682 32.6359 15.3682C32.2339 15.3682 31.9077 15.6956 31.9077 16.0976V25.274C31.9077 25.676 32.2339 26.0034 32.6359 26.0034Z" fill="#F6F3EB"/>
<path d="M32.7004 26.2393L29.6008 29.3401L32.7004 32.4409L35.8024 29.3401L32.7004 26.2393ZM32.1872 33.9851L28.0566 29.8545C27.9185 29.7177 27.8428 29.5331 27.8428 29.3401C27.8428 29.1458 27.9185 28.9614 28.0566 28.8257L32.1872 24.695C32.4707 24.4104 32.9326 24.4104 33.216 24.695L37.3455 28.8257C37.6314 29.1092 37.6314 29.5698 37.3455 29.8545L33.216 33.9851C33.0792 34.122 32.8946 34.1978 32.7004 34.1978C32.5086 34.1978 32.3228 34.122 32.1872 33.9851Z" fill="#F6F3EB"/>
</g>
<g opacity="0.8">
<path d="M274.06 35.876C274.247 35.876 274.434 35.8063 274.575 35.6622C274.86 35.3787 274.86 34.9181 274.575 34.6335L270.832 30.8913C270.547 30.6066 270.087 30.6066 269.802 30.8913C269.518 31.1748 269.518 31.6353 269.802 31.9212L273.545 35.6622C273.688 35.8063 273.874 35.876 274.06 35.876Z" fill="#F6F3EB"/>
<path d="M266.188 28.0027C266.375 28.0027 266.562 27.9318 266.703 27.7901C266.987 27.5054 266.987 27.0449 266.703 26.7602L262.96 23.0192C262.677 22.7333 262.216 22.7333 261.931 23.0192C261.647 23.3027 261.647 23.7632 261.931 24.0479L265.673 27.7901C265.815 27.9318 266.002 28.0027 266.188 28.0027Z" fill="#F6F3EB"/>
<path d="M270.383 28.0684C270.569 28.0684 270.756 27.9963 270.899 27.8546L274.576 24.1771C274.861 23.8924 274.861 23.4318 274.576 23.1472C274.291 22.8625 273.831 22.8625 273.546 23.1472L269.869 26.8246C269.583 27.1093 269.583 27.5699 269.869 27.8546C270.01 27.9963 270.196 28.0684 270.383 28.0684Z" fill="#F6F3EB"/>
<path d="M262.447 36.0046C262.633 36.0046 262.818 35.9337 262.96 35.792L266.768 31.9851C267.053 31.7005 267.053 31.2386 266.768 30.9552C266.483 30.6705 266.023 30.6705 265.738 30.9552L261.931 34.7621C261.647 35.0456 261.647 35.5061 261.931 35.792C262.074 35.9337 262.26 36.0046 262.447 36.0046Z" fill="#F6F3EB"/>
<path d="M254.881 30.1311H264.189C264.591 30.1311 264.917 29.8037 264.917 29.4018C264.917 28.9998 264.591 28.6748 264.189 28.6748H254.881C254.481 28.6748 254.153 28.9998 254.153 29.4018C254.153 29.8037 254.481 30.1311 254.881 30.1311Z" fill="#F6F3EB"/>
<path d="M272.317 30.1313H281.495C281.897 30.1313 282.224 29.804 282.224 29.402C282.224 29.0001 281.897 28.675 281.495 28.675H272.317C271.915 28.675 271.589 29.0001 271.589 29.402C271.589 29.804 271.915 30.1313 272.317 30.1313Z" fill="#F6F3EB"/>
<path d="M268.188 43.4429C268.59 43.4429 268.916 43.1179 268.916 42.7159V33.4039C268.916 33.0019 268.59 32.6757 268.188 32.6757C267.786 32.6757 267.46 33.0019 267.46 33.4039V42.7159C267.46 43.1179 267.786 43.4429 268.188 43.4429Z" fill="#F6F3EB"/>
<path d="M268.188 26.0034C268.59 26.0034 268.916 25.676 268.916 25.274V16.0976C268.916 15.6956 268.59 15.3682 268.188 15.3682C267.786 15.3682 267.46 15.6956 267.46 16.0976V25.274C267.46 25.676 267.786 26.0034 268.188 26.0034Z" fill="#F6F3EB"/>
<path d="M268.251 26.2393L265.152 29.3401L268.251 32.4409L271.353 29.3401L268.251 26.2393ZM267.738 33.9851L263.607 29.8545C263.469 29.7177 263.394 29.5331 263.394 29.3401C263.394 29.1458 263.469 28.9614 263.607 28.8257L267.738 24.695C268.021 24.4104 268.483 24.4104 268.767 24.695L272.896 28.8257C273.182 29.1092 273.182 29.5698 272.896 29.8545L268.767 33.9851C268.63 34.122 268.445 34.1978 268.251 34.1978C268.059 34.1978 267.874 34.122 267.738 33.9851Z" fill="#F6F3EB"/>
</g>
</svg>
